G04 #@! TF.GenerationSoftware,KiCad,Pcbnew,9.0.7*
G04 #@! TF.CreationDate,2026-03-10T23:19:28-04:00*
G04 #@! TF.ProjectId,Capacitor-Clock-PCB,43617061-6369-4746-9f72-2d436c6f636b,rev?*
G04 #@! TF.SameCoordinates,Original*
G04 #@! TF.FileFunction,Legend,Top*
G04 #@! TF.FilePolarity,Positive*
%FSLAX46Y46*%
G04 Gerber Fmt 4.6, Leading zero omitted, Abs format (unit mm)*
G04 Created by KiCad (PCBNEW 9.0.7) date 2026-03-10 23:19:28*
%MOMM*%
%LPD*%
G01*
G04 APERTURE LIST*
%ADD10C,0.200000*%
%ADD11C,0.300000*%
%ADD12C,0.150000*%
%ADD13C,0.120000*%
%ADD14C,0.127000*%
G04 APERTURE END LIST*
D10*
X143274435Y-104867219D02*
X143893482Y-104867219D01*
X143893482Y-104867219D02*
X143560149Y-105248171D01*
X143560149Y-105248171D02*
X143703006Y-105248171D01*
X143703006Y-105248171D02*
X143798244Y-105295790D01*
X143798244Y-105295790D02*
X143845863Y-105343409D01*
X143845863Y-105343409D02*
X143893482Y-105438647D01*
X143893482Y-105438647D02*
X143893482Y-105676742D01*
X143893482Y-105676742D02*
X143845863Y-105771980D01*
X143845863Y-105771980D02*
X143798244Y-105819600D01*
X143798244Y-105819600D02*
X143703006Y-105867219D01*
X143703006Y-105867219D02*
X143417292Y-105867219D01*
X143417292Y-105867219D02*
X143322054Y-105819600D01*
X143322054Y-105819600D02*
X143274435Y-105771980D01*
X144179197Y-104867219D02*
X144512530Y-105867219D01*
X144512530Y-105867219D02*
X144845863Y-104867219D01*
X145083959Y-104867219D02*
X145703006Y-104867219D01*
X145703006Y-104867219D02*
X145369673Y-105248171D01*
X145369673Y-105248171D02*
X145512530Y-105248171D01*
X145512530Y-105248171D02*
X145607768Y-105295790D01*
X145607768Y-105295790D02*
X145655387Y-105343409D01*
X145655387Y-105343409D02*
X145703006Y-105438647D01*
X145703006Y-105438647D02*
X145703006Y-105676742D01*
X145703006Y-105676742D02*
X145655387Y-105771980D01*
X145655387Y-105771980D02*
X145607768Y-105819600D01*
X145607768Y-105819600D02*
X145512530Y-105867219D01*
X145512530Y-105867219D02*
X145226816Y-105867219D01*
X145226816Y-105867219D02*
X145131578Y-105819600D01*
X145131578Y-105819600D02*
X145083959Y-105771980D01*
X143274435Y-116367219D02*
X143893482Y-116367219D01*
X143893482Y-116367219D02*
X143560149Y-116748171D01*
X143560149Y-116748171D02*
X143703006Y-116748171D01*
X143703006Y-116748171D02*
X143798244Y-116795790D01*
X143798244Y-116795790D02*
X143845863Y-116843409D01*
X143845863Y-116843409D02*
X143893482Y-116938647D01*
X143893482Y-116938647D02*
X143893482Y-117176742D01*
X143893482Y-117176742D02*
X143845863Y-117271980D01*
X143845863Y-117271980D02*
X143798244Y-117319600D01*
X143798244Y-117319600D02*
X143703006Y-117367219D01*
X143703006Y-117367219D02*
X143417292Y-117367219D01*
X143417292Y-117367219D02*
X143322054Y-117319600D01*
X143322054Y-117319600D02*
X143274435Y-117271980D01*
X144179197Y-116367219D02*
X144512530Y-117367219D01*
X144512530Y-117367219D02*
X144845863Y-116367219D01*
X145083959Y-116367219D02*
X145703006Y-116367219D01*
X145703006Y-116367219D02*
X145369673Y-116748171D01*
X145369673Y-116748171D02*
X145512530Y-116748171D01*
X145512530Y-116748171D02*
X145607768Y-116795790D01*
X145607768Y-116795790D02*
X145655387Y-116843409D01*
X145655387Y-116843409D02*
X145703006Y-116938647D01*
X145703006Y-116938647D02*
X145703006Y-117176742D01*
X145703006Y-117176742D02*
X145655387Y-117271980D01*
X145655387Y-117271980D02*
X145607768Y-117319600D01*
X145607768Y-117319600D02*
X145512530Y-117367219D01*
X145512530Y-117367219D02*
X145226816Y-117367219D01*
X145226816Y-117367219D02*
X145131578Y-117319600D01*
X145131578Y-117319600D02*
X145083959Y-117271980D01*
X128822054Y-118069600D02*
X128964911Y-118117219D01*
X128964911Y-118117219D02*
X129203006Y-118117219D01*
X129203006Y-118117219D02*
X129298244Y-118069600D01*
X129298244Y-118069600D02*
X129345863Y-118021980D01*
X129345863Y-118021980D02*
X129393482Y-117926742D01*
X129393482Y-117926742D02*
X129393482Y-117831504D01*
X129393482Y-117831504D02*
X129345863Y-117736266D01*
X129345863Y-117736266D02*
X129298244Y-117688647D01*
X129298244Y-117688647D02*
X129203006Y-117641028D01*
X129203006Y-117641028D02*
X129012530Y-117593409D01*
X129012530Y-117593409D02*
X128917292Y-117545790D01*
X128917292Y-117545790D02*
X128869673Y-117498171D01*
X128869673Y-117498171D02*
X128822054Y-117402933D01*
X128822054Y-117402933D02*
X128822054Y-117307695D01*
X128822054Y-117307695D02*
X128869673Y-117212457D01*
X128869673Y-117212457D02*
X128917292Y-117164838D01*
X128917292Y-117164838D02*
X129012530Y-117117219D01*
X129012530Y-117117219D02*
X129250625Y-117117219D01*
X129250625Y-117117219D02*
X129393482Y-117164838D01*
X130250625Y-117450552D02*
X130250625Y-118117219D01*
X130012530Y-117069600D02*
X129774435Y-117783885D01*
X129774435Y-117783885D02*
X130393482Y-117783885D01*
X131322054Y-118069600D02*
X131464911Y-118117219D01*
X131464911Y-118117219D02*
X131703006Y-118117219D01*
X131703006Y-118117219D02*
X131798244Y-118069600D01*
X131798244Y-118069600D02*
X131845863Y-118021980D01*
X131845863Y-118021980D02*
X131893482Y-117926742D01*
X131893482Y-117926742D02*
X131893482Y-117831504D01*
X131893482Y-117831504D02*
X131845863Y-117736266D01*
X131845863Y-117736266D02*
X131798244Y-117688647D01*
X131798244Y-117688647D02*
X131703006Y-117641028D01*
X131703006Y-117641028D02*
X131512530Y-117593409D01*
X131512530Y-117593409D02*
X131417292Y-117545790D01*
X131417292Y-117545790D02*
X131369673Y-117498171D01*
X131369673Y-117498171D02*
X131322054Y-117402933D01*
X131322054Y-117402933D02*
X131322054Y-117307695D01*
X131322054Y-117307695D02*
X131369673Y-117212457D01*
X131369673Y-117212457D02*
X131417292Y-117164838D01*
X131417292Y-117164838D02*
X131512530Y-117117219D01*
X131512530Y-117117219D02*
X131750625Y-117117219D01*
X131750625Y-117117219D02*
X131893482Y-117164838D01*
X132226816Y-117117219D02*
X132845863Y-117117219D01*
X132845863Y-117117219D02*
X132512530Y-117498171D01*
X132512530Y-117498171D02*
X132655387Y-117498171D01*
X132655387Y-117498171D02*
X132750625Y-117545790D01*
X132750625Y-117545790D02*
X132798244Y-117593409D01*
X132798244Y-117593409D02*
X132845863Y-117688647D01*
X132845863Y-117688647D02*
X132845863Y-117926742D01*
X132845863Y-117926742D02*
X132798244Y-118021980D01*
X132798244Y-118021980D02*
X132750625Y-118069600D01*
X132750625Y-118069600D02*
X132655387Y-118117219D01*
X132655387Y-118117219D02*
X132369673Y-118117219D01*
X132369673Y-118117219D02*
X132274435Y-118069600D01*
X132274435Y-118069600D02*
X132226816Y-118021980D01*
X133822054Y-118069600D02*
X133964911Y-118117219D01*
X133964911Y-118117219D02*
X134203006Y-118117219D01*
X134203006Y-118117219D02*
X134298244Y-118069600D01*
X134298244Y-118069600D02*
X134345863Y-118021980D01*
X134345863Y-118021980D02*
X134393482Y-117926742D01*
X134393482Y-117926742D02*
X134393482Y-117831504D01*
X134393482Y-117831504D02*
X134345863Y-117736266D01*
X134345863Y-117736266D02*
X134298244Y-117688647D01*
X134298244Y-117688647D02*
X134203006Y-117641028D01*
X134203006Y-117641028D02*
X134012530Y-117593409D01*
X134012530Y-117593409D02*
X133917292Y-117545790D01*
X133917292Y-117545790D02*
X133869673Y-117498171D01*
X133869673Y-117498171D02*
X133822054Y-117402933D01*
X133822054Y-117402933D02*
X133822054Y-117307695D01*
X133822054Y-117307695D02*
X133869673Y-117212457D01*
X133869673Y-117212457D02*
X133917292Y-117164838D01*
X133917292Y-117164838D02*
X134012530Y-117117219D01*
X134012530Y-117117219D02*
X134250625Y-117117219D01*
X134250625Y-117117219D02*
X134393482Y-117164838D01*
X134774435Y-117212457D02*
X134822054Y-117164838D01*
X134822054Y-117164838D02*
X134917292Y-117117219D01*
X134917292Y-117117219D02*
X135155387Y-117117219D01*
X135155387Y-117117219D02*
X135250625Y-117164838D01*
X135250625Y-117164838D02*
X135298244Y-117212457D01*
X135298244Y-117212457D02*
X135345863Y-117307695D01*
X135345863Y-117307695D02*
X135345863Y-117402933D01*
X135345863Y-117402933D02*
X135298244Y-117545790D01*
X135298244Y-117545790D02*
X134726816Y-118117219D01*
X134726816Y-118117219D02*
X135345863Y-118117219D01*
X136322054Y-118069600D02*
X136464911Y-118117219D01*
X136464911Y-118117219D02*
X136703006Y-118117219D01*
X136703006Y-118117219D02*
X136798244Y-118069600D01*
X136798244Y-118069600D02*
X136845863Y-118021980D01*
X136845863Y-118021980D02*
X136893482Y-117926742D01*
X136893482Y-117926742D02*
X136893482Y-117831504D01*
X136893482Y-117831504D02*
X136845863Y-117736266D01*
X136845863Y-117736266D02*
X136798244Y-117688647D01*
X136798244Y-117688647D02*
X136703006Y-117641028D01*
X136703006Y-117641028D02*
X136512530Y-117593409D01*
X136512530Y-117593409D02*
X136417292Y-117545790D01*
X136417292Y-117545790D02*
X136369673Y-117498171D01*
X136369673Y-117498171D02*
X136322054Y-117402933D01*
X136322054Y-117402933D02*
X136322054Y-117307695D01*
X136322054Y-117307695D02*
X136369673Y-117212457D01*
X136369673Y-117212457D02*
X136417292Y-117164838D01*
X136417292Y-117164838D02*
X136512530Y-117117219D01*
X136512530Y-117117219D02*
X136750625Y-117117219D01*
X136750625Y-117117219D02*
X136893482Y-117164838D01*
X137845863Y-118117219D02*
X137274435Y-118117219D01*
X137560149Y-118117219D02*
X137560149Y-117117219D01*
X137560149Y-117117219D02*
X137464911Y-117260076D01*
X137464911Y-117260076D02*
X137369673Y-117355314D01*
X137369673Y-117355314D02*
X137274435Y-117402933D01*
X86095863Y-95617219D02*
X85619673Y-95617219D01*
X85619673Y-95617219D02*
X85619673Y-94617219D01*
X86429197Y-95093409D02*
X86762530Y-95093409D01*
X86905387Y-95617219D02*
X86429197Y-95617219D01*
X86429197Y-95617219D02*
X86429197Y-94617219D01*
X86429197Y-94617219D02*
X86905387Y-94617219D01*
X87333959Y-95617219D02*
X87333959Y-94617219D01*
X87333959Y-94617219D02*
X87572054Y-94617219D01*
X87572054Y-94617219D02*
X87714911Y-94664838D01*
X87714911Y-94664838D02*
X87810149Y-94760076D01*
X87810149Y-94760076D02*
X87857768Y-94855314D01*
X87857768Y-94855314D02*
X87905387Y-95045790D01*
X87905387Y-95045790D02*
X87905387Y-95188647D01*
X87905387Y-95188647D02*
X87857768Y-95379123D01*
X87857768Y-95379123D02*
X87810149Y-95474361D01*
X87810149Y-95474361D02*
X87714911Y-95569600D01*
X87714911Y-95569600D02*
X87572054Y-95617219D01*
X87572054Y-95617219D02*
X87333959Y-95617219D01*
X86118482Y-96914838D02*
X86023244Y-96867219D01*
X86023244Y-96867219D02*
X85880387Y-96867219D01*
X85880387Y-96867219D02*
X85737530Y-96914838D01*
X85737530Y-96914838D02*
X85642292Y-97010076D01*
X85642292Y-97010076D02*
X85594673Y-97105314D01*
X85594673Y-97105314D02*
X85547054Y-97295790D01*
X85547054Y-97295790D02*
X85547054Y-97438647D01*
X85547054Y-97438647D02*
X85594673Y-97629123D01*
X85594673Y-97629123D02*
X85642292Y-97724361D01*
X85642292Y-97724361D02*
X85737530Y-97819600D01*
X85737530Y-97819600D02*
X85880387Y-97867219D01*
X85880387Y-97867219D02*
X85975625Y-97867219D01*
X85975625Y-97867219D02*
X86118482Y-97819600D01*
X86118482Y-97819600D02*
X86166101Y-97771980D01*
X86166101Y-97771980D02*
X86166101Y-97438647D01*
X86166101Y-97438647D02*
X85975625Y-97438647D01*
X86594673Y-97867219D02*
X86594673Y-96867219D01*
X86594673Y-96867219D02*
X87166101Y-97867219D01*
X87166101Y-97867219D02*
X87166101Y-96867219D01*
X87642292Y-97867219D02*
X87642292Y-96867219D01*
X87642292Y-96867219D02*
X87880387Y-96867219D01*
X87880387Y-96867219D02*
X88023244Y-96914838D01*
X88023244Y-96914838D02*
X88118482Y-97010076D01*
X88118482Y-97010076D02*
X88166101Y-97105314D01*
X88166101Y-97105314D02*
X88213720Y-97295790D01*
X88213720Y-97295790D02*
X88213720Y-97438647D01*
X88213720Y-97438647D02*
X88166101Y-97629123D01*
X88166101Y-97629123D02*
X88118482Y-97724361D01*
X88118482Y-97724361D02*
X88023244Y-97819600D01*
X88023244Y-97819600D02*
X87880387Y-97867219D01*
X87880387Y-97867219D02*
X87642292Y-97867219D01*
X84893482Y-88867219D02*
X84322054Y-88867219D01*
X84607768Y-88867219D02*
X84607768Y-87867219D01*
X84607768Y-87867219D02*
X84512530Y-88010076D01*
X84512530Y-88010076D02*
X84417292Y-88105314D01*
X84417292Y-88105314D02*
X84322054Y-88152933D01*
X85274435Y-87962457D02*
X85322054Y-87914838D01*
X85322054Y-87914838D02*
X85417292Y-87867219D01*
X85417292Y-87867219D02*
X85655387Y-87867219D01*
X85655387Y-87867219D02*
X85750625Y-87914838D01*
X85750625Y-87914838D02*
X85798244Y-87962457D01*
X85798244Y-87962457D02*
X85845863Y-88057695D01*
X85845863Y-88057695D02*
X85845863Y-88152933D01*
X85845863Y-88152933D02*
X85798244Y-88295790D01*
X85798244Y-88295790D02*
X85226816Y-88867219D01*
X85226816Y-88867219D02*
X85845863Y-88867219D01*
X86131578Y-87867219D02*
X86464911Y-88867219D01*
X86464911Y-88867219D02*
X86798244Y-87867219D01*
X94643482Y-89617219D02*
X94072054Y-89617219D01*
X94357768Y-89617219D02*
X94357768Y-88617219D01*
X94357768Y-88617219D02*
X94262530Y-88760076D01*
X94262530Y-88760076D02*
X94167292Y-88855314D01*
X94167292Y-88855314D02*
X94072054Y-88902933D01*
X95024435Y-88712457D02*
X95072054Y-88664838D01*
X95072054Y-88664838D02*
X95167292Y-88617219D01*
X95167292Y-88617219D02*
X95405387Y-88617219D01*
X95405387Y-88617219D02*
X95500625Y-88664838D01*
X95500625Y-88664838D02*
X95548244Y-88712457D01*
X95548244Y-88712457D02*
X95595863Y-88807695D01*
X95595863Y-88807695D02*
X95595863Y-88902933D01*
X95595863Y-88902933D02*
X95548244Y-89045790D01*
X95548244Y-89045790D02*
X94976816Y-89617219D01*
X94976816Y-89617219D02*
X95595863Y-89617219D01*
X95881578Y-88617219D02*
X96214911Y-89617219D01*
X96214911Y-89617219D02*
X96548244Y-88617219D01*
X72572054Y-117819600D02*
X72714911Y-117867219D01*
X72714911Y-117867219D02*
X72953006Y-117867219D01*
X72953006Y-117867219D02*
X73048244Y-117819600D01*
X73048244Y-117819600D02*
X73095863Y-117771980D01*
X73095863Y-117771980D02*
X73143482Y-117676742D01*
X73143482Y-117676742D02*
X73143482Y-117581504D01*
X73143482Y-117581504D02*
X73095863Y-117486266D01*
X73095863Y-117486266D02*
X73048244Y-117438647D01*
X73048244Y-117438647D02*
X72953006Y-117391028D01*
X72953006Y-117391028D02*
X72762530Y-117343409D01*
X72762530Y-117343409D02*
X72667292Y-117295790D01*
X72667292Y-117295790D02*
X72619673Y-117248171D01*
X72619673Y-117248171D02*
X72572054Y-117152933D01*
X72572054Y-117152933D02*
X72572054Y-117057695D01*
X72572054Y-117057695D02*
X72619673Y-116962457D01*
X72619673Y-116962457D02*
X72667292Y-116914838D01*
X72667292Y-116914838D02*
X72762530Y-116867219D01*
X72762530Y-116867219D02*
X73000625Y-116867219D01*
X73000625Y-116867219D02*
X73143482Y-116914838D01*
X73476816Y-116867219D02*
X73714911Y-117867219D01*
X73714911Y-117867219D02*
X73905387Y-117152933D01*
X73905387Y-117152933D02*
X74095863Y-117867219D01*
X74095863Y-117867219D02*
X74333959Y-116867219D01*
X75119673Y-117867219D02*
X75119673Y-116867219D01*
X75119673Y-116867219D02*
X75357768Y-116867219D01*
X75357768Y-116867219D02*
X75500625Y-116914838D01*
X75500625Y-116914838D02*
X75595863Y-117010076D01*
X75595863Y-117010076D02*
X75643482Y-117105314D01*
X75643482Y-117105314D02*
X75691101Y-117295790D01*
X75691101Y-117295790D02*
X75691101Y-117438647D01*
X75691101Y-117438647D02*
X75643482Y-117629123D01*
X75643482Y-117629123D02*
X75595863Y-117724361D01*
X75595863Y-117724361D02*
X75500625Y-117819600D01*
X75500625Y-117819600D02*
X75357768Y-117867219D01*
X75357768Y-117867219D02*
X75119673Y-117867219D01*
X75976816Y-116867219D02*
X76548244Y-116867219D01*
X76262530Y-117867219D02*
X76262530Y-116867219D01*
X77941101Y-117771980D02*
X77893482Y-117819600D01*
X77893482Y-117819600D02*
X77750625Y-117867219D01*
X77750625Y-117867219D02*
X77655387Y-117867219D01*
X77655387Y-117867219D02*
X77512530Y-117819600D01*
X77512530Y-117819600D02*
X77417292Y-117724361D01*
X77417292Y-117724361D02*
X77369673Y-117629123D01*
X77369673Y-117629123D02*
X77322054Y-117438647D01*
X77322054Y-117438647D02*
X77322054Y-117295790D01*
X77322054Y-117295790D02*
X77369673Y-117105314D01*
X77369673Y-117105314D02*
X77417292Y-117010076D01*
X77417292Y-117010076D02*
X77512530Y-116914838D01*
X77512530Y-116914838D02*
X77655387Y-116867219D01*
X77655387Y-116867219D02*
X77750625Y-116867219D01*
X77750625Y-116867219D02*
X77893482Y-116914838D01*
X77893482Y-116914838D02*
X77941101Y-116962457D01*
X78845863Y-117867219D02*
X78369673Y-117867219D01*
X78369673Y-117867219D02*
X78369673Y-116867219D01*
X79179197Y-117867219D02*
X79179197Y-116867219D01*
X79750625Y-117867219D02*
X79322054Y-117295790D01*
X79750625Y-116867219D02*
X79179197Y-117438647D01*
X80524435Y-116867219D02*
X81143482Y-116867219D01*
X81143482Y-116867219D02*
X80810149Y-117248171D01*
X80810149Y-117248171D02*
X80953006Y-117248171D01*
X80953006Y-117248171D02*
X81048244Y-117295790D01*
X81048244Y-117295790D02*
X81095863Y-117343409D01*
X81095863Y-117343409D02*
X81143482Y-117438647D01*
X81143482Y-117438647D02*
X81143482Y-117676742D01*
X81143482Y-117676742D02*
X81095863Y-117771980D01*
X81095863Y-117771980D02*
X81048244Y-117819600D01*
X81048244Y-117819600D02*
X80953006Y-117867219D01*
X80953006Y-117867219D02*
X80667292Y-117867219D01*
X80667292Y-117867219D02*
X80572054Y-117819600D01*
X80572054Y-117819600D02*
X80524435Y-117771980D01*
X81429197Y-116867219D02*
X81762530Y-117867219D01*
X81762530Y-117867219D02*
X82095863Y-116867219D01*
X82333959Y-116867219D02*
X82953006Y-116867219D01*
X82953006Y-116867219D02*
X82619673Y-117248171D01*
X82619673Y-117248171D02*
X82762530Y-117248171D01*
X82762530Y-117248171D02*
X82857768Y-117295790D01*
X82857768Y-117295790D02*
X82905387Y-117343409D01*
X82905387Y-117343409D02*
X82953006Y-117438647D01*
X82953006Y-117438647D02*
X82953006Y-117676742D01*
X82953006Y-117676742D02*
X82905387Y-117771980D01*
X82905387Y-117771980D02*
X82857768Y-117819600D01*
X82857768Y-117819600D02*
X82762530Y-117867219D01*
X82762530Y-117867219D02*
X82476816Y-117867219D01*
X82476816Y-117867219D02*
X82381578Y-117819600D01*
X82381578Y-117819600D02*
X82333959Y-117771980D01*
X84143482Y-116914838D02*
X84048244Y-116867219D01*
X84048244Y-116867219D02*
X83905387Y-116867219D01*
X83905387Y-116867219D02*
X83762530Y-116914838D01*
X83762530Y-116914838D02*
X83667292Y-117010076D01*
X83667292Y-117010076D02*
X83619673Y-117105314D01*
X83619673Y-117105314D02*
X83572054Y-117295790D01*
X83572054Y-117295790D02*
X83572054Y-117438647D01*
X83572054Y-117438647D02*
X83619673Y-117629123D01*
X83619673Y-117629123D02*
X83667292Y-117724361D01*
X83667292Y-117724361D02*
X83762530Y-117819600D01*
X83762530Y-117819600D02*
X83905387Y-117867219D01*
X83905387Y-117867219D02*
X84000625Y-117867219D01*
X84000625Y-117867219D02*
X84143482Y-117819600D01*
X84143482Y-117819600D02*
X84191101Y-117771980D01*
X84191101Y-117771980D02*
X84191101Y-117438647D01*
X84191101Y-117438647D02*
X84000625Y-117438647D01*
X84619673Y-117867219D02*
X84619673Y-116867219D01*
X84619673Y-116867219D02*
X85191101Y-117867219D01*
X85191101Y-117867219D02*
X85191101Y-116867219D01*
X85667292Y-117867219D02*
X85667292Y-116867219D01*
X85667292Y-116867219D02*
X85905387Y-116867219D01*
X85905387Y-116867219D02*
X86048244Y-116914838D01*
X86048244Y-116914838D02*
X86143482Y-117010076D01*
X86143482Y-117010076D02*
X86191101Y-117105314D01*
X86191101Y-117105314D02*
X86238720Y-117295790D01*
X86238720Y-117295790D02*
X86238720Y-117438647D01*
X86238720Y-117438647D02*
X86191101Y-117629123D01*
X86191101Y-117629123D02*
X86143482Y-117724361D01*
X86143482Y-117724361D02*
X86048244Y-117819600D01*
X86048244Y-117819600D02*
X85905387Y-117867219D01*
X85905387Y-117867219D02*
X85667292Y-117867219D01*
X89322054Y-117819600D02*
X89464911Y-117867219D01*
X89464911Y-117867219D02*
X89703006Y-117867219D01*
X89703006Y-117867219D02*
X89798244Y-117819600D01*
X89798244Y-117819600D02*
X89845863Y-117771980D01*
X89845863Y-117771980D02*
X89893482Y-117676742D01*
X89893482Y-117676742D02*
X89893482Y-117581504D01*
X89893482Y-117581504D02*
X89845863Y-117486266D01*
X89845863Y-117486266D02*
X89798244Y-117438647D01*
X89798244Y-117438647D02*
X89703006Y-117391028D01*
X89703006Y-117391028D02*
X89512530Y-117343409D01*
X89512530Y-117343409D02*
X89417292Y-117295790D01*
X89417292Y-117295790D02*
X89369673Y-117248171D01*
X89369673Y-117248171D02*
X89322054Y-117152933D01*
X89322054Y-117152933D02*
X89322054Y-117057695D01*
X89322054Y-117057695D02*
X89369673Y-116962457D01*
X89369673Y-116962457D02*
X89417292Y-116914838D01*
X89417292Y-116914838D02*
X89512530Y-116867219D01*
X89512530Y-116867219D02*
X89750625Y-116867219D01*
X89750625Y-116867219D02*
X89893482Y-116914838D01*
X90893482Y-117771980D02*
X90845863Y-117819600D01*
X90845863Y-117819600D02*
X90703006Y-117867219D01*
X90703006Y-117867219D02*
X90607768Y-117867219D01*
X90607768Y-117867219D02*
X90464911Y-117819600D01*
X90464911Y-117819600D02*
X90369673Y-117724361D01*
X90369673Y-117724361D02*
X90322054Y-117629123D01*
X90322054Y-117629123D02*
X90274435Y-117438647D01*
X90274435Y-117438647D02*
X90274435Y-117295790D01*
X90274435Y-117295790D02*
X90322054Y-117105314D01*
X90322054Y-117105314D02*
X90369673Y-117010076D01*
X90369673Y-117010076D02*
X90464911Y-116914838D01*
X90464911Y-116914838D02*
X90607768Y-116867219D01*
X90607768Y-116867219D02*
X90703006Y-116867219D01*
X90703006Y-116867219D02*
X90845863Y-116914838D01*
X90845863Y-116914838D02*
X90893482Y-116962457D01*
X91798244Y-117867219D02*
X91322054Y-117867219D01*
X91322054Y-117867219D02*
X91322054Y-116867219D01*
X92322054Y-117819600D02*
X92464911Y-117867219D01*
X92464911Y-117867219D02*
X92703006Y-117867219D01*
X92703006Y-117867219D02*
X92798244Y-117819600D01*
X92798244Y-117819600D02*
X92845863Y-117771980D01*
X92845863Y-117771980D02*
X92893482Y-117676742D01*
X92893482Y-117676742D02*
X92893482Y-117581504D01*
X92893482Y-117581504D02*
X92845863Y-117486266D01*
X92845863Y-117486266D02*
X92798244Y-117438647D01*
X92798244Y-117438647D02*
X92703006Y-117391028D01*
X92703006Y-117391028D02*
X92512530Y-117343409D01*
X92512530Y-117343409D02*
X92417292Y-117295790D01*
X92417292Y-117295790D02*
X92369673Y-117248171D01*
X92369673Y-117248171D02*
X92322054Y-117152933D01*
X92322054Y-117152933D02*
X92322054Y-117057695D01*
X92322054Y-117057695D02*
X92369673Y-116962457D01*
X92369673Y-116962457D02*
X92417292Y-116914838D01*
X92417292Y-116914838D02*
X92512530Y-116867219D01*
X92512530Y-116867219D02*
X92750625Y-116867219D01*
X92750625Y-116867219D02*
X92893482Y-116914838D01*
X93322054Y-117867219D02*
X93322054Y-116867219D01*
X93322054Y-116867219D02*
X93560149Y-116867219D01*
X93560149Y-116867219D02*
X93703006Y-116914838D01*
X93703006Y-116914838D02*
X93798244Y-117010076D01*
X93798244Y-117010076D02*
X93845863Y-117105314D01*
X93845863Y-117105314D02*
X93893482Y-117295790D01*
X93893482Y-117295790D02*
X93893482Y-117438647D01*
X93893482Y-117438647D02*
X93845863Y-117629123D01*
X93845863Y-117629123D02*
X93798244Y-117724361D01*
X93798244Y-117724361D02*
X93703006Y-117819600D01*
X93703006Y-117819600D02*
X93560149Y-117867219D01*
X93560149Y-117867219D02*
X93322054Y-117867219D01*
X94274435Y-117581504D02*
X94750625Y-117581504D01*
X94179197Y-117867219D02*
X94512530Y-116867219D01*
X94512530Y-116867219D02*
X94845863Y-117867219D01*
X96095863Y-116867219D02*
X95619673Y-116867219D01*
X95619673Y-116867219D02*
X95572054Y-117343409D01*
X95572054Y-117343409D02*
X95619673Y-117295790D01*
X95619673Y-117295790D02*
X95714911Y-117248171D01*
X95714911Y-117248171D02*
X95953006Y-117248171D01*
X95953006Y-117248171D02*
X96048244Y-117295790D01*
X96048244Y-117295790D02*
X96095863Y-117343409D01*
X96095863Y-117343409D02*
X96143482Y-117438647D01*
X96143482Y-117438647D02*
X96143482Y-117676742D01*
X96143482Y-117676742D02*
X96095863Y-117771980D01*
X96095863Y-117771980D02*
X96048244Y-117819600D01*
X96048244Y-117819600D02*
X95953006Y-117867219D01*
X95953006Y-117867219D02*
X95714911Y-117867219D01*
X95714911Y-117867219D02*
X95619673Y-117819600D01*
X95619673Y-117819600D02*
X95572054Y-117771980D01*
X96429197Y-116867219D02*
X96762530Y-117867219D01*
X96762530Y-117867219D02*
X97095863Y-116867219D01*
X98393482Y-116914838D02*
X98298244Y-116867219D01*
X98298244Y-116867219D02*
X98155387Y-116867219D01*
X98155387Y-116867219D02*
X98012530Y-116914838D01*
X98012530Y-116914838D02*
X97917292Y-117010076D01*
X97917292Y-117010076D02*
X97869673Y-117105314D01*
X97869673Y-117105314D02*
X97822054Y-117295790D01*
X97822054Y-117295790D02*
X97822054Y-117438647D01*
X97822054Y-117438647D02*
X97869673Y-117629123D01*
X97869673Y-117629123D02*
X97917292Y-117724361D01*
X97917292Y-117724361D02*
X98012530Y-117819600D01*
X98012530Y-117819600D02*
X98155387Y-117867219D01*
X98155387Y-117867219D02*
X98250625Y-117867219D01*
X98250625Y-117867219D02*
X98393482Y-117819600D01*
X98393482Y-117819600D02*
X98441101Y-117771980D01*
X98441101Y-117771980D02*
X98441101Y-117438647D01*
X98441101Y-117438647D02*
X98250625Y-117438647D01*
X98869673Y-117867219D02*
X98869673Y-116867219D01*
X98869673Y-116867219D02*
X99441101Y-117867219D01*
X99441101Y-117867219D02*
X99441101Y-116867219D01*
X99917292Y-117867219D02*
X99917292Y-116867219D01*
X99917292Y-116867219D02*
X100155387Y-116867219D01*
X100155387Y-116867219D02*
X100298244Y-116914838D01*
X100298244Y-116914838D02*
X100393482Y-117010076D01*
X100393482Y-117010076D02*
X100441101Y-117105314D01*
X100441101Y-117105314D02*
X100488720Y-117295790D01*
X100488720Y-117295790D02*
X100488720Y-117438647D01*
X100488720Y-117438647D02*
X100441101Y-117629123D01*
X100441101Y-117629123D02*
X100393482Y-117724361D01*
X100393482Y-117724361D02*
X100298244Y-117819600D01*
X100298244Y-117819600D02*
X100155387Y-117867219D01*
X100155387Y-117867219D02*
X99917292Y-117867219D01*
X117643482Y-121664838D02*
X117548244Y-121617219D01*
X117548244Y-121617219D02*
X117405387Y-121617219D01*
X117405387Y-121617219D02*
X117262530Y-121664838D01*
X117262530Y-121664838D02*
X117167292Y-121760076D01*
X117167292Y-121760076D02*
X117119673Y-121855314D01*
X117119673Y-121855314D02*
X117072054Y-122045790D01*
X117072054Y-122045790D02*
X117072054Y-122188647D01*
X117072054Y-122188647D02*
X117119673Y-122379123D01*
X117119673Y-122379123D02*
X117167292Y-122474361D01*
X117167292Y-122474361D02*
X117262530Y-122569600D01*
X117262530Y-122569600D02*
X117405387Y-122617219D01*
X117405387Y-122617219D02*
X117500625Y-122617219D01*
X117500625Y-122617219D02*
X117643482Y-122569600D01*
X117643482Y-122569600D02*
X117691101Y-122521980D01*
X117691101Y-122521980D02*
X117691101Y-122188647D01*
X117691101Y-122188647D02*
X117500625Y-122188647D01*
X118119673Y-122617219D02*
X118119673Y-121617219D01*
X118119673Y-121617219D02*
X118691101Y-122617219D01*
X118691101Y-122617219D02*
X118691101Y-121617219D01*
X119167292Y-122617219D02*
X119167292Y-121617219D01*
X119167292Y-121617219D02*
X119405387Y-121617219D01*
X119405387Y-121617219D02*
X119548244Y-121664838D01*
X119548244Y-121664838D02*
X119643482Y-121760076D01*
X119643482Y-121760076D02*
X119691101Y-121855314D01*
X119691101Y-121855314D02*
X119738720Y-122045790D01*
X119738720Y-122045790D02*
X119738720Y-122188647D01*
X119738720Y-122188647D02*
X119691101Y-122379123D01*
X119691101Y-122379123D02*
X119643482Y-122474361D01*
X119643482Y-122474361D02*
X119548244Y-122569600D01*
X119548244Y-122569600D02*
X119405387Y-122617219D01*
X119405387Y-122617219D02*
X119167292Y-122617219D01*
X108143482Y-122617219D02*
X107572054Y-122617219D01*
X107857768Y-122617219D02*
X107857768Y-121617219D01*
X107857768Y-121617219D02*
X107762530Y-121760076D01*
X107762530Y-121760076D02*
X107667292Y-121855314D01*
X107667292Y-121855314D02*
X107572054Y-121902933D01*
X108619673Y-122617219D02*
X108810149Y-122617219D01*
X108810149Y-122617219D02*
X108905387Y-122569600D01*
X108905387Y-122569600D02*
X108953006Y-122521980D01*
X108953006Y-122521980D02*
X109048244Y-122379123D01*
X109048244Y-122379123D02*
X109095863Y-122188647D01*
X109095863Y-122188647D02*
X109095863Y-121807695D01*
X109095863Y-121807695D02*
X109048244Y-121712457D01*
X109048244Y-121712457D02*
X109000625Y-121664838D01*
X109000625Y-121664838D02*
X108905387Y-121617219D01*
X108905387Y-121617219D02*
X108714911Y-121617219D01*
X108714911Y-121617219D02*
X108619673Y-121664838D01*
X108619673Y-121664838D02*
X108572054Y-121712457D01*
X108572054Y-121712457D02*
X108524435Y-121807695D01*
X108524435Y-121807695D02*
X108524435Y-122045790D01*
X108524435Y-122045790D02*
X108572054Y-122141028D01*
X108572054Y-122141028D02*
X108619673Y-122188647D01*
X108619673Y-122188647D02*
X108714911Y-122236266D01*
X108714911Y-122236266D02*
X108905387Y-122236266D01*
X108905387Y-122236266D02*
X109000625Y-122188647D01*
X109000625Y-122188647D02*
X109048244Y-122141028D01*
X109048244Y-122141028D02*
X109095863Y-122045790D01*
X109381578Y-121617219D02*
X109714911Y-122617219D01*
X109714911Y-122617219D02*
X110048244Y-121617219D01*
X139345863Y-117117219D02*
X138869673Y-117117219D01*
X138869673Y-117117219D02*
X138822054Y-117593409D01*
X138822054Y-117593409D02*
X138869673Y-117545790D01*
X138869673Y-117545790D02*
X138964911Y-117498171D01*
X138964911Y-117498171D02*
X139203006Y-117498171D01*
X139203006Y-117498171D02*
X139298244Y-117545790D01*
X139298244Y-117545790D02*
X139345863Y-117593409D01*
X139345863Y-117593409D02*
X139393482Y-117688647D01*
X139393482Y-117688647D02*
X139393482Y-117926742D01*
X139393482Y-117926742D02*
X139345863Y-118021980D01*
X139345863Y-118021980D02*
X139298244Y-118069600D01*
X139298244Y-118069600D02*
X139203006Y-118117219D01*
X139203006Y-118117219D02*
X138964911Y-118117219D01*
X138964911Y-118117219D02*
X138869673Y-118069600D01*
X138869673Y-118069600D02*
X138822054Y-118021980D01*
X139679197Y-117117219D02*
X140012530Y-118117219D01*
X140012530Y-118117219D02*
X140345863Y-117117219D01*
X149000000Y-57250000D02*
X143500000Y-57250000D01*
X127000000Y-57250000D02*
X132500000Y-57250000D01*
X127000000Y-95250000D02*
X127000000Y-57250000D01*
X149000000Y-95250000D02*
X127000000Y-95250000D01*
X149000000Y-57250000D02*
X149000000Y-95250000D01*
D11*
X137411653Y-76300828D02*
X136911653Y-75586542D01*
X136554510Y-76300828D02*
X136554510Y-74800828D01*
X136554510Y-74800828D02*
X137125939Y-74800828D01*
X137125939Y-74800828D02*
X137268796Y-74872257D01*
X137268796Y-74872257D02*
X137340225Y-74943685D01*
X137340225Y-74943685D02*
X137411653Y-75086542D01*
X137411653Y-75086542D02*
X137411653Y-75300828D01*
X137411653Y-75300828D02*
X137340225Y-75443685D01*
X137340225Y-75443685D02*
X137268796Y-75515114D01*
X137268796Y-75515114D02*
X137125939Y-75586542D01*
X137125939Y-75586542D02*
X136554510Y-75586542D01*
X137840225Y-74800828D02*
X138697368Y-74800828D01*
X138268796Y-76300828D02*
X138268796Y-74800828D01*
X140054510Y-76157971D02*
X139983082Y-76229400D01*
X139983082Y-76229400D02*
X139768796Y-76300828D01*
X139768796Y-76300828D02*
X139625939Y-76300828D01*
X139625939Y-76300828D02*
X139411653Y-76229400D01*
X139411653Y-76229400D02*
X139268796Y-76086542D01*
X139268796Y-76086542D02*
X139197367Y-75943685D01*
X139197367Y-75943685D02*
X139125939Y-75657971D01*
X139125939Y-75657971D02*
X139125939Y-75443685D01*
X139125939Y-75443685D02*
X139197367Y-75157971D01*
X139197367Y-75157971D02*
X139268796Y-75015114D01*
X139268796Y-75015114D02*
X139411653Y-74872257D01*
X139411653Y-74872257D02*
X139625939Y-74800828D01*
X139625939Y-74800828D02*
X139768796Y-74800828D01*
X139768796Y-74800828D02*
X139983082Y-74872257D01*
X139983082Y-74872257D02*
X140054510Y-74943685D01*
D12*
X95357142Y-87324819D02*
X95023809Y-86848628D01*
X94785714Y-87324819D02*
X94785714Y-86324819D01*
X94785714Y-86324819D02*
X95166666Y-86324819D01*
X95166666Y-86324819D02*
X95261904Y-86372438D01*
X95261904Y-86372438D02*
X95309523Y-86420057D01*
X95309523Y-86420057D02*
X95357142Y-86515295D01*
X95357142Y-86515295D02*
X95357142Y-86658152D01*
X95357142Y-86658152D02*
X95309523Y-86753390D01*
X95309523Y-86753390D02*
X95261904Y-86801009D01*
X95261904Y-86801009D02*
X95166666Y-86848628D01*
X95166666Y-86848628D02*
X94785714Y-86848628D01*
X96309523Y-87324819D02*
X95738095Y-87324819D01*
X96023809Y-87324819D02*
X96023809Y-86324819D01*
X96023809Y-86324819D02*
X95928571Y-86467676D01*
X95928571Y-86467676D02*
X95833333Y-86562914D01*
X95833333Y-86562914D02*
X95738095Y-86610533D01*
X96928571Y-86324819D02*
X97023809Y-86324819D01*
X97023809Y-86324819D02*
X97119047Y-86372438D01*
X97119047Y-86372438D02*
X97166666Y-86420057D01*
X97166666Y-86420057D02*
X97214285Y-86515295D01*
X97214285Y-86515295D02*
X97261904Y-86705771D01*
X97261904Y-86705771D02*
X97261904Y-86943866D01*
X97261904Y-86943866D02*
X97214285Y-87134342D01*
X97214285Y-87134342D02*
X97166666Y-87229580D01*
X97166666Y-87229580D02*
X97119047Y-87277200D01*
X97119047Y-87277200D02*
X97023809Y-87324819D01*
X97023809Y-87324819D02*
X96928571Y-87324819D01*
X96928571Y-87324819D02*
X96833333Y-87277200D01*
X96833333Y-87277200D02*
X96785714Y-87229580D01*
X96785714Y-87229580D02*
X96738095Y-87134342D01*
X96738095Y-87134342D02*
X96690476Y-86943866D01*
X96690476Y-86943866D02*
X96690476Y-86705771D01*
X96690476Y-86705771D02*
X96738095Y-86515295D01*
X96738095Y-86515295D02*
X96785714Y-86420057D01*
X96785714Y-86420057D02*
X96833333Y-86372438D01*
X96833333Y-86372438D02*
X96928571Y-86324819D01*
X79154761Y-83550057D02*
X79059523Y-83502438D01*
X79059523Y-83502438D02*
X78964285Y-83407200D01*
X78964285Y-83407200D02*
X78821428Y-83264342D01*
X78821428Y-83264342D02*
X78726190Y-83216723D01*
X78726190Y-83216723D02*
X78630952Y-83216723D01*
X78678571Y-83454819D02*
X78583333Y-83407200D01*
X78583333Y-83407200D02*
X78488095Y-83311961D01*
X78488095Y-83311961D02*
X78440476Y-83121485D01*
X78440476Y-83121485D02*
X78440476Y-82788152D01*
X78440476Y-82788152D02*
X78488095Y-82597676D01*
X78488095Y-82597676D02*
X78583333Y-82502438D01*
X78583333Y-82502438D02*
X78678571Y-82454819D01*
X78678571Y-82454819D02*
X78869047Y-82454819D01*
X78869047Y-82454819D02*
X78964285Y-82502438D01*
X78964285Y-82502438D02*
X79059523Y-82597676D01*
X79059523Y-82597676D02*
X79107142Y-82788152D01*
X79107142Y-82788152D02*
X79107142Y-83121485D01*
X79107142Y-83121485D02*
X79059523Y-83311961D01*
X79059523Y-83311961D02*
X78964285Y-83407200D01*
X78964285Y-83407200D02*
X78869047Y-83454819D01*
X78869047Y-83454819D02*
X78678571Y-83454819D01*
X80059523Y-83454819D02*
X79488095Y-83454819D01*
X79773809Y-83454819D02*
X79773809Y-82454819D01*
X79773809Y-82454819D02*
X79678571Y-82597676D01*
X79678571Y-82597676D02*
X79583333Y-82692914D01*
X79583333Y-82692914D02*
X79488095Y-82740533D01*
X76690476Y-89954819D02*
X76690476Y-90669104D01*
X76690476Y-90669104D02*
X76642857Y-90811961D01*
X76642857Y-90811961D02*
X76547619Y-90907200D01*
X76547619Y-90907200D02*
X76404762Y-90954819D01*
X76404762Y-90954819D02*
X76309524Y-90954819D01*
X77690476Y-90954819D02*
X77119048Y-90954819D01*
X77404762Y-90954819D02*
X77404762Y-89954819D01*
X77404762Y-89954819D02*
X77309524Y-90097676D01*
X77309524Y-90097676D02*
X77214286Y-90192914D01*
X77214286Y-90192914D02*
X77119048Y-90240533D01*
X78309524Y-89954819D02*
X78404762Y-89954819D01*
X78404762Y-89954819D02*
X78500000Y-90002438D01*
X78500000Y-90002438D02*
X78547619Y-90050057D01*
X78547619Y-90050057D02*
X78595238Y-90145295D01*
X78595238Y-90145295D02*
X78642857Y-90335771D01*
X78642857Y-90335771D02*
X78642857Y-90573866D01*
X78642857Y-90573866D02*
X78595238Y-90764342D01*
X78595238Y-90764342D02*
X78547619Y-90859580D01*
X78547619Y-90859580D02*
X78500000Y-90907200D01*
X78500000Y-90907200D02*
X78404762Y-90954819D01*
X78404762Y-90954819D02*
X78309524Y-90954819D01*
X78309524Y-90954819D02*
X78214286Y-90907200D01*
X78214286Y-90907200D02*
X78166667Y-90859580D01*
X78166667Y-90859580D02*
X78119048Y-90764342D01*
X78119048Y-90764342D02*
X78071429Y-90573866D01*
X78071429Y-90573866D02*
X78071429Y-90335771D01*
X78071429Y-90335771D02*
X78119048Y-90145295D01*
X78119048Y-90145295D02*
X78166667Y-90050057D01*
X78166667Y-90050057D02*
X78214286Y-90002438D01*
X78214286Y-90002438D02*
X78309524Y-89954819D01*
X94391666Y-93454819D02*
X94391666Y-94169104D01*
X94391666Y-94169104D02*
X94344047Y-94311961D01*
X94344047Y-94311961D02*
X94248809Y-94407200D01*
X94248809Y-94407200D02*
X94105952Y-94454819D01*
X94105952Y-94454819D02*
X94010714Y-94454819D01*
X94915476Y-94454819D02*
X95105952Y-94454819D01*
X95105952Y-94454819D02*
X95201190Y-94407200D01*
X95201190Y-94407200D02*
X95248809Y-94359580D01*
X95248809Y-94359580D02*
X95344047Y-94216723D01*
X95344047Y-94216723D02*
X95391666Y-94026247D01*
X95391666Y-94026247D02*
X95391666Y-93645295D01*
X95391666Y-93645295D02*
X95344047Y-93550057D01*
X95344047Y-93550057D02*
X95296428Y-93502438D01*
X95296428Y-93502438D02*
X95201190Y-93454819D01*
X95201190Y-93454819D02*
X95010714Y-93454819D01*
X95010714Y-93454819D02*
X94915476Y-93502438D01*
X94915476Y-93502438D02*
X94867857Y-93550057D01*
X94867857Y-93550057D02*
X94820238Y-93645295D01*
X94820238Y-93645295D02*
X94820238Y-93883390D01*
X94820238Y-93883390D02*
X94867857Y-93978628D01*
X94867857Y-93978628D02*
X94915476Y-94026247D01*
X94915476Y-94026247D02*
X95010714Y-94073866D01*
X95010714Y-94073866D02*
X95201190Y-94073866D01*
X95201190Y-94073866D02*
X95296428Y-94026247D01*
X95296428Y-94026247D02*
X95344047Y-93978628D01*
X95344047Y-93978628D02*
X95391666Y-93883390D01*
X147416666Y-116454819D02*
X147416666Y-117169104D01*
X147416666Y-117169104D02*
X147369047Y-117311961D01*
X147369047Y-117311961D02*
X147273809Y-117407200D01*
X147273809Y-117407200D02*
X147130952Y-117454819D01*
X147130952Y-117454819D02*
X147035714Y-117454819D01*
X148321428Y-116788152D02*
X148321428Y-117454819D01*
X148083333Y-116407200D02*
X147845238Y-117121485D01*
X147845238Y-117121485D02*
X148464285Y-117121485D01*
X147416666Y-104954819D02*
X147416666Y-105669104D01*
X147416666Y-105669104D02*
X147369047Y-105811961D01*
X147369047Y-105811961D02*
X147273809Y-105907200D01*
X147273809Y-105907200D02*
X147130952Y-105954819D01*
X147130952Y-105954819D02*
X147035714Y-105954819D01*
X147797619Y-104954819D02*
X148416666Y-104954819D01*
X148416666Y-104954819D02*
X148083333Y-105335771D01*
X148083333Y-105335771D02*
X148226190Y-105335771D01*
X148226190Y-105335771D02*
X148321428Y-105383390D01*
X148321428Y-105383390D02*
X148369047Y-105431009D01*
X148369047Y-105431009D02*
X148416666Y-105526247D01*
X148416666Y-105526247D02*
X148416666Y-105764342D01*
X148416666Y-105764342D02*
X148369047Y-105859580D01*
X148369047Y-105859580D02*
X148321428Y-105907200D01*
X148321428Y-105907200D02*
X148226190Y-105954819D01*
X148226190Y-105954819D02*
X147940476Y-105954819D01*
X147940476Y-105954819D02*
X147845238Y-105907200D01*
X147845238Y-105907200D02*
X147797619Y-105859580D01*
X102166666Y-116954819D02*
X102166666Y-117669104D01*
X102166666Y-117669104D02*
X102119047Y-117811961D01*
X102119047Y-117811961D02*
X102023809Y-117907200D01*
X102023809Y-117907200D02*
X101880952Y-117954819D01*
X101880952Y-117954819D02*
X101785714Y-117954819D01*
X103166666Y-117954819D02*
X102595238Y-117954819D01*
X102880952Y-117954819D02*
X102880952Y-116954819D01*
X102880952Y-116954819D02*
X102785714Y-117097676D01*
X102785714Y-117097676D02*
X102690476Y-117192914D01*
X102690476Y-117192914D02*
X102595238Y-117240533D01*
X85857142Y-107859580D02*
X85809523Y-107907200D01*
X85809523Y-107907200D02*
X85666666Y-107954819D01*
X85666666Y-107954819D02*
X85571428Y-107954819D01*
X85571428Y-107954819D02*
X85428571Y-107907200D01*
X85428571Y-107907200D02*
X85333333Y-107811961D01*
X85333333Y-107811961D02*
X85285714Y-107716723D01*
X85285714Y-107716723D02*
X85238095Y-107526247D01*
X85238095Y-107526247D02*
X85238095Y-107383390D01*
X85238095Y-107383390D02*
X85285714Y-107192914D01*
X85285714Y-107192914D02*
X85333333Y-107097676D01*
X85333333Y-107097676D02*
X85428571Y-107002438D01*
X85428571Y-107002438D02*
X85571428Y-106954819D01*
X85571428Y-106954819D02*
X85666666Y-106954819D01*
X85666666Y-106954819D02*
X85809523Y-107002438D01*
X85809523Y-107002438D02*
X85857142Y-107050057D01*
X86238095Y-107050057D02*
X86285714Y-107002438D01*
X86285714Y-107002438D02*
X86380952Y-106954819D01*
X86380952Y-106954819D02*
X86619047Y-106954819D01*
X86619047Y-106954819D02*
X86714285Y-107002438D01*
X86714285Y-107002438D02*
X86761904Y-107050057D01*
X86761904Y-107050057D02*
X86809523Y-107145295D01*
X86809523Y-107145295D02*
X86809523Y-107240533D01*
X86809523Y-107240533D02*
X86761904Y-107383390D01*
X86761904Y-107383390D02*
X86190476Y-107954819D01*
X86190476Y-107954819D02*
X86809523Y-107954819D01*
X87142857Y-106954819D02*
X87761904Y-106954819D01*
X87761904Y-106954819D02*
X87428571Y-107335771D01*
X87428571Y-107335771D02*
X87571428Y-107335771D01*
X87571428Y-107335771D02*
X87666666Y-107383390D01*
X87666666Y-107383390D02*
X87714285Y-107431009D01*
X87714285Y-107431009D02*
X87761904Y-107526247D01*
X87761904Y-107526247D02*
X87761904Y-107764342D01*
X87761904Y-107764342D02*
X87714285Y-107859580D01*
X87714285Y-107859580D02*
X87666666Y-107907200D01*
X87666666Y-107907200D02*
X87571428Y-107954819D01*
X87571428Y-107954819D02*
X87285714Y-107954819D01*
X87285714Y-107954819D02*
X87190476Y-107907200D01*
X87190476Y-107907200D02*
X87142857Y-107859580D01*
X87366666Y-64754819D02*
X87366666Y-65469104D01*
X87366666Y-65469104D02*
X87319047Y-65611961D01*
X87319047Y-65611961D02*
X87223809Y-65707200D01*
X87223809Y-65707200D02*
X87080952Y-65754819D01*
X87080952Y-65754819D02*
X86985714Y-65754819D01*
X87795238Y-64850057D02*
X87842857Y-64802438D01*
X87842857Y-64802438D02*
X87938095Y-64754819D01*
X87938095Y-64754819D02*
X88176190Y-64754819D01*
X88176190Y-64754819D02*
X88271428Y-64802438D01*
X88271428Y-64802438D02*
X88319047Y-64850057D01*
X88319047Y-64850057D02*
X88366666Y-64945295D01*
X88366666Y-64945295D02*
X88366666Y-65040533D01*
X88366666Y-65040533D02*
X88319047Y-65183390D01*
X88319047Y-65183390D02*
X87747619Y-65754819D01*
X87747619Y-65754819D02*
X88366666Y-65754819D01*
X100333333Y-114704819D02*
X100000000Y-114228628D01*
X99761905Y-114704819D02*
X99761905Y-113704819D01*
X99761905Y-113704819D02*
X100142857Y-113704819D01*
X100142857Y-113704819D02*
X100238095Y-113752438D01*
X100238095Y-113752438D02*
X100285714Y-113800057D01*
X100285714Y-113800057D02*
X100333333Y-113895295D01*
X100333333Y-113895295D02*
X100333333Y-114038152D01*
X100333333Y-114038152D02*
X100285714Y-114133390D01*
X100285714Y-114133390D02*
X100238095Y-114181009D01*
X100238095Y-114181009D02*
X100142857Y-114228628D01*
X100142857Y-114228628D02*
X99761905Y-114228628D01*
X101238095Y-113704819D02*
X100761905Y-113704819D01*
X100761905Y-113704819D02*
X100714286Y-114181009D01*
X100714286Y-114181009D02*
X100761905Y-114133390D01*
X100761905Y-114133390D02*
X100857143Y-114085771D01*
X100857143Y-114085771D02*
X101095238Y-114085771D01*
X101095238Y-114085771D02*
X101190476Y-114133390D01*
X101190476Y-114133390D02*
X101238095Y-114181009D01*
X101238095Y-114181009D02*
X101285714Y-114276247D01*
X101285714Y-114276247D02*
X101285714Y-114514342D01*
X101285714Y-114514342D02*
X101238095Y-114609580D01*
X101238095Y-114609580D02*
X101190476Y-114657200D01*
X101190476Y-114657200D02*
X101095238Y-114704819D01*
X101095238Y-114704819D02*
X100857143Y-114704819D01*
X100857143Y-114704819D02*
X100761905Y-114657200D01*
X100761905Y-114657200D02*
X100714286Y-114609580D01*
X83833333Y-107954819D02*
X83500000Y-107478628D01*
X83261905Y-107954819D02*
X83261905Y-106954819D01*
X83261905Y-106954819D02*
X83642857Y-106954819D01*
X83642857Y-106954819D02*
X83738095Y-107002438D01*
X83738095Y-107002438D02*
X83785714Y-107050057D01*
X83785714Y-107050057D02*
X83833333Y-107145295D01*
X83833333Y-107145295D02*
X83833333Y-107288152D01*
X83833333Y-107288152D02*
X83785714Y-107383390D01*
X83785714Y-107383390D02*
X83738095Y-107431009D01*
X83738095Y-107431009D02*
X83642857Y-107478628D01*
X83642857Y-107478628D02*
X83261905Y-107478628D01*
X84690476Y-106954819D02*
X84500000Y-106954819D01*
X84500000Y-106954819D02*
X84404762Y-107002438D01*
X84404762Y-107002438D02*
X84357143Y-107050057D01*
X84357143Y-107050057D02*
X84261905Y-107192914D01*
X84261905Y-107192914D02*
X84214286Y-107383390D01*
X84214286Y-107383390D02*
X84214286Y-107764342D01*
X84214286Y-107764342D02*
X84261905Y-107859580D01*
X84261905Y-107859580D02*
X84309524Y-107907200D01*
X84309524Y-107907200D02*
X84404762Y-107954819D01*
X84404762Y-107954819D02*
X84595238Y-107954819D01*
X84595238Y-107954819D02*
X84690476Y-107907200D01*
X84690476Y-107907200D02*
X84738095Y-107859580D01*
X84738095Y-107859580D02*
X84785714Y-107764342D01*
X84785714Y-107764342D02*
X84785714Y-107526247D01*
X84785714Y-107526247D02*
X84738095Y-107431009D01*
X84738095Y-107431009D02*
X84690476Y-107383390D01*
X84690476Y-107383390D02*
X84595238Y-107335771D01*
X84595238Y-107335771D02*
X84404762Y-107335771D01*
X84404762Y-107335771D02*
X84309524Y-107383390D01*
X84309524Y-107383390D02*
X84261905Y-107431009D01*
X84261905Y-107431009D02*
X84214286Y-107526247D01*
X77833333Y-116204819D02*
X77500000Y-115728628D01*
X77261905Y-116204819D02*
X77261905Y-115204819D01*
X77261905Y-115204819D02*
X77642857Y-115204819D01*
X77642857Y-115204819D02*
X77738095Y-115252438D01*
X77738095Y-115252438D02*
X77785714Y-115300057D01*
X77785714Y-115300057D02*
X77833333Y-115395295D01*
X77833333Y-115395295D02*
X77833333Y-115538152D01*
X77833333Y-115538152D02*
X77785714Y-115633390D01*
X77785714Y-115633390D02*
X77738095Y-115681009D01*
X77738095Y-115681009D02*
X77642857Y-115728628D01*
X77642857Y-115728628D02*
X77261905Y-115728628D01*
X78166667Y-115204819D02*
X78833333Y-115204819D01*
X78833333Y-115204819D02*
X78404762Y-116204819D01*
X89333333Y-115954819D02*
X89000000Y-115478628D01*
X88761905Y-115954819D02*
X88761905Y-114954819D01*
X88761905Y-114954819D02*
X89142857Y-114954819D01*
X89142857Y-114954819D02*
X89238095Y-115002438D01*
X89238095Y-115002438D02*
X89285714Y-115050057D01*
X89285714Y-115050057D02*
X89333333Y-115145295D01*
X89333333Y-115145295D02*
X89333333Y-115288152D01*
X89333333Y-115288152D02*
X89285714Y-115383390D01*
X89285714Y-115383390D02*
X89238095Y-115431009D01*
X89238095Y-115431009D02*
X89142857Y-115478628D01*
X89142857Y-115478628D02*
X88761905Y-115478628D01*
X89904762Y-115383390D02*
X89809524Y-115335771D01*
X89809524Y-115335771D02*
X89761905Y-115288152D01*
X89761905Y-115288152D02*
X89714286Y-115192914D01*
X89714286Y-115192914D02*
X89714286Y-115145295D01*
X89714286Y-115145295D02*
X89761905Y-115050057D01*
X89761905Y-115050057D02*
X89809524Y-115002438D01*
X89809524Y-115002438D02*
X89904762Y-114954819D01*
X89904762Y-114954819D02*
X90095238Y-114954819D01*
X90095238Y-114954819D02*
X90190476Y-115002438D01*
X90190476Y-115002438D02*
X90238095Y-115050057D01*
X90238095Y-115050057D02*
X90285714Y-115145295D01*
X90285714Y-115145295D02*
X90285714Y-115192914D01*
X90285714Y-115192914D02*
X90238095Y-115288152D01*
X90238095Y-115288152D02*
X90190476Y-115335771D01*
X90190476Y-115335771D02*
X90095238Y-115383390D01*
X90095238Y-115383390D02*
X89904762Y-115383390D01*
X89904762Y-115383390D02*
X89809524Y-115431009D01*
X89809524Y-115431009D02*
X89761905Y-115478628D01*
X89761905Y-115478628D02*
X89714286Y-115573866D01*
X89714286Y-115573866D02*
X89714286Y-115764342D01*
X89714286Y-115764342D02*
X89761905Y-115859580D01*
X89761905Y-115859580D02*
X89809524Y-115907200D01*
X89809524Y-115907200D02*
X89904762Y-115954819D01*
X89904762Y-115954819D02*
X90095238Y-115954819D01*
X90095238Y-115954819D02*
X90190476Y-115907200D01*
X90190476Y-115907200D02*
X90238095Y-115859580D01*
X90238095Y-115859580D02*
X90285714Y-115764342D01*
X90285714Y-115764342D02*
X90285714Y-115573866D01*
X90285714Y-115573866D02*
X90238095Y-115478628D01*
X90238095Y-115478628D02*
X90190476Y-115431009D01*
X90190476Y-115431009D02*
X90095238Y-115383390D01*
X74333333Y-116204819D02*
X74000000Y-115728628D01*
X73761905Y-116204819D02*
X73761905Y-115204819D01*
X73761905Y-115204819D02*
X74142857Y-115204819D01*
X74142857Y-115204819D02*
X74238095Y-115252438D01*
X74238095Y-115252438D02*
X74285714Y-115300057D01*
X74285714Y-115300057D02*
X74333333Y-115395295D01*
X74333333Y-115395295D02*
X74333333Y-115538152D01*
X74333333Y-115538152D02*
X74285714Y-115633390D01*
X74285714Y-115633390D02*
X74238095Y-115681009D01*
X74238095Y-115681009D02*
X74142857Y-115728628D01*
X74142857Y-115728628D02*
X73761905Y-115728628D01*
X74809524Y-116204819D02*
X75000000Y-116204819D01*
X75000000Y-116204819D02*
X75095238Y-116157200D01*
X75095238Y-116157200D02*
X75142857Y-116109580D01*
X75142857Y-116109580D02*
X75238095Y-115966723D01*
X75238095Y-115966723D02*
X75285714Y-115776247D01*
X75285714Y-115776247D02*
X75285714Y-115395295D01*
X75285714Y-115395295D02*
X75238095Y-115300057D01*
X75238095Y-115300057D02*
X75190476Y-115252438D01*
X75190476Y-115252438D02*
X75095238Y-115204819D01*
X75095238Y-115204819D02*
X74904762Y-115204819D01*
X74904762Y-115204819D02*
X74809524Y-115252438D01*
X74809524Y-115252438D02*
X74761905Y-115300057D01*
X74761905Y-115300057D02*
X74714286Y-115395295D01*
X74714286Y-115395295D02*
X74714286Y-115633390D01*
X74714286Y-115633390D02*
X74761905Y-115728628D01*
X74761905Y-115728628D02*
X74809524Y-115776247D01*
X74809524Y-115776247D02*
X74904762Y-115823866D01*
X74904762Y-115823866D02*
X75095238Y-115823866D01*
X75095238Y-115823866D02*
X75190476Y-115776247D01*
X75190476Y-115776247D02*
X75238095Y-115728628D01*
X75238095Y-115728628D02*
X75285714Y-115633390D01*
X95488095Y-50954819D02*
X95488095Y-51764342D01*
X95488095Y-51764342D02*
X95535714Y-51859580D01*
X95535714Y-51859580D02*
X95583333Y-51907200D01*
X95583333Y-51907200D02*
X95678571Y-51954819D01*
X95678571Y-51954819D02*
X95869047Y-51954819D01*
X95869047Y-51954819D02*
X95964285Y-51907200D01*
X95964285Y-51907200D02*
X96011904Y-51859580D01*
X96011904Y-51859580D02*
X96059523Y-51764342D01*
X96059523Y-51764342D02*
X96059523Y-50954819D01*
X96488095Y-51050057D02*
X96535714Y-51002438D01*
X96535714Y-51002438D02*
X96630952Y-50954819D01*
X96630952Y-50954819D02*
X96869047Y-50954819D01*
X96869047Y-50954819D02*
X96964285Y-51002438D01*
X96964285Y-51002438D02*
X97011904Y-51050057D01*
X97011904Y-51050057D02*
X97059523Y-51145295D01*
X97059523Y-51145295D02*
X97059523Y-51240533D01*
X97059523Y-51240533D02*
X97011904Y-51383390D01*
X97011904Y-51383390D02*
X96440476Y-51954819D01*
X96440476Y-51954819D02*
X97059523Y-51954819D01*
X85988095Y-99729819D02*
X85988095Y-100539342D01*
X85988095Y-100539342D02*
X86035714Y-100634580D01*
X86035714Y-100634580D02*
X86083333Y-100682200D01*
X86083333Y-100682200D02*
X86178571Y-100729819D01*
X86178571Y-100729819D02*
X86369047Y-100729819D01*
X86369047Y-100729819D02*
X86464285Y-100682200D01*
X86464285Y-100682200D02*
X86511904Y-100634580D01*
X86511904Y-100634580D02*
X86559523Y-100539342D01*
X86559523Y-100539342D02*
X86559523Y-99729819D01*
X87511904Y-99729819D02*
X87035714Y-99729819D01*
X87035714Y-99729819D02*
X86988095Y-100206009D01*
X86988095Y-100206009D02*
X87035714Y-100158390D01*
X87035714Y-100158390D02*
X87130952Y-100110771D01*
X87130952Y-100110771D02*
X87369047Y-100110771D01*
X87369047Y-100110771D02*
X87464285Y-100158390D01*
X87464285Y-100158390D02*
X87511904Y-100206009D01*
X87511904Y-100206009D02*
X87559523Y-100301247D01*
X87559523Y-100301247D02*
X87559523Y-100539342D01*
X87559523Y-100539342D02*
X87511904Y-100634580D01*
X87511904Y-100634580D02*
X87464285Y-100682200D01*
X87464285Y-100682200D02*
X87369047Y-100729819D01*
X87369047Y-100729819D02*
X87130952Y-100729819D01*
X87130952Y-100729819D02*
X87035714Y-100682200D01*
X87035714Y-100682200D02*
X86988095Y-100634580D01*
X63857142Y-71859580D02*
X63809523Y-71907200D01*
X63809523Y-71907200D02*
X63666666Y-71954819D01*
X63666666Y-71954819D02*
X63571428Y-71954819D01*
X63571428Y-71954819D02*
X63428571Y-71907200D01*
X63428571Y-71907200D02*
X63333333Y-71811961D01*
X63333333Y-71811961D02*
X63285714Y-71716723D01*
X63285714Y-71716723D02*
X63238095Y-71526247D01*
X63238095Y-71526247D02*
X63238095Y-71383390D01*
X63238095Y-71383390D02*
X63285714Y-71192914D01*
X63285714Y-71192914D02*
X63333333Y-71097676D01*
X63333333Y-71097676D02*
X63428571Y-71002438D01*
X63428571Y-71002438D02*
X63571428Y-70954819D01*
X63571428Y-70954819D02*
X63666666Y-70954819D01*
X63666666Y-70954819D02*
X63809523Y-71002438D01*
X63809523Y-71002438D02*
X63857142Y-71050057D01*
X64809523Y-71954819D02*
X64238095Y-71954819D01*
X64523809Y-71954819D02*
X64523809Y-70954819D01*
X64523809Y-70954819D02*
X64428571Y-71097676D01*
X64428571Y-71097676D02*
X64333333Y-71192914D01*
X64333333Y-71192914D02*
X64238095Y-71240533D01*
X65666666Y-71288152D02*
X65666666Y-71954819D01*
X65428571Y-70907200D02*
X65190476Y-71621485D01*
X65190476Y-71621485D02*
X65809523Y-71621485D01*
X137083333Y-96704819D02*
X136750000Y-96228628D01*
X136511905Y-96704819D02*
X136511905Y-95704819D01*
X136511905Y-95704819D02*
X136892857Y-95704819D01*
X136892857Y-95704819D02*
X136988095Y-95752438D01*
X136988095Y-95752438D02*
X137035714Y-95800057D01*
X137035714Y-95800057D02*
X137083333Y-95895295D01*
X137083333Y-95895295D02*
X137083333Y-96038152D01*
X137083333Y-96038152D02*
X137035714Y-96133390D01*
X137035714Y-96133390D02*
X136988095Y-96181009D01*
X136988095Y-96181009D02*
X136892857Y-96228628D01*
X136892857Y-96228628D02*
X136511905Y-96228628D01*
X138035714Y-96704819D02*
X137464286Y-96704819D01*
X137750000Y-96704819D02*
X137750000Y-95704819D01*
X137750000Y-95704819D02*
X137654762Y-95847676D01*
X137654762Y-95847676D02*
X137559524Y-95942914D01*
X137559524Y-95942914D02*
X137464286Y-95990533D01*
X71238095Y-80954819D02*
X71238095Y-81764342D01*
X71238095Y-81764342D02*
X71285714Y-81859580D01*
X71285714Y-81859580D02*
X71333333Y-81907200D01*
X71333333Y-81907200D02*
X71428571Y-81954819D01*
X71428571Y-81954819D02*
X71619047Y-81954819D01*
X71619047Y-81954819D02*
X71714285Y-81907200D01*
X71714285Y-81907200D02*
X71761904Y-81859580D01*
X71761904Y-81859580D02*
X71809523Y-81764342D01*
X71809523Y-81764342D02*
X71809523Y-80954819D01*
X72809523Y-81954819D02*
X72238095Y-81954819D01*
X72523809Y-81954819D02*
X72523809Y-80954819D01*
X72523809Y-80954819D02*
X72428571Y-81097676D01*
X72428571Y-81097676D02*
X72333333Y-81192914D01*
X72333333Y-81192914D02*
X72238095Y-81240533D01*
X64357142Y-102359580D02*
X64309523Y-102407200D01*
X64309523Y-102407200D02*
X64166666Y-102454819D01*
X64166666Y-102454819D02*
X64071428Y-102454819D01*
X64071428Y-102454819D02*
X63928571Y-102407200D01*
X63928571Y-102407200D02*
X63833333Y-102311961D01*
X63833333Y-102311961D02*
X63785714Y-102216723D01*
X63785714Y-102216723D02*
X63738095Y-102026247D01*
X63738095Y-102026247D02*
X63738095Y-101883390D01*
X63738095Y-101883390D02*
X63785714Y-101692914D01*
X63785714Y-101692914D02*
X63833333Y-101597676D01*
X63833333Y-101597676D02*
X63928571Y-101502438D01*
X63928571Y-101502438D02*
X64071428Y-101454819D01*
X64071428Y-101454819D02*
X64166666Y-101454819D01*
X64166666Y-101454819D02*
X64309523Y-101502438D01*
X64309523Y-101502438D02*
X64357142Y-101550057D01*
X65309523Y-102454819D02*
X64738095Y-102454819D01*
X65023809Y-102454819D02*
X65023809Y-101454819D01*
X65023809Y-101454819D02*
X64928571Y-101597676D01*
X64928571Y-101597676D02*
X64833333Y-101692914D01*
X64833333Y-101692914D02*
X64738095Y-101740533D01*
X65928571Y-101454819D02*
X66023809Y-101454819D01*
X66023809Y-101454819D02*
X66119047Y-101502438D01*
X66119047Y-101502438D02*
X66166666Y-101550057D01*
X66166666Y-101550057D02*
X66214285Y-101645295D01*
X66214285Y-101645295D02*
X66261904Y-101835771D01*
X66261904Y-101835771D02*
X66261904Y-102073866D01*
X66261904Y-102073866D02*
X66214285Y-102264342D01*
X66214285Y-102264342D02*
X66166666Y-102359580D01*
X66166666Y-102359580D02*
X66119047Y-102407200D01*
X66119047Y-102407200D02*
X66023809Y-102454819D01*
X66023809Y-102454819D02*
X65928571Y-102454819D01*
X65928571Y-102454819D02*
X65833333Y-102407200D01*
X65833333Y-102407200D02*
X65785714Y-102359580D01*
X65785714Y-102359580D02*
X65738095Y-102264342D01*
X65738095Y-102264342D02*
X65690476Y-102073866D01*
X65690476Y-102073866D02*
X65690476Y-101835771D01*
X65690476Y-101835771D02*
X65738095Y-101645295D01*
X65738095Y-101645295D02*
X65785714Y-101550057D01*
X65785714Y-101550057D02*
X65833333Y-101502438D01*
X65833333Y-101502438D02*
X65928571Y-101454819D01*
X117857142Y-105859580D02*
X117809523Y-105907200D01*
X117809523Y-105907200D02*
X117666666Y-105954819D01*
X117666666Y-105954819D02*
X117571428Y-105954819D01*
X117571428Y-105954819D02*
X117428571Y-105907200D01*
X117428571Y-105907200D02*
X117333333Y-105811961D01*
X117333333Y-105811961D02*
X117285714Y-105716723D01*
X117285714Y-105716723D02*
X117238095Y-105526247D01*
X117238095Y-105526247D02*
X117238095Y-105383390D01*
X117238095Y-105383390D02*
X117285714Y-105192914D01*
X117285714Y-105192914D02*
X117333333Y-105097676D01*
X117333333Y-105097676D02*
X117428571Y-105002438D01*
X117428571Y-105002438D02*
X117571428Y-104954819D01*
X117571428Y-104954819D02*
X117666666Y-104954819D01*
X117666666Y-104954819D02*
X117809523Y-105002438D01*
X117809523Y-105002438D02*
X117857142Y-105050057D01*
X118809523Y-105954819D02*
X118238095Y-105954819D01*
X118523809Y-105954819D02*
X118523809Y-104954819D01*
X118523809Y-104954819D02*
X118428571Y-105097676D01*
X118428571Y-105097676D02*
X118333333Y-105192914D01*
X118333333Y-105192914D02*
X118238095Y-105240533D01*
X119285714Y-105954819D02*
X119476190Y-105954819D01*
X119476190Y-105954819D02*
X119571428Y-105907200D01*
X119571428Y-105907200D02*
X119619047Y-105859580D01*
X119619047Y-105859580D02*
X119714285Y-105716723D01*
X119714285Y-105716723D02*
X119761904Y-105526247D01*
X119761904Y-105526247D02*
X119761904Y-105145295D01*
X119761904Y-105145295D02*
X119714285Y-105050057D01*
X119714285Y-105050057D02*
X119666666Y-105002438D01*
X119666666Y-105002438D02*
X119571428Y-104954819D01*
X119571428Y-104954819D02*
X119380952Y-104954819D01*
X119380952Y-104954819D02*
X119285714Y-105002438D01*
X119285714Y-105002438D02*
X119238095Y-105050057D01*
X119238095Y-105050057D02*
X119190476Y-105145295D01*
X119190476Y-105145295D02*
X119190476Y-105383390D01*
X119190476Y-105383390D02*
X119238095Y-105478628D01*
X119238095Y-105478628D02*
X119285714Y-105526247D01*
X119285714Y-105526247D02*
X119380952Y-105573866D01*
X119380952Y-105573866D02*
X119571428Y-105573866D01*
X119571428Y-105573866D02*
X119666666Y-105526247D01*
X119666666Y-105526247D02*
X119714285Y-105478628D01*
X119714285Y-105478628D02*
X119761904Y-105383390D01*
X96033333Y-82609580D02*
X95985714Y-82657200D01*
X95985714Y-82657200D02*
X95842857Y-82704819D01*
X95842857Y-82704819D02*
X95747619Y-82704819D01*
X95747619Y-82704819D02*
X95604762Y-82657200D01*
X95604762Y-82657200D02*
X95509524Y-82561961D01*
X95509524Y-82561961D02*
X95461905Y-82466723D01*
X95461905Y-82466723D02*
X95414286Y-82276247D01*
X95414286Y-82276247D02*
X95414286Y-82133390D01*
X95414286Y-82133390D02*
X95461905Y-81942914D01*
X95461905Y-81942914D02*
X95509524Y-81847676D01*
X95509524Y-81847676D02*
X95604762Y-81752438D01*
X95604762Y-81752438D02*
X95747619Y-81704819D01*
X95747619Y-81704819D02*
X95842857Y-81704819D01*
X95842857Y-81704819D02*
X95985714Y-81752438D01*
X95985714Y-81752438D02*
X96033333Y-81800057D01*
X96890476Y-82038152D02*
X96890476Y-82704819D01*
X96652381Y-81657200D02*
X96414286Y-82371485D01*
X96414286Y-82371485D02*
X97033333Y-82371485D01*
X67357142Y-58359580D02*
X67309523Y-58407200D01*
X67309523Y-58407200D02*
X67166666Y-58454819D01*
X67166666Y-58454819D02*
X67071428Y-58454819D01*
X67071428Y-58454819D02*
X66928571Y-58407200D01*
X66928571Y-58407200D02*
X66833333Y-58311961D01*
X66833333Y-58311961D02*
X66785714Y-58216723D01*
X66785714Y-58216723D02*
X66738095Y-58026247D01*
X66738095Y-58026247D02*
X66738095Y-57883390D01*
X66738095Y-57883390D02*
X66785714Y-57692914D01*
X66785714Y-57692914D02*
X66833333Y-57597676D01*
X66833333Y-57597676D02*
X66928571Y-57502438D01*
X66928571Y-57502438D02*
X67071428Y-57454819D01*
X67071428Y-57454819D02*
X67166666Y-57454819D01*
X67166666Y-57454819D02*
X67309523Y-57502438D01*
X67309523Y-57502438D02*
X67357142Y-57550057D01*
X68309523Y-58454819D02*
X67738095Y-58454819D01*
X68023809Y-58454819D02*
X68023809Y-57454819D01*
X68023809Y-57454819D02*
X67928571Y-57597676D01*
X67928571Y-57597676D02*
X67833333Y-57692914D01*
X67833333Y-57692914D02*
X67738095Y-57740533D01*
X68690476Y-57550057D02*
X68738095Y-57502438D01*
X68738095Y-57502438D02*
X68833333Y-57454819D01*
X68833333Y-57454819D02*
X69071428Y-57454819D01*
X69071428Y-57454819D02*
X69166666Y-57502438D01*
X69166666Y-57502438D02*
X69214285Y-57550057D01*
X69214285Y-57550057D02*
X69261904Y-57645295D01*
X69261904Y-57645295D02*
X69261904Y-57740533D01*
X69261904Y-57740533D02*
X69214285Y-57883390D01*
X69214285Y-57883390D02*
X68642857Y-58454819D01*
X68642857Y-58454819D02*
X69261904Y-58454819D01*
X69916666Y-116954819D02*
X69916666Y-117669104D01*
X69916666Y-117669104D02*
X69869047Y-117811961D01*
X69869047Y-117811961D02*
X69773809Y-117907200D01*
X69773809Y-117907200D02*
X69630952Y-117954819D01*
X69630952Y-117954819D02*
X69535714Y-117954819D01*
X70869047Y-116954819D02*
X70392857Y-116954819D01*
X70392857Y-116954819D02*
X70345238Y-117431009D01*
X70345238Y-117431009D02*
X70392857Y-117383390D01*
X70392857Y-117383390D02*
X70488095Y-117335771D01*
X70488095Y-117335771D02*
X70726190Y-117335771D01*
X70726190Y-117335771D02*
X70821428Y-117383390D01*
X70821428Y-117383390D02*
X70869047Y-117431009D01*
X70869047Y-117431009D02*
X70916666Y-117526247D01*
X70916666Y-117526247D02*
X70916666Y-117764342D01*
X70916666Y-117764342D02*
X70869047Y-117859580D01*
X70869047Y-117859580D02*
X70821428Y-117907200D01*
X70821428Y-117907200D02*
X70726190Y-117954819D01*
X70726190Y-117954819D02*
X70488095Y-117954819D01*
X70488095Y-117954819D02*
X70392857Y-117907200D01*
X70392857Y-117907200D02*
X70345238Y-117859580D01*
X137666666Y-55204819D02*
X137666666Y-55919104D01*
X137666666Y-55919104D02*
X137619047Y-56061961D01*
X137619047Y-56061961D02*
X137523809Y-56157200D01*
X137523809Y-56157200D02*
X137380952Y-56204819D01*
X137380952Y-56204819D02*
X137285714Y-56204819D01*
X138047619Y-55204819D02*
X138714285Y-55204819D01*
X138714285Y-55204819D02*
X138285714Y-56204819D01*
X66833333Y-88359580D02*
X66785714Y-88407200D01*
X66785714Y-88407200D02*
X66642857Y-88454819D01*
X66642857Y-88454819D02*
X66547619Y-88454819D01*
X66547619Y-88454819D02*
X66404762Y-88407200D01*
X66404762Y-88407200D02*
X66309524Y-88311961D01*
X66309524Y-88311961D02*
X66261905Y-88216723D01*
X66261905Y-88216723D02*
X66214286Y-88026247D01*
X66214286Y-88026247D02*
X66214286Y-87883390D01*
X66214286Y-87883390D02*
X66261905Y-87692914D01*
X66261905Y-87692914D02*
X66309524Y-87597676D01*
X66309524Y-87597676D02*
X66404762Y-87502438D01*
X66404762Y-87502438D02*
X66547619Y-87454819D01*
X66547619Y-87454819D02*
X66642857Y-87454819D01*
X66642857Y-87454819D02*
X66785714Y-87502438D01*
X66785714Y-87502438D02*
X66833333Y-87550057D01*
X67690476Y-87454819D02*
X67500000Y-87454819D01*
X67500000Y-87454819D02*
X67404762Y-87502438D01*
X67404762Y-87502438D02*
X67357143Y-87550057D01*
X67357143Y-87550057D02*
X67261905Y-87692914D01*
X67261905Y-87692914D02*
X67214286Y-87883390D01*
X67214286Y-87883390D02*
X67214286Y-88264342D01*
X67214286Y-88264342D02*
X67261905Y-88359580D01*
X67261905Y-88359580D02*
X67309524Y-88407200D01*
X67309524Y-88407200D02*
X67404762Y-88454819D01*
X67404762Y-88454819D02*
X67595238Y-88454819D01*
X67595238Y-88454819D02*
X67690476Y-88407200D01*
X67690476Y-88407200D02*
X67738095Y-88359580D01*
X67738095Y-88359580D02*
X67785714Y-88264342D01*
X67785714Y-88264342D02*
X67785714Y-88026247D01*
X67785714Y-88026247D02*
X67738095Y-87931009D01*
X67738095Y-87931009D02*
X67690476Y-87883390D01*
X67690476Y-87883390D02*
X67595238Y-87835771D01*
X67595238Y-87835771D02*
X67404762Y-87835771D01*
X67404762Y-87835771D02*
X67309524Y-87883390D01*
X67309524Y-87883390D02*
X67261905Y-87931009D01*
X67261905Y-87931009D02*
X67214286Y-88026247D01*
X86533333Y-82609580D02*
X86485714Y-82657200D01*
X86485714Y-82657200D02*
X86342857Y-82704819D01*
X86342857Y-82704819D02*
X86247619Y-82704819D01*
X86247619Y-82704819D02*
X86104762Y-82657200D01*
X86104762Y-82657200D02*
X86009524Y-82561961D01*
X86009524Y-82561961D02*
X85961905Y-82466723D01*
X85961905Y-82466723D02*
X85914286Y-82276247D01*
X85914286Y-82276247D02*
X85914286Y-82133390D01*
X85914286Y-82133390D02*
X85961905Y-81942914D01*
X85961905Y-81942914D02*
X86009524Y-81847676D01*
X86009524Y-81847676D02*
X86104762Y-81752438D01*
X86104762Y-81752438D02*
X86247619Y-81704819D01*
X86247619Y-81704819D02*
X86342857Y-81704819D01*
X86342857Y-81704819D02*
X86485714Y-81752438D01*
X86485714Y-81752438D02*
X86533333Y-81800057D01*
X86866667Y-81704819D02*
X87485714Y-81704819D01*
X87485714Y-81704819D02*
X87152381Y-82085771D01*
X87152381Y-82085771D02*
X87295238Y-82085771D01*
X87295238Y-82085771D02*
X87390476Y-82133390D01*
X87390476Y-82133390D02*
X87438095Y-82181009D01*
X87438095Y-82181009D02*
X87485714Y-82276247D01*
X87485714Y-82276247D02*
X87485714Y-82514342D01*
X87485714Y-82514342D02*
X87438095Y-82609580D01*
X87438095Y-82609580D02*
X87390476Y-82657200D01*
X87390476Y-82657200D02*
X87295238Y-82704819D01*
X87295238Y-82704819D02*
X87009524Y-82704819D01*
X87009524Y-82704819D02*
X86914286Y-82657200D01*
X86914286Y-82657200D02*
X86866667Y-82609580D01*
X75357142Y-60859580D02*
X75309523Y-60907200D01*
X75309523Y-60907200D02*
X75166666Y-60954819D01*
X75166666Y-60954819D02*
X75071428Y-60954819D01*
X75071428Y-60954819D02*
X74928571Y-60907200D01*
X74928571Y-60907200D02*
X74833333Y-60811961D01*
X74833333Y-60811961D02*
X74785714Y-60716723D01*
X74785714Y-60716723D02*
X74738095Y-60526247D01*
X74738095Y-60526247D02*
X74738095Y-60383390D01*
X74738095Y-60383390D02*
X74785714Y-60192914D01*
X74785714Y-60192914D02*
X74833333Y-60097676D01*
X74833333Y-60097676D02*
X74928571Y-60002438D01*
X74928571Y-60002438D02*
X75071428Y-59954819D01*
X75071428Y-59954819D02*
X75166666Y-59954819D01*
X75166666Y-59954819D02*
X75309523Y-60002438D01*
X75309523Y-60002438D02*
X75357142Y-60050057D01*
X76309523Y-60954819D02*
X75738095Y-60954819D01*
X76023809Y-60954819D02*
X76023809Y-59954819D01*
X76023809Y-59954819D02*
X75928571Y-60097676D01*
X75928571Y-60097676D02*
X75833333Y-60192914D01*
X75833333Y-60192914D02*
X75738095Y-60240533D01*
X77261904Y-60954819D02*
X76690476Y-60954819D01*
X76976190Y-60954819D02*
X76976190Y-59954819D01*
X76976190Y-59954819D02*
X76880952Y-60097676D01*
X76880952Y-60097676D02*
X76785714Y-60192914D01*
X76785714Y-60192914D02*
X76690476Y-60240533D01*
X86533333Y-73859580D02*
X86485714Y-73907200D01*
X86485714Y-73907200D02*
X86342857Y-73954819D01*
X86342857Y-73954819D02*
X86247619Y-73954819D01*
X86247619Y-73954819D02*
X86104762Y-73907200D01*
X86104762Y-73907200D02*
X86009524Y-73811961D01*
X86009524Y-73811961D02*
X85961905Y-73716723D01*
X85961905Y-73716723D02*
X85914286Y-73526247D01*
X85914286Y-73526247D02*
X85914286Y-73383390D01*
X85914286Y-73383390D02*
X85961905Y-73192914D01*
X85961905Y-73192914D02*
X86009524Y-73097676D01*
X86009524Y-73097676D02*
X86104762Y-73002438D01*
X86104762Y-73002438D02*
X86247619Y-72954819D01*
X86247619Y-72954819D02*
X86342857Y-72954819D01*
X86342857Y-72954819D02*
X86485714Y-73002438D01*
X86485714Y-73002438D02*
X86533333Y-73050057D01*
X87485714Y-73954819D02*
X86914286Y-73954819D01*
X87200000Y-73954819D02*
X87200000Y-72954819D01*
X87200000Y-72954819D02*
X87104762Y-73097676D01*
X87104762Y-73097676D02*
X87009524Y-73192914D01*
X87009524Y-73192914D02*
X86914286Y-73240533D01*
X117857142Y-118859580D02*
X117809523Y-118907200D01*
X117809523Y-118907200D02*
X117666666Y-118954819D01*
X117666666Y-118954819D02*
X117571428Y-118954819D01*
X117571428Y-118954819D02*
X117428571Y-118907200D01*
X117428571Y-118907200D02*
X117333333Y-118811961D01*
X117333333Y-118811961D02*
X117285714Y-118716723D01*
X117285714Y-118716723D02*
X117238095Y-118526247D01*
X117238095Y-118526247D02*
X117238095Y-118383390D01*
X117238095Y-118383390D02*
X117285714Y-118192914D01*
X117285714Y-118192914D02*
X117333333Y-118097676D01*
X117333333Y-118097676D02*
X117428571Y-118002438D01*
X117428571Y-118002438D02*
X117571428Y-117954819D01*
X117571428Y-117954819D02*
X117666666Y-117954819D01*
X117666666Y-117954819D02*
X117809523Y-118002438D01*
X117809523Y-118002438D02*
X117857142Y-118050057D01*
X118238095Y-118050057D02*
X118285714Y-118002438D01*
X118285714Y-118002438D02*
X118380952Y-117954819D01*
X118380952Y-117954819D02*
X118619047Y-117954819D01*
X118619047Y-117954819D02*
X118714285Y-118002438D01*
X118714285Y-118002438D02*
X118761904Y-118050057D01*
X118761904Y-118050057D02*
X118809523Y-118145295D01*
X118809523Y-118145295D02*
X118809523Y-118240533D01*
X118809523Y-118240533D02*
X118761904Y-118383390D01*
X118761904Y-118383390D02*
X118190476Y-118954819D01*
X118190476Y-118954819D02*
X118809523Y-118954819D01*
X119761904Y-118954819D02*
X119190476Y-118954819D01*
X119476190Y-118954819D02*
X119476190Y-117954819D01*
X119476190Y-117954819D02*
X119380952Y-118097676D01*
X119380952Y-118097676D02*
X119285714Y-118192914D01*
X119285714Y-118192914D02*
X119190476Y-118240533D01*
X105857142Y-105859580D02*
X105809523Y-105907200D01*
X105809523Y-105907200D02*
X105666666Y-105954819D01*
X105666666Y-105954819D02*
X105571428Y-105954819D01*
X105571428Y-105954819D02*
X105428571Y-105907200D01*
X105428571Y-105907200D02*
X105333333Y-105811961D01*
X105333333Y-105811961D02*
X105285714Y-105716723D01*
X105285714Y-105716723D02*
X105238095Y-105526247D01*
X105238095Y-105526247D02*
X105238095Y-105383390D01*
X105238095Y-105383390D02*
X105285714Y-105192914D01*
X105285714Y-105192914D02*
X105333333Y-105097676D01*
X105333333Y-105097676D02*
X105428571Y-105002438D01*
X105428571Y-105002438D02*
X105571428Y-104954819D01*
X105571428Y-104954819D02*
X105666666Y-104954819D01*
X105666666Y-104954819D02*
X105809523Y-105002438D01*
X105809523Y-105002438D02*
X105857142Y-105050057D01*
X106809523Y-105954819D02*
X106238095Y-105954819D01*
X106523809Y-105954819D02*
X106523809Y-104954819D01*
X106523809Y-104954819D02*
X106428571Y-105097676D01*
X106428571Y-105097676D02*
X106333333Y-105192914D01*
X106333333Y-105192914D02*
X106238095Y-105240533D01*
X107142857Y-104954819D02*
X107809523Y-104954819D01*
X107809523Y-104954819D02*
X107380952Y-105954819D01*
X96033333Y-73859580D02*
X95985714Y-73907200D01*
X95985714Y-73907200D02*
X95842857Y-73954819D01*
X95842857Y-73954819D02*
X95747619Y-73954819D01*
X95747619Y-73954819D02*
X95604762Y-73907200D01*
X95604762Y-73907200D02*
X95509524Y-73811961D01*
X95509524Y-73811961D02*
X95461905Y-73716723D01*
X95461905Y-73716723D02*
X95414286Y-73526247D01*
X95414286Y-73526247D02*
X95414286Y-73383390D01*
X95414286Y-73383390D02*
X95461905Y-73192914D01*
X95461905Y-73192914D02*
X95509524Y-73097676D01*
X95509524Y-73097676D02*
X95604762Y-73002438D01*
X95604762Y-73002438D02*
X95747619Y-72954819D01*
X95747619Y-72954819D02*
X95842857Y-72954819D01*
X95842857Y-72954819D02*
X95985714Y-73002438D01*
X95985714Y-73002438D02*
X96033333Y-73050057D01*
X96414286Y-73050057D02*
X96461905Y-73002438D01*
X96461905Y-73002438D02*
X96557143Y-72954819D01*
X96557143Y-72954819D02*
X96795238Y-72954819D01*
X96795238Y-72954819D02*
X96890476Y-73002438D01*
X96890476Y-73002438D02*
X96938095Y-73050057D01*
X96938095Y-73050057D02*
X96985714Y-73145295D01*
X96985714Y-73145295D02*
X96985714Y-73240533D01*
X96985714Y-73240533D02*
X96938095Y-73383390D01*
X96938095Y-73383390D02*
X96366667Y-73954819D01*
X96366667Y-73954819D02*
X96985714Y-73954819D01*
X96261905Y-114704819D02*
X96261905Y-113704819D01*
X96261905Y-113704819D02*
X96500000Y-113704819D01*
X96500000Y-113704819D02*
X96642857Y-113752438D01*
X96642857Y-113752438D02*
X96738095Y-113847676D01*
X96738095Y-113847676D02*
X96785714Y-113942914D01*
X96785714Y-113942914D02*
X96833333Y-114133390D01*
X96833333Y-114133390D02*
X96833333Y-114276247D01*
X96833333Y-114276247D02*
X96785714Y-114466723D01*
X96785714Y-114466723D02*
X96738095Y-114561961D01*
X96738095Y-114561961D02*
X96642857Y-114657200D01*
X96642857Y-114657200D02*
X96500000Y-114704819D01*
X96500000Y-114704819D02*
X96261905Y-114704819D01*
X97785714Y-114704819D02*
X97214286Y-114704819D01*
X97500000Y-114704819D02*
X97500000Y-113704819D01*
X97500000Y-113704819D02*
X97404762Y-113847676D01*
X97404762Y-113847676D02*
X97309524Y-113942914D01*
X97309524Y-113942914D02*
X97214286Y-113990533D01*
X96738095Y-108954819D02*
X96738095Y-107954819D01*
X97309523Y-108954819D02*
X96880952Y-108383390D01*
X97309523Y-107954819D02*
X96738095Y-108526247D01*
X96333333Y-95954819D02*
X95857143Y-95954819D01*
X95857143Y-95954819D02*
X95857143Y-94954819D01*
X96571429Y-94954819D02*
X97190476Y-94954819D01*
X97190476Y-94954819D02*
X96857143Y-95335771D01*
X96857143Y-95335771D02*
X97000000Y-95335771D01*
X97000000Y-95335771D02*
X97095238Y-95383390D01*
X97095238Y-95383390D02*
X97142857Y-95431009D01*
X97142857Y-95431009D02*
X97190476Y-95526247D01*
X97190476Y-95526247D02*
X97190476Y-95764342D01*
X97190476Y-95764342D02*
X97142857Y-95859580D01*
X97142857Y-95859580D02*
X97095238Y-95907200D01*
X97095238Y-95907200D02*
X97000000Y-95954819D01*
X97000000Y-95954819D02*
X96714286Y-95954819D01*
X96714286Y-95954819D02*
X96619048Y-95907200D01*
X96619048Y-95907200D02*
X96571429Y-95859580D01*
X111857142Y-105859580D02*
X111809523Y-105907200D01*
X111809523Y-105907200D02*
X111666666Y-105954819D01*
X111666666Y-105954819D02*
X111571428Y-105954819D01*
X111571428Y-105954819D02*
X111428571Y-105907200D01*
X111428571Y-105907200D02*
X111333333Y-105811961D01*
X111333333Y-105811961D02*
X111285714Y-105716723D01*
X111285714Y-105716723D02*
X111238095Y-105526247D01*
X111238095Y-105526247D02*
X111238095Y-105383390D01*
X111238095Y-105383390D02*
X111285714Y-105192914D01*
X111285714Y-105192914D02*
X111333333Y-105097676D01*
X111333333Y-105097676D02*
X111428571Y-105002438D01*
X111428571Y-105002438D02*
X111571428Y-104954819D01*
X111571428Y-104954819D02*
X111666666Y-104954819D01*
X111666666Y-104954819D02*
X111809523Y-105002438D01*
X111809523Y-105002438D02*
X111857142Y-105050057D01*
X112809523Y-105954819D02*
X112238095Y-105954819D01*
X112523809Y-105954819D02*
X112523809Y-104954819D01*
X112523809Y-104954819D02*
X112428571Y-105097676D01*
X112428571Y-105097676D02*
X112333333Y-105192914D01*
X112333333Y-105192914D02*
X112238095Y-105240533D01*
X113380952Y-105383390D02*
X113285714Y-105335771D01*
X113285714Y-105335771D02*
X113238095Y-105288152D01*
X113238095Y-105288152D02*
X113190476Y-105192914D01*
X113190476Y-105192914D02*
X113190476Y-105145295D01*
X113190476Y-105145295D02*
X113238095Y-105050057D01*
X113238095Y-105050057D02*
X113285714Y-105002438D01*
X113285714Y-105002438D02*
X113380952Y-104954819D01*
X113380952Y-104954819D02*
X113571428Y-104954819D01*
X113571428Y-104954819D02*
X113666666Y-105002438D01*
X113666666Y-105002438D02*
X113714285Y-105050057D01*
X113714285Y-105050057D02*
X113761904Y-105145295D01*
X113761904Y-105145295D02*
X113761904Y-105192914D01*
X113761904Y-105192914D02*
X113714285Y-105288152D01*
X113714285Y-105288152D02*
X113666666Y-105335771D01*
X113666666Y-105335771D02*
X113571428Y-105383390D01*
X113571428Y-105383390D02*
X113380952Y-105383390D01*
X113380952Y-105383390D02*
X113285714Y-105431009D01*
X113285714Y-105431009D02*
X113238095Y-105478628D01*
X113238095Y-105478628D02*
X113190476Y-105573866D01*
X113190476Y-105573866D02*
X113190476Y-105764342D01*
X113190476Y-105764342D02*
X113238095Y-105859580D01*
X113238095Y-105859580D02*
X113285714Y-105907200D01*
X113285714Y-105907200D02*
X113380952Y-105954819D01*
X113380952Y-105954819D02*
X113571428Y-105954819D01*
X113571428Y-105954819D02*
X113666666Y-105907200D01*
X113666666Y-105907200D02*
X113714285Y-105859580D01*
X113714285Y-105859580D02*
X113761904Y-105764342D01*
X113761904Y-105764342D02*
X113761904Y-105573866D01*
X113761904Y-105573866D02*
X113714285Y-105478628D01*
X113714285Y-105478628D02*
X113666666Y-105431009D01*
X113666666Y-105431009D02*
X113571428Y-105383390D01*
X111565134Y-118849036D02*
X111517515Y-118896656D01*
X111517515Y-118896656D02*
X111374658Y-118944275D01*
X111374658Y-118944275D02*
X111279420Y-118944275D01*
X111279420Y-118944275D02*
X111136563Y-118896656D01*
X111136563Y-118896656D02*
X111041325Y-118801417D01*
X111041325Y-118801417D02*
X110993706Y-118706179D01*
X110993706Y-118706179D02*
X110946087Y-118515703D01*
X110946087Y-118515703D02*
X110946087Y-118372846D01*
X110946087Y-118372846D02*
X110993706Y-118182370D01*
X110993706Y-118182370D02*
X111041325Y-118087132D01*
X111041325Y-118087132D02*
X111136563Y-117991894D01*
X111136563Y-117991894D02*
X111279420Y-117944275D01*
X111279420Y-117944275D02*
X111374658Y-117944275D01*
X111374658Y-117944275D02*
X111517515Y-117991894D01*
X111517515Y-117991894D02*
X111565134Y-118039513D01*
X111946087Y-118039513D02*
X111993706Y-117991894D01*
X111993706Y-117991894D02*
X112088944Y-117944275D01*
X112088944Y-117944275D02*
X112327039Y-117944275D01*
X112327039Y-117944275D02*
X112422277Y-117991894D01*
X112422277Y-117991894D02*
X112469896Y-118039513D01*
X112469896Y-118039513D02*
X112517515Y-118134751D01*
X112517515Y-118134751D02*
X112517515Y-118229989D01*
X112517515Y-118229989D02*
X112469896Y-118372846D01*
X112469896Y-118372846D02*
X111898468Y-118944275D01*
X111898468Y-118944275D02*
X112517515Y-118944275D01*
X113136563Y-117944275D02*
X113231801Y-117944275D01*
X113231801Y-117944275D02*
X113327039Y-117991894D01*
X113327039Y-117991894D02*
X113374658Y-118039513D01*
X113374658Y-118039513D02*
X113422277Y-118134751D01*
X113422277Y-118134751D02*
X113469896Y-118325227D01*
X113469896Y-118325227D02*
X113469896Y-118563322D01*
X113469896Y-118563322D02*
X113422277Y-118753798D01*
X113422277Y-118753798D02*
X113374658Y-118849036D01*
X113374658Y-118849036D02*
X113327039Y-118896656D01*
X113327039Y-118896656D02*
X113231801Y-118944275D01*
X113231801Y-118944275D02*
X113136563Y-118944275D01*
X113136563Y-118944275D02*
X113041325Y-118896656D01*
X113041325Y-118896656D02*
X112993706Y-118849036D01*
X112993706Y-118849036D02*
X112946087Y-118753798D01*
X112946087Y-118753798D02*
X112898468Y-118563322D01*
X112898468Y-118563322D02*
X112898468Y-118325227D01*
X112898468Y-118325227D02*
X112946087Y-118134751D01*
X112946087Y-118134751D02*
X112993706Y-118039513D01*
X112993706Y-118039513D02*
X113041325Y-117991894D01*
X113041325Y-117991894D02*
X113136563Y-117944275D01*
X114166666Y-118954819D02*
X114166666Y-119669104D01*
X114166666Y-119669104D02*
X114119047Y-119811961D01*
X114119047Y-119811961D02*
X114023809Y-119907200D01*
X114023809Y-119907200D02*
X113880952Y-119954819D01*
X113880952Y-119954819D02*
X113785714Y-119954819D01*
X114785714Y-119383390D02*
X114690476Y-119335771D01*
X114690476Y-119335771D02*
X114642857Y-119288152D01*
X114642857Y-119288152D02*
X114595238Y-119192914D01*
X114595238Y-119192914D02*
X114595238Y-119145295D01*
X114595238Y-119145295D02*
X114642857Y-119050057D01*
X114642857Y-119050057D02*
X114690476Y-119002438D01*
X114690476Y-119002438D02*
X114785714Y-118954819D01*
X114785714Y-118954819D02*
X114976190Y-118954819D01*
X114976190Y-118954819D02*
X115071428Y-119002438D01*
X115071428Y-119002438D02*
X115119047Y-119050057D01*
X115119047Y-119050057D02*
X115166666Y-119145295D01*
X115166666Y-119145295D02*
X115166666Y-119192914D01*
X115166666Y-119192914D02*
X115119047Y-119288152D01*
X115119047Y-119288152D02*
X115071428Y-119335771D01*
X115071428Y-119335771D02*
X114976190Y-119383390D01*
X114976190Y-119383390D02*
X114785714Y-119383390D01*
X114785714Y-119383390D02*
X114690476Y-119431009D01*
X114690476Y-119431009D02*
X114642857Y-119478628D01*
X114642857Y-119478628D02*
X114595238Y-119573866D01*
X114595238Y-119573866D02*
X114595238Y-119764342D01*
X114595238Y-119764342D02*
X114642857Y-119859580D01*
X114642857Y-119859580D02*
X114690476Y-119907200D01*
X114690476Y-119907200D02*
X114785714Y-119954819D01*
X114785714Y-119954819D02*
X114976190Y-119954819D01*
X114976190Y-119954819D02*
X115071428Y-119907200D01*
X115071428Y-119907200D02*
X115119047Y-119859580D01*
X115119047Y-119859580D02*
X115166666Y-119764342D01*
X115166666Y-119764342D02*
X115166666Y-119573866D01*
X115166666Y-119573866D02*
X115119047Y-119478628D01*
X115119047Y-119478628D02*
X115071428Y-119431009D01*
X115071428Y-119431009D02*
X114976190Y-119383390D01*
X66833333Y-67704819D02*
X66357143Y-67704819D01*
X66357143Y-67704819D02*
X66357143Y-66704819D01*
X67119048Y-66800057D02*
X67166667Y-66752438D01*
X67166667Y-66752438D02*
X67261905Y-66704819D01*
X67261905Y-66704819D02*
X67500000Y-66704819D01*
X67500000Y-66704819D02*
X67595238Y-66752438D01*
X67595238Y-66752438D02*
X67642857Y-66800057D01*
X67642857Y-66800057D02*
X67690476Y-66895295D01*
X67690476Y-66895295D02*
X67690476Y-66990533D01*
X67690476Y-66990533D02*
X67642857Y-67133390D01*
X67642857Y-67133390D02*
X67071429Y-67704819D01*
X67071429Y-67704819D02*
X67690476Y-67704819D01*
X63857142Y-81359580D02*
X63809523Y-81407200D01*
X63809523Y-81407200D02*
X63666666Y-81454819D01*
X63666666Y-81454819D02*
X63571428Y-81454819D01*
X63571428Y-81454819D02*
X63428571Y-81407200D01*
X63428571Y-81407200D02*
X63333333Y-81311961D01*
X63333333Y-81311961D02*
X63285714Y-81216723D01*
X63285714Y-81216723D02*
X63238095Y-81026247D01*
X63238095Y-81026247D02*
X63238095Y-80883390D01*
X63238095Y-80883390D02*
X63285714Y-80692914D01*
X63285714Y-80692914D02*
X63333333Y-80597676D01*
X63333333Y-80597676D02*
X63428571Y-80502438D01*
X63428571Y-80502438D02*
X63571428Y-80454819D01*
X63571428Y-80454819D02*
X63666666Y-80454819D01*
X63666666Y-80454819D02*
X63809523Y-80502438D01*
X63809523Y-80502438D02*
X63857142Y-80550057D01*
X64809523Y-81454819D02*
X64238095Y-81454819D01*
X64523809Y-81454819D02*
X64523809Y-80454819D01*
X64523809Y-80454819D02*
X64428571Y-80597676D01*
X64428571Y-80597676D02*
X64333333Y-80692914D01*
X64333333Y-80692914D02*
X64238095Y-80740533D01*
X65666666Y-80454819D02*
X65476190Y-80454819D01*
X65476190Y-80454819D02*
X65380952Y-80502438D01*
X65380952Y-80502438D02*
X65333333Y-80550057D01*
X65333333Y-80550057D02*
X65238095Y-80692914D01*
X65238095Y-80692914D02*
X65190476Y-80883390D01*
X65190476Y-80883390D02*
X65190476Y-81264342D01*
X65190476Y-81264342D02*
X65238095Y-81359580D01*
X65238095Y-81359580D02*
X65285714Y-81407200D01*
X65285714Y-81407200D02*
X65380952Y-81454819D01*
X65380952Y-81454819D02*
X65571428Y-81454819D01*
X65571428Y-81454819D02*
X65666666Y-81407200D01*
X65666666Y-81407200D02*
X65714285Y-81359580D01*
X65714285Y-81359580D02*
X65761904Y-81264342D01*
X65761904Y-81264342D02*
X65761904Y-81026247D01*
X65761904Y-81026247D02*
X65714285Y-80931009D01*
X65714285Y-80931009D02*
X65666666Y-80883390D01*
X65666666Y-80883390D02*
X65571428Y-80835771D01*
X65571428Y-80835771D02*
X65380952Y-80835771D01*
X65380952Y-80835771D02*
X65285714Y-80883390D01*
X65285714Y-80883390D02*
X65238095Y-80931009D01*
X65238095Y-80931009D02*
X65190476Y-81026247D01*
X124738095Y-103954819D02*
X124738095Y-104764342D01*
X124738095Y-104764342D02*
X124785714Y-104859580D01*
X124785714Y-104859580D02*
X124833333Y-104907200D01*
X124833333Y-104907200D02*
X124928571Y-104954819D01*
X124928571Y-104954819D02*
X125119047Y-104954819D01*
X125119047Y-104954819D02*
X125214285Y-104907200D01*
X125214285Y-104907200D02*
X125261904Y-104859580D01*
X125261904Y-104859580D02*
X125309523Y-104764342D01*
X125309523Y-104764342D02*
X125309523Y-103954819D01*
X125690476Y-103954819D02*
X126309523Y-103954819D01*
X126309523Y-103954819D02*
X125976190Y-104335771D01*
X125976190Y-104335771D02*
X126119047Y-104335771D01*
X126119047Y-104335771D02*
X126214285Y-104383390D01*
X126214285Y-104383390D02*
X126261904Y-104431009D01*
X126261904Y-104431009D02*
X126309523Y-104526247D01*
X126309523Y-104526247D02*
X126309523Y-104764342D01*
X126309523Y-104764342D02*
X126261904Y-104859580D01*
X126261904Y-104859580D02*
X126214285Y-104907200D01*
X126214285Y-104907200D02*
X126119047Y-104954819D01*
X126119047Y-104954819D02*
X125833333Y-104954819D01*
X125833333Y-104954819D02*
X125738095Y-104907200D01*
X125738095Y-104907200D02*
X125690476Y-104859580D01*
X74583333Y-90859580D02*
X74535714Y-90907200D01*
X74535714Y-90907200D02*
X74392857Y-90954819D01*
X74392857Y-90954819D02*
X74297619Y-90954819D01*
X74297619Y-90954819D02*
X74154762Y-90907200D01*
X74154762Y-90907200D02*
X74059524Y-90811961D01*
X74059524Y-90811961D02*
X74011905Y-90716723D01*
X74011905Y-90716723D02*
X73964286Y-90526247D01*
X73964286Y-90526247D02*
X73964286Y-90383390D01*
X73964286Y-90383390D02*
X74011905Y-90192914D01*
X74011905Y-90192914D02*
X74059524Y-90097676D01*
X74059524Y-90097676D02*
X74154762Y-90002438D01*
X74154762Y-90002438D02*
X74297619Y-89954819D01*
X74297619Y-89954819D02*
X74392857Y-89954819D01*
X74392857Y-89954819D02*
X74535714Y-90002438D01*
X74535714Y-90002438D02*
X74583333Y-90050057D01*
X75488095Y-89954819D02*
X75011905Y-89954819D01*
X75011905Y-89954819D02*
X74964286Y-90431009D01*
X74964286Y-90431009D02*
X75011905Y-90383390D01*
X75011905Y-90383390D02*
X75107143Y-90335771D01*
X75107143Y-90335771D02*
X75345238Y-90335771D01*
X75345238Y-90335771D02*
X75440476Y-90383390D01*
X75440476Y-90383390D02*
X75488095Y-90431009D01*
X75488095Y-90431009D02*
X75535714Y-90526247D01*
X75535714Y-90526247D02*
X75535714Y-90764342D01*
X75535714Y-90764342D02*
X75488095Y-90859580D01*
X75488095Y-90859580D02*
X75440476Y-90907200D01*
X75440476Y-90907200D02*
X75345238Y-90954819D01*
X75345238Y-90954819D02*
X75107143Y-90954819D01*
X75107143Y-90954819D02*
X75011905Y-90907200D01*
X75011905Y-90907200D02*
X74964286Y-90859580D01*
X64333333Y-92859580D02*
X64285714Y-92907200D01*
X64285714Y-92907200D02*
X64142857Y-92954819D01*
X64142857Y-92954819D02*
X64047619Y-92954819D01*
X64047619Y-92954819D02*
X63904762Y-92907200D01*
X63904762Y-92907200D02*
X63809524Y-92811961D01*
X63809524Y-92811961D02*
X63761905Y-92716723D01*
X63761905Y-92716723D02*
X63714286Y-92526247D01*
X63714286Y-92526247D02*
X63714286Y-92383390D01*
X63714286Y-92383390D02*
X63761905Y-92192914D01*
X63761905Y-92192914D02*
X63809524Y-92097676D01*
X63809524Y-92097676D02*
X63904762Y-92002438D01*
X63904762Y-92002438D02*
X64047619Y-91954819D01*
X64047619Y-91954819D02*
X64142857Y-91954819D01*
X64142857Y-91954819D02*
X64285714Y-92002438D01*
X64285714Y-92002438D02*
X64333333Y-92050057D01*
X64904762Y-92383390D02*
X64809524Y-92335771D01*
X64809524Y-92335771D02*
X64761905Y-92288152D01*
X64761905Y-92288152D02*
X64714286Y-92192914D01*
X64714286Y-92192914D02*
X64714286Y-92145295D01*
X64714286Y-92145295D02*
X64761905Y-92050057D01*
X64761905Y-92050057D02*
X64809524Y-92002438D01*
X64809524Y-92002438D02*
X64904762Y-91954819D01*
X64904762Y-91954819D02*
X65095238Y-91954819D01*
X65095238Y-91954819D02*
X65190476Y-92002438D01*
X65190476Y-92002438D02*
X65238095Y-92050057D01*
X65238095Y-92050057D02*
X65285714Y-92145295D01*
X65285714Y-92145295D02*
X65285714Y-92192914D01*
X65285714Y-92192914D02*
X65238095Y-92288152D01*
X65238095Y-92288152D02*
X65190476Y-92335771D01*
X65190476Y-92335771D02*
X65095238Y-92383390D01*
X65095238Y-92383390D02*
X64904762Y-92383390D01*
X64904762Y-92383390D02*
X64809524Y-92431009D01*
X64809524Y-92431009D02*
X64761905Y-92478628D01*
X64761905Y-92478628D02*
X64714286Y-92573866D01*
X64714286Y-92573866D02*
X64714286Y-92764342D01*
X64714286Y-92764342D02*
X64761905Y-92859580D01*
X64761905Y-92859580D02*
X64809524Y-92907200D01*
X64809524Y-92907200D02*
X64904762Y-92954819D01*
X64904762Y-92954819D02*
X65095238Y-92954819D01*
X65095238Y-92954819D02*
X65190476Y-92907200D01*
X65190476Y-92907200D02*
X65238095Y-92859580D01*
X65238095Y-92859580D02*
X65285714Y-92764342D01*
X65285714Y-92764342D02*
X65285714Y-92573866D01*
X65285714Y-92573866D02*
X65238095Y-92478628D01*
X65238095Y-92478628D02*
X65190476Y-92431009D01*
X65190476Y-92431009D02*
X65095238Y-92383390D01*
X76857142Y-71859580D02*
X76809523Y-71907200D01*
X76809523Y-71907200D02*
X76666666Y-71954819D01*
X76666666Y-71954819D02*
X76571428Y-71954819D01*
X76571428Y-71954819D02*
X76428571Y-71907200D01*
X76428571Y-71907200D02*
X76333333Y-71811961D01*
X76333333Y-71811961D02*
X76285714Y-71716723D01*
X76285714Y-71716723D02*
X76238095Y-71526247D01*
X76238095Y-71526247D02*
X76238095Y-71383390D01*
X76238095Y-71383390D02*
X76285714Y-71192914D01*
X76285714Y-71192914D02*
X76333333Y-71097676D01*
X76333333Y-71097676D02*
X76428571Y-71002438D01*
X76428571Y-71002438D02*
X76571428Y-70954819D01*
X76571428Y-70954819D02*
X76666666Y-70954819D01*
X76666666Y-70954819D02*
X76809523Y-71002438D01*
X76809523Y-71002438D02*
X76857142Y-71050057D01*
X77809523Y-71954819D02*
X77238095Y-71954819D01*
X77523809Y-71954819D02*
X77523809Y-70954819D01*
X77523809Y-70954819D02*
X77428571Y-71097676D01*
X77428571Y-71097676D02*
X77333333Y-71192914D01*
X77333333Y-71192914D02*
X77238095Y-71240533D01*
X78142857Y-70954819D02*
X78761904Y-70954819D01*
X78761904Y-70954819D02*
X78428571Y-71335771D01*
X78428571Y-71335771D02*
X78571428Y-71335771D01*
X78571428Y-71335771D02*
X78666666Y-71383390D01*
X78666666Y-71383390D02*
X78714285Y-71431009D01*
X78714285Y-71431009D02*
X78761904Y-71526247D01*
X78761904Y-71526247D02*
X78761904Y-71764342D01*
X78761904Y-71764342D02*
X78714285Y-71859580D01*
X78714285Y-71859580D02*
X78666666Y-71907200D01*
X78666666Y-71907200D02*
X78571428Y-71954819D01*
X78571428Y-71954819D02*
X78285714Y-71954819D01*
X78285714Y-71954819D02*
X78190476Y-71907200D01*
X78190476Y-71907200D02*
X78142857Y-71859580D01*
X74333333Y-92704819D02*
X73857143Y-92704819D01*
X73857143Y-92704819D02*
X73857143Y-91704819D01*
X75190476Y-92704819D02*
X74619048Y-92704819D01*
X74904762Y-92704819D02*
X74904762Y-91704819D01*
X74904762Y-91704819D02*
X74809524Y-91847676D01*
X74809524Y-91847676D02*
X74714286Y-91942914D01*
X74714286Y-91942914D02*
X74619048Y-91990533D01*
X71238095Y-59954819D02*
X71238095Y-60764342D01*
X71238095Y-60764342D02*
X71285714Y-60859580D01*
X71285714Y-60859580D02*
X71333333Y-60907200D01*
X71333333Y-60907200D02*
X71428571Y-60954819D01*
X71428571Y-60954819D02*
X71619047Y-60954819D01*
X71619047Y-60954819D02*
X71714285Y-60907200D01*
X71714285Y-60907200D02*
X71761904Y-60859580D01*
X71761904Y-60859580D02*
X71809523Y-60764342D01*
X71809523Y-60764342D02*
X71809523Y-59954819D01*
X72714285Y-60288152D02*
X72714285Y-60954819D01*
X72476190Y-59907200D02*
X72238095Y-60621485D01*
X72238095Y-60621485D02*
X72857142Y-60621485D01*
X137083333Y-108204819D02*
X136750000Y-107728628D01*
X136511905Y-108204819D02*
X136511905Y-107204819D01*
X136511905Y-107204819D02*
X136892857Y-107204819D01*
X136892857Y-107204819D02*
X136988095Y-107252438D01*
X136988095Y-107252438D02*
X137035714Y-107300057D01*
X137035714Y-107300057D02*
X137083333Y-107395295D01*
X137083333Y-107395295D02*
X137083333Y-107538152D01*
X137083333Y-107538152D02*
X137035714Y-107633390D01*
X137035714Y-107633390D02*
X136988095Y-107681009D01*
X136988095Y-107681009D02*
X136892857Y-107728628D01*
X136892857Y-107728628D02*
X136511905Y-107728628D01*
X137464286Y-107300057D02*
X137511905Y-107252438D01*
X137511905Y-107252438D02*
X137607143Y-107204819D01*
X137607143Y-107204819D02*
X137845238Y-107204819D01*
X137845238Y-107204819D02*
X137940476Y-107252438D01*
X137940476Y-107252438D02*
X137988095Y-107300057D01*
X137988095Y-107300057D02*
X138035714Y-107395295D01*
X138035714Y-107395295D02*
X138035714Y-107490533D01*
X138035714Y-107490533D02*
X137988095Y-107633390D01*
X137988095Y-107633390D02*
X137416667Y-108204819D01*
X137416667Y-108204819D02*
X138035714Y-108204819D01*
X79333333Y-101109580D02*
X79285714Y-101157200D01*
X79285714Y-101157200D02*
X79142857Y-101204819D01*
X79142857Y-101204819D02*
X79047619Y-101204819D01*
X79047619Y-101204819D02*
X78904762Y-101157200D01*
X78904762Y-101157200D02*
X78809524Y-101061961D01*
X78809524Y-101061961D02*
X78761905Y-100966723D01*
X78761905Y-100966723D02*
X78714286Y-100776247D01*
X78714286Y-100776247D02*
X78714286Y-100633390D01*
X78714286Y-100633390D02*
X78761905Y-100442914D01*
X78761905Y-100442914D02*
X78809524Y-100347676D01*
X78809524Y-100347676D02*
X78904762Y-100252438D01*
X78904762Y-100252438D02*
X79047619Y-100204819D01*
X79047619Y-100204819D02*
X79142857Y-100204819D01*
X79142857Y-100204819D02*
X79285714Y-100252438D01*
X79285714Y-100252438D02*
X79333333Y-100300057D01*
X79809524Y-101204819D02*
X80000000Y-101204819D01*
X80000000Y-101204819D02*
X80095238Y-101157200D01*
X80095238Y-101157200D02*
X80142857Y-101109580D01*
X80142857Y-101109580D02*
X80238095Y-100966723D01*
X80238095Y-100966723D02*
X80285714Y-100776247D01*
X80285714Y-100776247D02*
X80285714Y-100395295D01*
X80285714Y-100395295D02*
X80238095Y-100300057D01*
X80238095Y-100300057D02*
X80190476Y-100252438D01*
X80190476Y-100252438D02*
X80095238Y-100204819D01*
X80095238Y-100204819D02*
X79904762Y-100204819D01*
X79904762Y-100204819D02*
X79809524Y-100252438D01*
X79809524Y-100252438D02*
X79761905Y-100300057D01*
X79761905Y-100300057D02*
X79714286Y-100395295D01*
X79714286Y-100395295D02*
X79714286Y-100633390D01*
X79714286Y-100633390D02*
X79761905Y-100728628D01*
X79761905Y-100728628D02*
X79809524Y-100776247D01*
X79809524Y-100776247D02*
X79904762Y-100823866D01*
X79904762Y-100823866D02*
X80095238Y-100823866D01*
X80095238Y-100823866D02*
X80190476Y-100776247D01*
X80190476Y-100776247D02*
X80238095Y-100728628D01*
X80238095Y-100728628D02*
X80285714Y-100633390D01*
X125166666Y-116954819D02*
X125166666Y-117669104D01*
X125166666Y-117669104D02*
X125119047Y-117811961D01*
X125119047Y-117811961D02*
X125023809Y-117907200D01*
X125023809Y-117907200D02*
X124880952Y-117954819D01*
X124880952Y-117954819D02*
X124785714Y-117954819D01*
X126071428Y-116954819D02*
X125880952Y-116954819D01*
X125880952Y-116954819D02*
X125785714Y-117002438D01*
X125785714Y-117002438D02*
X125738095Y-117050057D01*
X125738095Y-117050057D02*
X125642857Y-117192914D01*
X125642857Y-117192914D02*
X125595238Y-117383390D01*
X125595238Y-117383390D02*
X125595238Y-117764342D01*
X125595238Y-117764342D02*
X125642857Y-117859580D01*
X125642857Y-117859580D02*
X125690476Y-117907200D01*
X125690476Y-117907200D02*
X125785714Y-117954819D01*
X125785714Y-117954819D02*
X125976190Y-117954819D01*
X125976190Y-117954819D02*
X126071428Y-117907200D01*
X126071428Y-117907200D02*
X126119047Y-117859580D01*
X126119047Y-117859580D02*
X126166666Y-117764342D01*
X126166666Y-117764342D02*
X126166666Y-117526247D01*
X126166666Y-117526247D02*
X126119047Y-117431009D01*
X126119047Y-117431009D02*
X126071428Y-117383390D01*
X126071428Y-117383390D02*
X125976190Y-117335771D01*
X125976190Y-117335771D02*
X125785714Y-117335771D01*
X125785714Y-117335771D02*
X125690476Y-117383390D01*
X125690476Y-117383390D02*
X125642857Y-117431009D01*
X125642857Y-117431009D02*
X125595238Y-117526247D01*
X77333333Y-92859580D02*
X77285714Y-92907200D01*
X77285714Y-92907200D02*
X77142857Y-92954819D01*
X77142857Y-92954819D02*
X77047619Y-92954819D01*
X77047619Y-92954819D02*
X76904762Y-92907200D01*
X76904762Y-92907200D02*
X76809524Y-92811961D01*
X76809524Y-92811961D02*
X76761905Y-92716723D01*
X76761905Y-92716723D02*
X76714286Y-92526247D01*
X76714286Y-92526247D02*
X76714286Y-92383390D01*
X76714286Y-92383390D02*
X76761905Y-92192914D01*
X76761905Y-92192914D02*
X76809524Y-92097676D01*
X76809524Y-92097676D02*
X76904762Y-92002438D01*
X76904762Y-92002438D02*
X77047619Y-91954819D01*
X77047619Y-91954819D02*
X77142857Y-91954819D01*
X77142857Y-91954819D02*
X77285714Y-92002438D01*
X77285714Y-92002438D02*
X77333333Y-92050057D01*
X77666667Y-91954819D02*
X78333333Y-91954819D01*
X78333333Y-91954819D02*
X77904762Y-92954819D01*
X76857142Y-81359580D02*
X76809523Y-81407200D01*
X76809523Y-81407200D02*
X76666666Y-81454819D01*
X76666666Y-81454819D02*
X76571428Y-81454819D01*
X76571428Y-81454819D02*
X76428571Y-81407200D01*
X76428571Y-81407200D02*
X76333333Y-81311961D01*
X76333333Y-81311961D02*
X76285714Y-81216723D01*
X76285714Y-81216723D02*
X76238095Y-81026247D01*
X76238095Y-81026247D02*
X76238095Y-80883390D01*
X76238095Y-80883390D02*
X76285714Y-80692914D01*
X76285714Y-80692914D02*
X76333333Y-80597676D01*
X76333333Y-80597676D02*
X76428571Y-80502438D01*
X76428571Y-80502438D02*
X76571428Y-80454819D01*
X76571428Y-80454819D02*
X76666666Y-80454819D01*
X76666666Y-80454819D02*
X76809523Y-80502438D01*
X76809523Y-80502438D02*
X76857142Y-80550057D01*
X77809523Y-81454819D02*
X77238095Y-81454819D01*
X77523809Y-81454819D02*
X77523809Y-80454819D01*
X77523809Y-80454819D02*
X77428571Y-80597676D01*
X77428571Y-80597676D02*
X77333333Y-80692914D01*
X77333333Y-80692914D02*
X77238095Y-80740533D01*
X78714285Y-80454819D02*
X78238095Y-80454819D01*
X78238095Y-80454819D02*
X78190476Y-80931009D01*
X78190476Y-80931009D02*
X78238095Y-80883390D01*
X78238095Y-80883390D02*
X78333333Y-80835771D01*
X78333333Y-80835771D02*
X78571428Y-80835771D01*
X78571428Y-80835771D02*
X78666666Y-80883390D01*
X78666666Y-80883390D02*
X78714285Y-80931009D01*
X78714285Y-80931009D02*
X78761904Y-81026247D01*
X78761904Y-81026247D02*
X78761904Y-81264342D01*
X78761904Y-81264342D02*
X78714285Y-81359580D01*
X78714285Y-81359580D02*
X78666666Y-81407200D01*
X78666666Y-81407200D02*
X78571428Y-81454819D01*
X78571428Y-81454819D02*
X78333333Y-81454819D01*
X78333333Y-81454819D02*
X78238095Y-81407200D01*
X78238095Y-81407200D02*
X78190476Y-81359580D01*
X68333333Y-103454819D02*
X68000000Y-102978628D01*
X67761905Y-103454819D02*
X67761905Y-102454819D01*
X67761905Y-102454819D02*
X68142857Y-102454819D01*
X68142857Y-102454819D02*
X68238095Y-102502438D01*
X68238095Y-102502438D02*
X68285714Y-102550057D01*
X68285714Y-102550057D02*
X68333333Y-102645295D01*
X68333333Y-102645295D02*
X68333333Y-102788152D01*
X68333333Y-102788152D02*
X68285714Y-102883390D01*
X68285714Y-102883390D02*
X68238095Y-102931009D01*
X68238095Y-102931009D02*
X68142857Y-102978628D01*
X68142857Y-102978628D02*
X67761905Y-102978628D01*
X69190476Y-102788152D02*
X69190476Y-103454819D01*
X68952381Y-102407200D02*
X68714286Y-103121485D01*
X68714286Y-103121485D02*
X69333333Y-103121485D01*
X123833333Y-107454819D02*
X123500000Y-106978628D01*
X123261905Y-107454819D02*
X123261905Y-106454819D01*
X123261905Y-106454819D02*
X123642857Y-106454819D01*
X123642857Y-106454819D02*
X123738095Y-106502438D01*
X123738095Y-106502438D02*
X123785714Y-106550057D01*
X123785714Y-106550057D02*
X123833333Y-106645295D01*
X123833333Y-106645295D02*
X123833333Y-106788152D01*
X123833333Y-106788152D02*
X123785714Y-106883390D01*
X123785714Y-106883390D02*
X123738095Y-106931009D01*
X123738095Y-106931009D02*
X123642857Y-106978628D01*
X123642857Y-106978628D02*
X123261905Y-106978628D01*
X124166667Y-106454819D02*
X124785714Y-106454819D01*
X124785714Y-106454819D02*
X124452381Y-106835771D01*
X124452381Y-106835771D02*
X124595238Y-106835771D01*
X124595238Y-106835771D02*
X124690476Y-106883390D01*
X124690476Y-106883390D02*
X124738095Y-106931009D01*
X124738095Y-106931009D02*
X124785714Y-107026247D01*
X124785714Y-107026247D02*
X124785714Y-107264342D01*
X124785714Y-107264342D02*
X124738095Y-107359580D01*
X124738095Y-107359580D02*
X124690476Y-107407200D01*
X124690476Y-107407200D02*
X124595238Y-107454819D01*
X124595238Y-107454819D02*
X124309524Y-107454819D01*
X124309524Y-107454819D02*
X124214286Y-107407200D01*
X124214286Y-107407200D02*
X124166667Y-107359580D01*
X105857142Y-118859580D02*
X105809523Y-118907200D01*
X105809523Y-118907200D02*
X105666666Y-118954819D01*
X105666666Y-118954819D02*
X105571428Y-118954819D01*
X105571428Y-118954819D02*
X105428571Y-118907200D01*
X105428571Y-118907200D02*
X105333333Y-118811961D01*
X105333333Y-118811961D02*
X105285714Y-118716723D01*
X105285714Y-118716723D02*
X105238095Y-118526247D01*
X105238095Y-118526247D02*
X105238095Y-118383390D01*
X105238095Y-118383390D02*
X105285714Y-118192914D01*
X105285714Y-118192914D02*
X105333333Y-118097676D01*
X105333333Y-118097676D02*
X105428571Y-118002438D01*
X105428571Y-118002438D02*
X105571428Y-117954819D01*
X105571428Y-117954819D02*
X105666666Y-117954819D01*
X105666666Y-117954819D02*
X105809523Y-118002438D01*
X105809523Y-118002438D02*
X105857142Y-118050057D01*
X106238095Y-118050057D02*
X106285714Y-118002438D01*
X106285714Y-118002438D02*
X106380952Y-117954819D01*
X106380952Y-117954819D02*
X106619047Y-117954819D01*
X106619047Y-117954819D02*
X106714285Y-118002438D01*
X106714285Y-118002438D02*
X106761904Y-118050057D01*
X106761904Y-118050057D02*
X106809523Y-118145295D01*
X106809523Y-118145295D02*
X106809523Y-118240533D01*
X106809523Y-118240533D02*
X106761904Y-118383390D01*
X106761904Y-118383390D02*
X106190476Y-118954819D01*
X106190476Y-118954819D02*
X106809523Y-118954819D01*
X107666666Y-118288152D02*
X107666666Y-118954819D01*
X107428571Y-117907200D02*
X107190476Y-118621485D01*
X107190476Y-118621485D02*
X107809523Y-118621485D01*
X92357142Y-113334580D02*
X92309523Y-113382200D01*
X92309523Y-113382200D02*
X92166666Y-113429819D01*
X92166666Y-113429819D02*
X92071428Y-113429819D01*
X92071428Y-113429819D02*
X91928571Y-113382200D01*
X91928571Y-113382200D02*
X91833333Y-113286961D01*
X91833333Y-113286961D02*
X91785714Y-113191723D01*
X91785714Y-113191723D02*
X91738095Y-113001247D01*
X91738095Y-113001247D02*
X91738095Y-112858390D01*
X91738095Y-112858390D02*
X91785714Y-112667914D01*
X91785714Y-112667914D02*
X91833333Y-112572676D01*
X91833333Y-112572676D02*
X91928571Y-112477438D01*
X91928571Y-112477438D02*
X92071428Y-112429819D01*
X92071428Y-112429819D02*
X92166666Y-112429819D01*
X92166666Y-112429819D02*
X92309523Y-112477438D01*
X92309523Y-112477438D02*
X92357142Y-112525057D01*
X92738095Y-112525057D02*
X92785714Y-112477438D01*
X92785714Y-112477438D02*
X92880952Y-112429819D01*
X92880952Y-112429819D02*
X93119047Y-112429819D01*
X93119047Y-112429819D02*
X93214285Y-112477438D01*
X93214285Y-112477438D02*
X93261904Y-112525057D01*
X93261904Y-112525057D02*
X93309523Y-112620295D01*
X93309523Y-112620295D02*
X93309523Y-112715533D01*
X93309523Y-112715533D02*
X93261904Y-112858390D01*
X93261904Y-112858390D02*
X92690476Y-113429819D01*
X92690476Y-113429819D02*
X93309523Y-113429819D01*
X93690476Y-112525057D02*
X93738095Y-112477438D01*
X93738095Y-112477438D02*
X93833333Y-112429819D01*
X93833333Y-112429819D02*
X94071428Y-112429819D01*
X94071428Y-112429819D02*
X94166666Y-112477438D01*
X94166666Y-112477438D02*
X94214285Y-112525057D01*
X94214285Y-112525057D02*
X94261904Y-112620295D01*
X94261904Y-112620295D02*
X94261904Y-112715533D01*
X94261904Y-112715533D02*
X94214285Y-112858390D01*
X94214285Y-112858390D02*
X93642857Y-113429819D01*
X93642857Y-113429819D02*
X94261904Y-113429819D01*
D13*
G04 #@! TO.C,R10*
X93770000Y-85870000D02*
X87230000Y-85870000D01*
X93770000Y-85540000D02*
X93770000Y-85870000D01*
X93770000Y-83460000D02*
X93770000Y-83130000D01*
X93770000Y-83130000D02*
X87230000Y-83130000D01*
X87230000Y-85870000D02*
X87230000Y-85540000D01*
X87230000Y-83130000D02*
X87230000Y-83460000D01*
G04 #@! TO.C,Q1*
X80040000Y-84200000D02*
X80040000Y-87800000D01*
X80051522Y-84161522D02*
G75*
G02*
X84490001Y-86000000I1838478J-1838478D01*
G01*
X84490000Y-86000000D02*
G75*
G02*
X80051522Y-87838478I-2600000J0D01*
G01*
G04 #@! TO.C,J10*
X85525000Y-89400000D02*
X84275000Y-89400000D01*
X82975000Y-89700000D02*
X82975000Y-90450000D01*
X82975000Y-90450000D02*
X80025000Y-90450000D01*
X80025000Y-90450000D02*
X80025000Y-94750000D01*
X85525000Y-90650000D02*
X85525000Y-89400000D01*
X82975000Y-99050000D02*
X80025000Y-99050000D01*
X80025000Y-99050000D02*
X80025000Y-94750000D01*
X82975000Y-99800000D02*
X82975000Y-99050000D01*
X85235000Y-89690000D02*
X79265000Y-89690000D01*
X79265000Y-99810000D01*
X85235000Y-99810000D01*
X85235000Y-89690000D01*
X85225000Y-89700000D02*
X84475000Y-89700000D01*
X84475000Y-91500000D01*
X85225000Y-91500000D01*
X85225000Y-89700000D01*
X85225000Y-93000000D02*
X84475000Y-93000000D01*
X84475000Y-96500000D01*
X85225000Y-96500000D01*
X85225000Y-93000000D01*
X85225000Y-98000000D02*
X84475000Y-98000000D01*
X84475000Y-99800000D01*
X85225000Y-99800000D01*
X85225000Y-98000000D01*
G04 #@! TO.C,J9*
X93500000Y-86400000D02*
X92250000Y-86400000D01*
X90950000Y-86700000D02*
X90950000Y-87450000D01*
X90950000Y-87450000D02*
X88000000Y-87450000D01*
X88000000Y-87450000D02*
X88000000Y-90500000D01*
X93500000Y-87650000D02*
X93500000Y-86400000D01*
X90950000Y-93550000D02*
X88000000Y-93550000D01*
X88000000Y-93550000D02*
X88000000Y-90500000D01*
X90950000Y-94300000D02*
X90950000Y-93550000D01*
X93210000Y-86690000D02*
X87240000Y-86690000D01*
X87240000Y-94310000D01*
X93210000Y-94310000D01*
X93210000Y-86690000D01*
X93200000Y-86700000D02*
X92450000Y-86700000D01*
X92450000Y-88500000D01*
X93200000Y-88500000D01*
X93200000Y-86700000D01*
X93200000Y-90000000D02*
X92450000Y-90000000D01*
X92450000Y-91000000D01*
X93200000Y-91000000D01*
X93200000Y-90000000D01*
X93200000Y-92500000D02*
X92450000Y-92500000D01*
X92450000Y-94300000D01*
X93200000Y-94300000D01*
X93200000Y-92500000D01*
G04 #@! TO.C,J4*
X141725000Y-116100000D02*
X142975000Y-116100000D01*
X144275000Y-115800000D02*
X144275000Y-115050000D01*
X144275000Y-115050000D02*
X147225000Y-115050000D01*
X147225000Y-115050000D02*
X147225000Y-112000000D01*
X141725000Y-114850000D02*
X141725000Y-116100000D01*
X144275000Y-108950000D02*
X147225000Y-108950000D01*
X147225000Y-108950000D02*
X147225000Y-112000000D01*
X144275000Y-108200000D02*
X144275000Y-108950000D01*
X142015000Y-115810000D02*
X147985000Y-115810000D01*
X147985000Y-108190000D01*
X142015000Y-108190000D01*
X142015000Y-115810000D01*
X142025000Y-115800000D02*
X142775000Y-115800000D01*
X142775000Y-114000000D01*
X142025000Y-114000000D01*
X142025000Y-115800000D01*
X142025000Y-112500000D02*
X142775000Y-112500000D01*
X142775000Y-111500000D01*
X142025000Y-111500000D01*
X142025000Y-112500000D01*
X142025000Y-110000000D02*
X142775000Y-110000000D01*
X142775000Y-108200000D01*
X142025000Y-108200000D01*
X142025000Y-110000000D01*
G04 #@! TO.C,J3*
X141725000Y-104600000D02*
X142975000Y-104600000D01*
X144275000Y-104300000D02*
X144275000Y-103550000D01*
X144275000Y-103550000D02*
X147225000Y-103550000D01*
X147225000Y-103550000D02*
X147225000Y-100500000D01*
X141725000Y-103350000D02*
X141725000Y-104600000D01*
X144275000Y-97450000D02*
X147225000Y-97450000D01*
X147225000Y-97450000D02*
X147225000Y-100500000D01*
X144275000Y-96700000D02*
X144275000Y-97450000D01*
X142015000Y-104310000D02*
X147985000Y-104310000D01*
X147985000Y-96690000D01*
X142015000Y-96690000D01*
X142015000Y-104310000D01*
X142025000Y-104300000D02*
X142775000Y-104300000D01*
X142775000Y-102500000D01*
X142025000Y-102500000D01*
X142025000Y-104300000D01*
X142025000Y-101000000D02*
X142775000Y-101000000D01*
X142775000Y-100000000D01*
X142025000Y-100000000D01*
X142025000Y-101000000D01*
X142025000Y-98500000D02*
X142775000Y-98500000D01*
X142775000Y-96700000D01*
X142025000Y-96700000D01*
X142025000Y-98500000D01*
G04 #@! TO.C,J1*
X88150000Y-118250000D02*
X88150000Y-119500000D01*
X88450000Y-120800000D02*
X89200000Y-120800000D01*
X89200000Y-120800000D02*
X89200000Y-123750000D01*
X89200000Y-123750000D02*
X94750000Y-123750000D01*
X89400000Y-118250000D02*
X88150000Y-118250000D01*
X100300000Y-120800000D02*
X100300000Y-123750000D01*
X100300000Y-123750000D02*
X94750000Y-123750000D01*
X101050000Y-120800000D02*
X100300000Y-120800000D01*
X88440000Y-118540000D02*
X101060000Y-118540000D01*
X101060000Y-124510000D01*
X88440000Y-124510000D01*
X88440000Y-118540000D01*
X88450000Y-118550000D02*
X90250000Y-118550000D01*
X90250000Y-119300000D01*
X88450000Y-119300000D01*
X88450000Y-118550000D01*
X91750000Y-118550000D02*
X97750000Y-118550000D01*
X97750000Y-119300000D01*
X91750000Y-119300000D01*
X91750000Y-118550000D01*
X99250000Y-118550000D02*
X101050000Y-118550000D01*
X101050000Y-119300000D01*
X99250000Y-119300000D01*
X99250000Y-118550000D01*
G04 #@! TO.C,C23*
X87220000Y-114670000D02*
X86526000Y-114670000D01*
X87220000Y-109330000D02*
X87220000Y-114670000D01*
X86526000Y-109330000D02*
X87220000Y-109330000D01*
X84474000Y-114670000D02*
X83780000Y-114670000D01*
X83780000Y-114670000D02*
X83780000Y-109330000D01*
X83780000Y-109330000D02*
X84474000Y-109330000D01*
G04 #@! TO.C,J2*
X92810000Y-64110000D02*
X90000000Y-64110000D01*
X92810000Y-58050000D02*
X92810000Y-64110000D01*
X92810000Y-50890000D02*
X92810000Y-53950000D01*
X88700000Y-64300000D02*
X86700000Y-64300000D01*
X85400000Y-64110000D02*
X82590000Y-64110000D01*
X82590000Y-64110000D02*
X82590000Y-58050000D01*
X82590000Y-53950000D02*
X82590000Y-50890000D01*
X82590000Y-50890000D02*
X92810000Y-50890000D01*
G04 #@! TO.C,R5*
X101870000Y-111770000D02*
X101870000Y-105230000D01*
X101870000Y-105230000D02*
X101540000Y-105230000D01*
X101540000Y-111770000D02*
X101870000Y-111770000D01*
X99460000Y-111770000D02*
X99130000Y-111770000D01*
X99130000Y-111770000D02*
X99130000Y-105230000D01*
X99130000Y-105230000D02*
X99460000Y-105230000D01*
G04 #@! TO.C,R6*
X82870000Y-114770000D02*
X82540000Y-114770000D01*
X82870000Y-108230000D02*
X82870000Y-114770000D01*
X82540000Y-108230000D02*
X82870000Y-108230000D01*
X80460000Y-108230000D02*
X80130000Y-108230000D01*
X80130000Y-114770000D02*
X80460000Y-114770000D01*
X80130000Y-108230000D02*
X80130000Y-114770000D01*
G04 #@! TO.C,R7*
X79370000Y-113270000D02*
X79040000Y-113270000D01*
X79370000Y-106730000D02*
X79370000Y-113270000D01*
X79040000Y-106730000D02*
X79370000Y-106730000D01*
X76960000Y-106730000D02*
X76630000Y-106730000D01*
X76630000Y-113270000D02*
X76960000Y-113270000D01*
X76630000Y-106730000D02*
X76630000Y-113270000D01*
G04 #@! TO.C,R8*
X90870000Y-112770000D02*
X90540000Y-112770000D01*
X90870000Y-106230000D02*
X90870000Y-112770000D01*
X90540000Y-106230000D02*
X90870000Y-106230000D01*
X88460000Y-106230000D02*
X88130000Y-106230000D01*
X88130000Y-112770000D02*
X88460000Y-112770000D01*
X88130000Y-106230000D02*
X88130000Y-112770000D01*
G04 #@! TO.C,R9*
X75870000Y-113270000D02*
X75540000Y-113270000D01*
X75870000Y-106730000D02*
X75870000Y-113270000D01*
X75540000Y-106730000D02*
X75870000Y-106730000D01*
X73460000Y-106730000D02*
X73130000Y-106730000D01*
X73130000Y-113270000D02*
X73460000Y-113270000D01*
X73130000Y-106730000D02*
X73130000Y-113270000D01*
D10*
G04 #@! TO.C,U2*
X97250000Y-60485000D02*
G75*
G02*
X97050000Y-60485000I-100000J0D01*
G01*
X97050000Y-60485000D02*
G75*
G02*
X97250000Y-60485000I100000J0D01*
G01*
D14*
X126230000Y-101475000D02*
X97720000Y-101475000D01*
X126230000Y-50525000D02*
X126230000Y-101475000D01*
X126230000Y-50525000D02*
X126230000Y-101475000D01*
X120780000Y-101475000D02*
X126230000Y-101475000D01*
X115500000Y-50525000D02*
X126230000Y-50525000D01*
X108789000Y-50525000D02*
X115500000Y-50525000D01*
X103090000Y-101475000D02*
X120780000Y-101475000D01*
X97720000Y-101475000D02*
X103090000Y-101475000D01*
X97720000Y-101475000D02*
X97720000Y-50525000D01*
X97720000Y-101475000D02*
X97720000Y-50525000D01*
X97720000Y-50525000D02*
X126230000Y-50525000D01*
X97720000Y-50525000D02*
X108789000Y-50525000D01*
D13*
G04 #@! TO.C,U5*
X81500000Y-101205000D02*
X81260000Y-100875000D01*
X81740000Y-100875000D01*
X81500000Y-101205000D01*
G36*
X81500000Y-101205000D02*
G01*
X81260000Y-100875000D01*
X81740000Y-100875000D01*
X81500000Y-101205000D01*
G37*
X86160000Y-106235000D02*
X82040000Y-106235000D01*
X86160000Y-106140000D02*
X86160000Y-106235000D01*
X86160000Y-101115000D02*
X86160000Y-101210000D01*
X82040000Y-106235000D02*
X82040000Y-106140000D01*
X82040000Y-101210000D02*
X82040000Y-101115000D01*
X82040000Y-101115000D02*
X86160000Y-101115000D01*
G04 #@! TO.C,C14*
X64330000Y-72280000D02*
X69670000Y-72280000D01*
X64330000Y-72974000D02*
X64330000Y-72280000D01*
X64330000Y-75720000D02*
X64330000Y-75026000D01*
X69670000Y-72280000D02*
X69670000Y-72974000D01*
X69670000Y-75026000D02*
X69670000Y-75720000D01*
X69670000Y-75720000D02*
X64330000Y-75720000D01*
G04 #@! TO.C,R1*
X138130000Y-97230000D02*
X138460000Y-97230000D01*
X138130000Y-103770000D02*
X138130000Y-97230000D01*
X138460000Y-103770000D02*
X138130000Y-103770000D01*
X140540000Y-103770000D02*
X140870000Y-103770000D01*
X140870000Y-97230000D02*
X140540000Y-97230000D01*
X140870000Y-103770000D02*
X140870000Y-97230000D01*
G04 #@! TO.C,U1*
X70440000Y-83590000D02*
X70490000Y-83590000D01*
X70440000Y-85410000D02*
X70440000Y-83590000D01*
X70490000Y-85410000D02*
X70440000Y-85410000D01*
X73510000Y-83590000D02*
X73560000Y-83590000D01*
X73560000Y-83590000D02*
X73560000Y-85410000D01*
X73560000Y-85410000D02*
X73510000Y-85410000D01*
X73840000Y-83290000D02*
X73510000Y-83050000D01*
X73840000Y-82810000D01*
X73840000Y-83290000D01*
G36*
X73840000Y-83290000D02*
G01*
X73510000Y-83050000D01*
X73840000Y-82810000D01*
X73840000Y-83290000D01*
G37*
G04 #@! TO.C,C10*
X64330000Y-97280000D02*
X69670000Y-97280000D01*
X64330000Y-97974000D02*
X64330000Y-97280000D01*
X64330000Y-100720000D02*
X64330000Y-100026000D01*
X69670000Y-97280000D02*
X69670000Y-97974000D01*
X69670000Y-100026000D02*
X69670000Y-100720000D01*
X69670000Y-100720000D02*
X64330000Y-100720000D01*
G04 #@! TO.C,C19*
X116775000Y-111484887D02*
X117275000Y-111484887D01*
X117025000Y-111734887D02*
X117025000Y-111234887D01*
X121120000Y-108930112D02*
G75*
G02*
X115880000Y-108930112I-2620000J0D01*
G01*
X115880000Y-108930112D02*
G75*
G02*
X121120000Y-108930112I2620000J0D01*
G01*
G04 #@! TO.C,C4*
X94815000Y-74162651D02*
X94815000Y-74962651D01*
X95215000Y-74562651D02*
X94415000Y-74562651D01*
X96620000Y-78572349D02*
G75*
G02*
X88380000Y-78572349I-4120000J0D01*
G01*
X88380000Y-78572349D02*
G75*
G02*
X96620000Y-78572349I4120000J0D01*
G01*
G04 #@! TO.C,C12*
X66280000Y-59830000D02*
X66974000Y-59830000D01*
X66280000Y-65170000D02*
X66280000Y-59830000D01*
X66974000Y-65170000D02*
X66280000Y-65170000D01*
X69026000Y-59830000D02*
X69720000Y-59830000D01*
X69720000Y-59830000D02*
X69720000Y-65170000D01*
X69720000Y-65170000D02*
X69026000Y-65170000D01*
G04 #@! TO.C,J5*
X71150000Y-118250000D02*
X71150000Y-119500000D01*
X71450000Y-120800000D02*
X72200000Y-120800000D01*
X72200000Y-120800000D02*
X72200000Y-123750000D01*
X72200000Y-123750000D02*
X79000000Y-123750000D01*
X72400000Y-118250000D02*
X71150000Y-118250000D01*
X85800000Y-120800000D02*
X85800000Y-123750000D01*
X85800000Y-123750000D02*
X79000000Y-123750000D01*
X86550000Y-120800000D02*
X85800000Y-120800000D01*
X71440000Y-118540000D02*
X86560000Y-118540000D01*
X86560000Y-124510000D01*
X71440000Y-124510000D01*
X71440000Y-118540000D01*
X71450000Y-118550000D02*
X73250000Y-118550000D01*
X73250000Y-119300000D01*
X71450000Y-119300000D01*
X71450000Y-118550000D01*
X74750000Y-118550000D02*
X83250000Y-118550000D01*
X83250000Y-119300000D01*
X74750000Y-119300000D01*
X74750000Y-118550000D01*
X84750000Y-118550000D02*
X86550000Y-118550000D01*
X86550000Y-119300000D01*
X84750000Y-119300000D01*
X84750000Y-118550000D01*
G04 #@! TO.C,J7*
X132893116Y-57103963D02*
X134223116Y-57103963D01*
X132893116Y-58433963D02*
X132893116Y-57103963D01*
X135493116Y-57103963D02*
X143173116Y-57103963D01*
X135493116Y-59763963D02*
X135493116Y-57103963D01*
X135493116Y-59763963D02*
X143173116Y-59763963D01*
X143173116Y-59763963D02*
X143173116Y-57103963D01*
G04 #@! TO.C,C6*
X66280000Y-80830000D02*
X66974000Y-80830000D01*
X66280000Y-86170000D02*
X66280000Y-80830000D01*
X66974000Y-86170000D02*
X66280000Y-86170000D01*
X69026000Y-80830000D02*
X69720000Y-80830000D01*
X69720000Y-80830000D02*
X69720000Y-86170000D01*
X69720000Y-86170000D02*
X69026000Y-86170000D01*
G04 #@! TO.C,C3*
X85315000Y-74162651D02*
X85315000Y-74962651D01*
X85715000Y-74562651D02*
X84915000Y-74562651D01*
X87120000Y-78572349D02*
G75*
G02*
X78880000Y-78572349I-4120000J0D01*
G01*
X78880000Y-78572349D02*
G75*
G02*
X87120000Y-78572349I4120000J0D01*
G01*
G04 #@! TO.C,C11*
X74280000Y-62330000D02*
X74974000Y-62330000D01*
X74280000Y-67670000D02*
X74280000Y-62330000D01*
X74974000Y-67670000D02*
X74280000Y-67670000D01*
X77026000Y-62330000D02*
X77720000Y-62330000D01*
X77720000Y-62330000D02*
X77720000Y-67670000D01*
X77720000Y-67670000D02*
X77026000Y-67670000D01*
G04 #@! TO.C,C1*
X85315000Y-65162651D02*
X85315000Y-65962651D01*
X85715000Y-65562651D02*
X84915000Y-65562651D01*
X87120000Y-69572349D02*
G75*
G02*
X78880000Y-69572349I-4120000J0D01*
G01*
X78880000Y-69572349D02*
G75*
G02*
X87120000Y-69572349I4120000J0D01*
G01*
G04 #@! TO.C,C21*
X116775000Y-117509887D02*
X117275000Y-117509887D01*
X117025000Y-117759887D02*
X117025000Y-117259887D01*
X121120000Y-114955112D02*
G75*
G02*
X115880000Y-114955112I-2620000J0D01*
G01*
X115880000Y-114955112D02*
G75*
G02*
X121120000Y-114955112I2620000J0D01*
G01*
G04 #@! TO.C,C17*
X104775000Y-111509888D02*
X105275000Y-111509888D01*
X105025000Y-111759888D02*
X105025000Y-111259888D01*
X109120000Y-108955113D02*
G75*
G02*
X103880000Y-108955113I-2620000J0D01*
G01*
X103880000Y-108955113D02*
G75*
G02*
X109120000Y-108955113I2620000J0D01*
G01*
G04 #@! TO.C,C2*
X94815000Y-65162651D02*
X94815000Y-65962651D01*
X95215000Y-65562651D02*
X94415000Y-65562651D01*
X96620000Y-69572349D02*
G75*
G02*
X88380000Y-69572349I-4120000J0D01*
G01*
X88380000Y-69572349D02*
G75*
G02*
X96620000Y-69572349I4120000J0D01*
G01*
G04 #@! TO.C,D1*
X95530000Y-105780000D02*
X95860000Y-105780000D01*
X95530000Y-110200000D02*
X98470000Y-110200000D01*
X95530000Y-110320000D02*
X98470000Y-110320000D01*
X95530000Y-110440000D02*
X98470000Y-110440000D01*
X95530000Y-111220000D02*
X95530000Y-105780000D01*
X95860000Y-111220000D02*
X95530000Y-111220000D01*
X98140000Y-111220000D02*
X98470000Y-111220000D01*
X98470000Y-105780000D02*
X98140000Y-105780000D01*
X98470000Y-111220000D02*
X98470000Y-105780000D01*
G04 #@! TO.C,L3*
X96970000Y-99500000D02*
G75*
G02*
X88030000Y-99500000I-4470000J0D01*
G01*
X88030000Y-99500000D02*
G75*
G02*
X96970000Y-99500000I4470000J0D01*
G01*
G04 #@! TO.C,C18*
X110775000Y-111484887D02*
X111275000Y-111484887D01*
X111025000Y-111734887D02*
X111025000Y-111234887D01*
X115120000Y-108930112D02*
G75*
G02*
X109880000Y-108930112I-2620000J0D01*
G01*
X109880000Y-108930112D02*
G75*
G02*
X115120000Y-108930112I2620000J0D01*
G01*
G04 #@! TO.C,C20*
X110480112Y-117509887D02*
X110980112Y-117509887D01*
X110730112Y-117759887D02*
X110730112Y-117259887D01*
X114825112Y-114955112D02*
G75*
G02*
X109585112Y-114955112I-2620000J0D01*
G01*
X109585112Y-114955112D02*
G75*
G02*
X114825112Y-114955112I2620000J0D01*
G01*
G04 #@! TO.C,J8*
X110920000Y-120645000D02*
X112250000Y-120645000D01*
X110920000Y-121975000D02*
X110920000Y-120645000D01*
X113520000Y-120645000D02*
X116120000Y-120645000D01*
X113520000Y-123305000D02*
X113520000Y-120645000D01*
X113520000Y-123305000D02*
X116120000Y-123305000D01*
X116120000Y-123305000D02*
X116120000Y-120645000D01*
D14*
G04 #@! TO.C,L2*
X68585000Y-66850000D02*
X68585000Y-71650000D01*
X73415000Y-66850000D02*
X73415000Y-71650000D01*
D10*
X71392063Y-65760000D02*
G75*
G02*
X71147937Y-65760000I-122063J0D01*
G01*
X71147937Y-65760000D02*
G75*
G02*
X71392063Y-65760000I122063J0D01*
G01*
D13*
G04 #@! TO.C,C16*
X64330000Y-76280000D02*
X69670000Y-76280000D01*
X64330000Y-76974000D02*
X64330000Y-76280000D01*
X64330000Y-79720000D02*
X64330000Y-79026000D01*
X69670000Y-76280000D02*
X69670000Y-76974000D01*
X69670000Y-79026000D02*
X69670000Y-79720000D01*
X69670000Y-79720000D02*
X64330000Y-79720000D01*
G04 #@! TO.C,U3*
X128855000Y-95780000D02*
X128855000Y-116220000D01*
X128855000Y-116220000D02*
X134155000Y-116220000D01*
X130505000Y-95780000D02*
X128855000Y-95780000D01*
X134155000Y-95780000D02*
X132505000Y-95780000D01*
X134155000Y-116220000D02*
X134155000Y-95780000D01*
X132505000Y-95780000D02*
G75*
G02*
X130505000Y-95780000I-1000000J0D01*
G01*
G04 #@! TO.C,C5*
X74280000Y-83330000D02*
X74974000Y-83330000D01*
X74280000Y-88670000D02*
X74280000Y-83330000D01*
X74974000Y-88670000D02*
X74280000Y-88670000D01*
X77026000Y-83330000D02*
X77720000Y-83330000D01*
X77720000Y-83330000D02*
X77720000Y-88670000D01*
X77720000Y-88670000D02*
X77026000Y-88670000D01*
G04 #@! TO.C,C8*
X64330000Y-93280000D02*
X69670000Y-93280000D01*
X64330000Y-93974000D02*
X64330000Y-93280000D01*
X64330000Y-96720000D02*
X64330000Y-96026000D01*
X69670000Y-93280000D02*
X69670000Y-93974000D01*
X69670000Y-96026000D02*
X69670000Y-96720000D01*
X69670000Y-96720000D02*
X64330000Y-96720000D01*
G04 #@! TO.C,C13*
X72330000Y-72280000D02*
X77670000Y-72280000D01*
X72330000Y-72974000D02*
X72330000Y-72280000D01*
X72330000Y-75720000D02*
X72330000Y-75026000D01*
X77670000Y-72280000D02*
X77670000Y-72974000D01*
X77670000Y-75026000D02*
X77670000Y-75720000D01*
X77670000Y-75720000D02*
X72330000Y-75720000D01*
D14*
G04 #@! TO.C,L1*
X68585000Y-87850000D02*
X68585000Y-92650000D01*
X73415000Y-87850000D02*
X73415000Y-92650000D01*
D10*
X71392063Y-86760000D02*
G75*
G02*
X71147937Y-86760000I-122063J0D01*
G01*
X71147937Y-86760000D02*
G75*
G02*
X71392063Y-86760000I122063J0D01*
G01*
D13*
G04 #@! TO.C,U4*
X70440000Y-62590000D02*
X70490000Y-62590000D01*
X70440000Y-64410000D02*
X70440000Y-62590000D01*
X70490000Y-64410000D02*
X70440000Y-64410000D01*
X73510000Y-62590000D02*
X73560000Y-62590000D01*
X73560000Y-62590000D02*
X73560000Y-64410000D01*
X73560000Y-64410000D02*
X73510000Y-64410000D01*
X73840000Y-62290000D02*
X73510000Y-62050000D01*
X73840000Y-61810000D01*
X73840000Y-62290000D01*
G36*
X73840000Y-62290000D02*
G01*
X73510000Y-62050000D01*
X73840000Y-61810000D01*
X73840000Y-62290000D01*
G37*
G04 #@! TO.C,R2*
X138130000Y-108730000D02*
X138460000Y-108730000D01*
X138130000Y-115270000D02*
X138130000Y-108730000D01*
X138460000Y-115270000D02*
X138130000Y-115270000D01*
X140540000Y-115270000D02*
X140870000Y-115270000D01*
X140870000Y-108730000D02*
X140540000Y-108730000D01*
X140870000Y-115270000D02*
X140870000Y-108730000D01*
G04 #@! TO.C,C9*
X72330000Y-97280000D02*
X77670000Y-97280000D01*
X72330000Y-97974000D02*
X72330000Y-97280000D01*
X72330000Y-100720000D02*
X72330000Y-100026000D01*
X77670000Y-97280000D02*
X77670000Y-97974000D01*
X77670000Y-100026000D02*
X77670000Y-100720000D01*
X77670000Y-100720000D02*
X72330000Y-100720000D01*
G04 #@! TO.C,J6*
X126650000Y-118225000D02*
X126650000Y-119475000D01*
X126950000Y-120775000D02*
X127700000Y-120775000D01*
X127700000Y-120775000D02*
X127700000Y-123725000D01*
X127700000Y-123725000D02*
X134500000Y-123725000D01*
X127900000Y-118225000D02*
X126650000Y-118225000D01*
X141300000Y-120775000D02*
X141300000Y-123725000D01*
X141300000Y-123725000D02*
X134500000Y-123725000D01*
X142050000Y-120775000D02*
X141300000Y-120775000D01*
X126940000Y-118515000D02*
X142060000Y-118515000D01*
X142060000Y-124485000D01*
X126940000Y-124485000D01*
X126940000Y-118515000D01*
X126950000Y-118525000D02*
X128750000Y-118525000D01*
X128750000Y-119275000D01*
X126950000Y-119275000D01*
X126950000Y-118525000D01*
X130250000Y-118525000D02*
X138750000Y-118525000D01*
X138750000Y-119275000D01*
X130250000Y-119275000D01*
X130250000Y-118525000D01*
X140250000Y-118525000D02*
X142050000Y-118525000D01*
X142050000Y-119275000D01*
X140250000Y-119275000D01*
X140250000Y-118525000D01*
G04 #@! TO.C,C7*
X72330000Y-93280000D02*
X77670000Y-93280000D01*
X72330000Y-93974000D02*
X72330000Y-93280000D01*
X72330000Y-96720000D02*
X72330000Y-96026000D01*
X77670000Y-93280000D02*
X77670000Y-93974000D01*
X77670000Y-96026000D02*
X77670000Y-96720000D01*
X77670000Y-96720000D02*
X72330000Y-96720000D01*
G04 #@! TO.C,C15*
X72330000Y-76280000D02*
X77670000Y-76280000D01*
X72330000Y-76974000D02*
X72330000Y-76280000D01*
X72330000Y-79720000D02*
X72330000Y-79026000D01*
X77670000Y-76280000D02*
X77670000Y-76974000D01*
X77670000Y-79026000D02*
X77670000Y-79720000D01*
X77670000Y-79720000D02*
X72330000Y-79720000D01*
G04 #@! TO.C,R4*
X71230000Y-101630000D02*
X77770000Y-101630000D01*
X71230000Y-101960000D02*
X71230000Y-101630000D01*
X71230000Y-104040000D02*
X71230000Y-104370000D01*
X71230000Y-104370000D02*
X77770000Y-104370000D01*
X77770000Y-101630000D02*
X77770000Y-101960000D01*
X77770000Y-104370000D02*
X77770000Y-104040000D01*
G04 #@! TO.C,R3*
X122290000Y-109822936D02*
X122290000Y-114177064D01*
X125710000Y-109822936D02*
X125710000Y-114177064D01*
G04 #@! TO.C,C24*
X104775000Y-117509888D02*
X105275000Y-117509888D01*
X105025000Y-117759888D02*
X105025000Y-117259888D01*
X109120000Y-114955113D02*
G75*
G02*
X103880000Y-114955113I-2620000J0D01*
G01*
X103880000Y-114955113D02*
G75*
G02*
X109120000Y-114955113I2620000J0D01*
G01*
G04 #@! TO.C,C22*
X91280000Y-105830000D02*
X91974000Y-105830000D01*
X91280000Y-111170000D02*
X91280000Y-105830000D01*
X91974000Y-111170000D02*
X91280000Y-111170000D01*
X94026000Y-105830000D02*
X94720000Y-105830000D01*
X94720000Y-105830000D02*
X94720000Y-111170000D01*
X94720000Y-111170000D02*
X94026000Y-111170000D01*
G04 #@! TD*
M02*
