M48
; DRILL file {KiCad 9.0.7} date 2026-03-10T23:19:36-0400
; FORMAT={-:-/ absolute / metric / decimal}
; #@! TF.CreationDate,2026-03-10T23:19:36-04:00
; #@! TF.GenerationSoftware,Kicad,Pcbnew,9.0.7
; #@! TF.FileFunction,MixedPlating,1,2
FMAT,2
METRIC
; #@! TA.AperFunction,Plated,PTH,ViaDrill
T1C0.300
; #@! TA.AperFunction,Plated,PTH,ComponentDrill
T2C0.750
; #@! TA.AperFunction,Plated,PTH,ComponentDrill
T3C0.800
; #@! TA.AperFunction,Plated,PTH,ComponentDrill
T4C0.900
; #@! TA.AperFunction,Plated,PTH,ComponentDrill
T5C0.950
; #@! TA.AperFunction,Plated,PTH,ComponentDrill
T6C1.000
; #@! TA.AperFunction,Plated,PTH,ComponentDrill
T7C1.020
; #@! TA.AperFunction,Plated,PTH,ComponentDrill
T8C1.300
; #@! TA.AperFunction,Plated,PTH,ComponentDrill
T9C3.200
; #@! TA.AperFunction,NonPlated,NPTH,ComponentDrill
T10C1.600
; #@! TA.AperFunction,NonPlated,NPTH,ComponentDrill
T11C3.000
%
G90
G05
T1
X88.5Y-100.5
X88.5Y-103.0
X88.75Y-109.25
X90.0Y-108.75
X91.25Y-108.408
X95.5Y-100.0
X96.25Y-100.5
X97.25Y-100.75
X103.365Y-85.885
X122.5Y-107.5
X123.5Y-107.5
X124.5Y-107.5
X125.5Y-107.5
T2
X81.89Y-84.73
X81.89Y-86.0
X81.89Y-87.27
T3
X64.5Y-74.0
X64.5Y-78.0
X64.5Y-95.0
X64.5Y-99.0
X68.0Y-60.0
X68.0Y-65.0
X68.0Y-81.0
X68.0Y-86.0
X69.5Y-74.0
X69.5Y-78.0
X69.5Y-95.0
X69.5Y-99.0
X70.69Y-103.0
X72.5Y-74.0
X72.5Y-78.0
X72.5Y-95.0
X72.5Y-99.0
X74.5Y-106.19
X74.5Y-113.81
X76.0Y-62.5
X76.0Y-67.5
X76.0Y-83.5
X76.0Y-88.5
X77.5Y-74.0
X77.5Y-78.0
X77.5Y-95.0
X77.5Y-99.0
X78.0Y-106.19
X78.0Y-113.81
X78.31Y-103.0
X81.5Y-107.69
X81.5Y-115.31
X83.0Y-68.322
X83.0Y-70.822
X83.0Y-77.322
X83.0Y-79.822
X85.5Y-109.5
X85.5Y-114.5
X86.69Y-84.5
X89.5Y-105.69
X89.5Y-113.31
X92.5Y-68.322
X92.5Y-70.822
X92.5Y-77.322
X92.5Y-79.822
X93.0Y-106.0
X93.0Y-111.0
X94.31Y-84.5
X100.5Y-104.69
X100.5Y-112.31
X106.5Y-107.705
X106.5Y-110.205
X106.5Y-113.705
X106.5Y-116.205
X112.205Y-113.705
X112.205Y-116.205
X112.5Y-107.68
X112.5Y-110.18
X118.5Y-107.68
X118.5Y-110.18
X118.5Y-113.705
X118.5Y-116.205
X127.695Y-97.11
X127.695Y-99.65
X127.695Y-102.19
X127.695Y-104.73
X127.695Y-107.27
X127.695Y-109.81
X127.695Y-112.35
X127.695Y-114.89
X135.315Y-97.11
X135.315Y-99.65
X135.315Y-102.19
X135.315Y-104.73
X135.315Y-107.27
X135.315Y-109.81
X135.315Y-112.35
X135.315Y-114.89
X139.5Y-96.69
X139.5Y-104.31
X139.5Y-108.19
X139.5Y-115.81
T4
X97.0Y-104.69
X97.0Y-112.31
T5
X74.0Y-121.0
X76.5Y-121.0
X79.0Y-121.0
X81.5Y-121.0
X82.775Y-92.25
X82.775Y-94.75
X82.775Y-97.25
X84.0Y-121.0
X91.0Y-121.0
X93.5Y-121.0
X96.0Y-121.0
X98.5Y-121.0
X129.5Y-120.975
X132.0Y-120.975
X134.5Y-120.975
X137.0Y-120.975
X139.5Y-120.975
T6
X90.75Y-89.25
X90.75Y-91.75
X112.25Y-121.975
X114.79Y-121.975
X134.223Y-58.434
X136.763Y-58.434
X139.303Y-58.434
X141.843Y-58.434
X144.475Y-99.25
X144.475Y-101.75
X144.475Y-110.75
X144.475Y-113.25
T7
X99.3Y-60.485
X99.3Y-63.025
X99.3Y-65.565
X99.3Y-68.105
X99.3Y-70.645
X99.3Y-73.185
X99.3Y-75.725
X99.3Y-78.265
X99.3Y-80.805
X99.3Y-83.345
X99.3Y-85.885
X99.3Y-88.425
X99.3Y-90.965
X99.3Y-93.505
X99.3Y-96.045
X124.7Y-60.485
X124.7Y-63.025
X124.7Y-65.565
X124.7Y-68.105
X124.7Y-70.645
X124.7Y-73.185
X124.7Y-75.725
X124.7Y-78.265
X124.7Y-80.805
X124.7Y-83.345
X124.7Y-85.885
X124.7Y-88.425
X124.7Y-90.965
X124.7Y-93.505
X124.7Y-96.045
T8
X92.5Y-97.0
X92.5Y-102.0
T9
X67.0Y-54.0
X67.0Y-121.0
X146.0Y-54.0
X146.0Y-121.0
T10
X87.7Y-54.0
T11
X99.72Y-52.525
X99.72Y-99.475
X124.23Y-52.525
X124.23Y-99.475
T6
G00X83.2Y-56.75
M15
G01X83.2Y-55.25
M16
G05
G00X88.35Y-57.0
M15
G01X87.05Y-57.0
M16
G05
G00X88.7Y-63.0
M15
G01X86.7Y-63.0
M16
G05
G00X92.2Y-56.75
M15
G01X92.2Y-55.25
M16
G05
M30
