G04 #@! TF.GenerationSoftware,KiCad,Pcbnew,9.0.7*
G04 #@! TF.CreationDate,2026-03-10T23:19:28-04:00*
G04 #@! TF.ProjectId,Capacitor-Clock-PCB,43617061-6369-4746-9f72-2d436c6f636b,rev?*
G04 #@! TF.SameCoordinates,Original*
G04 #@! TF.FileFunction,Copper,L1,Top*
G04 #@! TF.FilePolarity,Positive*
%FSLAX46Y46*%
G04 Gerber Fmt 4.6, Leading zero omitted, Abs format (unit mm)*
G04 Created by KiCad (PCBNEW 9.0.7) date 2026-03-10 23:19:28*
%MOMM*%
%LPD*%
G01*
G04 APERTURE LIST*
G04 Aperture macros list*
%AMRoundRect*
0 Rectangle with rounded corners*
0 $1 Rounding radius*
0 $2 $3 $4 $5 $6 $7 $8 $9 X,Y pos of 4 corners*
0 Add a 4 corners polygon primitive as box body*
4,1,4,$2,$3,$4,$5,$6,$7,$8,$9,$2,$3,0*
0 Add four circle primitives for the rounded corners*
1,1,$1+$1,$2,$3*
1,1,$1+$1,$4,$5*
1,1,$1+$1,$6,$7*
1,1,$1+$1,$8,$9*
0 Add four rect primitives between the rounded corners*
20,1,$1+$1,$2,$3,$4,$5,0*
20,1,$1+$1,$4,$5,$6,$7,0*
20,1,$1+$1,$6,$7,$8,$9,0*
20,1,$1+$1,$8,$9,$2,$3,0*%
G04 Aperture macros list end*
G04 #@! TA.AperFunction,ComponentPad*
%ADD10C,1.600000*%
G04 #@! TD*
G04 #@! TA.AperFunction,ComponentPad*
%ADD11R,1.500000X1.050000*%
G04 #@! TD*
G04 #@! TA.AperFunction,ComponentPad*
%ADD12O,1.500000X1.050000*%
G04 #@! TD*
G04 #@! TA.AperFunction,ComponentPad*
%ADD13RoundRect,0.250000X-0.725000X0.600000X-0.725000X-0.600000X0.725000X-0.600000X0.725000X0.600000X0*%
G04 #@! TD*
G04 #@! TA.AperFunction,ComponentPad*
%ADD14O,1.950000X1.700000*%
G04 #@! TD*
G04 #@! TA.AperFunction,ComponentPad*
%ADD15RoundRect,0.250000X-0.750000X0.600000X-0.750000X-0.600000X0.750000X-0.600000X0.750000X0.600000X0*%
G04 #@! TD*
G04 #@! TA.AperFunction,ComponentPad*
%ADD16O,2.000000X1.700000*%
G04 #@! TD*
G04 #@! TA.AperFunction,ComponentPad*
%ADD17RoundRect,0.250000X0.750000X-0.600000X0.750000X0.600000X-0.750000X0.600000X-0.750000X-0.600000X0*%
G04 #@! TD*
G04 #@! TA.AperFunction,ComponentPad*
%ADD18RoundRect,0.250000X-0.600000X-0.725000X0.600000X-0.725000X0.600000X0.725000X-0.600000X0.725000X0*%
G04 #@! TD*
G04 #@! TA.AperFunction,ComponentPad*
%ADD19O,1.700000X1.950000*%
G04 #@! TD*
G04 #@! TA.AperFunction,ComponentPad*
%ADD20O,2.000000X3.500000*%
G04 #@! TD*
G04 #@! TA.AperFunction,ComponentPad*
%ADD21O,3.300000X2.000000*%
G04 #@! TD*
G04 #@! TA.AperFunction,ComponentPad*
%ADD22R,4.000000X2.000000*%
G04 #@! TD*
G04 #@! TA.AperFunction,ComponentPad*
%ADD23R,2.000000X2.000000*%
G04 #@! TD*
G04 #@! TA.AperFunction,ComponentPad*
%ADD24C,2.000000*%
G04 #@! TD*
G04 #@! TA.AperFunction,HeatsinkPad*
%ADD25R,2.410000X3.300000*%
G04 #@! TD*
G04 #@! TA.AperFunction,SMDPad,CuDef*
%ADD26RoundRect,0.150000X-0.825000X-0.150000X0.825000X-0.150000X0.825000X0.150000X-0.825000X0.150000X0*%
G04 #@! TD*
G04 #@! TA.AperFunction,ComponentPad*
%ADD27C,5.600000*%
G04 #@! TD*
G04 #@! TA.AperFunction,SMDPad,CuDef*
%ADD28RoundRect,0.150000X-0.150000X0.512500X-0.150000X-0.512500X0.150000X-0.512500X0.150000X0.512500X0*%
G04 #@! TD*
G04 #@! TA.AperFunction,ComponentPad*
%ADD29RoundRect,0.250000X0.550000X-0.550000X0.550000X0.550000X-0.550000X0.550000X-0.550000X-0.550000X0*%
G04 #@! TD*
G04 #@! TA.AperFunction,ComponentPad*
%ADD30RoundRect,0.250000X-0.550000X0.550000X-0.550000X-0.550000X0.550000X-0.550000X0.550000X0.550000X0*%
G04 #@! TD*
G04 #@! TA.AperFunction,ComponentPad*
%ADD31R,1.700000X1.700000*%
G04 #@! TD*
G04 #@! TA.AperFunction,ComponentPad*
%ADD32C,1.700000*%
G04 #@! TD*
G04 #@! TA.AperFunction,ComponentPad*
%ADD33RoundRect,0.250000X0.650000X-0.650000X0.650000X0.650000X-0.650000X0.650000X-0.650000X-0.650000X0*%
G04 #@! TD*
G04 #@! TA.AperFunction,ComponentPad*
%ADD34C,1.800000*%
G04 #@! TD*
G04 #@! TA.AperFunction,ComponentPad*
%ADD35C,2.600000*%
G04 #@! TD*
G04 #@! TA.AperFunction,SMDPad,CuDef*
%ADD36R,4.200000X1.980000*%
G04 #@! TD*
G04 #@! TA.AperFunction,ComponentPad*
%ADD37RoundRect,0.250000X-0.550000X-0.550000X0.550000X-0.550000X0.550000X0.550000X-0.550000X0.550000X0*%
G04 #@! TD*
G04 #@! TA.AperFunction,SMDPad,CuDef*
%ADD38RoundRect,0.250000X-1.425000X0.362500X-1.425000X-0.362500X1.425000X-0.362500X1.425000X0.362500X0*%
G04 #@! TD*
G04 #@! TA.AperFunction,ViaPad*
%ADD39C,0.600000*%
G04 #@! TD*
G04 #@! TA.AperFunction,Conductor*
%ADD40C,0.600000*%
G04 #@! TD*
G04 #@! TA.AperFunction,Conductor*
%ADD41C,0.400000*%
G04 #@! TD*
G04 APERTURE END LIST*
D10*
G04 #@! TO.P,R10,1*
G04 #@! TO.N,/Fan Control*
X94310000Y-84500000D03*
G04 #@! TO.P,R10,2*
G04 #@! TO.N,Net-(Q1-B)*
X86690000Y-84500000D03*
G04 #@! TD*
D11*
G04 #@! TO.P,Q1,1,E*
G04 #@! TO.N,GND*
X81890000Y-84730000D03*
D12*
G04 #@! TO.P,Q1,2,B*
G04 #@! TO.N,Net-(Q1-B)*
X81890000Y-86000000D03*
G04 #@! TO.P,Q1,3,C*
G04 #@! TO.N,Net-(J9-Pin_2)*
X81890000Y-87270000D03*
G04 #@! TD*
D13*
G04 #@! TO.P,J10,1,Pin_1*
G04 #@! TO.N,+12V*
X82775000Y-92250000D03*
D14*
G04 #@! TO.P,J10,2,Pin_2*
G04 #@! TO.N,/LED*
X82775000Y-94750000D03*
G04 #@! TO.P,J10,3,Pin_3*
G04 #@! TO.N,GND*
X82775000Y-97250000D03*
G04 #@! TD*
D15*
G04 #@! TO.P,J9,1,Pin_1*
G04 #@! TO.N,+12V*
X90750000Y-89250000D03*
D16*
G04 #@! TO.P,J9,2,Pin_2*
G04 #@! TO.N,Net-(J9-Pin_2)*
X90750000Y-91750000D03*
G04 #@! TD*
D17*
G04 #@! TO.P,J4,1,Pin_1*
G04 #@! TO.N,+3V3*
X144475000Y-113250000D03*
D16*
G04 #@! TO.P,J4,2,Pin_2*
G04 #@! TO.N,/Button2*
X144475000Y-110750000D03*
G04 #@! TD*
D17*
G04 #@! TO.P,J3,1,Pin_1*
G04 #@! TO.N,+3V3*
X144475000Y-101750000D03*
D16*
G04 #@! TO.P,J3,2,Pin_2*
G04 #@! TO.N,/Button1*
X144475000Y-99250000D03*
G04 #@! TD*
D18*
G04 #@! TO.P,J1,1,Pin_1*
G04 #@! TO.N,/SCL*
X91000000Y-121000000D03*
D19*
G04 #@! TO.P,J1,2,Pin_2*
G04 #@! TO.N,/SDA*
X93500000Y-121000000D03*
G04 #@! TO.P,J1,3,Pin_3*
G04 #@! TO.N,+5V*
X96000000Y-121000000D03*
G04 #@! TO.P,J1,4,Pin_4*
G04 #@! TO.N,GND*
X98500000Y-121000000D03*
G04 #@! TD*
D10*
G04 #@! TO.P,C23,2*
G04 #@! TO.N,Net-(C23-Pad2)*
X85500000Y-114500000D03*
G04 #@! TO.P,C23,1*
G04 #@! TO.N,GND*
X85500000Y-109500000D03*
G04 #@! TD*
D20*
G04 #@! TO.P,J2,MP*
G04 #@! TO.N,N/C*
X83200000Y-56000000D03*
X92200000Y-56000000D03*
D21*
G04 #@! TO.P,J2,2*
G04 #@! TO.N,GND*
X87700000Y-57000000D03*
D22*
G04 #@! TO.P,J2,1*
G04 #@! TO.N,+12V*
X87700000Y-63000000D03*
G04 #@! TD*
D10*
G04 #@! TO.P,R5,2*
G04 #@! TO.N,Net-(U5-FB)*
X100500000Y-104690000D03*
G04 #@! TO.P,R5,1*
G04 #@! TO.N,/+19V*
X100500000Y-112310000D03*
G04 #@! TD*
G04 #@! TO.P,R6,2*
G04 #@! TO.N,Net-(C23-Pad2)*
X81500000Y-115310000D03*
G04 #@! TO.P,R6,1*
G04 #@! TO.N,Net-(U5-COMP)*
X81500000Y-107690000D03*
G04 #@! TD*
G04 #@! TO.P,R7,2*
G04 #@! TO.N,GND*
X78000000Y-113810000D03*
G04 #@! TO.P,R7,1*
G04 #@! TO.N,/LINE*
X78000000Y-106190000D03*
G04 #@! TD*
G04 #@! TO.P,R8,2*
G04 #@! TO.N,GND*
X89500000Y-113310000D03*
G04 #@! TO.P,R8,1*
G04 #@! TO.N,Net-(U5-RT)*
X89500000Y-105690000D03*
G04 #@! TD*
G04 #@! TO.P,R9,2*
G04 #@! TO.N,GND*
X74500000Y-113810000D03*
G04 #@! TO.P,R9,1*
G04 #@! TO.N,Net-(U5-FB)*
X74500000Y-106190000D03*
G04 #@! TD*
D23*
G04 #@! TO.P,U2,30,3V3*
G04 #@! TO.N,+3V3*
X99300000Y-60485000D03*
D24*
G04 #@! TO.P,U2,29,GND*
G04 #@! TO.N,GND*
X99300000Y-63025000D03*
G04 #@! TO.P,U2,28,G15*
G04 #@! TO.N,unconnected-(U2-G15-Pad28)*
X99300000Y-65565000D03*
G04 #@! TO.P,U2,27,G2*
G04 #@! TO.N,unconnected-(U2-G2-Pad27)*
X99300000Y-68105000D03*
G04 #@! TO.P,U2,26,G4*
G04 #@! TO.N,/CLK*
X99300000Y-70645000D03*
G04 #@! TO.P,U2,25,G16*
G04 #@! TO.N,/DT*
X99300000Y-73185000D03*
G04 #@! TO.P,U2,24,G17*
G04 #@! TO.N,/SW*
X99300000Y-75725000D03*
G04 #@! TO.P,U2,23,G5*
G04 #@! TO.N,unconnected-(U2-G5-Pad23)*
X99300000Y-78265000D03*
G04 #@! TO.P,U2,22,G18*
G04 #@! TO.N,/Fan Control*
X99300000Y-80805000D03*
G04 #@! TO.P,U2,21,G19*
G04 #@! TO.N,/LED*
X99300000Y-83345000D03*
G04 #@! TO.P,U2,20,G21*
G04 #@! TO.N,/SDA*
X99300000Y-85885000D03*
G04 #@! TO.P,U2,19,G3*
G04 #@! TO.N,unconnected-(U2-G3-Pad19)*
X99300000Y-88425000D03*
G04 #@! TO.P,U2,18,G1*
G04 #@! TO.N,unconnected-(U2-G1-Pad18)*
X99300000Y-90965000D03*
G04 #@! TO.P,U2,17,G22*
G04 #@! TO.N,/SCL*
X99300000Y-93505000D03*
G04 #@! TO.P,U2,16,G23*
G04 #@! TO.N,/LINE*
X99300000Y-96045000D03*
G04 #@! TO.P,U2,15,VIN*
G04 #@! TO.N,unconnected-(U2-VIN-Pad15)*
X124700000Y-60485000D03*
G04 #@! TO.P,U2,14,GND*
G04 #@! TO.N,GND*
X124700000Y-63025000D03*
G04 #@! TO.P,U2,13,G13*
G04 #@! TO.N,/Button1*
X124700000Y-65565000D03*
G04 #@! TO.P,U2,12,G12*
G04 #@! TO.N,unconnected-(U2-G12-Pad12)*
X124700000Y-68105000D03*
G04 #@! TO.P,U2,11,G14*
G04 #@! TO.N,/Button2*
X124700000Y-70645000D03*
G04 #@! TO.P,U2,10,G27*
G04 #@! TO.N,unconnected-(U2-G27-Pad10)*
X124700000Y-73185000D03*
G04 #@! TO.P,U2,9,G26*
G04 #@! TO.N,/Step4*
X124700000Y-75725000D03*
G04 #@! TO.P,U2,8,G25*
G04 #@! TO.N,/Step3*
X124700000Y-78265000D03*
G04 #@! TO.P,U2,7,G33*
G04 #@! TO.N,/Step2*
X124700000Y-80805000D03*
G04 #@! TO.P,U2,6,G32*
G04 #@! TO.N,/Step1*
X124700000Y-83345000D03*
G04 #@! TO.P,U2,5,G35*
G04 #@! TO.N,unconnected-(U2-G35-Pad5)*
X124700000Y-85885000D03*
G04 #@! TO.P,U2,4,G34*
G04 #@! TO.N,unconnected-(U2-G34-Pad4)*
X124700000Y-88425000D03*
G04 #@! TO.P,U2,3,G39*
G04 #@! TO.N,unconnected-(U2-G39-Pad3)*
X124700000Y-90965000D03*
G04 #@! TO.P,U2,2,G36*
G04 #@! TO.N,/I_sense*
X124700000Y-93505000D03*
G04 #@! TO.P,U2,1,EN*
G04 #@! TO.N,unconnected-(U2-EN-Pad1)*
X124700000Y-96045000D03*
G04 #@! TD*
D25*
G04 #@! TO.P,U5,9*
G04 #@! TO.N,N/C*
X84100000Y-103675000D03*
D26*
G04 #@! TO.P,U5,8,SW*
G04 #@! TO.N,Net-(D1-A)*
X86575000Y-101770000D03*
G04 #@! TO.P,U5,7,VIN*
G04 #@! TO.N,+12V*
X86575000Y-103040000D03*
G04 #@! TO.P,U5,6,VCC*
G04 #@! TO.N,Net-(U5-VCC)*
X86575000Y-104310000D03*
G04 #@! TO.P,U5,5,RT*
G04 #@! TO.N,Net-(U5-RT)*
X86575000Y-105580000D03*
G04 #@! TO.P,U5,4,COMP*
G04 #@! TO.N,Net-(U5-COMP)*
X81625000Y-105580000D03*
G04 #@! TO.P,U5,3,FB*
G04 #@! TO.N,Net-(U5-FB)*
X81625000Y-104310000D03*
G04 #@! TO.P,U5,2,LINE*
G04 #@! TO.N,/LINE*
X81625000Y-103040000D03*
G04 #@! TO.P,U5,1,GND*
G04 #@! TO.N,GND*
X81625000Y-101770000D03*
G04 #@! TD*
D10*
G04 #@! TO.P,C14,1*
G04 #@! TO.N,GND*
X64500000Y-74000000D03*
G04 #@! TO.P,C14,2*
G04 #@! TO.N,+3V3*
X69500000Y-74000000D03*
G04 #@! TD*
D27*
G04 #@! TO.P,H4,1,1*
G04 #@! TO.N,GND*
X146000000Y-54000000D03*
G04 #@! TD*
D10*
G04 #@! TO.P,R1,1*
G04 #@! TO.N,+3V3*
X139500000Y-104310000D03*
G04 #@! TO.P,R1,2*
G04 #@! TO.N,/Button1*
X139500000Y-96690000D03*
G04 #@! TD*
D28*
G04 #@! TO.P,U1,1,FB*
G04 #@! TO.N,+5V*
X72950000Y-83362500D03*
G04 #@! TO.P,U1,2,EN*
G04 #@! TO.N,+12V*
X72000000Y-83362500D03*
G04 #@! TO.P,U1,3,IN*
X71050000Y-83362500D03*
G04 #@! TO.P,U1,4,GND*
G04 #@! TO.N,GND*
X71050000Y-85637500D03*
G04 #@! TO.P,U1,5,SW*
G04 #@! TO.N,Net-(U1-SW)*
X72000000Y-85637500D03*
G04 #@! TO.P,U1,6,BST*
G04 #@! TO.N,Net-(U1-BST)*
X72950000Y-85637500D03*
G04 #@! TD*
D10*
G04 #@! TO.P,C10,1*
G04 #@! TO.N,GND*
X64500000Y-99000000D03*
G04 #@! TO.P,C10,2*
G04 #@! TO.N,+5V*
X69500000Y-99000000D03*
G04 #@! TD*
D29*
G04 #@! TO.P,C19,1*
G04 #@! TO.N,/+19V*
X118500000Y-110180112D03*
D10*
G04 #@! TO.P,C19,2*
G04 #@! TO.N,GND*
X118500000Y-107680112D03*
G04 #@! TD*
D30*
G04 #@! TO.P,C4,1*
G04 #@! TO.N,+12V*
X92500000Y-77322349D03*
D10*
G04 #@! TO.P,C4,2*
G04 #@! TO.N,GND*
X92500000Y-79822349D03*
G04 #@! TD*
G04 #@! TO.P,C12,1*
G04 #@! TO.N,GND*
X68000000Y-65000000D03*
G04 #@! TO.P,C12,2*
G04 #@! TO.N,+12V*
X68000000Y-60000000D03*
G04 #@! TD*
D27*
G04 #@! TO.P,H3,1,1*
G04 #@! TO.N,GND*
X67000000Y-54000000D03*
G04 #@! TD*
D18*
G04 #@! TO.P,J5,1,Pin_1*
G04 #@! TO.N,/SW*
X74000000Y-121000000D03*
D19*
G04 #@! TO.P,J5,2,Pin_2*
G04 #@! TO.N,/DT*
X76500000Y-121000000D03*
G04 #@! TO.P,J5,3,Pin_3*
G04 #@! TO.N,/CLK*
X79000000Y-121000000D03*
G04 #@! TO.P,J5,4,Pin_4*
G04 #@! TO.N,+3V3*
X81500000Y-121000000D03*
G04 #@! TO.P,J5,5,Pin_5*
G04 #@! TO.N,GND*
X84000000Y-121000000D03*
G04 #@! TD*
D31*
G04 #@! TO.P,J7,1,Pin_1*
G04 #@! TO.N,/SCL*
X134223116Y-58433963D03*
D32*
G04 #@! TO.P,J7,2,Pin_2*
G04 #@! TO.N,/SDA*
X136763116Y-58433963D03*
G04 #@! TO.P,J7,3,Pin_3*
G04 #@! TO.N,+3V3*
X139303116Y-58433963D03*
G04 #@! TO.P,J7,4,Pin_4*
G04 #@! TO.N,GND*
X141843116Y-58433963D03*
G04 #@! TD*
D10*
G04 #@! TO.P,C6,1*
G04 #@! TO.N,GND*
X68000000Y-86000000D03*
G04 #@! TO.P,C6,2*
G04 #@! TO.N,+12V*
X68000000Y-81000000D03*
G04 #@! TD*
D30*
G04 #@! TO.P,C3,1*
G04 #@! TO.N,+12V*
X83000000Y-77322349D03*
D10*
G04 #@! TO.P,C3,2*
G04 #@! TO.N,GND*
X83000000Y-79822349D03*
G04 #@! TD*
G04 #@! TO.P,C11,1*
G04 #@! TO.N,Net-(U4-BST)*
X76000000Y-62500000D03*
G04 #@! TO.P,C11,2*
G04 #@! TO.N,Net-(U4-SW)*
X76000000Y-67500000D03*
G04 #@! TD*
D30*
G04 #@! TO.P,C1,1*
G04 #@! TO.N,+12V*
X83000000Y-68322349D03*
D10*
G04 #@! TO.P,C1,2*
G04 #@! TO.N,GND*
X83000000Y-70822349D03*
G04 #@! TD*
D29*
G04 #@! TO.P,C21,1*
G04 #@! TO.N,/+19V*
X118500000Y-116205112D03*
D10*
G04 #@! TO.P,C21,2*
G04 #@! TO.N,GND*
X118500000Y-113705112D03*
G04 #@! TD*
D29*
G04 #@! TO.P,C17,1*
G04 #@! TO.N,/+19V*
X106500000Y-110205113D03*
D10*
G04 #@! TO.P,C17,2*
G04 #@! TO.N,GND*
X106500000Y-107705113D03*
G04 #@! TD*
D30*
G04 #@! TO.P,C2,1*
G04 #@! TO.N,+12V*
X92500000Y-68322349D03*
D10*
G04 #@! TO.P,C2,2*
G04 #@! TO.N,GND*
X92500000Y-70822349D03*
G04 #@! TD*
D33*
G04 #@! TO.P,D1,1,K*
G04 #@! TO.N,/+19V*
X97000000Y-112310000D03*
D34*
G04 #@! TO.P,D1,2,A*
G04 #@! TO.N,Net-(D1-A)*
X97000000Y-104690000D03*
G04 #@! TD*
D35*
G04 #@! TO.P,L3,1,1*
G04 #@! TO.N,+12V*
X92500000Y-97000000D03*
G04 #@! TO.P,L3,2,2*
G04 #@! TO.N,Net-(D1-A)*
X92500000Y-102000000D03*
G04 #@! TD*
D29*
G04 #@! TO.P,C18,1*
G04 #@! TO.N,/+19V*
X112500000Y-110180112D03*
D10*
G04 #@! TO.P,C18,2*
G04 #@! TO.N,GND*
X112500000Y-107680112D03*
G04 #@! TD*
D29*
G04 #@! TO.P,C20,1*
G04 #@! TO.N,/+19V*
X112205112Y-116205112D03*
D10*
G04 #@! TO.P,C20,2*
G04 #@! TO.N,GND*
X112205112Y-113705112D03*
G04 #@! TD*
D31*
G04 #@! TO.P,J8,1,Pin_1*
G04 #@! TO.N,/+19V*
X112250000Y-121975000D03*
D32*
G04 #@! TO.P,J8,2,Pin_2*
G04 #@! TO.N,/I_sense*
X114790000Y-121975000D03*
G04 #@! TD*
D36*
G04 #@! TO.P,L2,1,1*
G04 #@! TO.N,Net-(U4-SW)*
X71000000Y-67675000D03*
G04 #@! TO.P,L2,2,2*
G04 #@! TO.N,+3V3*
X71000000Y-70825000D03*
G04 #@! TD*
D10*
G04 #@! TO.P,C16,1*
G04 #@! TO.N,GND*
X64500000Y-78000000D03*
G04 #@! TO.P,C16,2*
G04 #@! TO.N,+3V3*
X69500000Y-78000000D03*
G04 #@! TD*
D37*
G04 #@! TO.P,U3,1,I1*
G04 #@! TO.N,/Step1*
X127695000Y-97110000D03*
D10*
G04 #@! TO.P,U3,2,I2*
G04 #@! TO.N,/Step2*
X127695000Y-99650000D03*
G04 #@! TO.P,U3,3,I3*
G04 #@! TO.N,/Step3*
X127695000Y-102190000D03*
G04 #@! TO.P,U3,4,I4*
G04 #@! TO.N,/Step4*
X127695000Y-104730000D03*
G04 #@! TO.P,U3,5,I5*
G04 #@! TO.N,unconnected-(U3-I5-Pad5)*
X127695000Y-107270000D03*
G04 #@! TO.P,U3,6,I6*
G04 #@! TO.N,unconnected-(U3-I6-Pad6)*
X127695000Y-109810000D03*
G04 #@! TO.P,U3,7,I7*
G04 #@! TO.N,unconnected-(U3-I7-Pad7)*
X127695000Y-112350000D03*
G04 #@! TO.P,U3,8,GND*
G04 #@! TO.N,GND*
X127695000Y-114890000D03*
G04 #@! TO.P,U3,9,COM*
G04 #@! TO.N,+5V*
X135315000Y-114890000D03*
G04 #@! TO.P,U3,10,O7*
G04 #@! TO.N,unconnected-(U3-O7-Pad10)*
X135315000Y-112350000D03*
G04 #@! TO.P,U3,11,O6*
G04 #@! TO.N,unconnected-(U3-O6-Pad11)*
X135315000Y-109810000D03*
G04 #@! TO.P,U3,12,O5*
G04 #@! TO.N,unconnected-(U3-O5-Pad12)*
X135315000Y-107270000D03*
G04 #@! TO.P,U3,13,O4*
G04 #@! TO.N,Net-(J6-Pin_4)*
X135315000Y-104730000D03*
G04 #@! TO.P,U3,14,O3*
G04 #@! TO.N,Net-(J6-Pin_3)*
X135315000Y-102190000D03*
G04 #@! TO.P,U3,15,O2*
G04 #@! TO.N,Net-(J6-Pin_2)*
X135315000Y-99650000D03*
G04 #@! TO.P,U3,16,O1*
G04 #@! TO.N,Net-(J6-Pin_1)*
X135315000Y-97110000D03*
G04 #@! TD*
G04 #@! TO.P,C5,1*
G04 #@! TO.N,Net-(U1-BST)*
X76000000Y-83500000D03*
G04 #@! TO.P,C5,2*
G04 #@! TO.N,Net-(U1-SW)*
X76000000Y-88500000D03*
G04 #@! TD*
G04 #@! TO.P,C8,1*
G04 #@! TO.N,GND*
X64500000Y-95000000D03*
G04 #@! TO.P,C8,2*
G04 #@! TO.N,+5V*
X69500000Y-95000000D03*
G04 #@! TD*
G04 #@! TO.P,C13,1*
G04 #@! TO.N,GND*
X77500000Y-74000000D03*
G04 #@! TO.P,C13,2*
G04 #@! TO.N,+3V3*
X72500000Y-74000000D03*
G04 #@! TD*
D36*
G04 #@! TO.P,L1,1,1*
G04 #@! TO.N,Net-(U1-SW)*
X71000000Y-88675000D03*
G04 #@! TO.P,L1,2,2*
G04 #@! TO.N,+5V*
X71000000Y-91825000D03*
G04 #@! TD*
D28*
G04 #@! TO.P,U4,1,FB*
G04 #@! TO.N,+3V3*
X72950000Y-62362500D03*
G04 #@! TO.P,U4,2,EN*
G04 #@! TO.N,+12V*
X72000000Y-62362500D03*
G04 #@! TO.P,U4,3,IN*
X71050000Y-62362500D03*
G04 #@! TO.P,U4,4,GND*
G04 #@! TO.N,GND*
X71050000Y-64637500D03*
G04 #@! TO.P,U4,5,SW*
G04 #@! TO.N,Net-(U4-SW)*
X72000000Y-64637500D03*
G04 #@! TO.P,U4,6,BST*
G04 #@! TO.N,Net-(U4-BST)*
X72950000Y-64637500D03*
G04 #@! TD*
D27*
G04 #@! TO.P,H1,1,1*
G04 #@! TO.N,GND*
X67000000Y-121000000D03*
G04 #@! TD*
D10*
G04 #@! TO.P,R2,1*
G04 #@! TO.N,+3V3*
X139500000Y-115810000D03*
G04 #@! TO.P,R2,2*
G04 #@! TO.N,/Button2*
X139500000Y-108190000D03*
G04 #@! TD*
G04 #@! TO.P,C9,1*
G04 #@! TO.N,GND*
X77500000Y-99000000D03*
G04 #@! TO.P,C9,2*
G04 #@! TO.N,+5V*
X72500000Y-99000000D03*
G04 #@! TD*
D27*
G04 #@! TO.P,H2,1,1*
G04 #@! TO.N,GND*
X146000000Y-121000000D03*
G04 #@! TD*
D18*
G04 #@! TO.P,J6,1,Pin_1*
G04 #@! TO.N,Net-(J6-Pin_1)*
X129500000Y-120975000D03*
D19*
G04 #@! TO.P,J6,2,Pin_2*
G04 #@! TO.N,Net-(J6-Pin_2)*
X132000000Y-120975000D03*
G04 #@! TO.P,J6,3,Pin_3*
G04 #@! TO.N,Net-(J6-Pin_3)*
X134500000Y-120975000D03*
G04 #@! TO.P,J6,4,Pin_4*
G04 #@! TO.N,Net-(J6-Pin_4)*
X137000000Y-120975000D03*
G04 #@! TO.P,J6,5,Pin_5*
G04 #@! TO.N,+5V*
X139500000Y-120975000D03*
G04 #@! TD*
D10*
G04 #@! TO.P,C7,1*
G04 #@! TO.N,GND*
X77500000Y-95000000D03*
G04 #@! TO.P,C7,2*
G04 #@! TO.N,+5V*
X72500000Y-95000000D03*
G04 #@! TD*
G04 #@! TO.P,C15,1*
G04 #@! TO.N,GND*
X77500000Y-78000000D03*
G04 #@! TO.P,C15,2*
G04 #@! TO.N,+3V3*
X72500000Y-78000000D03*
G04 #@! TD*
G04 #@! TO.P,R4,1*
G04 #@! TO.N,+12V*
X70690000Y-103000000D03*
G04 #@! TO.P,R4,2*
G04 #@! TO.N,/LINE*
X78310000Y-103000000D03*
G04 #@! TD*
D38*
G04 #@! TO.P,R3,1*
G04 #@! TO.N,GND*
X124000000Y-109037500D03*
G04 #@! TO.P,R3,2*
G04 #@! TO.N,/I_sense*
X124000000Y-114962500D03*
G04 #@! TD*
D29*
G04 #@! TO.P,C24,1*
G04 #@! TO.N,/+19V*
X106500000Y-116205113D03*
D10*
G04 #@! TO.P,C24,2*
G04 #@! TO.N,GND*
X106500000Y-113705113D03*
G04 #@! TD*
G04 #@! TO.P,C22,1*
G04 #@! TO.N,GND*
X93000000Y-111000000D03*
G04 #@! TO.P,C22,2*
G04 #@! TO.N,Net-(U5-VCC)*
X93000000Y-106000000D03*
G04 #@! TD*
D39*
G04 #@! TO.N,GND*
X125500000Y-107500000D03*
X122500000Y-107500000D03*
X124500000Y-107500000D03*
X123500000Y-107500000D03*
G04 #@! TO.N,+12V*
X88500000Y-100500000D03*
X88500000Y-103000000D03*
G04 #@! TO.N,/SDA*
X103365000Y-85885000D03*
G04 #@! TO.N,/SW*
X88750000Y-109250000D03*
X97250000Y-100750000D03*
G04 #@! TO.N,/DT*
X90000000Y-108750000D03*
X96250000Y-100500000D03*
G04 #@! TO.N,/CLK*
X91249894Y-108407663D03*
X95500000Y-100000000D03*
G04 #@! TD*
D40*
G04 #@! TO.N,Net-(J6-Pin_2)*
X132000000Y-120005786D02*
X132000000Y-120975000D01*
X131801000Y-119806786D02*
X132000000Y-120005786D01*
X135315000Y-99650000D02*
X131801000Y-103164000D01*
X131801000Y-103164000D02*
X131801000Y-119806786D01*
G04 #@! TO.N,Net-(J6-Pin_1)*
X130801000Y-103074677D02*
X130801000Y-101624000D01*
X130750000Y-103125677D02*
X130801000Y-103074677D01*
X130801000Y-101624000D02*
X135315000Y-97110000D01*
X130750000Y-119725000D02*
X130750000Y-103125677D01*
X129500000Y-120975000D02*
X130750000Y-119725000D01*
G04 #@! TO.N,Net-(J6-Pin_4)*
X133750000Y-117725000D02*
X137000000Y-120975000D01*
X133750000Y-106295000D02*
X133750000Y-117725000D01*
X135315000Y-104730000D02*
X133750000Y-106295000D01*
G04 #@! TO.N,Net-(J6-Pin_3)*
X132801000Y-104704000D02*
X135315000Y-102190000D01*
X134500000Y-120975000D02*
X132801000Y-119276000D01*
X132801000Y-119276000D02*
X132801000Y-104704000D01*
G04 #@! TO.N,/Button2*
X136949000Y-82894000D02*
X124700000Y-70645000D01*
X137000000Y-105690000D02*
X137000000Y-95382786D01*
X137000000Y-95382786D02*
X136949000Y-95331785D01*
X136949000Y-95331785D02*
X136949000Y-82894000D01*
X139500000Y-108190000D02*
X137000000Y-105690000D01*
D41*
G04 #@! TO.N,/CLK*
X95750000Y-99750000D02*
X95500000Y-100000000D01*
X95750000Y-74195000D02*
X95750000Y-99750000D01*
X99300000Y-70645000D02*
X95750000Y-74195000D01*
G04 #@! TO.N,/DT*
X96500000Y-100250000D02*
X96250000Y-100500000D01*
X96500000Y-75985000D02*
X96500000Y-100250000D01*
X99300000Y-73185000D02*
X96500000Y-75985000D01*
D40*
G04 #@! TO.N,Net-(J9-Pin_2)*
X82020000Y-87270000D02*
X86500000Y-91750000D01*
X86500000Y-91750000D02*
X90750000Y-91750000D01*
X81890000Y-87270000D02*
X82020000Y-87270000D01*
G04 #@! TO.N,Net-(Q1-B)*
X85190000Y-86000000D02*
X81890000Y-86000000D01*
X86690000Y-84500000D02*
X85190000Y-86000000D01*
G04 #@! TO.N,GND*
X80270000Y-101770000D02*
X77500000Y-99000000D01*
X68362500Y-64637500D02*
X68000000Y-65000000D01*
X81625000Y-101770000D02*
X80270000Y-101770000D01*
X71050000Y-85637500D02*
X68362500Y-85637500D01*
X71050000Y-64637500D02*
X68362500Y-64637500D01*
X68362500Y-85637500D02*
X68000000Y-86000000D01*
G04 #@! TO.N,+12V*
X70362500Y-83362500D02*
X68000000Y-81000000D01*
X88460000Y-103040000D02*
X88500000Y-103000000D01*
X72000000Y-83362500D02*
X70362500Y-83362500D01*
X86575000Y-103040000D02*
X88460000Y-103040000D01*
G04 #@! TO.N,Net-(U1-BST)*
X73862500Y-85637500D02*
X76000000Y-83500000D01*
X72950000Y-85637500D02*
X73862500Y-85637500D01*
G04 #@! TO.N,Net-(U1-SW)*
X76000000Y-88500000D02*
X71075000Y-88500000D01*
X71075000Y-88500000D02*
X71000000Y-88425000D01*
X72000000Y-87425000D02*
X71000000Y-88425000D01*
X72000000Y-85637500D02*
X72000000Y-87425000D01*
G04 #@! TO.N,+5V*
X72950000Y-83362500D02*
X74113500Y-82199000D01*
X74113500Y-82199000D02*
X76538892Y-82199000D01*
X76538892Y-82199000D02*
X77500000Y-83160108D01*
X74925000Y-91575000D02*
X71000000Y-91575000D01*
X77500000Y-89000000D02*
X74925000Y-91575000D01*
X77500000Y-83160108D02*
X77500000Y-89000000D01*
G04 #@! TO.N,Net-(U4-BST)*
X72950000Y-64637500D02*
X73862500Y-64637500D01*
X73862500Y-64637500D02*
X76000000Y-62500000D01*
G04 #@! TO.N,Net-(U4-SW)*
X72000000Y-66425000D02*
X71000000Y-67425000D01*
X71075000Y-67500000D02*
X71000000Y-67425000D01*
X76000000Y-67500000D02*
X71075000Y-67500000D01*
X72000000Y-64637500D02*
X72000000Y-66425000D01*
G04 #@! TO.N,Net-(U5-VCC)*
X91310000Y-104310000D02*
X93000000Y-106000000D01*
X86575000Y-104310000D02*
X91310000Y-104310000D01*
G04 #@! TO.N,Net-(C23-Pad2)*
X85500000Y-114500000D02*
X82310000Y-114500000D01*
X82310000Y-114500000D02*
X81500000Y-115310000D01*
G04 #@! TO.N,Net-(D1-A)*
X92500000Y-102000000D02*
X94310000Y-102000000D01*
X86575000Y-101770000D02*
X92270000Y-101770000D01*
X94310000Y-102000000D02*
X97000000Y-104690000D01*
X92270000Y-101770000D02*
X92500000Y-102000000D01*
G04 #@! TO.N,/SDA*
X99615000Y-85885000D02*
X99300000Y-85885000D01*
X134829153Y-56500000D02*
X124464740Y-56500000D01*
X93500000Y-112750000D02*
X93500000Y-121000000D01*
X102789000Y-105961000D02*
X99000000Y-109750000D01*
X96500000Y-109750000D02*
X93500000Y-112750000D01*
X103365000Y-85885000D02*
X103365000Y-91135000D01*
X99000000Y-109750000D02*
X96500000Y-109750000D01*
X103365000Y-91135000D02*
X102789000Y-91711000D01*
X124464740Y-56500000D02*
X101500000Y-79464740D01*
X102789000Y-91711000D02*
X102789000Y-105961000D01*
X136763116Y-58433963D02*
X134829153Y-56500000D01*
X101500000Y-84000000D02*
X99615000Y-85885000D01*
X101500000Y-79464740D02*
X101500000Y-84000000D01*
G04 #@! TO.N,/SCL*
X91000000Y-110750000D02*
X92801000Y-108949000D01*
X124796526Y-57301000D02*
X102301000Y-79796526D01*
X134223116Y-58433963D02*
X133090153Y-57301000D01*
X91000000Y-121000000D02*
X91000000Y-110750000D01*
X101988000Y-96193000D02*
X99300000Y-93505000D01*
X102301000Y-79796526D02*
X102301000Y-90504000D01*
X98668214Y-108949000D02*
X101988000Y-105629214D01*
X102301000Y-90504000D02*
X99300000Y-93505000D01*
X101988000Y-105629214D02*
X101988000Y-96193000D01*
X92801000Y-108949000D02*
X98668214Y-108949000D01*
X133090153Y-57301000D02*
X124796526Y-57301000D01*
G04 #@! TO.N,/Button1*
X139440000Y-96690000D02*
X138250000Y-95500000D01*
X138250000Y-95500000D02*
X138250000Y-79115000D01*
X142060000Y-99250000D02*
X139500000Y-96690000D01*
X144475000Y-99250000D02*
X142060000Y-99250000D01*
X139500000Y-96690000D02*
X139440000Y-96690000D01*
X138250000Y-79115000D02*
X124700000Y-65565000D01*
G04 #@! TO.N,/Button2*
X144475000Y-110750000D02*
X142060000Y-110750000D01*
X142060000Y-110750000D02*
X139500000Y-108190000D01*
D41*
G04 #@! TO.N,/SW*
X86750000Y-111250000D02*
X86750000Y-115250000D01*
X97250000Y-100750000D02*
X97250000Y-77775000D01*
X86750000Y-115250000D02*
X84202000Y-117798000D01*
X84202000Y-117798000D02*
X77202000Y-117798000D01*
X97250000Y-77775000D02*
X99300000Y-75725000D01*
X77202000Y-117798000D02*
X74000000Y-121000000D01*
X88750000Y-109250000D02*
X86750000Y-111250000D01*
G04 #@! TO.N,/DT*
X87399000Y-115501058D02*
X87399000Y-111751058D01*
X87399000Y-111751058D02*
X90000000Y-109150058D01*
X76500000Y-121000000D02*
X79101000Y-118399000D01*
X79101000Y-118399000D02*
X84501058Y-118399000D01*
X84501058Y-118399000D02*
X87399000Y-115501058D01*
X90000000Y-109150058D02*
X90000000Y-108750000D01*
G04 #@! TO.N,/CLK*
X91249894Y-108750106D02*
X88000000Y-112000000D01*
X81000000Y-119000000D02*
X79000000Y-121000000D01*
X88000000Y-115750000D02*
X84750000Y-119000000D01*
X88000000Y-112000000D02*
X88000000Y-115750000D01*
X91249894Y-108407663D02*
X91249894Y-108750106D01*
X84750000Y-119000000D02*
X81000000Y-119000000D01*
D40*
G04 #@! TO.N,/I_sense*
X121081000Y-112043500D02*
X124000000Y-114962500D01*
X121081000Y-97124000D02*
X121081000Y-112043500D01*
X124700000Y-93505000D02*
X121081000Y-97124000D01*
G04 #@! TO.N,/LINE*
X78350000Y-103040000D02*
X78310000Y-103000000D01*
X78000000Y-106190000D02*
X78000000Y-103310000D01*
X81625000Y-103040000D02*
X78350000Y-103040000D01*
X78000000Y-103310000D02*
X78310000Y-103000000D01*
G04 #@! TO.N,Net-(U5-FB)*
X99310000Y-104690000D02*
X96500000Y-107500000D01*
X80000000Y-108000000D02*
X80000000Y-104402595D01*
X84500000Y-107500000D02*
X83000000Y-109000000D01*
X80000000Y-104402595D02*
X80092595Y-104310000D01*
X80092595Y-104310000D02*
X81625000Y-104310000D01*
X76310000Y-108000000D02*
X79000000Y-108000000D01*
X96500000Y-107500000D02*
X84500000Y-107500000D01*
X100500000Y-104690000D02*
X99310000Y-104690000D01*
X74500000Y-106190000D02*
X76310000Y-108000000D01*
X80000000Y-108801000D02*
X80000000Y-108000000D01*
X79000000Y-108000000D02*
X80000000Y-108000000D01*
X80199000Y-109000000D02*
X80000000Y-108801000D01*
X83000000Y-109000000D02*
X80199000Y-109000000D01*
G04 #@! TO.N,Net-(U5-COMP)*
X81500000Y-107690000D02*
X81500000Y-105705000D01*
X81500000Y-105705000D02*
X81625000Y-105580000D01*
G04 #@! TO.N,Net-(U5-RT)*
X86575000Y-105580000D02*
X89390000Y-105580000D01*
X89390000Y-105580000D02*
X89500000Y-105690000D01*
G04 #@! TO.N,/Step1*
X127695000Y-97110000D02*
X127695000Y-86340000D01*
X127695000Y-86340000D02*
X124700000Y-83345000D01*
G04 #@! TO.N,/Step3*
X129199000Y-100801000D02*
X129199000Y-100668214D01*
X130000000Y-99867214D02*
X130000000Y-83565000D01*
X127810000Y-102190000D02*
X129199000Y-100801000D01*
X130000000Y-83565000D02*
X124700000Y-78265000D01*
X127695000Y-102190000D02*
X127810000Y-102190000D01*
X129199000Y-100668214D02*
X130000000Y-99867214D01*
G04 #@! TO.N,/Step2*
X128996000Y-85101000D02*
X124700000Y-80805000D01*
X128996000Y-98349000D02*
X128996000Y-85101000D01*
X127695000Y-99650000D02*
X128996000Y-98349000D01*
G04 #@! TO.N,/Step4*
X130000000Y-101000000D02*
X131000000Y-100000000D01*
X131000000Y-100000000D02*
X131000000Y-82025000D01*
X127695000Y-104730000D02*
X128012892Y-104730000D01*
X130000000Y-102742892D02*
X130000000Y-101000000D01*
X131000000Y-82025000D02*
X124700000Y-75725000D01*
X128012892Y-104730000D02*
X130000000Y-102742892D01*
G04 #@! TD*
G04 #@! TA.AperFunction,Conductor*
G04 #@! TO.N,/I_sense*
G36*
X125943039Y-112019685D02*
G01*
X125988794Y-112072489D01*
X126000000Y-112124000D01*
X126000000Y-113851294D01*
X125980315Y-113918333D01*
X125927511Y-113964088D01*
X125858353Y-113974032D01*
X125810904Y-113956833D01*
X125744128Y-113915645D01*
X125744119Y-113915641D01*
X125577697Y-113860494D01*
X125577690Y-113860493D01*
X125474986Y-113850000D01*
X124250000Y-113850000D01*
X124250000Y-116074999D01*
X125474972Y-116074999D01*
X125474986Y-116074998D01*
X125577697Y-116064505D01*
X125744119Y-116009358D01*
X125744130Y-116009353D01*
X125810903Y-115968167D01*
X125878295Y-115949726D01*
X125944959Y-115970648D01*
X125989728Y-116024290D01*
X126000000Y-116073705D01*
X126000000Y-121870500D01*
X125980315Y-121937539D01*
X125927511Y-121983294D01*
X125876000Y-121994500D01*
X116264000Y-121994500D01*
X116196961Y-121974815D01*
X116151206Y-121922011D01*
X116140672Y-121873593D01*
X116140383Y-121873616D01*
X116140215Y-121871491D01*
X116140000Y-121870500D01*
X116140000Y-121868753D01*
X116106757Y-121658872D01*
X116106757Y-121658869D01*
X116041095Y-121456782D01*
X115944624Y-121267449D01*
X115905270Y-121213282D01*
X115905269Y-121213282D01*
X115272962Y-121845589D01*
X115255925Y-121782007D01*
X115190099Y-121667993D01*
X115097007Y-121574901D01*
X114982993Y-121509075D01*
X114919409Y-121492037D01*
X115551716Y-120859728D01*
X115497550Y-120820375D01*
X115308217Y-120723904D01*
X115106129Y-120658242D01*
X114896246Y-120625000D01*
X114683754Y-120625000D01*
X114473872Y-120658242D01*
X114473869Y-120658242D01*
X114271782Y-120723904D01*
X114082439Y-120820380D01*
X114028282Y-120859727D01*
X114028282Y-120859728D01*
X114660591Y-121492037D01*
X114597007Y-121509075D01*
X114482993Y-121574901D01*
X114389901Y-121667993D01*
X114324075Y-121782007D01*
X114307037Y-121845591D01*
X113636818Y-121175372D01*
X113603333Y-121114049D01*
X113603330Y-121114036D01*
X113600499Y-121101015D01*
X113600499Y-121077128D01*
X113594091Y-121017517D01*
X113543796Y-120882669D01*
X113517864Y-120848029D01*
X113512793Y-120837747D01*
X113508680Y-120814166D01*
X113500316Y-120791739D01*
X113500000Y-120782893D01*
X113500000Y-120124000D01*
X113519685Y-120056961D01*
X113572489Y-120011206D01*
X113624000Y-120000000D01*
X121000000Y-120000000D01*
X121000000Y-115374986D01*
X121825001Y-115374986D01*
X121835494Y-115477697D01*
X121890641Y-115644119D01*
X121890643Y-115644124D01*
X121982684Y-115793345D01*
X122106654Y-115917315D01*
X122255875Y-116009356D01*
X122255880Y-116009358D01*
X122422302Y-116064505D01*
X122422309Y-116064506D01*
X122525019Y-116074999D01*
X123749999Y-116074999D01*
X123750000Y-116074998D01*
X123750000Y-115212500D01*
X121825001Y-115212500D01*
X121825001Y-115374986D01*
X121000000Y-115374986D01*
X121000000Y-114550013D01*
X121825000Y-114550013D01*
X121825000Y-114712500D01*
X123750000Y-114712500D01*
X123750000Y-113850000D01*
X122525028Y-113850000D01*
X122525012Y-113850001D01*
X122422302Y-113860494D01*
X122255880Y-113915641D01*
X122255875Y-113915643D01*
X122106654Y-114007684D01*
X121982684Y-114131654D01*
X121890643Y-114280875D01*
X121890641Y-114280880D01*
X121835494Y-114447302D01*
X121835493Y-114447309D01*
X121825000Y-114550013D01*
X121000000Y-114550013D01*
X121000000Y-112124000D01*
X121019685Y-112056961D01*
X121072489Y-112011206D01*
X121124000Y-112000000D01*
X125876000Y-112000000D01*
X125943039Y-112019685D01*
G37*
G04 #@! TD.AperFunction*
G04 #@! TD*
G04 #@! TA.AperFunction,Conductor*
G04 #@! TO.N,+3V3*
G36*
X139100000Y-115862661D02*
G01*
X139127259Y-115964394D01*
X139179920Y-116055606D01*
X139254394Y-116130080D01*
X139345606Y-116182741D01*
X139447339Y-116210000D01*
X139453553Y-116210000D01*
X138765594Y-116897956D01*
X138757887Y-116934648D01*
X138708836Y-116984405D01*
X138648633Y-117000000D01*
X138551362Y-117000000D01*
X138484323Y-116980315D01*
X138463681Y-116963681D01*
X138036319Y-116536319D01*
X138002834Y-116474996D01*
X138000000Y-116448638D01*
X138000000Y-116183269D01*
X138019685Y-116116230D01*
X138072489Y-116070475D01*
X138141647Y-116060531D01*
X138205203Y-116089556D01*
X138241931Y-116144950D01*
X138295244Y-116309031D01*
X138388141Y-116491350D01*
X138388147Y-116491359D01*
X138420523Y-116535921D01*
X138420524Y-116535922D01*
X139100000Y-115856446D01*
X139100000Y-115862661D01*
G37*
G04 #@! TD.AperFunction*
G04 #@! TA.AperFunction,Conductor*
G36*
X145483417Y-50520185D02*
G01*
X145529172Y-50572989D01*
X145539116Y-50642147D01*
X145510091Y-50705703D01*
X145451313Y-50743477D01*
X145440569Y-50746117D01*
X145197097Y-50794545D01*
X145197086Y-50794548D01*
X144886752Y-50888686D01*
X144587150Y-51012786D01*
X144587145Y-51012788D01*
X144301169Y-51165646D01*
X144301151Y-51165657D01*
X144031532Y-51345811D01*
X144031518Y-51345821D01*
X143780841Y-51551546D01*
X143551546Y-51780841D01*
X143345821Y-52031518D01*
X143345811Y-52031532D01*
X143165657Y-52301151D01*
X143165646Y-52301169D01*
X143012788Y-52587145D01*
X143012786Y-52587150D01*
X142888686Y-52886752D01*
X142794548Y-53197086D01*
X142794545Y-53197097D01*
X142731287Y-53515125D01*
X142731284Y-53515142D01*
X142706666Y-53765099D01*
X142699500Y-53837857D01*
X142699500Y-54162143D01*
X142707715Y-54245546D01*
X142731284Y-54484857D01*
X142731287Y-54484874D01*
X142794545Y-54802902D01*
X142794548Y-54802913D01*
X142888686Y-55113247D01*
X143012786Y-55412849D01*
X143012788Y-55412854D01*
X143165646Y-55698830D01*
X143165657Y-55698848D01*
X143345811Y-55968467D01*
X143345821Y-55968481D01*
X143551546Y-56219158D01*
X143780841Y-56448453D01*
X143780846Y-56448457D01*
X143780847Y-56448458D01*
X144031524Y-56654183D01*
X144301158Y-56834347D01*
X144301167Y-56834352D01*
X144301169Y-56834353D01*
X144587145Y-56987211D01*
X144587147Y-56987211D01*
X144587153Y-56987215D01*
X144886754Y-57111314D01*
X145197077Y-57205449D01*
X145197083Y-57205450D01*
X145197086Y-57205451D01*
X145197097Y-57205454D01*
X145396528Y-57245122D01*
X145515132Y-57268714D01*
X145837857Y-57300500D01*
X145837860Y-57300500D01*
X146162140Y-57300500D01*
X146162143Y-57300500D01*
X146484868Y-57268714D01*
X146642295Y-57237399D01*
X146802902Y-57205454D01*
X146802913Y-57205451D01*
X146802913Y-57205450D01*
X146802923Y-57205449D01*
X147113246Y-57111314D01*
X147412847Y-56987215D01*
X147698842Y-56834347D01*
X147968476Y-56654183D01*
X148219153Y-56448458D01*
X148448458Y-56219153D01*
X148654183Y-55968476D01*
X148834347Y-55698842D01*
X148987215Y-55412847D01*
X149111314Y-55113246D01*
X149205449Y-54802923D01*
X149205451Y-54802913D01*
X149205454Y-54802902D01*
X149253883Y-54559430D01*
X149286267Y-54497519D01*
X149346983Y-54462945D01*
X149416753Y-54466684D01*
X149473425Y-54507550D01*
X149499006Y-54572568D01*
X149499500Y-54583621D01*
X149499500Y-116876000D01*
X149479815Y-116943039D01*
X149427011Y-116988794D01*
X149375500Y-117000000D01*
X142500000Y-117000000D01*
X140351366Y-117000000D01*
X140284327Y-116980315D01*
X140238572Y-116927511D01*
X140233121Y-116896673D01*
X139546447Y-116210000D01*
X139552661Y-116210000D01*
X139654394Y-116182741D01*
X139745606Y-116130080D01*
X139820080Y-116055606D01*
X139872741Y-115964394D01*
X139900000Y-115862661D01*
X139900000Y-115856448D01*
X140579474Y-116535922D01*
X140579474Y-116535921D01*
X140611859Y-116491349D01*
X140704755Y-116309031D01*
X140767990Y-116114417D01*
X140800000Y-115912317D01*
X140800000Y-115707682D01*
X140767990Y-115505582D01*
X140704755Y-115310968D01*
X140611859Y-115128650D01*
X140579474Y-115084077D01*
X140579474Y-115084076D01*
X139900000Y-115763551D01*
X139900000Y-115757339D01*
X139872741Y-115655606D01*
X139820080Y-115564394D01*
X139745606Y-115489920D01*
X139654394Y-115437259D01*
X139552661Y-115410000D01*
X139546446Y-115410000D01*
X140225922Y-114730524D01*
X140225921Y-114730523D01*
X140181359Y-114698147D01*
X140181350Y-114698141D01*
X139999031Y-114605244D01*
X139804417Y-114542009D01*
X139602317Y-114510000D01*
X139397683Y-114510000D01*
X139195582Y-114542009D01*
X139000968Y-114605244D01*
X138818644Y-114698143D01*
X138774077Y-114730523D01*
X138774077Y-114730524D01*
X139453554Y-115410000D01*
X139447339Y-115410000D01*
X139345606Y-115437259D01*
X139254394Y-115489920D01*
X139179920Y-115564394D01*
X139127259Y-115655606D01*
X139100000Y-115757339D01*
X139100000Y-115763553D01*
X138420524Y-115084077D01*
X138420523Y-115084077D01*
X138388143Y-115128644D01*
X138295244Y-115310968D01*
X138241931Y-115475049D01*
X138202493Y-115532724D01*
X138138134Y-115559922D01*
X138069288Y-115548007D01*
X138017812Y-115500763D01*
X138000000Y-115436730D01*
X138000000Y-108564885D01*
X138019685Y-108497846D01*
X138072489Y-108452091D01*
X138141647Y-108442147D01*
X138205203Y-108471172D01*
X138241931Y-108526567D01*
X138273911Y-108624992D01*
X138294781Y-108689221D01*
X138387715Y-108871613D01*
X138508028Y-109037213D01*
X138652786Y-109181971D01*
X138807749Y-109294556D01*
X138818390Y-109302287D01*
X138884122Y-109335779D01*
X139000776Y-109395218D01*
X139000778Y-109395218D01*
X139000781Y-109395220D01*
X139105137Y-109429127D01*
X139195465Y-109458477D01*
X139296557Y-109474488D01*
X139397648Y-109490500D01*
X139397649Y-109490500D01*
X139602344Y-109490500D01*
X139602352Y-109490500D01*
X139602359Y-109490498D01*
X139606592Y-109490165D01*
X139674972Y-109504518D01*
X139704022Y-109526100D01*
X141549707Y-111371786D01*
X141549711Y-111371789D01*
X141680814Y-111459390D01*
X141680818Y-111459392D01*
X141680821Y-111459394D01*
X141826503Y-111519738D01*
X141981153Y-111550499D01*
X141981157Y-111550500D01*
X141981158Y-111550500D01*
X142138843Y-111550500D01*
X143174106Y-111550500D01*
X143241145Y-111570185D01*
X143274422Y-111601612D01*
X143294896Y-111629792D01*
X143294898Y-111629794D01*
X143434068Y-111768964D01*
X143467553Y-111830287D01*
X143462569Y-111899979D01*
X143420697Y-111955912D01*
X143411484Y-111962183D01*
X143256659Y-112057680D01*
X143256655Y-112057683D01*
X143132684Y-112181654D01*
X143040643Y-112330875D01*
X143040641Y-112330880D01*
X142985494Y-112497302D01*
X142985493Y-112497309D01*
X142975000Y-112600013D01*
X142975000Y-113000000D01*
X144041988Y-113000000D01*
X144009075Y-113057007D01*
X143975000Y-113184174D01*
X143975000Y-113315826D01*
X144009075Y-113442993D01*
X144041988Y-113500000D01*
X142975001Y-113500000D01*
X142975001Y-113899986D01*
X142985494Y-114002697D01*
X143040641Y-114169119D01*
X143040643Y-114169124D01*
X143132684Y-114318345D01*
X143256654Y-114442315D01*
X143405875Y-114534356D01*
X143405880Y-114534358D01*
X143572302Y-114589505D01*
X143572309Y-114589506D01*
X143675019Y-114599999D01*
X144224999Y-114599999D01*
X144225000Y-114599998D01*
X144225000Y-113683012D01*
X144282007Y-113715925D01*
X144409174Y-113750000D01*
X144540826Y-113750000D01*
X144667993Y-113715925D01*
X144725000Y-113683012D01*
X144725000Y-114599999D01*
X145274972Y-114599999D01*
X145274986Y-114599998D01*
X145377697Y-114589505D01*
X145544119Y-114534358D01*
X145544124Y-114534356D01*
X145693345Y-114442315D01*
X145817315Y-114318345D01*
X145909356Y-114169124D01*
X145909358Y-114169119D01*
X145964505Y-114002697D01*
X145964506Y-114002690D01*
X145974999Y-113899986D01*
X145975000Y-113899973D01*
X145975000Y-113500000D01*
X144908012Y-113500000D01*
X144940925Y-113442993D01*
X144975000Y-113315826D01*
X144975000Y-113184174D01*
X144940925Y-113057007D01*
X144908012Y-113000000D01*
X145974999Y-113000000D01*
X145974999Y-112600028D01*
X145974998Y-112600013D01*
X145964505Y-112497302D01*
X145909358Y-112330880D01*
X145909356Y-112330875D01*
X145817315Y-112181654D01*
X145693345Y-112057684D01*
X145538515Y-111962184D01*
X145491791Y-111910236D01*
X145480568Y-111841273D01*
X145508412Y-111777191D01*
X145515909Y-111768986D01*
X145655104Y-111629792D01*
X145669490Y-111609992D01*
X145778904Y-111459395D01*
X145780051Y-111457816D01*
X145876557Y-111268412D01*
X145942246Y-111066243D01*
X145975500Y-110856287D01*
X145975500Y-110643713D01*
X145942246Y-110433757D01*
X145876557Y-110231588D01*
X145780051Y-110042184D01*
X145780049Y-110042181D01*
X145780048Y-110042179D01*
X145655109Y-109870213D01*
X145504786Y-109719890D01*
X145332820Y-109594951D01*
X145143414Y-109498444D01*
X145143413Y-109498443D01*
X145143412Y-109498443D01*
X144941243Y-109432754D01*
X144941241Y-109432753D01*
X144941240Y-109432753D01*
X144779957Y-109407208D01*
X144731287Y-109399500D01*
X144218713Y-109399500D01*
X144170042Y-109407208D01*
X144008760Y-109432753D01*
X143806585Y-109498444D01*
X143617179Y-109594951D01*
X143445213Y-109719890D01*
X143294898Y-109870205D01*
X143294898Y-109870206D01*
X143294896Y-109870208D01*
X143274422Y-109898386D01*
X143219094Y-109941051D01*
X143174106Y-109949500D01*
X142442940Y-109949500D01*
X142375901Y-109929815D01*
X142355259Y-109913181D01*
X140836100Y-108394022D01*
X140802615Y-108332699D01*
X140800165Y-108296592D01*
X140800498Y-108292359D01*
X140800500Y-108292352D01*
X140800500Y-108087648D01*
X140768477Y-107885466D01*
X140766434Y-107879179D01*
X140705218Y-107690776D01*
X140671503Y-107624607D01*
X140612287Y-107508390D01*
X140592726Y-107481466D01*
X140491971Y-107342786D01*
X140347213Y-107198028D01*
X140181613Y-107077715D01*
X140181612Y-107077714D01*
X140181610Y-107077713D01*
X140124653Y-107048691D01*
X139999223Y-106984781D01*
X139804534Y-106921522D01*
X139629995Y-106893878D01*
X139602352Y-106889500D01*
X139397648Y-106889500D01*
X139397638Y-106889500D01*
X139393377Y-106889835D01*
X139325001Y-106875466D01*
X139295976Y-106853898D01*
X138036319Y-105594241D01*
X138021615Y-105567313D01*
X138005023Y-105541495D01*
X138004131Y-105535294D01*
X138002834Y-105532918D01*
X138000000Y-105506560D01*
X138000000Y-104683269D01*
X138019685Y-104616230D01*
X138072489Y-104570475D01*
X138141647Y-104560531D01*
X138205203Y-104589556D01*
X138241931Y-104644950D01*
X138295244Y-104809031D01*
X138388141Y-104991350D01*
X138388147Y-104991359D01*
X138420523Y-105035921D01*
X138420524Y-105035922D01*
X139100000Y-104356446D01*
X139100000Y-104362661D01*
X139127259Y-104464394D01*
X139179920Y-104555606D01*
X139254394Y-104630080D01*
X139345606Y-104682741D01*
X139447339Y-104710000D01*
X139453553Y-104710000D01*
X138774076Y-105389474D01*
X138818650Y-105421859D01*
X139000968Y-105514755D01*
X139195582Y-105577990D01*
X139397683Y-105610000D01*
X139602317Y-105610000D01*
X139804417Y-105577990D01*
X139999031Y-105514755D01*
X140181349Y-105421859D01*
X140225921Y-105389474D01*
X139546447Y-104710000D01*
X139552661Y-104710000D01*
X139654394Y-104682741D01*
X139745606Y-104630080D01*
X139820080Y-104555606D01*
X139872741Y-104464394D01*
X139900000Y-104362661D01*
X139900000Y-104356448D01*
X140579474Y-105035922D01*
X140579474Y-105035921D01*
X140611859Y-104991349D01*
X140704755Y-104809031D01*
X140767990Y-104614417D01*
X140800000Y-104412317D01*
X140800000Y-104207682D01*
X140767990Y-104005582D01*
X140704755Y-103810968D01*
X140611859Y-103628650D01*
X140579474Y-103584077D01*
X140579474Y-103584076D01*
X139900000Y-104263551D01*
X139900000Y-104257339D01*
X139872741Y-104155606D01*
X139820080Y-104064394D01*
X139745606Y-103989920D01*
X139654394Y-103937259D01*
X139552661Y-103910000D01*
X139546446Y-103910000D01*
X140225922Y-103230524D01*
X140225921Y-103230523D01*
X140181359Y-103198147D01*
X140181350Y-103198141D01*
X139999031Y-103105244D01*
X139804417Y-103042009D01*
X139602317Y-103010000D01*
X139397683Y-103010000D01*
X139195582Y-103042009D01*
X139000968Y-103105244D01*
X138818644Y-103198143D01*
X138774077Y-103230523D01*
X138774077Y-103230524D01*
X139453554Y-103910000D01*
X139447339Y-103910000D01*
X139345606Y-103937259D01*
X139254394Y-103989920D01*
X139179920Y-104064394D01*
X139127259Y-104155606D01*
X139100000Y-104257339D01*
X139100000Y-104263553D01*
X138420524Y-103584077D01*
X138420523Y-103584077D01*
X138388143Y-103628644D01*
X138295244Y-103810968D01*
X138241931Y-103975049D01*
X138202493Y-104032724D01*
X138138134Y-104059922D01*
X138069288Y-104048007D01*
X138017812Y-104000763D01*
X138000000Y-103936730D01*
X138000000Y-97064885D01*
X138019685Y-96997846D01*
X138072489Y-96952091D01*
X138141647Y-96942147D01*
X138205203Y-96971172D01*
X138241931Y-97026567D01*
X138294780Y-97189219D01*
X138377728Y-97352014D01*
X138387715Y-97371613D01*
X138508028Y-97537213D01*
X138652786Y-97681971D01*
X138807749Y-97794556D01*
X138818390Y-97802287D01*
X138934607Y-97861503D01*
X139000776Y-97895218D01*
X139000778Y-97895218D01*
X139000781Y-97895220D01*
X139105137Y-97929127D01*
X139195465Y-97958477D01*
X139296557Y-97974488D01*
X139397648Y-97990500D01*
X139397649Y-97990500D01*
X139602344Y-97990500D01*
X139602352Y-97990500D01*
X139602359Y-97990498D01*
X139606592Y-97990165D01*
X139674972Y-98004518D01*
X139704022Y-98026100D01*
X141549707Y-99871786D01*
X141549711Y-99871789D01*
X141680814Y-99959390D01*
X141680818Y-99959392D01*
X141680821Y-99959394D01*
X141826503Y-100019738D01*
X141981153Y-100050499D01*
X141981157Y-100050500D01*
X141981158Y-100050500D01*
X143174106Y-100050500D01*
X143241145Y-100070185D01*
X143274422Y-100101612D01*
X143294896Y-100129792D01*
X143294898Y-100129794D01*
X143434068Y-100268964D01*
X143467553Y-100330287D01*
X143462569Y-100399979D01*
X143420697Y-100455912D01*
X143411484Y-100462183D01*
X143256659Y-100557680D01*
X143256655Y-100557683D01*
X143132684Y-100681654D01*
X143040643Y-100830875D01*
X143040641Y-100830880D01*
X142985494Y-100997302D01*
X142985493Y-100997309D01*
X142975000Y-101100013D01*
X142975000Y-101500000D01*
X144041988Y-101500000D01*
X144009075Y-101557007D01*
X143975000Y-101684174D01*
X143975000Y-101815826D01*
X144009075Y-101942993D01*
X144041988Y-102000000D01*
X142975001Y-102000000D01*
X142975001Y-102399986D01*
X142985494Y-102502697D01*
X143040641Y-102669119D01*
X143040643Y-102669124D01*
X143132684Y-102818345D01*
X143256654Y-102942315D01*
X143405875Y-103034356D01*
X143405880Y-103034358D01*
X143572302Y-103089505D01*
X143572309Y-103089506D01*
X143675019Y-103099999D01*
X144224999Y-103099999D01*
X144225000Y-103099998D01*
X144225000Y-102183012D01*
X144282007Y-102215925D01*
X144409174Y-102250000D01*
X144540826Y-102250000D01*
X144667993Y-102215925D01*
X144725000Y-102183012D01*
X144725000Y-103099999D01*
X145274972Y-103099999D01*
X145274986Y-103099998D01*
X145377697Y-103089505D01*
X145544119Y-103034358D01*
X145544124Y-103034356D01*
X145693345Y-102942315D01*
X145817315Y-102818345D01*
X145909356Y-102669124D01*
X145909358Y-102669119D01*
X145964505Y-102502697D01*
X145964506Y-102502690D01*
X145974999Y-102399986D01*
X145975000Y-102399973D01*
X145975000Y-102000000D01*
X144908012Y-102000000D01*
X144940925Y-101942993D01*
X144975000Y-101815826D01*
X144975000Y-101684174D01*
X144940925Y-101557007D01*
X144908012Y-101500000D01*
X145974999Y-101500000D01*
X145974999Y-101100028D01*
X145974998Y-101100013D01*
X145964505Y-100997302D01*
X145909358Y-100830880D01*
X145909356Y-100830875D01*
X145817315Y-100681654D01*
X145693345Y-100557684D01*
X145538515Y-100462184D01*
X145491791Y-100410236D01*
X145480568Y-100341273D01*
X145508412Y-100277191D01*
X145515909Y-100268986D01*
X145655104Y-100129792D01*
X145675577Y-100101614D01*
X145778904Y-99959395D01*
X145780051Y-99957816D01*
X145876557Y-99768412D01*
X145942246Y-99566243D01*
X145975500Y-99356287D01*
X145975500Y-99143713D01*
X145942246Y-98933757D01*
X145876557Y-98731588D01*
X145780051Y-98542184D01*
X145780049Y-98542181D01*
X145780048Y-98542179D01*
X145655109Y-98370213D01*
X145504786Y-98219890D01*
X145332820Y-98094951D01*
X145143414Y-97998444D01*
X145143413Y-97998443D01*
X145143412Y-97998443D01*
X144941243Y-97932754D01*
X144941241Y-97932753D01*
X144941240Y-97932753D01*
X144744899Y-97901656D01*
X144731287Y-97899500D01*
X144218713Y-97899500D01*
X144205101Y-97901656D01*
X144008760Y-97932753D01*
X143806585Y-97998444D01*
X143617179Y-98094951D01*
X143445213Y-98219890D01*
X143294898Y-98370205D01*
X143294898Y-98370206D01*
X143294896Y-98370208D01*
X143274422Y-98398386D01*
X143219094Y-98441051D01*
X143174106Y-98449500D01*
X142442940Y-98449500D01*
X142375901Y-98429815D01*
X142355259Y-98413181D01*
X140836100Y-96894022D01*
X140802615Y-96832699D01*
X140800165Y-96796592D01*
X140800498Y-96792359D01*
X140800500Y-96792352D01*
X140800500Y-96587648D01*
X140768477Y-96385466D01*
X140763519Y-96370208D01*
X140728614Y-96262781D01*
X140705220Y-96190781D01*
X140705218Y-96190778D01*
X140705218Y-96190776D01*
X140654554Y-96091344D01*
X140612287Y-96008390D01*
X140582425Y-95967288D01*
X140491971Y-95842786D01*
X140347213Y-95698028D01*
X140181613Y-95577715D01*
X140181612Y-95577714D01*
X140181610Y-95577713D01*
X140124653Y-95548691D01*
X139999223Y-95484781D01*
X139804534Y-95421522D01*
X139629995Y-95393878D01*
X139602352Y-95389500D01*
X139397648Y-95389500D01*
X139397643Y-95389500D01*
X139351218Y-95396853D01*
X139345792Y-95396151D01*
X139340666Y-95398064D01*
X139311509Y-95391721D01*
X139281925Y-95387898D01*
X139276321Y-95384066D01*
X139272393Y-95383212D01*
X139244139Y-95362061D01*
X139086819Y-95204741D01*
X139053334Y-95143418D01*
X139050500Y-95117060D01*
X139050500Y-79036160D01*
X139050500Y-79036158D01*
X139048637Y-79026794D01*
X139048637Y-79026790D01*
X139019739Y-78881510D01*
X139019738Y-78881503D01*
X138959394Y-78735821D01*
X138959392Y-78735818D01*
X138959390Y-78735814D01*
X138871789Y-78604711D01*
X138871786Y-78604707D01*
X138047010Y-77779932D01*
X138013525Y-77718609D01*
X138010692Y-77692187D01*
X138021725Y-59316667D01*
X138041448Y-59249646D01*
X138094279Y-59203923D01*
X138155453Y-59193130D01*
X138187844Y-59195679D01*
X138820153Y-58563371D01*
X138837191Y-58626956D01*
X138903017Y-58740970D01*
X138996109Y-58834062D01*
X139110123Y-58899888D01*
X139173706Y-58916925D01*
X138541398Y-59549232D01*
X138541398Y-59549233D01*
X138595565Y-59588587D01*
X138784898Y-59685058D01*
X138986986Y-59750720D01*
X139196870Y-59783963D01*
X139409362Y-59783963D01*
X139619243Y-59750720D01*
X139619246Y-59750720D01*
X139821333Y-59685058D01*
X140010670Y-59588585D01*
X140064832Y-59549233D01*
X140064833Y-59549233D01*
X139432524Y-58916925D01*
X139496109Y-58899888D01*
X139610123Y-58834062D01*
X139703215Y-58740970D01*
X139769041Y-58626956D01*
X139786078Y-58563371D01*
X140418386Y-59195680D01*
X140418386Y-59195679D01*
X140457738Y-59141518D01*
X140462348Y-59132470D01*
X140510321Y-59081672D01*
X140578141Y-59064875D01*
X140644277Y-59087410D01*
X140683320Y-59132467D01*
X140688065Y-59141780D01*
X140813006Y-59313749D01*
X140963329Y-59464072D01*
X141135295Y-59589011D01*
X141135297Y-59589012D01*
X141135300Y-59589014D01*
X141324704Y-59685520D01*
X141526873Y-59751209D01*
X141736829Y-59784463D01*
X141736830Y-59784463D01*
X141949402Y-59784463D01*
X141949403Y-59784463D01*
X142159359Y-59751209D01*
X142361528Y-59685520D01*
X142550932Y-59589014D01*
X142605688Y-59549232D01*
X142722902Y-59464072D01*
X142722904Y-59464069D01*
X142722908Y-59464067D01*
X142873220Y-59313755D01*
X142873222Y-59313751D01*
X142873225Y-59313749D01*
X142998164Y-59141783D01*
X142998166Y-59141780D01*
X142998167Y-59141779D01*
X143094673Y-58952375D01*
X143160362Y-58750206D01*
X143193616Y-58540250D01*
X143193616Y-58327676D01*
X143160362Y-58117720D01*
X143094673Y-57915551D01*
X142998167Y-57726147D01*
X142998165Y-57726144D01*
X142998164Y-57726142D01*
X142873225Y-57554176D01*
X142722902Y-57403853D01*
X142550936Y-57278914D01*
X142361530Y-57182407D01*
X142361529Y-57182406D01*
X142361528Y-57182406D01*
X142159359Y-57116717D01*
X142159357Y-57116716D01*
X142159356Y-57116716D01*
X141998073Y-57091171D01*
X141949403Y-57083463D01*
X141736829Y-57083463D01*
X141688158Y-57091171D01*
X141526876Y-57116716D01*
X141324701Y-57182407D01*
X141135295Y-57278914D01*
X140963329Y-57403853D01*
X140813006Y-57554176D01*
X140688065Y-57726145D01*
X140683318Y-57735462D01*
X140635343Y-57786256D01*
X140567521Y-57803050D01*
X140501387Y-57780511D01*
X140462350Y-57735458D01*
X140457742Y-57726415D01*
X140418386Y-57672245D01*
X140418385Y-57672245D01*
X139786078Y-58304553D01*
X139769041Y-58240970D01*
X139703215Y-58126956D01*
X139610123Y-58033864D01*
X139496109Y-57968038D01*
X139432525Y-57951000D01*
X140064832Y-57318691D01*
X140010666Y-57279338D01*
X139821333Y-57182867D01*
X139619245Y-57117205D01*
X139409362Y-57083963D01*
X139196870Y-57083963D01*
X138986988Y-57117205D01*
X138986985Y-57117205D01*
X138784898Y-57182867D01*
X138595555Y-57279343D01*
X138541398Y-57318690D01*
X138541398Y-57318691D01*
X139173707Y-57951000D01*
X139110123Y-57968038D01*
X138996109Y-58033864D01*
X138903017Y-58126956D01*
X138837191Y-58240970D01*
X138820153Y-58304554D01*
X138187844Y-57672245D01*
X138156513Y-57674711D01*
X138142865Y-57671844D01*
X138129063Y-57673820D01*
X138109351Y-57664803D01*
X138088136Y-57660347D01*
X138078205Y-57650557D01*
X138065525Y-57644757D01*
X138053817Y-57626515D01*
X138038379Y-57611296D01*
X138034549Y-57596494D01*
X138027786Y-57585956D01*
X138022785Y-57551026D01*
X138023116Y-57000000D01*
X138023115Y-56999999D01*
X138023116Y-56999999D01*
X137227834Y-56219158D01*
X136750000Y-55750000D01*
X136749999Y-55750000D01*
X135134964Y-55750000D01*
X135087516Y-55740562D01*
X135062650Y-55730263D01*
X135062643Y-55730261D01*
X135062642Y-55730261D01*
X135062641Y-55730260D01*
X134907998Y-55699500D01*
X134907995Y-55699500D01*
X124543583Y-55699500D01*
X124385898Y-55699500D01*
X124385893Y-55699500D01*
X124231250Y-55730260D01*
X124231242Y-55730262D01*
X124217140Y-55736103D01*
X124206378Y-55740561D01*
X124158927Y-55750000D01*
X101500000Y-55750000D01*
X101500000Y-61876686D01*
X101480315Y-61943725D01*
X101427511Y-61989480D01*
X101376689Y-62000684D01*
X100784486Y-62003974D01*
X100717338Y-61984662D01*
X100671291Y-61932113D01*
X100660963Y-61863011D01*
X100684531Y-61805664D01*
X100743352Y-61727089D01*
X100743354Y-61727086D01*
X100793596Y-61592379D01*
X100793598Y-61592372D01*
X100799999Y-61532844D01*
X100800000Y-61532827D01*
X100800000Y-60735000D01*
X99744560Y-60735000D01*
X99775245Y-60681853D01*
X99810000Y-60552143D01*
X99810000Y-60417857D01*
X99775245Y-60288147D01*
X99744560Y-60235000D01*
X100800000Y-60235000D01*
X100800000Y-59437172D01*
X100799999Y-59437155D01*
X100793598Y-59377627D01*
X100793596Y-59377620D01*
X100743354Y-59242913D01*
X100743350Y-59242906D01*
X100657190Y-59127812D01*
X100657187Y-59127809D01*
X100542093Y-59041649D01*
X100542086Y-59041645D01*
X100407379Y-58991403D01*
X100407372Y-58991401D01*
X100347844Y-58985000D01*
X99550000Y-58985000D01*
X99550000Y-60040439D01*
X99496853Y-60009755D01*
X99367143Y-59975000D01*
X99232857Y-59975000D01*
X99103147Y-60009755D01*
X99050000Y-60040439D01*
X99050000Y-58985000D01*
X98252155Y-58985000D01*
X98192627Y-58991401D01*
X98192620Y-58991403D01*
X98057913Y-59041645D01*
X98057906Y-59041649D01*
X97942812Y-59127809D01*
X97942809Y-59127812D01*
X97856649Y-59242906D01*
X97856645Y-59242913D01*
X97806403Y-59377620D01*
X97806401Y-59377627D01*
X97800000Y-59437155D01*
X97800000Y-60235000D01*
X98855440Y-60235000D01*
X98824755Y-60288147D01*
X98790000Y-60417857D01*
X98790000Y-60552143D01*
X98824755Y-60681853D01*
X98855440Y-60735000D01*
X97800000Y-60735000D01*
X97800000Y-61532844D01*
X97806401Y-61592372D01*
X97806403Y-61592379D01*
X97856645Y-61727086D01*
X97856649Y-61727093D01*
X97927760Y-61822084D01*
X97952178Y-61887548D01*
X97937327Y-61955821D01*
X97887922Y-62005227D01*
X97829183Y-62020393D01*
X97124689Y-62024307D01*
X97057541Y-62004995D01*
X97011494Y-61952446D01*
X97000000Y-61900309D01*
X97000000Y-59000000D01*
X68876450Y-59000000D01*
X68809411Y-58980315D01*
X68803565Y-58976318D01*
X68681613Y-58887715D01*
X68681612Y-58887714D01*
X68681610Y-58887713D01*
X68624653Y-58858691D01*
X68499223Y-58794781D01*
X68304534Y-58731522D01*
X68129995Y-58703878D01*
X68102352Y-58699500D01*
X67897648Y-58699500D01*
X67873329Y-58703351D01*
X67695465Y-58731522D01*
X67500776Y-58794781D01*
X67318386Y-58887715D01*
X67196435Y-58976318D01*
X67130629Y-58999798D01*
X67123550Y-59000000D01*
X66500000Y-59000000D01*
X66500000Y-63500000D01*
X67625114Y-63500000D01*
X67692153Y-63519685D01*
X67737908Y-63572489D01*
X67747852Y-63641647D01*
X67718827Y-63705203D01*
X67663433Y-63741931D01*
X67500776Y-63794781D01*
X67318386Y-63887715D01*
X67152786Y-64008028D01*
X67008028Y-64152786D01*
X66887715Y-64318386D01*
X66794781Y-64500776D01*
X66731522Y-64695465D01*
X66699500Y-64897648D01*
X66699500Y-65102351D01*
X66731522Y-65304534D01*
X66794781Y-65499223D01*
X66887715Y-65681613D01*
X67008028Y-65847213D01*
X67152786Y-65991971D01*
X67292424Y-66093422D01*
X67318390Y-66112287D01*
X67408056Y-66157974D01*
X67500776Y-66205218D01*
X67500778Y-66205218D01*
X67500781Y-66205220D01*
X67605137Y-66239127D01*
X67695465Y-66268477D01*
X67796557Y-66284488D01*
X67897648Y-66300500D01*
X67897649Y-66300500D01*
X68102351Y-66300500D01*
X68102352Y-66300500D01*
X68304534Y-66268477D01*
X68307919Y-66267376D01*
X68309280Y-66267338D01*
X68309281Y-66267338D01*
X68377760Y-66265378D01*
X68437595Y-66301455D01*
X68468427Y-66364154D01*
X68460466Y-66433569D01*
X68456647Y-66441479D01*
X68405908Y-66577517D01*
X68399501Y-66637116D01*
X68399500Y-66637135D01*
X68399500Y-68712870D01*
X68399501Y-68712876D01*
X68405908Y-68772483D01*
X68456202Y-68907328D01*
X68456206Y-68907335D01*
X68542452Y-69022544D01*
X68542455Y-69022547D01*
X68657664Y-69108793D01*
X68657673Y-69108798D01*
X68725469Y-69134084D01*
X68781403Y-69175954D01*
X68805821Y-69241419D01*
X68790970Y-69309692D01*
X68741565Y-69359098D01*
X68725471Y-69366448D01*
X68657912Y-69391646D01*
X68657906Y-69391649D01*
X68542812Y-69477809D01*
X68542809Y-69477812D01*
X68456649Y-69592906D01*
X68456645Y-69592913D01*
X68406403Y-69727620D01*
X68406401Y-69727627D01*
X68400000Y-69787155D01*
X68400000Y-70575000D01*
X73600000Y-70575000D01*
X73600000Y-69787172D01*
X73599999Y-69787155D01*
X73593598Y-69727627D01*
X73593596Y-69727620D01*
X73543354Y-69592913D01*
X73543350Y-69592906D01*
X73457190Y-69477812D01*
X73457187Y-69477809D01*
X73342093Y-69391649D01*
X73342086Y-69391645D01*
X73274529Y-69366448D01*
X73218595Y-69324576D01*
X73194178Y-69259112D01*
X73209030Y-69190839D01*
X73258435Y-69141434D01*
X73274530Y-69134084D01*
X73342326Y-69108798D01*
X73342326Y-69108797D01*
X73342331Y-69108796D01*
X73457546Y-69022546D01*
X73543796Y-68907331D01*
X73594091Y-68772483D01*
X73600500Y-68712873D01*
X73600500Y-68424500D01*
X73620185Y-68357461D01*
X73672989Y-68311706D01*
X73724500Y-68300500D01*
X74910967Y-68300500D01*
X74978006Y-68320185D01*
X75005252Y-68343962D01*
X75008035Y-68347220D01*
X75152786Y-68491971D01*
X75307749Y-68604556D01*
X75318390Y-68612287D01*
X75434607Y-68671503D01*
X75500776Y-68705218D01*
X75500778Y-68705218D01*
X75500781Y-68705220D01*
X75605137Y-68739127D01*
X75695465Y-68768477D01*
X75720758Y-68772483D01*
X75897648Y-68800500D01*
X75897649Y-68800500D01*
X76102351Y-68800500D01*
X76102352Y-68800500D01*
X76304534Y-68768477D01*
X76499219Y-68705220D01*
X76681610Y-68612287D01*
X76774590Y-68544732D01*
X76847213Y-68491971D01*
X76847215Y-68491968D01*
X76847219Y-68491966D01*
X76991966Y-68347219D01*
X76991968Y-68347215D01*
X76991971Y-68347213D01*
X77044732Y-68274590D01*
X77112287Y-68181610D01*
X77205220Y-67999219D01*
X77268477Y-67804534D01*
X77300500Y-67602352D01*
X77300500Y-67397648D01*
X77268477Y-67195466D01*
X77205220Y-67000781D01*
X77205218Y-67000778D01*
X77205218Y-67000776D01*
X77171503Y-66934607D01*
X77112287Y-66818390D01*
X77104556Y-66807749D01*
X76991971Y-66652786D01*
X76847213Y-66508028D01*
X76681613Y-66387715D01*
X76681612Y-66387714D01*
X76681610Y-66387713D01*
X76610407Y-66351433D01*
X76499223Y-66294781D01*
X76304534Y-66231522D01*
X76129995Y-66203878D01*
X76102352Y-66199500D01*
X75897648Y-66199500D01*
X75873329Y-66203351D01*
X75695465Y-66231522D01*
X75500776Y-66294781D01*
X75318386Y-66387715D01*
X75152786Y-66508028D01*
X75008035Y-66652779D01*
X75005252Y-66656038D01*
X74946742Y-66694227D01*
X74910967Y-66699500D01*
X73718589Y-66699500D01*
X73651550Y-66679815D01*
X73605795Y-66627011D01*
X73595299Y-66588754D01*
X73595226Y-66588080D01*
X73594091Y-66577517D01*
X73543796Y-66442669D01*
X73543795Y-66442668D01*
X73543793Y-66442664D01*
X73457547Y-66327455D01*
X73457544Y-66327452D01*
X73342335Y-66241206D01*
X73342328Y-66241202D01*
X73207482Y-66190908D01*
X73207483Y-66190908D01*
X73147883Y-66184501D01*
X73147881Y-66184500D01*
X73147873Y-66184500D01*
X73147865Y-66184500D01*
X72924500Y-66184500D01*
X72915814Y-66181949D01*
X72906853Y-66183238D01*
X72882812Y-66172259D01*
X72857461Y-66164815D01*
X72851533Y-66157974D01*
X72843297Y-66154213D01*
X72829007Y-66131978D01*
X72811706Y-66112011D01*
X72809418Y-66101496D01*
X72805523Y-66095435D01*
X72800500Y-66060500D01*
X72800500Y-65924500D01*
X72820185Y-65857461D01*
X72872989Y-65811706D01*
X72924500Y-65800500D01*
X73165686Y-65800500D01*
X73165694Y-65800500D01*
X73202569Y-65797598D01*
X73202571Y-65797597D01*
X73202573Y-65797597D01*
X73244191Y-65785505D01*
X73360398Y-65751744D01*
X73501865Y-65668081D01*
X73618081Y-65551865D01*
X73645380Y-65505705D01*
X73649417Y-65498879D01*
X73700486Y-65451195D01*
X73756149Y-65438000D01*
X73941344Y-65438000D01*
X73941345Y-65437999D01*
X74095997Y-65407237D01*
X74241679Y-65346894D01*
X74372789Y-65259289D01*
X75795978Y-63836098D01*
X75857299Y-63802615D01*
X75893404Y-63800165D01*
X75897643Y-63800499D01*
X75897648Y-63800500D01*
X75897653Y-63800500D01*
X76102351Y-63800500D01*
X76102352Y-63800500D01*
X76304534Y-63768477D01*
X76499219Y-63705220D01*
X76681610Y-63612287D01*
X76811645Y-63517812D01*
X76847213Y-63491971D01*
X76847215Y-63491968D01*
X76847219Y-63491966D01*
X76991966Y-63347219D01*
X76991968Y-63347215D01*
X76991971Y-63347213D01*
X77044732Y-63274590D01*
X77112287Y-63181610D01*
X77205220Y-62999219D01*
X77268477Y-62804534D01*
X77300500Y-62602352D01*
X77300500Y-62397648D01*
X77268477Y-62195466D01*
X77205220Y-62000781D01*
X77205218Y-62000778D01*
X77205218Y-62000776D01*
X77154027Y-61900309D01*
X77112287Y-61818390D01*
X77066232Y-61755000D01*
X76991971Y-61652786D01*
X76847213Y-61508028D01*
X76681613Y-61387715D01*
X76681612Y-61387714D01*
X76681610Y-61387713D01*
X76624653Y-61358691D01*
X76499223Y-61294781D01*
X76304534Y-61231522D01*
X76123818Y-61202900D01*
X76102352Y-61199500D01*
X75897648Y-61199500D01*
X75876182Y-61202900D01*
X75695465Y-61231522D01*
X75500776Y-61294781D01*
X75318386Y-61387715D01*
X75152786Y-61508028D01*
X75008028Y-61652786D01*
X74887715Y-61818386D01*
X74794781Y-62000776D01*
X74731522Y-62195465D01*
X74699500Y-62397648D01*
X74699500Y-62602359D01*
X74699835Y-62606619D01*
X74685467Y-62674996D01*
X74663898Y-62704022D01*
X73719115Y-63648806D01*
X73713662Y-63651783D01*
X73710168Y-63656921D01*
X73683360Y-63668329D01*
X73657792Y-63682291D01*
X73651595Y-63681847D01*
X73645878Y-63684281D01*
X73617160Y-63679385D01*
X73588101Y-63677307D01*
X73581573Y-63673318D01*
X73577002Y-63672539D01*
X73557391Y-63658541D01*
X73547818Y-63652691D01*
X73545733Y-63650787D01*
X73501865Y-63606919D01*
X73490029Y-63599919D01*
X73480563Y-63591275D01*
X73468821Y-63571914D01*
X73453372Y-63555366D01*
X73451053Y-63542615D01*
X73444332Y-63531533D01*
X73444921Y-63508898D01*
X73440871Y-63486624D01*
X73445814Y-63474642D01*
X73446152Y-63461687D01*
X73458884Y-63442966D01*
X73467520Y-63422036D01*
X73481151Y-63410225D01*
X73485445Y-63403913D01*
X73491327Y-63401409D01*
X73495589Y-63397716D01*
X73495393Y-63397463D01*
X73500066Y-63393838D01*
X73501066Y-63392972D01*
X73501558Y-63392680D01*
X73501561Y-63392678D01*
X73617678Y-63276561D01*
X73617685Y-63276552D01*
X73701282Y-63135196D01*
X73701283Y-63135193D01*
X73747099Y-62977495D01*
X73747100Y-62977489D01*
X73749999Y-62940649D01*
X73750000Y-62940634D01*
X73750000Y-62612500D01*
X73074000Y-62612500D01*
X73006961Y-62592815D01*
X72961206Y-62540011D01*
X72950000Y-62488500D01*
X72950000Y-62362500D01*
X72924500Y-62362500D01*
X72857461Y-62342815D01*
X72811706Y-62290011D01*
X72800500Y-62238500D01*
X72800500Y-62112500D01*
X73200000Y-62112500D01*
X73750000Y-62112500D01*
X73750000Y-61784365D01*
X73749999Y-61784350D01*
X73747100Y-61747510D01*
X73747099Y-61747504D01*
X73701283Y-61589806D01*
X73701282Y-61589803D01*
X73617685Y-61448447D01*
X73617678Y-61448438D01*
X73501561Y-61332321D01*
X73501552Y-61332314D01*
X73360196Y-61248717D01*
X73360193Y-61248716D01*
X73202494Y-61202900D01*
X73202497Y-61202900D01*
X73200000Y-61202703D01*
X73200000Y-62112500D01*
X72800500Y-62112500D01*
X72800500Y-61784313D01*
X72800499Y-61784298D01*
X72797598Y-61747432D01*
X72797597Y-61747426D01*
X72751745Y-61589606D01*
X72751745Y-61589605D01*
X72751744Y-61589604D01*
X72751744Y-61589602D01*
X72718178Y-61532844D01*
X72717267Y-61531304D01*
X72700000Y-61468184D01*
X72700000Y-61243721D01*
X72592056Y-61214943D01*
X72590519Y-61214009D01*
X72588723Y-61214004D01*
X72560796Y-61195943D01*
X72532350Y-61178653D01*
X72531562Y-61177036D01*
X72530054Y-61176061D01*
X72516321Y-61145761D01*
X72501743Y-61115844D01*
X72501954Y-61114059D01*
X72501212Y-61112422D01*
X72500000Y-61095128D01*
X72500000Y-60624000D01*
X72519685Y-60556961D01*
X72572489Y-60511206D01*
X72624000Y-60500000D01*
X78376000Y-60500000D01*
X78443039Y-60519685D01*
X78488794Y-60572489D01*
X78500000Y-60624000D01*
X78500000Y-72875671D01*
X78480315Y-72942710D01*
X78427511Y-72988465D01*
X78358353Y-72998409D01*
X78303116Y-72975990D01*
X78181612Y-72887714D01*
X77999223Y-72794781D01*
X77804534Y-72731522D01*
X77629995Y-72703878D01*
X77602352Y-72699500D01*
X77397648Y-72699500D01*
X77373329Y-72703351D01*
X77195465Y-72731522D01*
X77000776Y-72794781D01*
X76818386Y-72887715D01*
X76652786Y-73008028D01*
X76508028Y-73152786D01*
X76387715Y-73318386D01*
X76294781Y-73500776D01*
X76231522Y-73695465D01*
X76199500Y-73897648D01*
X76199500Y-74102351D01*
X76231522Y-74304534D01*
X76294781Y-74499223D01*
X76336186Y-74580483D01*
X76387585Y-74681359D01*
X76387715Y-74681613D01*
X76508028Y-74847213D01*
X76652786Y-74991971D01*
X76773226Y-75079474D01*
X76818390Y-75112287D01*
X76934607Y-75171503D01*
X77000776Y-75205218D01*
X77000778Y-75205218D01*
X77000781Y-75205220D01*
X77105137Y-75239127D01*
X77195465Y-75268477D01*
X77296557Y-75284488D01*
X77397648Y-75300500D01*
X77397649Y-75300500D01*
X77602351Y-75300500D01*
X77602352Y-75300500D01*
X77804534Y-75268477D01*
X77999219Y-75205220D01*
X78181610Y-75112287D01*
X78244683Y-75066462D01*
X78303115Y-75024010D01*
X78368922Y-75000530D01*
X78436975Y-75016356D01*
X78485670Y-75066462D01*
X78500000Y-75124328D01*
X78500000Y-76875671D01*
X78480315Y-76942710D01*
X78427511Y-76988465D01*
X78358353Y-76998409D01*
X78303116Y-76975990D01*
X78181612Y-76887714D01*
X77999223Y-76794781D01*
X77804534Y-76731522D01*
X77621356Y-76702510D01*
X77602352Y-76699500D01*
X77397648Y-76699500D01*
X77378644Y-76702510D01*
X77195465Y-76731522D01*
X77000776Y-76794781D01*
X76818386Y-76887715D01*
X76652786Y-77008028D01*
X76508028Y-77152786D01*
X76387715Y-77318386D01*
X76294781Y-77500776D01*
X76231522Y-77695465D01*
X76199500Y-77897648D01*
X76199500Y-78102351D01*
X76231522Y-78304534D01*
X76294781Y-78499223D01*
X76345720Y-78599194D01*
X76387585Y-78681359D01*
X76387715Y-78681613D01*
X76508028Y-78847213D01*
X76652786Y-78991971D01*
X76807749Y-79104556D01*
X76818390Y-79112287D01*
X76934607Y-79171503D01*
X77000776Y-79205218D01*
X77000778Y-79205218D01*
X77000781Y-79205220D01*
X77080872Y-79231243D01*
X77163433Y-79258069D01*
X77221108Y-79297507D01*
X77248306Y-79361866D01*
X77236391Y-79430712D01*
X77189147Y-79482188D01*
X77125114Y-79500000D01*
X72873270Y-79500000D01*
X72806231Y-79480315D01*
X72760476Y-79427511D01*
X72750532Y-79358353D01*
X72779557Y-79294797D01*
X72834951Y-79258069D01*
X72999031Y-79204755D01*
X73181349Y-79111859D01*
X73225921Y-79079474D01*
X72546447Y-78400000D01*
X72552661Y-78400000D01*
X72654394Y-78372741D01*
X72745606Y-78320080D01*
X72820080Y-78245606D01*
X72872741Y-78154394D01*
X72900000Y-78052661D01*
X72900000Y-78046447D01*
X73579474Y-78725921D01*
X73611859Y-78681349D01*
X73704755Y-78499031D01*
X73767990Y-78304417D01*
X73800000Y-78102317D01*
X73800000Y-77897682D01*
X73767990Y-77695582D01*
X73704755Y-77500968D01*
X73611859Y-77318650D01*
X73579474Y-77274077D01*
X73579474Y-77274076D01*
X72900000Y-77953551D01*
X72900000Y-77947339D01*
X72872741Y-77845606D01*
X72820080Y-77754394D01*
X72745606Y-77679920D01*
X72654394Y-77627259D01*
X72552661Y-77600000D01*
X72546446Y-77600000D01*
X73225922Y-76920524D01*
X73225921Y-76920523D01*
X73181359Y-76888147D01*
X73181350Y-76888141D01*
X72999031Y-76795244D01*
X72804417Y-76732009D01*
X72602317Y-76700000D01*
X72397683Y-76700000D01*
X72195582Y-76732009D01*
X72000968Y-76795244D01*
X71818644Y-76888143D01*
X71774077Y-76920523D01*
X71774077Y-76920524D01*
X72453554Y-77600000D01*
X72447339Y-77600000D01*
X72345606Y-77627259D01*
X72254394Y-77679920D01*
X72179920Y-77754394D01*
X72127259Y-77845606D01*
X72100000Y-77947339D01*
X72100000Y-77953553D01*
X71420524Y-77274077D01*
X71420523Y-77274077D01*
X71388143Y-77318644D01*
X71295244Y-77500968D01*
X71232009Y-77695582D01*
X71200000Y-77897682D01*
X71200000Y-78102317D01*
X71232009Y-78304417D01*
X71295244Y-78499031D01*
X71388141Y-78681350D01*
X71388147Y-78681359D01*
X71420523Y-78725921D01*
X71420524Y-78725922D01*
X72100000Y-78046446D01*
X72100000Y-78052661D01*
X72127259Y-78154394D01*
X72179920Y-78245606D01*
X72254394Y-78320080D01*
X72345606Y-78372741D01*
X72447339Y-78400000D01*
X72453553Y-78400000D01*
X71774076Y-79079474D01*
X71818650Y-79111859D01*
X72000968Y-79204755D01*
X72165049Y-79258069D01*
X72222724Y-79297507D01*
X72249922Y-79361866D01*
X72238007Y-79430712D01*
X72190763Y-79482188D01*
X72126730Y-79500000D01*
X69873270Y-79500000D01*
X69806231Y-79480315D01*
X69760476Y-79427511D01*
X69750532Y-79358353D01*
X69779557Y-79294797D01*
X69834951Y-79258069D01*
X69999031Y-79204755D01*
X70181349Y-79111859D01*
X70225921Y-79079474D01*
X69546447Y-78400000D01*
X69552661Y-78400000D01*
X69654394Y-78372741D01*
X69745606Y-78320080D01*
X69820080Y-78245606D01*
X69872741Y-78154394D01*
X69900000Y-78052661D01*
X69900000Y-78046447D01*
X70579474Y-78725921D01*
X70611859Y-78681349D01*
X70704755Y-78499031D01*
X70767990Y-78304417D01*
X70800000Y-78102317D01*
X70800000Y-77897682D01*
X70767990Y-77695582D01*
X70704755Y-77500968D01*
X70611859Y-77318650D01*
X70579474Y-77274077D01*
X70579474Y-77274076D01*
X69900000Y-77953551D01*
X69900000Y-77947339D01*
X69872741Y-77845606D01*
X69820080Y-77754394D01*
X69745606Y-77679920D01*
X69654394Y-77627259D01*
X69552661Y-77600000D01*
X69546446Y-77600000D01*
X70225922Y-76920524D01*
X70225921Y-76920523D01*
X70181359Y-76888147D01*
X70181350Y-76888141D01*
X69999031Y-76795244D01*
X69804417Y-76732009D01*
X69602317Y-76700000D01*
X69397683Y-76700000D01*
X69195582Y-76732009D01*
X69000968Y-76795244D01*
X68818644Y-76888143D01*
X68774077Y-76920523D01*
X68774077Y-76920524D01*
X69453554Y-77600000D01*
X69447339Y-77600000D01*
X69345606Y-77627259D01*
X69254394Y-77679920D01*
X69179920Y-77754394D01*
X69127259Y-77845606D01*
X69100000Y-77947339D01*
X69100000Y-77953553D01*
X68420524Y-77274077D01*
X68420523Y-77274077D01*
X68388143Y-77318644D01*
X68295244Y-77500968D01*
X68232009Y-77695582D01*
X68200000Y-77897682D01*
X68200000Y-78102317D01*
X68232009Y-78304417D01*
X68295244Y-78499031D01*
X68388141Y-78681350D01*
X68388147Y-78681359D01*
X68420523Y-78725921D01*
X68420524Y-78725922D01*
X69100000Y-78046446D01*
X69100000Y-78052661D01*
X69127259Y-78154394D01*
X69179920Y-78245606D01*
X69254394Y-78320080D01*
X69345606Y-78372741D01*
X69447339Y-78400000D01*
X69453553Y-78400000D01*
X68774076Y-79079474D01*
X68818650Y-79111859D01*
X69000968Y-79204755D01*
X69165049Y-79258069D01*
X69222724Y-79297507D01*
X69249922Y-79361866D01*
X69238007Y-79430712D01*
X69190763Y-79482188D01*
X69126730Y-79500000D01*
X64874886Y-79500000D01*
X64807847Y-79480315D01*
X64762092Y-79427511D01*
X64752148Y-79358353D01*
X64781173Y-79294797D01*
X64836567Y-79258069D01*
X64919128Y-79231243D01*
X64999219Y-79205220D01*
X65181610Y-79112287D01*
X65286391Y-79036160D01*
X65347213Y-78991971D01*
X65347215Y-78991968D01*
X65347219Y-78991966D01*
X65491966Y-78847219D01*
X65491968Y-78847215D01*
X65491971Y-78847213D01*
X65544732Y-78774590D01*
X65612287Y-78681610D01*
X65705220Y-78499219D01*
X65768477Y-78304534D01*
X65800500Y-78102352D01*
X65800500Y-77897648D01*
X65781855Y-77779932D01*
X65768477Y-77695465D01*
X65737458Y-77600000D01*
X65705220Y-77500781D01*
X65705218Y-77500778D01*
X65705218Y-77500776D01*
X65612419Y-77318650D01*
X65612287Y-77318390D01*
X65580092Y-77274077D01*
X65491971Y-77152786D01*
X65347213Y-77008028D01*
X65181613Y-76887715D01*
X65181612Y-76887714D01*
X65181610Y-76887713D01*
X65124653Y-76858691D01*
X64999223Y-76794781D01*
X64804534Y-76731522D01*
X64621356Y-76702510D01*
X64602352Y-76699500D01*
X64397648Y-76699500D01*
X64378644Y-76702510D01*
X64195465Y-76731522D01*
X64000776Y-76794781D01*
X63818390Y-76887712D01*
X63697385Y-76975627D01*
X63631578Y-76999106D01*
X63563524Y-76983280D01*
X63514830Y-76933174D01*
X63500500Y-76875308D01*
X63500500Y-75124691D01*
X63520185Y-75057652D01*
X63572989Y-75011897D01*
X63642147Y-75001953D01*
X63697385Y-75024373D01*
X63773226Y-75079474D01*
X63818390Y-75112287D01*
X63934607Y-75171503D01*
X64000776Y-75205218D01*
X64000778Y-75205218D01*
X64000781Y-75205220D01*
X64105137Y-75239127D01*
X64195465Y-75268477D01*
X64296557Y-75284488D01*
X64397648Y-75300500D01*
X64397649Y-75300500D01*
X64602351Y-75300500D01*
X64602352Y-75300500D01*
X64804534Y-75268477D01*
X64999219Y-75205220D01*
X65181610Y-75112287D01*
X65275816Y-75043843D01*
X65347213Y-74991971D01*
X65347215Y-74991968D01*
X65347219Y-74991966D01*
X65491966Y-74847219D01*
X65491968Y-74847215D01*
X65491971Y-74847213D01*
X65564423Y-74747490D01*
X65612287Y-74681610D01*
X65705220Y-74499219D01*
X65768477Y-74304534D01*
X65800500Y-74102352D01*
X65800500Y-73897682D01*
X68200000Y-73897682D01*
X68200000Y-74102317D01*
X68232009Y-74304417D01*
X68295244Y-74499031D01*
X68388141Y-74681350D01*
X68388147Y-74681359D01*
X68420523Y-74725921D01*
X68420524Y-74725922D01*
X69100000Y-74046446D01*
X69100000Y-74052661D01*
X69127259Y-74154394D01*
X69179920Y-74245606D01*
X69254394Y-74320080D01*
X69345606Y-74372741D01*
X69447339Y-74400000D01*
X69453553Y-74400000D01*
X68774076Y-75079474D01*
X68818650Y-75111859D01*
X69000968Y-75204755D01*
X69195582Y-75267990D01*
X69397683Y-75300000D01*
X69602317Y-75300000D01*
X69804417Y-75267990D01*
X69999031Y-75204755D01*
X70181349Y-75111859D01*
X70225921Y-75079474D01*
X69546447Y-74400000D01*
X69552661Y-74400000D01*
X69654394Y-74372741D01*
X69745606Y-74320080D01*
X69820080Y-74245606D01*
X69872741Y-74154394D01*
X69900000Y-74052661D01*
X69900000Y-74046447D01*
X70579474Y-74725921D01*
X70611859Y-74681349D01*
X70704755Y-74499031D01*
X70767990Y-74304417D01*
X70800000Y-74102317D01*
X70800000Y-73897682D01*
X71200000Y-73897682D01*
X71200000Y-74102317D01*
X71232009Y-74304417D01*
X71295244Y-74499031D01*
X71388141Y-74681350D01*
X71388147Y-74681359D01*
X71420523Y-74725921D01*
X71420524Y-74725922D01*
X72100000Y-74046446D01*
X72100000Y-74052661D01*
X72127259Y-74154394D01*
X72179920Y-74245606D01*
X72254394Y-74320080D01*
X72345606Y-74372741D01*
X72447339Y-74400000D01*
X72453553Y-74400000D01*
X71774076Y-75079474D01*
X71818650Y-75111859D01*
X72000968Y-75204755D01*
X72195582Y-75267990D01*
X72397683Y-75300000D01*
X72602317Y-75300000D01*
X72804417Y-75267990D01*
X72999031Y-75204755D01*
X73181349Y-75111859D01*
X73225921Y-75079474D01*
X72546447Y-74400000D01*
X72552661Y-74400000D01*
X72654394Y-74372741D01*
X72745606Y-74320080D01*
X72820080Y-74245606D01*
X72872741Y-74154394D01*
X72900000Y-74052661D01*
X72900000Y-74046447D01*
X73579474Y-74725921D01*
X73611859Y-74681349D01*
X73704755Y-74499031D01*
X73767990Y-74304417D01*
X73800000Y-74102317D01*
X73800000Y-73897682D01*
X73767990Y-73695582D01*
X73704755Y-73500968D01*
X73611859Y-73318650D01*
X73579474Y-73274077D01*
X73579474Y-73274076D01*
X72900000Y-73953551D01*
X72900000Y-73947339D01*
X72872741Y-73845606D01*
X72820080Y-73754394D01*
X72745606Y-73679920D01*
X72654394Y-73627259D01*
X72552661Y-73600000D01*
X72546446Y-73600000D01*
X73225922Y-72920524D01*
X73225921Y-72920523D01*
X73181359Y-72888147D01*
X73181350Y-72888141D01*
X72999031Y-72795244D01*
X72804417Y-72732009D01*
X72602317Y-72700000D01*
X72397683Y-72700000D01*
X72195582Y-72732009D01*
X72000968Y-72795244D01*
X71818644Y-72888143D01*
X71774077Y-72920523D01*
X71774077Y-72920524D01*
X72453554Y-73600000D01*
X72447339Y-73600000D01*
X72345606Y-73627259D01*
X72254394Y-73679920D01*
X72179920Y-73754394D01*
X72127259Y-73845606D01*
X72100000Y-73947339D01*
X72100000Y-73953553D01*
X71420524Y-73274077D01*
X71420523Y-73274077D01*
X71388143Y-73318644D01*
X71295244Y-73500968D01*
X71232009Y-73695582D01*
X71200000Y-73897682D01*
X70800000Y-73897682D01*
X70767990Y-73695582D01*
X70704755Y-73500968D01*
X70611859Y-73318650D01*
X70579474Y-73274077D01*
X70579474Y-73274076D01*
X69900000Y-73953551D01*
X69900000Y-73947339D01*
X69872741Y-73845606D01*
X69820080Y-73754394D01*
X69745606Y-73679920D01*
X69654394Y-73627259D01*
X69552661Y-73600000D01*
X69546446Y-73600000D01*
X70225922Y-72920524D01*
X70225921Y-72920523D01*
X70181359Y-72888147D01*
X70181350Y-72888141D01*
X69999031Y-72795244D01*
X69804417Y-72732009D01*
X69602317Y-72700000D01*
X69397683Y-72700000D01*
X69195582Y-72732009D01*
X69000968Y-72795244D01*
X68818644Y-72888143D01*
X68774077Y-72920523D01*
X68774077Y-72920524D01*
X69453554Y-73600000D01*
X69447339Y-73600000D01*
X69345606Y-73627259D01*
X69254394Y-73679920D01*
X69179920Y-73754394D01*
X69127259Y-73845606D01*
X69100000Y-73947339D01*
X69100000Y-73953553D01*
X68420524Y-73274077D01*
X68420523Y-73274077D01*
X68388143Y-73318644D01*
X68295244Y-73500968D01*
X68232009Y-73695582D01*
X68200000Y-73897682D01*
X65800500Y-73897682D01*
X65800500Y-73897648D01*
X65789652Y-73829156D01*
X65768477Y-73695465D01*
X65716783Y-73536368D01*
X65705220Y-73500781D01*
X65705218Y-73500778D01*
X65705218Y-73500776D01*
X65612419Y-73318650D01*
X65612287Y-73318390D01*
X65580092Y-73274077D01*
X65491971Y-73152786D01*
X65347213Y-73008028D01*
X65181613Y-72887715D01*
X65181612Y-72887714D01*
X65181610Y-72887713D01*
X65124653Y-72858691D01*
X64999223Y-72794781D01*
X64804534Y-72731522D01*
X64629995Y-72703878D01*
X64602352Y-72699500D01*
X64397648Y-72699500D01*
X64373329Y-72703351D01*
X64195465Y-72731522D01*
X64000776Y-72794781D01*
X63818390Y-72887712D01*
X63697385Y-72975627D01*
X63631578Y-72999106D01*
X63563524Y-72983280D01*
X63514830Y-72933174D01*
X63500500Y-72875308D01*
X63500500Y-71862844D01*
X68400000Y-71862844D01*
X68406401Y-71922372D01*
X68406403Y-71922379D01*
X68456645Y-72057086D01*
X68456649Y-72057093D01*
X68542809Y-72172187D01*
X68542812Y-72172190D01*
X68657906Y-72258350D01*
X68657913Y-72258354D01*
X68792620Y-72308596D01*
X68792627Y-72308598D01*
X68852155Y-72314999D01*
X68852172Y-72315000D01*
X70750000Y-72315000D01*
X71250000Y-72315000D01*
X73147828Y-72315000D01*
X73147844Y-72314999D01*
X73207372Y-72308598D01*
X73207379Y-72308596D01*
X73342086Y-72258354D01*
X73342093Y-72258350D01*
X73457187Y-72172190D01*
X73457190Y-72172187D01*
X73543350Y-72057093D01*
X73543354Y-72057086D01*
X73593596Y-71922379D01*
X73593598Y-71922372D01*
X73599999Y-71862844D01*
X73600000Y-71862827D01*
X73600000Y-71075000D01*
X71250000Y-71075000D01*
X71250000Y-72315000D01*
X70750000Y-72315000D01*
X70750000Y-71075000D01*
X68400000Y-71075000D01*
X68400000Y-71862844D01*
X63500500Y-71862844D01*
X63500500Y-54583621D01*
X63520185Y-54516582D01*
X63572989Y-54470827D01*
X63642147Y-54460883D01*
X63705703Y-54489908D01*
X63743477Y-54548686D01*
X63746117Y-54559430D01*
X63794545Y-54802902D01*
X63794548Y-54802913D01*
X63888686Y-55113247D01*
X64012786Y-55412849D01*
X64012788Y-55412854D01*
X64165646Y-55698830D01*
X64165657Y-55698848D01*
X64345811Y-55968467D01*
X64345821Y-55968481D01*
X64551546Y-56219158D01*
X64780841Y-56448453D01*
X64780846Y-56448457D01*
X64780847Y-56448458D01*
X65031524Y-56654183D01*
X65301158Y-56834347D01*
X65301167Y-56834352D01*
X65301169Y-56834353D01*
X65587145Y-56987211D01*
X65587147Y-56987211D01*
X65587153Y-56987215D01*
X65886754Y-57111314D01*
X66197077Y-57205449D01*
X66197083Y-57205450D01*
X66197086Y-57205451D01*
X66197097Y-57205454D01*
X66396528Y-57245122D01*
X66515132Y-57268714D01*
X66837857Y-57300500D01*
X66837860Y-57300500D01*
X67162140Y-57300500D01*
X67162143Y-57300500D01*
X67484868Y-57268714D01*
X67642295Y-57237399D01*
X67802902Y-57205454D01*
X67802913Y-57205451D01*
X67802913Y-57205450D01*
X67802923Y-57205449D01*
X68113246Y-57111314D01*
X68412847Y-56987215D01*
X68698842Y-56834347D01*
X68968476Y-56654183D01*
X69219153Y-56448458D01*
X69448458Y-56219153D01*
X69654183Y-55968476D01*
X69834347Y-55698842D01*
X69987215Y-55412847D01*
X70103586Y-55131902D01*
X81699500Y-55131902D01*
X81699500Y-56868097D01*
X81736446Y-57101368D01*
X81809433Y-57325996D01*
X81849107Y-57403859D01*
X81916657Y-57536433D01*
X82055483Y-57727510D01*
X82222490Y-57894517D01*
X82413567Y-58033343D01*
X82414590Y-58033864D01*
X82624003Y-58140566D01*
X82624005Y-58140566D01*
X82624008Y-58140568D01*
X82744412Y-58179689D01*
X82848631Y-58213553D01*
X83081903Y-58250500D01*
X83081908Y-58250500D01*
X83318097Y-58250500D01*
X83551368Y-58213553D01*
X83775992Y-58140568D01*
X83986433Y-58033343D01*
X84177510Y-57894517D01*
X84344517Y-57727510D01*
X84483343Y-57536433D01*
X84590568Y-57325992D01*
X84663553Y-57101368D01*
X84698313Y-56881902D01*
X85549500Y-56881902D01*
X85549500Y-57118097D01*
X85586446Y-57351368D01*
X85659433Y-57575996D01*
X85736635Y-57727512D01*
X85766657Y-57786433D01*
X85905483Y-57977510D01*
X86072490Y-58144517D01*
X86263567Y-58283343D01*
X86362991Y-58334002D01*
X86474003Y-58390566D01*
X86474005Y-58390566D01*
X86474008Y-58390568D01*
X86594412Y-58429689D01*
X86698631Y-58463553D01*
X86931903Y-58500500D01*
X86931908Y-58500500D01*
X88468097Y-58500500D01*
X88701368Y-58463553D01*
X88925992Y-58390568D01*
X89136433Y-58283343D01*
X89327510Y-58144517D01*
X89494517Y-57977510D01*
X89633343Y-57786433D01*
X89740568Y-57575992D01*
X89813553Y-57351368D01*
X89850500Y-57118097D01*
X89850500Y-56881902D01*
X89813553Y-56648631D01*
X89748512Y-56448458D01*
X89740568Y-56424008D01*
X89740566Y-56424005D01*
X89740566Y-56424003D01*
X89684002Y-56312991D01*
X89633343Y-56213567D01*
X89494517Y-56022490D01*
X89327510Y-55855483D01*
X89136433Y-55716657D01*
X88925996Y-55609433D01*
X88701368Y-55536446D01*
X88468097Y-55499500D01*
X88468092Y-55499500D01*
X86931908Y-55499500D01*
X86931903Y-55499500D01*
X86698631Y-55536446D01*
X86474003Y-55609433D01*
X86263566Y-55716657D01*
X86217674Y-55750000D01*
X86072490Y-55855483D01*
X86072488Y-55855485D01*
X86072487Y-55855485D01*
X85905485Y-56022487D01*
X85905485Y-56022488D01*
X85905483Y-56022490D01*
X85845862Y-56104550D01*
X85766657Y-56213566D01*
X85659433Y-56424003D01*
X85586446Y-56648631D01*
X85549500Y-56881902D01*
X84698313Y-56881902D01*
X84700500Y-56868092D01*
X84700500Y-55131908D01*
X84700500Y-55131902D01*
X90699500Y-55131902D01*
X90699500Y-56868097D01*
X90736446Y-57101368D01*
X90809433Y-57325996D01*
X90849107Y-57403859D01*
X90916657Y-57536433D01*
X91055483Y-57727510D01*
X91222490Y-57894517D01*
X91413567Y-58033343D01*
X91414590Y-58033864D01*
X91624003Y-58140566D01*
X91624005Y-58140566D01*
X91624008Y-58140568D01*
X91744412Y-58179689D01*
X91848631Y-58213553D01*
X92081903Y-58250500D01*
X92081908Y-58250500D01*
X92318097Y-58250500D01*
X92551368Y-58213553D01*
X92775992Y-58140568D01*
X92986433Y-58033343D01*
X93177510Y-57894517D01*
X93344517Y-57727510D01*
X93483343Y-57536433D01*
X93590568Y-57325992D01*
X93663553Y-57101368D01*
X93681633Y-56987215D01*
X93700500Y-56868097D01*
X93700500Y-55131902D01*
X93663553Y-54898631D01*
X93590566Y-54674003D01*
X93505753Y-54507550D01*
X93483343Y-54463567D01*
X93344517Y-54272490D01*
X93177510Y-54105483D01*
X92986433Y-53966657D01*
X92775996Y-53859433D01*
X92551368Y-53786446D01*
X92318097Y-53749500D01*
X92318092Y-53749500D01*
X92081908Y-53749500D01*
X92081903Y-53749500D01*
X91848631Y-53786446D01*
X91624003Y-53859433D01*
X91413566Y-53966657D01*
X91367674Y-54000000D01*
X91222490Y-54105483D01*
X91222488Y-54105485D01*
X91222487Y-54105485D01*
X91055485Y-54272487D01*
X91055485Y-54272488D01*
X91055483Y-54272490D01*
X90995862Y-54354550D01*
X90916657Y-54463566D01*
X90809433Y-54674003D01*
X90736446Y-54898631D01*
X90699500Y-55131902D01*
X84700500Y-55131902D01*
X84663553Y-54898631D01*
X84590566Y-54674003D01*
X84505753Y-54507550D01*
X84483343Y-54463567D01*
X84344517Y-54272490D01*
X84177510Y-54105483D01*
X83986433Y-53966657D01*
X83848802Y-53896530D01*
X86649500Y-53896530D01*
X86649500Y-54103469D01*
X86689868Y-54306412D01*
X86689870Y-54306420D01*
X86769058Y-54497596D01*
X86884024Y-54669657D01*
X87030342Y-54815975D01*
X87030345Y-54815977D01*
X87202402Y-54930941D01*
X87393580Y-55010130D01*
X87596530Y-55050499D01*
X87596534Y-55050500D01*
X87596535Y-55050500D01*
X87803466Y-55050500D01*
X87803467Y-55050499D01*
X88006420Y-55010130D01*
X88197598Y-54930941D01*
X88369655Y-54815977D01*
X88515977Y-54669655D01*
X88630941Y-54497598D01*
X88710130Y-54306420D01*
X88750500Y-54103465D01*
X88750500Y-53896535D01*
X88710130Y-53693580D01*
X88630941Y-53502402D01*
X88515977Y-53330345D01*
X88515975Y-53330342D01*
X88369657Y-53184024D01*
X88227273Y-53088887D01*
X88197598Y-53069059D01*
X88006420Y-52989870D01*
X88006412Y-52989868D01*
X87803469Y-52949500D01*
X87803465Y-52949500D01*
X87596535Y-52949500D01*
X87596530Y-52949500D01*
X87393587Y-52989868D01*
X87393579Y-52989870D01*
X87202403Y-53069058D01*
X87030342Y-53184024D01*
X86884024Y-53330342D01*
X86769058Y-53502403D01*
X86689870Y-53693579D01*
X86689868Y-53693587D01*
X86649500Y-53896530D01*
X83848802Y-53896530D01*
X83775996Y-53859433D01*
X83551368Y-53786446D01*
X83318097Y-53749500D01*
X83318092Y-53749500D01*
X83081908Y-53749500D01*
X83081903Y-53749500D01*
X82848631Y-53786446D01*
X82624003Y-53859433D01*
X82413566Y-53966657D01*
X82367674Y-54000000D01*
X82222490Y-54105483D01*
X82222488Y-54105485D01*
X82222487Y-54105485D01*
X82055485Y-54272487D01*
X82055485Y-54272488D01*
X82055483Y-54272490D01*
X81995862Y-54354550D01*
X81916657Y-54463566D01*
X81809433Y-54674003D01*
X81736446Y-54898631D01*
X81699500Y-55131902D01*
X70103586Y-55131902D01*
X70111314Y-55113246D01*
X70205449Y-54802923D01*
X70205451Y-54802913D01*
X70205454Y-54802902D01*
X70251269Y-54572568D01*
X70268714Y-54484868D01*
X70300500Y-54162143D01*
X70300500Y-53837857D01*
X70268714Y-53515132D01*
X70226099Y-53300890D01*
X70205454Y-53197097D01*
X70205451Y-53197086D01*
X70205450Y-53197083D01*
X70205449Y-53197077D01*
X70111314Y-52886754D01*
X69987215Y-52587153D01*
X69892662Y-52410258D01*
X97969500Y-52410258D01*
X97969500Y-52639741D01*
X97994446Y-52829215D01*
X97999452Y-52867238D01*
X98021494Y-52949500D01*
X98058842Y-53088887D01*
X98146650Y-53300876D01*
X98146657Y-53300890D01*
X98261392Y-53499617D01*
X98401081Y-53681661D01*
X98401089Y-53681670D01*
X98563330Y-53843911D01*
X98563338Y-53843918D01*
X98745382Y-53983607D01*
X98745385Y-53983608D01*
X98745388Y-53983611D01*
X98944112Y-54098344D01*
X98944117Y-54098346D01*
X98944123Y-54098349D01*
X99035480Y-54136190D01*
X99156113Y-54186158D01*
X99377762Y-54245548D01*
X99605266Y-54275500D01*
X99605273Y-54275500D01*
X99834727Y-54275500D01*
X99834734Y-54275500D01*
X100062238Y-54245548D01*
X100283887Y-54186158D01*
X100495888Y-54098344D01*
X100694612Y-53983611D01*
X100876661Y-53843919D01*
X100876665Y-53843914D01*
X100876670Y-53843911D01*
X101038911Y-53681670D01*
X101038914Y-53681665D01*
X101038919Y-53681661D01*
X101178611Y-53499612D01*
X101293344Y-53300888D01*
X101381158Y-53088887D01*
X101440548Y-52867238D01*
X101470500Y-52639734D01*
X101470500Y-52410266D01*
X101470499Y-52410258D01*
X122479500Y-52410258D01*
X122479500Y-52639741D01*
X122504446Y-52829215D01*
X122509452Y-52867238D01*
X122531494Y-52949500D01*
X122568842Y-53088887D01*
X122656650Y-53300876D01*
X122656657Y-53300890D01*
X122771392Y-53499617D01*
X122911081Y-53681661D01*
X122911089Y-53681670D01*
X123073330Y-53843911D01*
X123073338Y-53843918D01*
X123255382Y-53983607D01*
X123255385Y-53983608D01*
X123255388Y-53983611D01*
X123454112Y-54098344D01*
X123454117Y-54098346D01*
X123454123Y-54098349D01*
X123545480Y-54136190D01*
X123666113Y-54186158D01*
X123887762Y-54245548D01*
X124115266Y-54275500D01*
X124115273Y-54275500D01*
X124344727Y-54275500D01*
X124344734Y-54275500D01*
X124572238Y-54245548D01*
X124793887Y-54186158D01*
X125005888Y-54098344D01*
X125204612Y-53983611D01*
X125386661Y-53843919D01*
X125386665Y-53843914D01*
X125386670Y-53843911D01*
X125548911Y-53681670D01*
X125548914Y-53681665D01*
X125548919Y-53681661D01*
X125688611Y-53499612D01*
X125803344Y-53300888D01*
X125891158Y-53088887D01*
X125950548Y-52867238D01*
X125980500Y-52639734D01*
X125980500Y-52410266D01*
X125950548Y-52182762D01*
X125891158Y-51961113D01*
X125803344Y-51749112D01*
X125688611Y-51550388D01*
X125688608Y-51550385D01*
X125688607Y-51550382D01*
X125548918Y-51368338D01*
X125548911Y-51368330D01*
X125386670Y-51206089D01*
X125386661Y-51206081D01*
X125204617Y-51066392D01*
X125005890Y-50951657D01*
X125005876Y-50951650D01*
X124793887Y-50863842D01*
X124572238Y-50804452D01*
X124534215Y-50799446D01*
X124344741Y-50774500D01*
X124344734Y-50774500D01*
X124115266Y-50774500D01*
X124115258Y-50774500D01*
X123898715Y-50803009D01*
X123887762Y-50804452D01*
X123794076Y-50829554D01*
X123666112Y-50863842D01*
X123454123Y-50951650D01*
X123454109Y-50951657D01*
X123255382Y-51066392D01*
X123073338Y-51206081D01*
X122911081Y-51368338D01*
X122771392Y-51550382D01*
X122656657Y-51749109D01*
X122656650Y-51749123D01*
X122568842Y-51961112D01*
X122509453Y-52182759D01*
X122509451Y-52182770D01*
X122479500Y-52410258D01*
X101470499Y-52410258D01*
X101440548Y-52182762D01*
X101381158Y-51961113D01*
X101293344Y-51749112D01*
X101178611Y-51550388D01*
X101178608Y-51550385D01*
X101178607Y-51550382D01*
X101038918Y-51368338D01*
X101038911Y-51368330D01*
X100876670Y-51206089D01*
X100876661Y-51206081D01*
X100694617Y-51066392D01*
X100495890Y-50951657D01*
X100495876Y-50951650D01*
X100283887Y-50863842D01*
X100062238Y-50804452D01*
X100024215Y-50799446D01*
X99834741Y-50774500D01*
X99834734Y-50774500D01*
X99605266Y-50774500D01*
X99605258Y-50774500D01*
X99388715Y-50803009D01*
X99377762Y-50804452D01*
X99284076Y-50829554D01*
X99156112Y-50863842D01*
X98944123Y-50951650D01*
X98944109Y-50951657D01*
X98745382Y-51066392D01*
X98563338Y-51206081D01*
X98401081Y-51368338D01*
X98261392Y-51550382D01*
X98146657Y-51749109D01*
X98146650Y-51749123D01*
X98058842Y-51961112D01*
X97999453Y-52182759D01*
X97999451Y-52182770D01*
X97969500Y-52410258D01*
X69892662Y-52410258D01*
X69834347Y-52301158D01*
X69654183Y-52031524D01*
X69448458Y-51780847D01*
X69448457Y-51780846D01*
X69448453Y-51780841D01*
X69219158Y-51551546D01*
X68968481Y-51345821D01*
X68968480Y-51345820D01*
X68968476Y-51345817D01*
X68698842Y-51165653D01*
X68698837Y-51165650D01*
X68698830Y-51165646D01*
X68412854Y-51012788D01*
X68412849Y-51012786D01*
X68113247Y-50888686D01*
X67802913Y-50794548D01*
X67802902Y-50794545D01*
X67559431Y-50746117D01*
X67497520Y-50713732D01*
X67462946Y-50653017D01*
X67466685Y-50583247D01*
X67507551Y-50526575D01*
X67572569Y-50500994D01*
X67583622Y-50500500D01*
X145416378Y-50500500D01*
X145483417Y-50520185D01*
G37*
G04 #@! TD.AperFunction*
G04 #@! TD*
G04 #@! TA.AperFunction,Conductor*
G04 #@! TO.N,+12V*
G36*
X96437539Y-59525185D02*
G01*
X96483294Y-59577989D01*
X96494500Y-59629500D01*
X96494500Y-59729500D01*
X96494500Y-60484405D01*
X96494500Y-61900309D01*
X96500147Y-61952155D01*
X96506354Y-62009139D01*
X96517848Y-62061276D01*
X96517848Y-62061277D01*
X96545985Y-62144654D01*
X96552847Y-62164987D01*
X96552849Y-62164990D01*
X96552850Y-62164992D01*
X96618077Y-62265260D01*
X96631305Y-62285593D01*
X96677352Y-62338142D01*
X96677354Y-62338144D01*
X96786613Y-62431760D01*
X96917821Y-62490802D01*
X96949803Y-62500000D01*
X96984963Y-62510113D01*
X96984967Y-62510113D01*
X96984969Y-62510114D01*
X96984970Y-62510114D01*
X96993085Y-62511257D01*
X96993412Y-62511280D01*
X97127497Y-62529799D01*
X97375311Y-62528422D01*
X97442459Y-62547734D01*
X97488506Y-62600282D01*
X97500000Y-62652420D01*
X97500000Y-71402980D01*
X97480315Y-71470019D01*
X97463681Y-71490661D01*
X95205888Y-73748453D01*
X95205887Y-73748454D01*
X95183994Y-73781219D01*
X95162200Y-73813838D01*
X95145655Y-73838598D01*
X95129223Y-73863191D01*
X95076421Y-73990667D01*
X95076418Y-73990677D01*
X95049500Y-74126004D01*
X95049500Y-83214859D01*
X95029815Y-83281898D01*
X94977011Y-83327653D01*
X94907853Y-83337597D01*
X94869206Y-83325344D01*
X94809226Y-83294782D01*
X94614534Y-83231522D01*
X94439995Y-83203878D01*
X94412352Y-83199500D01*
X94207648Y-83199500D01*
X94183329Y-83203351D01*
X94005465Y-83231522D01*
X93810776Y-83294781D01*
X93628386Y-83387715D01*
X93462786Y-83508028D01*
X93318028Y-83652786D01*
X93197715Y-83818386D01*
X93104781Y-84000776D01*
X93041522Y-84195465D01*
X93009500Y-84397648D01*
X93009500Y-84602351D01*
X93041522Y-84804534D01*
X93104781Y-84999223D01*
X93109271Y-85008034D01*
X93196798Y-85179815D01*
X93197715Y-85181613D01*
X93318028Y-85347213D01*
X93462786Y-85491971D01*
X93617749Y-85604556D01*
X93628390Y-85612287D01*
X93725484Y-85661759D01*
X93810776Y-85705218D01*
X93810778Y-85705218D01*
X93810781Y-85705220D01*
X93915137Y-85739127D01*
X94005465Y-85768477D01*
X94106557Y-85784488D01*
X94207648Y-85800500D01*
X94207649Y-85800500D01*
X94412351Y-85800500D01*
X94412352Y-85800500D01*
X94614534Y-85768477D01*
X94809219Y-85705220D01*
X94817751Y-85700873D01*
X94869204Y-85674656D01*
X94937873Y-85661759D01*
X95002614Y-85688035D01*
X95042871Y-85745141D01*
X95049500Y-85785140D01*
X95049500Y-99271981D01*
X95029815Y-99339020D01*
X94994395Y-99375080D01*
X94989715Y-99378207D01*
X94989707Y-99378213D01*
X94878213Y-99489707D01*
X94878210Y-99489711D01*
X94790609Y-99620814D01*
X94790602Y-99620827D01*
X94730264Y-99766498D01*
X94730261Y-99766510D01*
X94699500Y-99921153D01*
X94699500Y-100078846D01*
X94730261Y-100233489D01*
X94730264Y-100233501D01*
X94790602Y-100379172D01*
X94790609Y-100379185D01*
X94878210Y-100510288D01*
X94878213Y-100510292D01*
X94989707Y-100621786D01*
X94989711Y-100621789D01*
X95120814Y-100709390D01*
X95120827Y-100709397D01*
X95214703Y-100748281D01*
X95266503Y-100769737D01*
X95419796Y-100800229D01*
X95421153Y-100800499D01*
X95421156Y-100800500D01*
X95421158Y-100800500D01*
X95425162Y-100800500D01*
X95427183Y-100801093D01*
X95427218Y-100801097D01*
X95427217Y-100801103D01*
X95492201Y-100820185D01*
X95537956Y-100872989D01*
X95539715Y-100877029D01*
X95540606Y-100879179D01*
X95540607Y-100879180D01*
X95540609Y-100879185D01*
X95628210Y-101010288D01*
X95628213Y-101010292D01*
X95739707Y-101121786D01*
X95739711Y-101121789D01*
X95870814Y-101209390D01*
X95870826Y-101209397D01*
X95958922Y-101245886D01*
X95986968Y-101257503D01*
X96041372Y-101301343D01*
X96063437Y-101367637D01*
X96046158Y-101435337D01*
X95995022Y-101482947D01*
X95939204Y-101496064D01*
X94986792Y-101493664D01*
X94919802Y-101473810D01*
X94899427Y-101457349D01*
X94820289Y-101378211D01*
X94820288Y-101378210D01*
X94820287Y-101378209D01*
X94689185Y-101290609D01*
X94689172Y-101290602D01*
X94543501Y-101230264D01*
X94543489Y-101230261D01*
X94388845Y-101199500D01*
X94388842Y-101199500D01*
X94188460Y-101199500D01*
X94121421Y-101179815D01*
X94081073Y-101137500D01*
X94072002Y-101121789D01*
X94000273Y-100997550D01*
X93910123Y-100880064D01*
X93856593Y-100810302D01*
X93856587Y-100810295D01*
X93689704Y-100643412D01*
X93689697Y-100643406D01*
X93502454Y-100499730D01*
X93502453Y-100499729D01*
X93502450Y-100499727D01*
X93420957Y-100452677D01*
X93298056Y-100381719D01*
X93298045Y-100381714D01*
X93079993Y-100291394D01*
X92852014Y-100230307D01*
X92852013Y-100230306D01*
X92852010Y-100230306D01*
X92618020Y-100199501D01*
X92618017Y-100199500D01*
X92618011Y-100199500D01*
X92381989Y-100199500D01*
X92381983Y-100199500D01*
X92381979Y-100199501D01*
X92147989Y-100230306D01*
X91920006Y-100291394D01*
X91701954Y-100381714D01*
X91701943Y-100381719D01*
X91497545Y-100499730D01*
X91310302Y-100643406D01*
X91310295Y-100643412D01*
X91143412Y-100810295D01*
X91143404Y-100810305D01*
X91058474Y-100920987D01*
X91002046Y-100962189D01*
X90960099Y-100969500D01*
X85684298Y-100969500D01*
X85647432Y-100972401D01*
X85647426Y-100972402D01*
X85489606Y-101018254D01*
X85489603Y-101018255D01*
X85348137Y-101101917D01*
X85348129Y-101101923D01*
X85231923Y-101218129D01*
X85231917Y-101218137D01*
X85148255Y-101359602D01*
X85141534Y-101382736D01*
X85103926Y-101441621D01*
X85040452Y-101470825D01*
X85022918Y-101472136D01*
X83179982Y-101478962D01*
X83112870Y-101459526D01*
X83066920Y-101406892D01*
X83060449Y-101389566D01*
X83051744Y-101359602D01*
X82968081Y-101218135D01*
X82968079Y-101218133D01*
X82968076Y-101218129D01*
X82851870Y-101101923D01*
X82851862Y-101101917D01*
X82773681Y-101055681D01*
X82710398Y-101018256D01*
X82710397Y-101018255D01*
X82710396Y-101018255D01*
X82710393Y-101018254D01*
X82552573Y-100972402D01*
X82552567Y-100972401D01*
X82515701Y-100969500D01*
X82515694Y-100969500D01*
X81703842Y-100969500D01*
X80652940Y-100969500D01*
X80585901Y-100949815D01*
X80565259Y-100933181D01*
X78836100Y-99204022D01*
X78802615Y-99142699D01*
X78800165Y-99106592D01*
X78800498Y-99102359D01*
X78800500Y-99102352D01*
X78800500Y-98897648D01*
X78768477Y-98695466D01*
X78743254Y-98617839D01*
X78726816Y-98567246D01*
X78705220Y-98500781D01*
X78705218Y-98500778D01*
X78705218Y-98500776D01*
X78656443Y-98405051D01*
X78612287Y-98318390D01*
X78590939Y-98289007D01*
X78491971Y-98152786D01*
X78347213Y-98008028D01*
X78181613Y-97887715D01*
X78181612Y-97887714D01*
X78181610Y-97887713D01*
X78124653Y-97858691D01*
X77999223Y-97794781D01*
X77804534Y-97731522D01*
X77629995Y-97703878D01*
X77602352Y-97699500D01*
X77397648Y-97699500D01*
X77373329Y-97703351D01*
X77195465Y-97731522D01*
X77000776Y-97794781D01*
X76818386Y-97887715D01*
X76652786Y-98008028D01*
X76508028Y-98152786D01*
X76387715Y-98318386D01*
X76294781Y-98500776D01*
X76231522Y-98695465D01*
X76199500Y-98897648D01*
X76199500Y-99102351D01*
X76231522Y-99304534D01*
X76294781Y-99499223D01*
X76387715Y-99681613D01*
X76508028Y-99847213D01*
X76652786Y-99991971D01*
X76772362Y-100078846D01*
X76818390Y-100112287D01*
X76934607Y-100171503D01*
X77000776Y-100205218D01*
X77000778Y-100205218D01*
X77000781Y-100205220D01*
X77077988Y-100230306D01*
X77195465Y-100268477D01*
X77259467Y-100278614D01*
X77397648Y-100300500D01*
X77397649Y-100300500D01*
X77602344Y-100300500D01*
X77602352Y-100300500D01*
X77602359Y-100300498D01*
X77606592Y-100300165D01*
X77674972Y-100314518D01*
X77704022Y-100336100D01*
X78652297Y-101284375D01*
X78685782Y-101345698D01*
X78680798Y-101415390D01*
X78638926Y-101471323D01*
X78573462Y-101495740D01*
X78565075Y-101496055D01*
X77500000Y-101500000D01*
X77500000Y-101919453D01*
X77480315Y-101986492D01*
X77463681Y-102007134D01*
X77318032Y-102152782D01*
X77318028Y-102152786D01*
X77197715Y-102318386D01*
X77104781Y-102500776D01*
X77041522Y-102695465D01*
X77009500Y-102897648D01*
X77009500Y-103102351D01*
X77041522Y-103304534D01*
X77104781Y-103499223D01*
X77143109Y-103574444D01*
X77185985Y-103658593D01*
X77199500Y-103714886D01*
X77199500Y-104626000D01*
X77179815Y-104693039D01*
X77127011Y-104738794D01*
X77075500Y-104750000D01*
X69124000Y-104750000D01*
X69056961Y-104730315D01*
X69011206Y-104677511D01*
X69000000Y-104626000D01*
X69000000Y-102897682D01*
X69390000Y-102897682D01*
X69390000Y-103102317D01*
X69422009Y-103304417D01*
X69485244Y-103499031D01*
X69578141Y-103681350D01*
X69578147Y-103681359D01*
X69610523Y-103725921D01*
X69610524Y-103725922D01*
X70290000Y-103046446D01*
X70290000Y-103052661D01*
X70317259Y-103154394D01*
X70369920Y-103245606D01*
X70444394Y-103320080D01*
X70535606Y-103372741D01*
X70637339Y-103400000D01*
X70643553Y-103400000D01*
X69964076Y-104079474D01*
X70008650Y-104111859D01*
X70190968Y-104204755D01*
X70385582Y-104267990D01*
X70587683Y-104300000D01*
X70792317Y-104300000D01*
X70994417Y-104267990D01*
X71189031Y-104204755D01*
X71371349Y-104111859D01*
X71415921Y-104079474D01*
X70736447Y-103400000D01*
X70742661Y-103400000D01*
X70844394Y-103372741D01*
X70935606Y-103320080D01*
X71010080Y-103245606D01*
X71062741Y-103154394D01*
X71090000Y-103052661D01*
X71090000Y-103046447D01*
X71769474Y-103725921D01*
X71801859Y-103681349D01*
X71894755Y-103499031D01*
X71957990Y-103304417D01*
X71990000Y-103102317D01*
X71990000Y-102897682D01*
X71957990Y-102695582D01*
X71894755Y-102500968D01*
X71801859Y-102318650D01*
X71769474Y-102274077D01*
X71769474Y-102274076D01*
X71090000Y-102953551D01*
X71090000Y-102947339D01*
X71062741Y-102845606D01*
X71010080Y-102754394D01*
X70935606Y-102679920D01*
X70844394Y-102627259D01*
X70742661Y-102600000D01*
X70736446Y-102600000D01*
X71415922Y-101920524D01*
X71415921Y-101920523D01*
X71371359Y-101888147D01*
X71371350Y-101888141D01*
X71189031Y-101795244D01*
X70994417Y-101732009D01*
X70792317Y-101700000D01*
X70587683Y-101700000D01*
X70385582Y-101732009D01*
X70190968Y-101795244D01*
X70008644Y-101888143D01*
X69964077Y-101920523D01*
X69964077Y-101920524D01*
X70643554Y-102600000D01*
X70637339Y-102600000D01*
X70535606Y-102627259D01*
X70444394Y-102679920D01*
X70369920Y-102754394D01*
X70317259Y-102845606D01*
X70290000Y-102947339D01*
X70290000Y-102953553D01*
X69610524Y-102274077D01*
X69610523Y-102274077D01*
X69578143Y-102318644D01*
X69485244Y-102500968D01*
X69422009Y-102695582D01*
X69390000Y-102897682D01*
X69000000Y-102897682D01*
X69000000Y-101374000D01*
X69019685Y-101306961D01*
X69072489Y-101261206D01*
X69124000Y-101250000D01*
X75000000Y-101250000D01*
X75000000Y-94897648D01*
X76199500Y-94897648D01*
X76199500Y-95102351D01*
X76231522Y-95304534D01*
X76294781Y-95499223D01*
X76387715Y-95681613D01*
X76508028Y-95847213D01*
X76652786Y-95991971D01*
X76778912Y-96083605D01*
X76818390Y-96112287D01*
X76934607Y-96171503D01*
X77000776Y-96205218D01*
X77000778Y-96205218D01*
X77000781Y-96205220D01*
X77105137Y-96239127D01*
X77195465Y-96268477D01*
X77296557Y-96284488D01*
X77397648Y-96300500D01*
X77397649Y-96300500D01*
X77602351Y-96300500D01*
X77602352Y-96300500D01*
X77804534Y-96268477D01*
X77999219Y-96205220D01*
X78181610Y-96112287D01*
X78274590Y-96044732D01*
X78347213Y-95991971D01*
X78347215Y-95991968D01*
X78347219Y-95991966D01*
X78491966Y-95847219D01*
X78491968Y-95847215D01*
X78491971Y-95847213D01*
X78584756Y-95719503D01*
X78612287Y-95681610D01*
X78705220Y-95499219D01*
X78768477Y-95304534D01*
X78800500Y-95102352D01*
X78800500Y-94897648D01*
X78768477Y-94695466D01*
X78768475Y-94695461D01*
X78768475Y-94695458D01*
X78762530Y-94677161D01*
X78762529Y-94677159D01*
X78751661Y-94643713D01*
X81299500Y-94643713D01*
X81299500Y-94856287D01*
X81332754Y-95066243D01*
X81392743Y-95250870D01*
X81398444Y-95268414D01*
X81494951Y-95457820D01*
X81619890Y-95629786D01*
X81770209Y-95780105D01*
X81770214Y-95780109D01*
X81934793Y-95899682D01*
X81977459Y-95955011D01*
X81983438Y-96024625D01*
X81950833Y-96086420D01*
X81934793Y-96100318D01*
X81770214Y-96219890D01*
X81770209Y-96219894D01*
X81619890Y-96370213D01*
X81494951Y-96542179D01*
X81398444Y-96731585D01*
X81332753Y-96933760D01*
X81331741Y-96940151D01*
X81299500Y-97143713D01*
X81299500Y-97356287D01*
X81309534Y-97419644D01*
X81331621Y-97559094D01*
X81332754Y-97566243D01*
X81359968Y-97650000D01*
X81398444Y-97768414D01*
X81494951Y-97957820D01*
X81619890Y-98129786D01*
X81770213Y-98280109D01*
X81942179Y-98405048D01*
X81942181Y-98405049D01*
X81942184Y-98405051D01*
X82131588Y-98501557D01*
X82333757Y-98567246D01*
X82543713Y-98600500D01*
X82543714Y-98600500D01*
X83006286Y-98600500D01*
X83006287Y-98600500D01*
X83216243Y-98567246D01*
X83418412Y-98501557D01*
X83607816Y-98405051D01*
X83691957Y-98343918D01*
X83767539Y-98289007D01*
X83767540Y-98289006D01*
X83779788Y-98280107D01*
X83779788Y-98280106D01*
X83779792Y-98280104D01*
X83930104Y-98129792D01*
X83930106Y-98129788D01*
X83930109Y-98129786D01*
X84055048Y-97957820D01*
X84055047Y-97957820D01*
X84055051Y-97957816D01*
X84151557Y-97768412D01*
X84217246Y-97566243D01*
X84250500Y-97356287D01*
X84250500Y-97143713D01*
X84217246Y-96933757D01*
X84200434Y-96882014D01*
X90700000Y-96882014D01*
X90700000Y-97117985D01*
X90730799Y-97351914D01*
X90791870Y-97579837D01*
X90882160Y-97797819D01*
X90882165Y-97797828D01*
X91000144Y-98002171D01*
X91000145Y-98002172D01*
X91062721Y-98083723D01*
X91898958Y-97247487D01*
X91923978Y-97307890D01*
X91995112Y-97414351D01*
X92085649Y-97504888D01*
X92192110Y-97576022D01*
X92252511Y-97601041D01*
X91416275Y-98437277D01*
X91497827Y-98499854D01*
X91497828Y-98499855D01*
X91702171Y-98617834D01*
X91702180Y-98617839D01*
X91920163Y-98708129D01*
X91920161Y-98708129D01*
X92148085Y-98769200D01*
X92382014Y-98799999D01*
X92382029Y-98800000D01*
X92617971Y-98800000D01*
X92617985Y-98799999D01*
X92851914Y-98769200D01*
X93079837Y-98708129D01*
X93297819Y-98617839D01*
X93297828Y-98617834D01*
X93502181Y-98499850D01*
X93583723Y-98437279D01*
X93583723Y-98437276D01*
X92747487Y-97601041D01*
X92807890Y-97576022D01*
X92914351Y-97504888D01*
X93004888Y-97414351D01*
X93076022Y-97307890D01*
X93101041Y-97247487D01*
X93937276Y-98083723D01*
X93937279Y-98083723D01*
X93999850Y-98002181D01*
X94117834Y-97797828D01*
X94117839Y-97797819D01*
X94208129Y-97579837D01*
X94269200Y-97351914D01*
X94299999Y-97117985D01*
X94300000Y-97117971D01*
X94300000Y-96882028D01*
X94299999Y-96882014D01*
X94269200Y-96648085D01*
X94208129Y-96420162D01*
X94117839Y-96202180D01*
X94117834Y-96202171D01*
X93999855Y-95997828D01*
X93999854Y-95997827D01*
X93937277Y-95916275D01*
X93101041Y-96752511D01*
X93076022Y-96692110D01*
X93004888Y-96585649D01*
X92914351Y-96495112D01*
X92807890Y-96423978D01*
X92747488Y-96398958D01*
X93583723Y-95562721D01*
X93502172Y-95500145D01*
X93502171Y-95500144D01*
X93297828Y-95382165D01*
X93297819Y-95382160D01*
X93079836Y-95291870D01*
X93079838Y-95291870D01*
X92851914Y-95230799D01*
X92617985Y-95200000D01*
X92382014Y-95200000D01*
X92148085Y-95230799D01*
X91920162Y-95291870D01*
X91702180Y-95382160D01*
X91702171Y-95382165D01*
X91497828Y-95500144D01*
X91497818Y-95500150D01*
X91416275Y-95562720D01*
X91416275Y-95562721D01*
X92252512Y-96398958D01*
X92192110Y-96423978D01*
X92085649Y-96495112D01*
X91995112Y-96585649D01*
X91923978Y-96692110D01*
X91898958Y-96752512D01*
X91062721Y-95916275D01*
X91062720Y-95916275D01*
X91000150Y-95997818D01*
X91000144Y-95997828D01*
X90882165Y-96202171D01*
X90882160Y-96202180D01*
X90791870Y-96420162D01*
X90730799Y-96648085D01*
X90700000Y-96882014D01*
X84200434Y-96882014D01*
X84151557Y-96731588D01*
X84055051Y-96542184D01*
X84055049Y-96542181D01*
X84055048Y-96542179D01*
X83930109Y-96370213D01*
X83779792Y-96219896D01*
X83713992Y-96172090D01*
X83615204Y-96100316D01*
X83572540Y-96044989D01*
X83566561Y-95975376D01*
X83599166Y-95913580D01*
X83615199Y-95899686D01*
X83779792Y-95780104D01*
X83930104Y-95629792D01*
X84055051Y-95457816D01*
X84151557Y-95268412D01*
X84217246Y-95066243D01*
X84250500Y-94856287D01*
X84250500Y-94643713D01*
X84217246Y-94433757D01*
X84151557Y-94231588D01*
X84055051Y-94042184D01*
X84055049Y-94042181D01*
X84055048Y-94042179D01*
X83930109Y-93870213D01*
X83790931Y-93731035D01*
X83757446Y-93669712D01*
X83762430Y-93600020D01*
X83804302Y-93544087D01*
X83813516Y-93537815D01*
X83968343Y-93442317D01*
X84092315Y-93318345D01*
X84184356Y-93169124D01*
X84184358Y-93169119D01*
X84239505Y-93002697D01*
X84239506Y-93002690D01*
X84249999Y-92899986D01*
X84250000Y-92899973D01*
X84250000Y-92500000D01*
X83179146Y-92500000D01*
X83217630Y-92433343D01*
X83250000Y-92312535D01*
X83250000Y-92187465D01*
X83217630Y-92066657D01*
X83179146Y-92000000D01*
X84249999Y-92000000D01*
X84249999Y-91600028D01*
X84249998Y-91600013D01*
X84239505Y-91497302D01*
X84184358Y-91330880D01*
X84184356Y-91330875D01*
X84092315Y-91181654D01*
X83968345Y-91057684D01*
X83819124Y-90965643D01*
X83819119Y-90965641D01*
X83652697Y-90910494D01*
X83652690Y-90910493D01*
X83549986Y-90900000D01*
X83025000Y-90900000D01*
X83025000Y-91845854D01*
X82958343Y-91807370D01*
X82837535Y-91775000D01*
X82712465Y-91775000D01*
X82591657Y-91807370D01*
X82525000Y-91845854D01*
X82525000Y-90900000D01*
X82000028Y-90900000D01*
X82000012Y-90900001D01*
X81897302Y-90910494D01*
X81730880Y-90965641D01*
X81730875Y-90965643D01*
X81581654Y-91057684D01*
X81457684Y-91181654D01*
X81365643Y-91330875D01*
X81365641Y-91330880D01*
X81310494Y-91497302D01*
X81310493Y-91497309D01*
X81300000Y-91600013D01*
X81300000Y-92000000D01*
X82370854Y-92000000D01*
X82332370Y-92066657D01*
X82300000Y-92187465D01*
X82300000Y-92312535D01*
X82332370Y-92433343D01*
X82370854Y-92500000D01*
X81300001Y-92500000D01*
X81300001Y-92899986D01*
X81310494Y-93002697D01*
X81365641Y-93169119D01*
X81365643Y-93169124D01*
X81457684Y-93318345D01*
X81581654Y-93442315D01*
X81736484Y-93537815D01*
X81783208Y-93589763D01*
X81794431Y-93658726D01*
X81766587Y-93722808D01*
X81759069Y-93731035D01*
X81619889Y-93870215D01*
X81494951Y-94042179D01*
X81398444Y-94231585D01*
X81332753Y-94433760D01*
X81322138Y-94500781D01*
X81299500Y-94643713D01*
X78751661Y-94643713D01*
X78749364Y-94636644D01*
X78705220Y-94500781D01*
X78612287Y-94318390D01*
X78604556Y-94307749D01*
X78491971Y-94152786D01*
X78347213Y-94008028D01*
X78181613Y-93887715D01*
X78181612Y-93887714D01*
X78181610Y-93887713D01*
X78124653Y-93858691D01*
X77999223Y-93794781D01*
X77804534Y-93731522D01*
X77629995Y-93703878D01*
X77602352Y-93699500D01*
X77397648Y-93699500D01*
X77373329Y-93703351D01*
X77195465Y-93731522D01*
X77000776Y-93794781D01*
X76818386Y-93887715D01*
X76652786Y-94008028D01*
X76508028Y-94152786D01*
X76387715Y-94318386D01*
X76294781Y-94500776D01*
X76231522Y-94695465D01*
X76199500Y-94897648D01*
X75000000Y-94897648D01*
X75000000Y-92478028D01*
X75019685Y-92410989D01*
X75072489Y-92365234D01*
X75099809Y-92356411D01*
X75111816Y-92354022D01*
X75158497Y-92344737D01*
X75304179Y-92284394D01*
X75435289Y-92196789D01*
X75775792Y-91856286D01*
X76122896Y-91509183D01*
X78121786Y-89510292D01*
X78121789Y-89510289D01*
X78209394Y-89379179D01*
X78269737Y-89233497D01*
X78300500Y-89078842D01*
X78300500Y-88921158D01*
X78300500Y-84157135D01*
X80639500Y-84157135D01*
X80639500Y-85302870D01*
X80639501Y-85302876D01*
X80645908Y-85362483D01*
X80696202Y-85497328D01*
X80696203Y-85497330D01*
X80696204Y-85497331D01*
X80697028Y-85498432D01*
X80697509Y-85499721D01*
X80700454Y-85505114D01*
X80699678Y-85505537D01*
X80721448Y-85563895D01*
X80712325Y-85620198D01*
X80678910Y-85700868D01*
X80678907Y-85700880D01*
X80639500Y-85898992D01*
X80639500Y-86101007D01*
X80678907Y-86299119D01*
X80678909Y-86299127D01*
X80756213Y-86485755D01*
X80809904Y-86566109D01*
X80830782Y-86632787D01*
X80812297Y-86700167D01*
X80809904Y-86703891D01*
X80756213Y-86784244D01*
X80678909Y-86970872D01*
X80678907Y-86970880D01*
X80639500Y-87168992D01*
X80639500Y-87371007D01*
X80678907Y-87569119D01*
X80678909Y-87569127D01*
X80756212Y-87755752D01*
X80756217Y-87755762D01*
X80868441Y-87923718D01*
X81011281Y-88066558D01*
X81179237Y-88178782D01*
X81179241Y-88178784D01*
X81179244Y-88178786D01*
X81365873Y-88256091D01*
X81563992Y-88295499D01*
X81563996Y-88295500D01*
X81563997Y-88295500D01*
X81862060Y-88295500D01*
X81929099Y-88315185D01*
X81949741Y-88331819D01*
X85989707Y-92371786D01*
X85989711Y-92371789D01*
X86120814Y-92459390D01*
X86120818Y-92459392D01*
X86120821Y-92459394D01*
X86266503Y-92519738D01*
X86421153Y-92550499D01*
X86421157Y-92550500D01*
X86421158Y-92550500D01*
X89449106Y-92550500D01*
X89516145Y-92570185D01*
X89549422Y-92601612D01*
X89569896Y-92629792D01*
X89569898Y-92629794D01*
X89720213Y-92780109D01*
X89892179Y-92905048D01*
X89892181Y-92905049D01*
X89892184Y-92905051D01*
X90081588Y-93001557D01*
X90283757Y-93067246D01*
X90493713Y-93100500D01*
X90493714Y-93100500D01*
X91006286Y-93100500D01*
X91006287Y-93100500D01*
X91216243Y-93067246D01*
X91418412Y-93001557D01*
X91607816Y-92905051D01*
X91629789Y-92889086D01*
X91779786Y-92780109D01*
X91779788Y-92780106D01*
X91779792Y-92780104D01*
X91930104Y-92629792D01*
X91930106Y-92629788D01*
X91930109Y-92629786D01*
X92053904Y-92459395D01*
X92055051Y-92457816D01*
X92151557Y-92268412D01*
X92217246Y-92066243D01*
X92250500Y-91856287D01*
X92250500Y-91643713D01*
X92217246Y-91433757D01*
X92151557Y-91231588D01*
X92055051Y-91042184D01*
X92055049Y-91042181D01*
X92055048Y-91042179D01*
X91930109Y-90870213D01*
X91790931Y-90731035D01*
X91757446Y-90669712D01*
X91762430Y-90600020D01*
X91804302Y-90544087D01*
X91813516Y-90537815D01*
X91968343Y-90442317D01*
X92092315Y-90318345D01*
X92184356Y-90169124D01*
X92184358Y-90169119D01*
X92239505Y-90002697D01*
X92239506Y-90002690D01*
X92249999Y-89899986D01*
X92250000Y-89899973D01*
X92250000Y-89500000D01*
X91183012Y-89500000D01*
X91215925Y-89442993D01*
X91250000Y-89315826D01*
X91250000Y-89184174D01*
X91215925Y-89057007D01*
X91183012Y-89000000D01*
X92249999Y-89000000D01*
X92249999Y-88600028D01*
X92249998Y-88600013D01*
X92239505Y-88497302D01*
X92184358Y-88330880D01*
X92184356Y-88330875D01*
X92092315Y-88181654D01*
X91968345Y-88057684D01*
X91819124Y-87965643D01*
X91819119Y-87965641D01*
X91652697Y-87910494D01*
X91652690Y-87910493D01*
X91549986Y-87900000D01*
X91000000Y-87900000D01*
X91000000Y-88816988D01*
X90942993Y-88784075D01*
X90815826Y-88750000D01*
X90684174Y-88750000D01*
X90557007Y-88784075D01*
X90500000Y-88816988D01*
X90500000Y-87900000D01*
X89950028Y-87900000D01*
X89950012Y-87900001D01*
X89847302Y-87910494D01*
X89680880Y-87965641D01*
X89680875Y-87965643D01*
X89531654Y-88057684D01*
X89407684Y-88181654D01*
X89315643Y-88330875D01*
X89315641Y-88330880D01*
X89260494Y-88497302D01*
X89260493Y-88497309D01*
X89250000Y-88600013D01*
X89250000Y-89000000D01*
X90316988Y-89000000D01*
X90284075Y-89057007D01*
X90250000Y-89184174D01*
X90250000Y-89315826D01*
X90284075Y-89442993D01*
X90316988Y-89500000D01*
X89250001Y-89500000D01*
X89250001Y-89899986D01*
X89260494Y-90002697D01*
X89315641Y-90169119D01*
X89315643Y-90169124D01*
X89407684Y-90318345D01*
X89531654Y-90442315D01*
X89686484Y-90537815D01*
X89733208Y-90589763D01*
X89744431Y-90658726D01*
X89716587Y-90722808D01*
X89709069Y-90731035D01*
X89569896Y-90870208D01*
X89549422Y-90898386D01*
X89494094Y-90941051D01*
X89449106Y-90949500D01*
X86882940Y-90949500D01*
X86815901Y-90929815D01*
X86795259Y-90913181D01*
X83176819Y-87294741D01*
X83143334Y-87233418D01*
X83140500Y-87207060D01*
X83140500Y-87168996D01*
X83140499Y-87168992D01*
X83125467Y-87093422D01*
X83101091Y-86970873D01*
X83101086Y-86970862D01*
X83099323Y-86965046D01*
X83100749Y-86964613D01*
X83094069Y-86902487D01*
X83125342Y-86840007D01*
X83185429Y-86804353D01*
X83216099Y-86800500D01*
X85268844Y-86800500D01*
X85268845Y-86800499D01*
X85423497Y-86769737D01*
X85569179Y-86709394D01*
X85700289Y-86621789D01*
X86485978Y-85836098D01*
X86547299Y-85802615D01*
X86583404Y-85800165D01*
X86587643Y-85800499D01*
X86587648Y-85800500D01*
X86587653Y-85800500D01*
X86792351Y-85800500D01*
X86792352Y-85800500D01*
X86994534Y-85768477D01*
X87189219Y-85705220D01*
X87371610Y-85612287D01*
X87464590Y-85544732D01*
X87537213Y-85491971D01*
X87537215Y-85491968D01*
X87537219Y-85491966D01*
X87681966Y-85347219D01*
X87681968Y-85347215D01*
X87681971Y-85347213D01*
X87791348Y-85196666D01*
X87802287Y-85181610D01*
X87895220Y-84999219D01*
X87958477Y-84804534D01*
X87990500Y-84602352D01*
X87990500Y-84397648D01*
X87987071Y-84376000D01*
X87958477Y-84195465D01*
X87895218Y-84000776D01*
X87817096Y-83847455D01*
X87802287Y-83818390D01*
X87760741Y-83761206D01*
X87681971Y-83652786D01*
X87537213Y-83508028D01*
X87371613Y-83387715D01*
X87371612Y-83387714D01*
X87371610Y-83387713D01*
X87300134Y-83351294D01*
X87189223Y-83294781D01*
X86994534Y-83231522D01*
X86819995Y-83203878D01*
X86792352Y-83199500D01*
X86587648Y-83199500D01*
X86563329Y-83203351D01*
X86385465Y-83231522D01*
X86190776Y-83294781D01*
X86008386Y-83387715D01*
X85842786Y-83508028D01*
X85698028Y-83652786D01*
X85577715Y-83818386D01*
X85484781Y-84000776D01*
X85421522Y-84195465D01*
X85389500Y-84397648D01*
X85389500Y-84602359D01*
X85389835Y-84606619D01*
X85375467Y-84674996D01*
X85353898Y-84704022D01*
X84894741Y-85163181D01*
X84833418Y-85196666D01*
X84807060Y-85199500D01*
X83264500Y-85199500D01*
X83197461Y-85179815D01*
X83151706Y-85127011D01*
X83140500Y-85075500D01*
X83140499Y-84157129D01*
X83140498Y-84157123D01*
X83140497Y-84157116D01*
X83134091Y-84097517D01*
X83089353Y-83977569D01*
X83083797Y-83962671D01*
X83083793Y-83962664D01*
X82997547Y-83847455D01*
X82997544Y-83847452D01*
X82882335Y-83761206D01*
X82882328Y-83761202D01*
X82747482Y-83710908D01*
X82747483Y-83710908D01*
X82687883Y-83704501D01*
X82687881Y-83704500D01*
X82687873Y-83704500D01*
X82687864Y-83704500D01*
X81092129Y-83704500D01*
X81092123Y-83704501D01*
X81032516Y-83710908D01*
X80897671Y-83761202D01*
X80897664Y-83761206D01*
X80782455Y-83847452D01*
X80782452Y-83847455D01*
X80696206Y-83962664D01*
X80696202Y-83962671D01*
X80645908Y-84097517D01*
X80641836Y-84135398D01*
X80639501Y-84157123D01*
X80639500Y-84157135D01*
X78300500Y-84157135D01*
X78300500Y-83081266D01*
X78300500Y-83081263D01*
X78300499Y-83081261D01*
X78284490Y-83000781D01*
X78269737Y-82926611D01*
X78269735Y-82926606D01*
X78209397Y-82780935D01*
X78209390Y-82780922D01*
X78121789Y-82649819D01*
X78121786Y-82649815D01*
X78036319Y-82564348D01*
X78002834Y-82503025D01*
X78000000Y-82476667D01*
X78000000Y-81500000D01*
X76967829Y-81500000D01*
X76920377Y-81490561D01*
X76772393Y-81429264D01*
X76772381Y-81429261D01*
X76617737Y-81398500D01*
X76617734Y-81398500D01*
X74192342Y-81398500D01*
X74034657Y-81398500D01*
X74034654Y-81398500D01*
X73880009Y-81429261D01*
X73879997Y-81429264D01*
X73837332Y-81446936D01*
X73837333Y-81446937D01*
X73732015Y-81490561D01*
X73684562Y-81500000D01*
X72649999Y-81500000D01*
X72618050Y-82138980D01*
X72613938Y-82150770D01*
X72614405Y-82163250D01*
X72602649Y-82183140D01*
X72595042Y-82204953D01*
X72584351Y-82214099D01*
X72578855Y-82223399D01*
X72555930Y-82238416D01*
X72549898Y-82243577D01*
X72541943Y-82247575D01*
X72539602Y-82248256D01*
X72534002Y-82251567D01*
X72530202Y-82253478D01*
X72499826Y-82259011D01*
X72469895Y-82266603D01*
X72465401Y-82265283D01*
X72461464Y-82266001D01*
X72445666Y-82259488D01*
X72417601Y-82251248D01*
X72417356Y-82251816D01*
X72412758Y-82249826D01*
X72411398Y-82249427D01*
X72410203Y-82248720D01*
X72410193Y-82248716D01*
X72252494Y-82202900D01*
X72252497Y-82202900D01*
X72250000Y-82202703D01*
X72250000Y-82468184D01*
X72232733Y-82531304D01*
X72198254Y-82589605D01*
X72198254Y-82589606D01*
X72152402Y-82747426D01*
X72152401Y-82747432D01*
X72149500Y-82784298D01*
X72149500Y-83238500D01*
X72129815Y-83305539D01*
X72077011Y-83351294D01*
X72025500Y-83362500D01*
X72000000Y-83362500D01*
X72000000Y-83488500D01*
X71980315Y-83555539D01*
X71927511Y-83601294D01*
X71876000Y-83612500D01*
X70250000Y-83612500D01*
X70250000Y-83940649D01*
X70252899Y-83977489D01*
X70252900Y-83977495D01*
X70298716Y-84135193D01*
X70298717Y-84135196D01*
X70382314Y-84276552D01*
X70382321Y-84276561D01*
X70394079Y-84288319D01*
X70427564Y-84349642D01*
X70422580Y-84419334D01*
X70380708Y-84475267D01*
X70315244Y-84499684D01*
X70306398Y-84500000D01*
X66124000Y-84500000D01*
X66056961Y-84480315D01*
X66011206Y-84427511D01*
X66000000Y-84376000D01*
X66000000Y-82784350D01*
X70250000Y-82784350D01*
X70250000Y-83112500D01*
X70800000Y-83112500D01*
X70800000Y-82202703D01*
X71300000Y-82202703D01*
X71300000Y-83112500D01*
X71750000Y-83112500D01*
X71750000Y-82202703D01*
X71747504Y-82202900D01*
X71589806Y-82248716D01*
X71589791Y-82248722D01*
X71588112Y-82249716D01*
X71586624Y-82250093D01*
X71582641Y-82251817D01*
X71582362Y-82251174D01*
X71520387Y-82266893D01*
X71467548Y-82251378D01*
X71467359Y-82251817D01*
X71463803Y-82250278D01*
X71461888Y-82249716D01*
X71460208Y-82248722D01*
X71460193Y-82248716D01*
X71302494Y-82202900D01*
X71302497Y-82202900D01*
X71300000Y-82202703D01*
X70800000Y-82202703D01*
X70797503Y-82202900D01*
X70639806Y-82248716D01*
X70639803Y-82248717D01*
X70498447Y-82332314D01*
X70498438Y-82332321D01*
X70382321Y-82448438D01*
X70382314Y-82448447D01*
X70298717Y-82589803D01*
X70298716Y-82589806D01*
X70252900Y-82747504D01*
X70252899Y-82747510D01*
X70250000Y-82784350D01*
X66000000Y-82784350D01*
X66000000Y-80129500D01*
X66019685Y-80062461D01*
X66072489Y-80016706D01*
X66124000Y-80005500D01*
X66872294Y-80005500D01*
X66939333Y-80025185D01*
X66985088Y-80077989D01*
X66995032Y-80147147D01*
X66972612Y-80202386D01*
X66888140Y-80318650D01*
X66795244Y-80500968D01*
X66732009Y-80695582D01*
X66700000Y-80897682D01*
X66700000Y-81102317D01*
X66732009Y-81304417D01*
X66795244Y-81499031D01*
X66888141Y-81681350D01*
X66888147Y-81681359D01*
X66920523Y-81725921D01*
X66920524Y-81725922D01*
X67600000Y-81046446D01*
X67600000Y-81052661D01*
X67627259Y-81154394D01*
X67679920Y-81245606D01*
X67754394Y-81320080D01*
X67845606Y-81372741D01*
X67947339Y-81400000D01*
X67953553Y-81400000D01*
X67274076Y-82079474D01*
X67318650Y-82111859D01*
X67500968Y-82204755D01*
X67695582Y-82267990D01*
X67897683Y-82300000D01*
X68102317Y-82300000D01*
X68304417Y-82267990D01*
X68499031Y-82204755D01*
X68681349Y-82111859D01*
X68725921Y-82079474D01*
X68046447Y-81400000D01*
X68052661Y-81400000D01*
X68154394Y-81372741D01*
X68245606Y-81320080D01*
X68320080Y-81245606D01*
X68372741Y-81154394D01*
X68400000Y-81052661D01*
X68400000Y-81046447D01*
X69079474Y-81725921D01*
X69111859Y-81681349D01*
X69204755Y-81499031D01*
X69267990Y-81304417D01*
X69300000Y-81102317D01*
X69300000Y-80897682D01*
X69267990Y-80695582D01*
X69204755Y-80500968D01*
X69111859Y-80318650D01*
X69027388Y-80202386D01*
X69003908Y-80136579D01*
X69019733Y-80068525D01*
X69069839Y-80019830D01*
X69122602Y-80006763D01*
X69122536Y-80005785D01*
X69126726Y-80005500D01*
X69126730Y-80005500D01*
X69262201Y-79987009D01*
X69277545Y-79982741D01*
X69326220Y-79969201D01*
X69326221Y-79969200D01*
X69326234Y-79969197D01*
X69451803Y-79915072D01*
X69451806Y-79915068D01*
X69453709Y-79914249D01*
X69523065Y-79905789D01*
X69554302Y-79915325D01*
X69663811Y-79965338D01*
X69730850Y-79985023D01*
X69730854Y-79985024D01*
X69873270Y-80005500D01*
X69873273Y-80005500D01*
X72126730Y-80005500D01*
X72262201Y-79987009D01*
X72277545Y-79982741D01*
X72326220Y-79969201D01*
X72326221Y-79969200D01*
X72326234Y-79969197D01*
X72451803Y-79915072D01*
X72451806Y-79915068D01*
X72453709Y-79914249D01*
X72523065Y-79905789D01*
X72554302Y-79915325D01*
X72663811Y-79965338D01*
X72730850Y-79985023D01*
X72730854Y-79985024D01*
X72873270Y-80005500D01*
X72873273Y-80005500D01*
X77125114Y-80005500D01*
X77260585Y-79987009D01*
X77275929Y-79982741D01*
X77324604Y-79969201D01*
X77324605Y-79969200D01*
X77324618Y-79969197D01*
X77450187Y-79915072D01*
X77450189Y-79915069D01*
X77453755Y-79913533D01*
X77523111Y-79905073D01*
X77554351Y-79914611D01*
X77665420Y-79965335D01*
X77665427Y-79965338D01*
X77732466Y-79985023D01*
X77732470Y-79985024D01*
X77874886Y-80005500D01*
X77874889Y-80005500D01*
X78375990Y-80005500D01*
X78376000Y-80005500D01*
X78483456Y-79993947D01*
X78534967Y-79982741D01*
X78575660Y-79969197D01*
X78637497Y-79948616D01*
X78637501Y-79948613D01*
X78637504Y-79948613D01*
X78758543Y-79870825D01*
X78811347Y-79825070D01*
X78902395Y-79719997D01*
X81699500Y-79719997D01*
X81699500Y-79924700D01*
X81731522Y-80126883D01*
X81794781Y-80321572D01*
X81887715Y-80503962D01*
X82008028Y-80669562D01*
X82152786Y-80814320D01*
X82285725Y-80910904D01*
X82318390Y-80934636D01*
X82434607Y-80993852D01*
X82500776Y-81027567D01*
X82500778Y-81027567D01*
X82500781Y-81027569D01*
X82605137Y-81061476D01*
X82695465Y-81090826D01*
X82768016Y-81102317D01*
X82897648Y-81122849D01*
X82897649Y-81122849D01*
X83102351Y-81122849D01*
X83102352Y-81122849D01*
X83304534Y-81090826D01*
X83499219Y-81027569D01*
X83681610Y-80934636D01*
X83774590Y-80867081D01*
X83847213Y-80814320D01*
X83847215Y-80814317D01*
X83847219Y-80814315D01*
X83991966Y-80669568D01*
X83991968Y-80669564D01*
X83991971Y-80669562D01*
X84044732Y-80596939D01*
X84112287Y-80503959D01*
X84205220Y-80321568D01*
X84268477Y-80126883D01*
X84300500Y-79924701D01*
X84300500Y-79719997D01*
X91199500Y-79719997D01*
X91199500Y-79924700D01*
X91231522Y-80126883D01*
X91294781Y-80321572D01*
X91387715Y-80503962D01*
X91508028Y-80669562D01*
X91652786Y-80814320D01*
X91785725Y-80910904D01*
X91818390Y-80934636D01*
X91934607Y-80993852D01*
X92000776Y-81027567D01*
X92000778Y-81027567D01*
X92000781Y-81027569D01*
X92105137Y-81061476D01*
X92195465Y-81090826D01*
X92268016Y-81102317D01*
X92397648Y-81122849D01*
X92397649Y-81122849D01*
X92602351Y-81122849D01*
X92602352Y-81122849D01*
X92804534Y-81090826D01*
X92999219Y-81027569D01*
X93181610Y-80934636D01*
X93274590Y-80867081D01*
X93347213Y-80814320D01*
X93347215Y-80814317D01*
X93347219Y-80814315D01*
X93491966Y-80669568D01*
X93491968Y-80669564D01*
X93491971Y-80669562D01*
X93544732Y-80596939D01*
X93612287Y-80503959D01*
X93705220Y-80321568D01*
X93768477Y-80126883D01*
X93800500Y-79924701D01*
X93800500Y-79719997D01*
X93768573Y-79518420D01*
X93768477Y-79517814D01*
X93739127Y-79427486D01*
X93705220Y-79323130D01*
X93705218Y-79323127D01*
X93705218Y-79323125D01*
X93671503Y-79256956D01*
X93612287Y-79140739D01*
X93600364Y-79124328D01*
X93491971Y-78975135D01*
X93347219Y-78830383D01*
X93290861Y-78789437D01*
X93248195Y-78734107D01*
X93242216Y-78664493D01*
X93274821Y-78602698D01*
X93324743Y-78571412D01*
X93369117Y-78556708D01*
X93369124Y-78556705D01*
X93518345Y-78464664D01*
X93642315Y-78340694D01*
X93734356Y-78191473D01*
X93734358Y-78191468D01*
X93789505Y-78025046D01*
X93789506Y-78025039D01*
X93799999Y-77922335D01*
X93800000Y-77922322D01*
X93800000Y-77572349D01*
X92815686Y-77572349D01*
X92820080Y-77567955D01*
X92872741Y-77476743D01*
X92900000Y-77375010D01*
X92900000Y-77269688D01*
X92872741Y-77167955D01*
X92820080Y-77076743D01*
X92815686Y-77072349D01*
X93799999Y-77072349D01*
X93799999Y-76722377D01*
X93799998Y-76722362D01*
X93789505Y-76619651D01*
X93734358Y-76453229D01*
X93734356Y-76453224D01*
X93642315Y-76304003D01*
X93518345Y-76180033D01*
X93369124Y-76087992D01*
X93369119Y-76087990D01*
X93202697Y-76032843D01*
X93202690Y-76032842D01*
X93099986Y-76022349D01*
X92750000Y-76022349D01*
X92750000Y-77006663D01*
X92745606Y-77002269D01*
X92654394Y-76949608D01*
X92552661Y-76922349D01*
X92447339Y-76922349D01*
X92345606Y-76949608D01*
X92254394Y-77002269D01*
X92250000Y-77006663D01*
X92250000Y-76022349D01*
X91900028Y-76022349D01*
X91900012Y-76022350D01*
X91797302Y-76032843D01*
X91630880Y-76087990D01*
X91630875Y-76087992D01*
X91481654Y-76180033D01*
X91357684Y-76304003D01*
X91265643Y-76453224D01*
X91265641Y-76453229D01*
X91210494Y-76619651D01*
X91210493Y-76619658D01*
X91200000Y-76722362D01*
X91200000Y-77072349D01*
X92184314Y-77072349D01*
X92179920Y-77076743D01*
X92127259Y-77167955D01*
X92100000Y-77269688D01*
X92100000Y-77375010D01*
X92127259Y-77476743D01*
X92179920Y-77567955D01*
X92184314Y-77572349D01*
X91200001Y-77572349D01*
X91200001Y-77922335D01*
X91210494Y-78025046D01*
X91265641Y-78191468D01*
X91265643Y-78191473D01*
X91357684Y-78340694D01*
X91481654Y-78464664D01*
X91630875Y-78556705D01*
X91630882Y-78556708D01*
X91675256Y-78571412D01*
X91732701Y-78611184D01*
X91759525Y-78675700D01*
X91747210Y-78744476D01*
X91709139Y-78789436D01*
X91652782Y-78830381D01*
X91508028Y-78975135D01*
X91387715Y-79140735D01*
X91294781Y-79323125D01*
X91231522Y-79517814D01*
X91199500Y-79719997D01*
X84300500Y-79719997D01*
X84268573Y-79518420D01*
X84268477Y-79517814D01*
X84239127Y-79427486D01*
X84205220Y-79323130D01*
X84205218Y-79323127D01*
X84205218Y-79323125D01*
X84171503Y-79256956D01*
X84112287Y-79140739D01*
X84100364Y-79124328D01*
X83991971Y-78975135D01*
X83847219Y-78830383D01*
X83790861Y-78789437D01*
X83748195Y-78734107D01*
X83742216Y-78664493D01*
X83774821Y-78602698D01*
X83824743Y-78571412D01*
X83869117Y-78556708D01*
X83869124Y-78556705D01*
X84018345Y-78464664D01*
X84142315Y-78340694D01*
X84234356Y-78191473D01*
X84234358Y-78191468D01*
X84289505Y-78025046D01*
X84289506Y-78025039D01*
X84299999Y-77922335D01*
X84300000Y-77922322D01*
X84300000Y-77572349D01*
X83315686Y-77572349D01*
X83320080Y-77567955D01*
X83372741Y-77476743D01*
X83400000Y-77375010D01*
X83400000Y-77269688D01*
X83372741Y-77167955D01*
X83320080Y-77076743D01*
X83315686Y-77072349D01*
X84299999Y-77072349D01*
X84299999Y-76722378D01*
X84299998Y-76722361D01*
X84289505Y-76619651D01*
X84234358Y-76453229D01*
X84234356Y-76453224D01*
X84142315Y-76304003D01*
X84018345Y-76180033D01*
X83869124Y-76087992D01*
X83869119Y-76087990D01*
X83702697Y-76032843D01*
X83702690Y-76032842D01*
X83599986Y-76022349D01*
X83250000Y-76022349D01*
X83250000Y-77006663D01*
X83245606Y-77002269D01*
X83154394Y-76949608D01*
X83052661Y-76922349D01*
X82947339Y-76922349D01*
X82845606Y-76949608D01*
X82754394Y-77002269D01*
X82750000Y-77006663D01*
X82750000Y-76022349D01*
X82400028Y-76022349D01*
X82400012Y-76022350D01*
X82297302Y-76032843D01*
X82130880Y-76087990D01*
X82130875Y-76087992D01*
X81981654Y-76180033D01*
X81857684Y-76304003D01*
X81765643Y-76453224D01*
X81765641Y-76453229D01*
X81710494Y-76619651D01*
X81710493Y-76619658D01*
X81700000Y-76722362D01*
X81700000Y-77072349D01*
X82684314Y-77072349D01*
X82679920Y-77076743D01*
X82627259Y-77167955D01*
X82600000Y-77269688D01*
X82600000Y-77375010D01*
X82627259Y-77476743D01*
X82679920Y-77567955D01*
X82684314Y-77572349D01*
X81700001Y-77572349D01*
X81700001Y-77922335D01*
X81710494Y-78025046D01*
X81765641Y-78191468D01*
X81765643Y-78191473D01*
X81857684Y-78340694D01*
X81981654Y-78464664D01*
X82130875Y-78556705D01*
X82130882Y-78556708D01*
X82175256Y-78571412D01*
X82232701Y-78611184D01*
X82259525Y-78675700D01*
X82247210Y-78744476D01*
X82209139Y-78789436D01*
X82152782Y-78830381D01*
X82008028Y-78975135D01*
X81887715Y-79140735D01*
X81794781Y-79323125D01*
X81731522Y-79517814D01*
X81699500Y-79719997D01*
X78902395Y-79719997D01*
X78905567Y-79716336D01*
X78965338Y-79585459D01*
X78985023Y-79518420D01*
X78985024Y-79518416D01*
X79005500Y-79376000D01*
X79005500Y-79124328D01*
X78990678Y-79002816D01*
X78976348Y-78944950D01*
X78932751Y-78830562D01*
X78932619Y-78830381D01*
X78870206Y-78744476D01*
X78848180Y-78714160D01*
X78848172Y-78714152D01*
X78848169Y-78714148D01*
X78799485Y-78664054D01*
X78750500Y-78626280D01*
X78709432Y-78569754D01*
X78705444Y-78499999D01*
X78708281Y-78489797D01*
X78768477Y-78304534D01*
X78800500Y-78102352D01*
X78800500Y-77897648D01*
X78768477Y-77695466D01*
X78708957Y-77512284D01*
X78706963Y-77442449D01*
X78743043Y-77382616D01*
X78755118Y-77373306D01*
X78755000Y-77373148D01*
X78758528Y-77370505D01*
X78758543Y-77370496D01*
X78811347Y-77324741D01*
X78905567Y-77216007D01*
X78965338Y-77085130D01*
X78985023Y-77018091D01*
X78985024Y-77018087D01*
X79005500Y-76875671D01*
X79005500Y-75124328D01*
X78990678Y-75002816D01*
X78976348Y-74944950D01*
X78932751Y-74830562D01*
X78848180Y-74714160D01*
X78848172Y-74714152D01*
X78848169Y-74714148D01*
X78799485Y-74664054D01*
X78750500Y-74626280D01*
X78709432Y-74569754D01*
X78705444Y-74499999D01*
X78708281Y-74489797D01*
X78768477Y-74304534D01*
X78800500Y-74102352D01*
X78800500Y-73897648D01*
X78776870Y-73748454D01*
X78768477Y-73695465D01*
X78747707Y-73631543D01*
X78708957Y-73512284D01*
X78706963Y-73442449D01*
X78743043Y-73382616D01*
X78755118Y-73373306D01*
X78755000Y-73373148D01*
X78758528Y-73370505D01*
X78758543Y-73370496D01*
X78811347Y-73324741D01*
X78905567Y-73216007D01*
X78965338Y-73085130D01*
X78985023Y-73018091D01*
X78985024Y-73018087D01*
X79005500Y-72875671D01*
X79005500Y-70719997D01*
X81699500Y-70719997D01*
X81699500Y-70924700D01*
X81731522Y-71126883D01*
X81794781Y-71321572D01*
X81858691Y-71447002D01*
X81880937Y-71490661D01*
X81887715Y-71503962D01*
X82008028Y-71669562D01*
X82152786Y-71814320D01*
X82307749Y-71926905D01*
X82318390Y-71934636D01*
X82434607Y-71993852D01*
X82500776Y-72027567D01*
X82500778Y-72027567D01*
X82500781Y-72027569D01*
X82605137Y-72061476D01*
X82695465Y-72090826D01*
X82796557Y-72106837D01*
X82897648Y-72122849D01*
X82897649Y-72122849D01*
X83102351Y-72122849D01*
X83102352Y-72122849D01*
X83304534Y-72090826D01*
X83499219Y-72027569D01*
X83681610Y-71934636D01*
X83774590Y-71867081D01*
X83847213Y-71814320D01*
X83847215Y-71814317D01*
X83847219Y-71814315D01*
X83991966Y-71669568D01*
X83991968Y-71669564D01*
X83991971Y-71669562D01*
X84044732Y-71596939D01*
X84112287Y-71503959D01*
X84205220Y-71321568D01*
X84268477Y-71126883D01*
X84300500Y-70924701D01*
X84300500Y-70719997D01*
X91199500Y-70719997D01*
X91199500Y-70924700D01*
X91231522Y-71126883D01*
X91294781Y-71321572D01*
X91358691Y-71447002D01*
X91380937Y-71490661D01*
X91387715Y-71503962D01*
X91508028Y-71669562D01*
X91652786Y-71814320D01*
X91807749Y-71926905D01*
X91818390Y-71934636D01*
X91934607Y-71993852D01*
X92000776Y-72027567D01*
X92000778Y-72027567D01*
X92000781Y-72027569D01*
X92105137Y-72061476D01*
X92195465Y-72090826D01*
X92296557Y-72106837D01*
X92397648Y-72122849D01*
X92397649Y-72122849D01*
X92602351Y-72122849D01*
X92602352Y-72122849D01*
X92804534Y-72090826D01*
X92999219Y-72027569D01*
X93181610Y-71934636D01*
X93274590Y-71867081D01*
X93347213Y-71814320D01*
X93347215Y-71814317D01*
X93347219Y-71814315D01*
X93491966Y-71669568D01*
X93491968Y-71669564D01*
X93491971Y-71669562D01*
X93544732Y-71596939D01*
X93612287Y-71503959D01*
X93705220Y-71321568D01*
X93768477Y-71126883D01*
X93800500Y-70924701D01*
X93800500Y-70719997D01*
X93768477Y-70517815D01*
X93705220Y-70323130D01*
X93705218Y-70323127D01*
X93705218Y-70323125D01*
X93671503Y-70256956D01*
X93612287Y-70140739D01*
X93604556Y-70130098D01*
X93491971Y-69975135D01*
X93347219Y-69830383D01*
X93290861Y-69789437D01*
X93248195Y-69734107D01*
X93242216Y-69664493D01*
X93274821Y-69602698D01*
X93324743Y-69571412D01*
X93369117Y-69556708D01*
X93369124Y-69556705D01*
X93518345Y-69464664D01*
X93642315Y-69340694D01*
X93734356Y-69191473D01*
X93734358Y-69191468D01*
X93789505Y-69025046D01*
X93789506Y-69025039D01*
X93799999Y-68922335D01*
X93800000Y-68922322D01*
X93800000Y-68572349D01*
X92815686Y-68572349D01*
X92820080Y-68567955D01*
X92872741Y-68476743D01*
X92900000Y-68375010D01*
X92900000Y-68269688D01*
X92872741Y-68167955D01*
X92820080Y-68076743D01*
X92815686Y-68072349D01*
X93799999Y-68072349D01*
X93799999Y-67722377D01*
X93799998Y-67722362D01*
X93789505Y-67619651D01*
X93734358Y-67453229D01*
X93734356Y-67453224D01*
X93642315Y-67304003D01*
X93518345Y-67180033D01*
X93369124Y-67087992D01*
X93369119Y-67087990D01*
X93202697Y-67032843D01*
X93202690Y-67032842D01*
X93099986Y-67022349D01*
X92750000Y-67022349D01*
X92750000Y-68006663D01*
X92745606Y-68002269D01*
X92654394Y-67949608D01*
X92552661Y-67922349D01*
X92447339Y-67922349D01*
X92345606Y-67949608D01*
X92254394Y-68002269D01*
X92250000Y-68006663D01*
X92250000Y-67022349D01*
X91900028Y-67022349D01*
X91900012Y-67022350D01*
X91797302Y-67032843D01*
X91630880Y-67087990D01*
X91630875Y-67087992D01*
X91481654Y-67180033D01*
X91357684Y-67304003D01*
X91265643Y-67453224D01*
X91265641Y-67453229D01*
X91210494Y-67619651D01*
X91210493Y-67619658D01*
X91200000Y-67722362D01*
X91200000Y-68072349D01*
X92184314Y-68072349D01*
X92179920Y-68076743D01*
X92127259Y-68167955D01*
X92100000Y-68269688D01*
X92100000Y-68375010D01*
X92127259Y-68476743D01*
X92179920Y-68567955D01*
X92184314Y-68572349D01*
X91200001Y-68572349D01*
X91200001Y-68922335D01*
X91210494Y-69025046D01*
X91265641Y-69191468D01*
X91265643Y-69191473D01*
X91357684Y-69340694D01*
X91481654Y-69464664D01*
X91630875Y-69556705D01*
X91630882Y-69556708D01*
X91675256Y-69571412D01*
X91732701Y-69611184D01*
X91759525Y-69675700D01*
X91747210Y-69744476D01*
X91709139Y-69789436D01*
X91652782Y-69830381D01*
X91508028Y-69975135D01*
X91387715Y-70140735D01*
X91294781Y-70323125D01*
X91231522Y-70517814D01*
X91199500Y-70719997D01*
X84300500Y-70719997D01*
X84268477Y-70517815D01*
X84205220Y-70323130D01*
X84205218Y-70323127D01*
X84205218Y-70323125D01*
X84171503Y-70256956D01*
X84112287Y-70140739D01*
X84104556Y-70130098D01*
X83991971Y-69975135D01*
X83847219Y-69830383D01*
X83790861Y-69789437D01*
X83748195Y-69734107D01*
X83742216Y-69664493D01*
X83774821Y-69602698D01*
X83824743Y-69571412D01*
X83869117Y-69556708D01*
X83869124Y-69556705D01*
X84018345Y-69464664D01*
X84142315Y-69340694D01*
X84234356Y-69191473D01*
X84234358Y-69191468D01*
X84289505Y-69025046D01*
X84289506Y-69025039D01*
X84299999Y-68922335D01*
X84300000Y-68922322D01*
X84300000Y-68572349D01*
X83315686Y-68572349D01*
X83320080Y-68567955D01*
X83372741Y-68476743D01*
X83400000Y-68375010D01*
X83400000Y-68269688D01*
X83372741Y-68167955D01*
X83320080Y-68076743D01*
X83315686Y-68072349D01*
X84299999Y-68072349D01*
X84299999Y-67722378D01*
X84299998Y-67722361D01*
X84289505Y-67619651D01*
X84234358Y-67453229D01*
X84234356Y-67453224D01*
X84142315Y-67304003D01*
X84018345Y-67180033D01*
X83869124Y-67087992D01*
X83869119Y-67087990D01*
X83702697Y-67032843D01*
X83702690Y-67032842D01*
X83599986Y-67022349D01*
X83250000Y-67022349D01*
X83250000Y-68006663D01*
X83245606Y-68002269D01*
X83154394Y-67949608D01*
X83052661Y-67922349D01*
X82947339Y-67922349D01*
X82845606Y-67949608D01*
X82754394Y-68002269D01*
X82750000Y-68006663D01*
X82750000Y-67022349D01*
X82400028Y-67022349D01*
X82400012Y-67022350D01*
X82297302Y-67032843D01*
X82130880Y-67087990D01*
X82130875Y-67087992D01*
X81981654Y-67180033D01*
X81857684Y-67304003D01*
X81765643Y-67453224D01*
X81765641Y-67453229D01*
X81710494Y-67619651D01*
X81710493Y-67619658D01*
X81700000Y-67722362D01*
X81700000Y-68072349D01*
X82684314Y-68072349D01*
X82679920Y-68076743D01*
X82627259Y-68167955D01*
X82600000Y-68269688D01*
X82600000Y-68375010D01*
X82627259Y-68476743D01*
X82679920Y-68567955D01*
X82684314Y-68572349D01*
X81700001Y-68572349D01*
X81700001Y-68922335D01*
X81710494Y-69025046D01*
X81765641Y-69191468D01*
X81765643Y-69191473D01*
X81857684Y-69340694D01*
X81981654Y-69464664D01*
X82130875Y-69556705D01*
X82130882Y-69556708D01*
X82175256Y-69571412D01*
X82232701Y-69611184D01*
X82259525Y-69675700D01*
X82247210Y-69744476D01*
X82209139Y-69789436D01*
X82152782Y-69830381D01*
X82008028Y-69975135D01*
X81887715Y-70140735D01*
X81794781Y-70323125D01*
X81731522Y-70517814D01*
X81699500Y-70719997D01*
X79005500Y-70719997D01*
X79005500Y-61952155D01*
X85200000Y-61952155D01*
X85200000Y-62750000D01*
X86266988Y-62750000D01*
X86234075Y-62807007D01*
X86200000Y-62934174D01*
X86200000Y-63065826D01*
X86234075Y-63192993D01*
X86266988Y-63250000D01*
X85200000Y-63250000D01*
X85200000Y-64047844D01*
X85206401Y-64107372D01*
X85206403Y-64107379D01*
X85256645Y-64242086D01*
X85256649Y-64242093D01*
X85342809Y-64357187D01*
X85342812Y-64357190D01*
X85457906Y-64443350D01*
X85457913Y-64443354D01*
X85592620Y-64493596D01*
X85592627Y-64493598D01*
X85652155Y-64499999D01*
X85652172Y-64500000D01*
X87450000Y-64500000D01*
X87450000Y-63500000D01*
X87950000Y-63500000D01*
X87950000Y-64500000D01*
X89747828Y-64500000D01*
X89747844Y-64499999D01*
X89807372Y-64493598D01*
X89807379Y-64493596D01*
X89942086Y-64443354D01*
X89942093Y-64443350D01*
X90057187Y-64357190D01*
X90057190Y-64357187D01*
X90143350Y-64242093D01*
X90143354Y-64242086D01*
X90193596Y-64107379D01*
X90193598Y-64107372D01*
X90199999Y-64047844D01*
X90200000Y-64047827D01*
X90200000Y-63250000D01*
X89133012Y-63250000D01*
X89165925Y-63192993D01*
X89200000Y-63065826D01*
X89200000Y-62934174D01*
X89165925Y-62807007D01*
X89133012Y-62750000D01*
X90200000Y-62750000D01*
X90200000Y-61952172D01*
X90199999Y-61952155D01*
X90193598Y-61892627D01*
X90193596Y-61892620D01*
X90143354Y-61757913D01*
X90143350Y-61757906D01*
X90057190Y-61642812D01*
X90057187Y-61642809D01*
X89942093Y-61556649D01*
X89942086Y-61556645D01*
X89807379Y-61506403D01*
X89807372Y-61506401D01*
X89747844Y-61500000D01*
X87950000Y-61500000D01*
X87950000Y-62500000D01*
X87450000Y-62500000D01*
X87450000Y-61500000D01*
X85652155Y-61500000D01*
X85592627Y-61506401D01*
X85592620Y-61506403D01*
X85457913Y-61556645D01*
X85457906Y-61556649D01*
X85342812Y-61642809D01*
X85342809Y-61642812D01*
X85256649Y-61757906D01*
X85256645Y-61757913D01*
X85206403Y-61892620D01*
X85206401Y-61892627D01*
X85200000Y-61952155D01*
X79005500Y-61952155D01*
X79005500Y-60624000D01*
X78993947Y-60516544D01*
X78982741Y-60465033D01*
X78982637Y-60464722D01*
X78948616Y-60362502D01*
X78948613Y-60362496D01*
X78870825Y-60241457D01*
X78870820Y-60241451D01*
X78825076Y-60188659D01*
X78825072Y-60188656D01*
X78825070Y-60188653D01*
X78716336Y-60094433D01*
X78716333Y-60094431D01*
X78716331Y-60094430D01*
X78585465Y-60034664D01*
X78585460Y-60034662D01*
X78585459Y-60034662D01*
X78518420Y-60014977D01*
X78518422Y-60014977D01*
X78518417Y-60014976D01*
X78456347Y-60006052D01*
X78376000Y-59994500D01*
X72624000Y-59994500D01*
X72623991Y-59994500D01*
X72623990Y-59994501D01*
X72516549Y-60006052D01*
X72516537Y-60006054D01*
X72465027Y-60017260D01*
X72362502Y-60051383D01*
X72362496Y-60051386D01*
X72241462Y-60129171D01*
X72241451Y-60129179D01*
X72188659Y-60174923D01*
X72094433Y-60283664D01*
X72094430Y-60283668D01*
X72034664Y-60414534D01*
X72014976Y-60481582D01*
X72009949Y-60516549D01*
X71994502Y-60623990D01*
X71994500Y-60624001D01*
X71994500Y-61076000D01*
X71974815Y-61143039D01*
X71922011Y-61188794D01*
X71870500Y-61200000D01*
X71784350Y-61200000D01*
X71747510Y-61202899D01*
X71747504Y-61202900D01*
X71589806Y-61248716D01*
X71589791Y-61248722D01*
X71588112Y-61249716D01*
X71586624Y-61250093D01*
X71582641Y-61251817D01*
X71582362Y-61251174D01*
X71520387Y-61266893D01*
X71467548Y-61251378D01*
X71467359Y-61251817D01*
X71463803Y-61250278D01*
X71461888Y-61249716D01*
X71460208Y-61248722D01*
X71460193Y-61248716D01*
X71302494Y-61202900D01*
X71302497Y-61202900D01*
X71300000Y-61202703D01*
X71300000Y-62112500D01*
X71876000Y-62112500D01*
X71943039Y-62132185D01*
X71988794Y-62184989D01*
X72000000Y-62236500D01*
X72000000Y-62488500D01*
X71980315Y-62555539D01*
X71927511Y-62601294D01*
X71876000Y-62612500D01*
X70250000Y-62612500D01*
X70250000Y-62870500D01*
X70230315Y-62937539D01*
X70177511Y-62983294D01*
X70126000Y-62994500D01*
X68374886Y-62994500D01*
X68239410Y-63012991D01*
X68175395Y-63030798D01*
X68175372Y-63030806D01*
X68046241Y-63086466D01*
X67976885Y-63094925D01*
X67945647Y-63085388D01*
X67834579Y-63034664D01*
X67834574Y-63034662D01*
X67834573Y-63034662D01*
X67767534Y-63014977D01*
X67767536Y-63014977D01*
X67767531Y-63014976D01*
X67680853Y-63002514D01*
X67625114Y-62994500D01*
X67625112Y-62994500D01*
X67129500Y-62994500D01*
X67062461Y-62974815D01*
X67016706Y-62922011D01*
X67005500Y-62870500D01*
X67005500Y-61784350D01*
X70250000Y-61784350D01*
X70250000Y-62112500D01*
X70800000Y-62112500D01*
X70800000Y-61202703D01*
X70797503Y-61202900D01*
X70639806Y-61248716D01*
X70639803Y-61248717D01*
X70498447Y-61332314D01*
X70498438Y-61332321D01*
X70382321Y-61448438D01*
X70382314Y-61448447D01*
X70298717Y-61589803D01*
X70298716Y-61589806D01*
X70252900Y-61747504D01*
X70252899Y-61747510D01*
X70250000Y-61784350D01*
X67005500Y-61784350D01*
X67005500Y-61127705D01*
X67025185Y-61060666D01*
X67077989Y-61014911D01*
X67147147Y-61004967D01*
X67202386Y-61027387D01*
X67318650Y-61111859D01*
X67500968Y-61204755D01*
X67695582Y-61267990D01*
X67897683Y-61300000D01*
X68102317Y-61300000D01*
X68304417Y-61267990D01*
X68499031Y-61204755D01*
X68681349Y-61111859D01*
X68725921Y-61079474D01*
X68046447Y-60400000D01*
X68052661Y-60400000D01*
X68154394Y-60372741D01*
X68245606Y-60320080D01*
X68320080Y-60245606D01*
X68372741Y-60154394D01*
X68400000Y-60052661D01*
X68400000Y-60046447D01*
X69079474Y-60725921D01*
X69111859Y-60681349D01*
X69204755Y-60499031D01*
X69267990Y-60304417D01*
X69300000Y-60102317D01*
X69300000Y-59897682D01*
X69267990Y-59695582D01*
X69258969Y-59667819D01*
X69256974Y-59597978D01*
X69293054Y-59538145D01*
X69355754Y-59507316D01*
X69376900Y-59505500D01*
X96370500Y-59505500D01*
X96437539Y-59525185D01*
G37*
G04 #@! TD.AperFunction*
G04 #@! TD*
G04 #@! TA.AperFunction,Conductor*
G04 #@! TO.N,GND*
G36*
X125943039Y-107019685D02*
G01*
X125988794Y-107072489D01*
X126000000Y-107124000D01*
X126000000Y-109876000D01*
X125980315Y-109943039D01*
X125927511Y-109988794D01*
X125876000Y-110000000D01*
X122124000Y-110000000D01*
X122056961Y-109980315D01*
X122011206Y-109927511D01*
X122000000Y-109876000D01*
X122000000Y-107124000D01*
X122019685Y-107056961D01*
X122072489Y-107011206D01*
X122124000Y-107000000D01*
X125876000Y-107000000D01*
X125943039Y-107019685D01*
G37*
G04 #@! TD.AperFunction*
G04 #@! TD*
G04 #@! TA.AperFunction,Conductor*
G04 #@! TO.N,+5V*
G36*
X68486296Y-90004472D02*
G01*
X68502164Y-90003963D01*
X68534723Y-90017587D01*
X68542000Y-90021940D01*
X68542454Y-90022546D01*
X68657669Y-90108796D01*
X68736080Y-90138041D01*
X68745795Y-90143853D01*
X68793220Y-90195162D01*
X68805378Y-90263965D01*
X68778407Y-90328420D01*
X68725471Y-90366448D01*
X68657912Y-90391646D01*
X68657906Y-90391649D01*
X68542812Y-90477809D01*
X68542809Y-90477812D01*
X68456649Y-90592906D01*
X68456645Y-90592913D01*
X68406403Y-90727620D01*
X68406401Y-90727627D01*
X68400000Y-90787155D01*
X68400000Y-91575000D01*
X73600000Y-91575000D01*
X73600000Y-90787172D01*
X73599999Y-90787155D01*
X73593598Y-90727627D01*
X73593596Y-90727620D01*
X73543354Y-90592913D01*
X73543350Y-90592906D01*
X73457190Y-90477812D01*
X73457187Y-90477809D01*
X73342093Y-90391649D01*
X73342086Y-90391645D01*
X73274529Y-90366448D01*
X73218595Y-90324576D01*
X73194178Y-90259112D01*
X73209030Y-90190839D01*
X73254205Y-90143853D01*
X73263920Y-90138041D01*
X73342331Y-90108796D01*
X73457546Y-90022546D01*
X73457998Y-90021941D01*
X73465278Y-90017587D01*
X73493127Y-90010371D01*
X73520088Y-90000316D01*
X73528935Y-90000000D01*
X74876000Y-90000000D01*
X74943039Y-90019685D01*
X74988794Y-90072489D01*
X75000000Y-90124000D01*
X75000000Y-91767219D01*
X74980315Y-91834258D01*
X74927511Y-91880013D01*
X74918810Y-91883538D01*
X74918814Y-91883546D01*
X74918275Y-91883755D01*
X74917523Y-91884060D01*
X74917137Y-91884197D01*
X74862494Y-91905415D01*
X74741462Y-91983198D01*
X74741451Y-91983207D01*
X74688659Y-92028951D01*
X74594433Y-92137692D01*
X74594430Y-92137696D01*
X74534664Y-92268562D01*
X74514976Y-92335610D01*
X74494500Y-92478029D01*
X74494500Y-100620500D01*
X74474815Y-100687539D01*
X74422011Y-100733294D01*
X74370500Y-100744500D01*
X69124000Y-100744500D01*
X69123991Y-100744500D01*
X69123990Y-100744501D01*
X69016549Y-100756052D01*
X69016537Y-100756054D01*
X68965027Y-100767260D01*
X68862502Y-100801383D01*
X68862496Y-100801386D01*
X68741462Y-100879171D01*
X68741451Y-100879179D01*
X68688659Y-100924923D01*
X68594433Y-101033664D01*
X68594430Y-101033668D01*
X68534664Y-101164534D01*
X68514976Y-101231582D01*
X68513409Y-101242484D01*
X68494500Y-101374000D01*
X68494500Y-104626000D01*
X68494501Y-104626009D01*
X68506052Y-104733450D01*
X68506054Y-104733462D01*
X68517260Y-104784972D01*
X68551383Y-104887497D01*
X68551386Y-104887503D01*
X68629171Y-105008537D01*
X68629179Y-105008548D01*
X68674923Y-105061340D01*
X68674926Y-105061343D01*
X68674930Y-105061347D01*
X68783664Y-105155567D01*
X68914541Y-105215338D01*
X68981580Y-105235023D01*
X68981584Y-105235024D01*
X69124000Y-105255500D01*
X72376000Y-105255500D01*
X72443039Y-105275185D01*
X72488794Y-105327989D01*
X72500000Y-105379500D01*
X72500000Y-118000000D01*
X72500000Y-122500000D01*
X94250000Y-122500000D01*
X94250000Y-122312584D01*
X94269685Y-122245545D01*
X94301115Y-122212266D01*
X94379788Y-122155107D01*
X94379788Y-122155106D01*
X94379792Y-122155104D01*
X94530104Y-122004792D01*
X94649991Y-121839779D01*
X94705320Y-121797115D01*
X94774933Y-121791136D01*
X94836729Y-121823741D01*
X94850627Y-121839781D01*
X94970272Y-122004459D01*
X94970276Y-122004464D01*
X95120535Y-122154723D01*
X95120540Y-122154727D01*
X95292442Y-122279620D01*
X95481782Y-122376095D01*
X95683871Y-122441757D01*
X95750000Y-122452231D01*
X95750000Y-121404145D01*
X95816657Y-121442630D01*
X95937465Y-121475000D01*
X96062535Y-121475000D01*
X96183343Y-121442630D01*
X96250000Y-121404145D01*
X96250000Y-122452230D01*
X96316126Y-122441757D01*
X96316129Y-122441757D01*
X96518217Y-122376095D01*
X96707557Y-122279620D01*
X96879459Y-122154727D01*
X96879464Y-122154723D01*
X97029721Y-122004466D01*
X97149371Y-121839781D01*
X97204701Y-121797115D01*
X97274314Y-121791136D01*
X97336110Y-121823741D01*
X97350008Y-121839781D01*
X97469890Y-122004785D01*
X97469894Y-122004790D01*
X97620211Y-122155107D01*
X97698885Y-122212266D01*
X97741551Y-122267595D01*
X97750000Y-122312584D01*
X97750000Y-122500000D01*
X110775501Y-122500000D01*
X110842540Y-122519685D01*
X110888295Y-122572489D01*
X110899501Y-122624000D01*
X110899501Y-122872876D01*
X110905908Y-122932483D01*
X110956202Y-123067328D01*
X110956206Y-123067335D01*
X111042452Y-123182544D01*
X111042455Y-123182547D01*
X111157664Y-123268793D01*
X111157671Y-123268797D01*
X111292517Y-123319091D01*
X111292516Y-123319091D01*
X111299444Y-123319835D01*
X111352127Y-123325500D01*
X113147872Y-123325499D01*
X113207483Y-123319091D01*
X113342331Y-123268796D01*
X113457546Y-123182546D01*
X113543796Y-123067331D01*
X113592810Y-122935916D01*
X113634681Y-122879984D01*
X113700145Y-122855566D01*
X113768418Y-122870417D01*
X113796673Y-122891569D01*
X113910213Y-123005109D01*
X114082179Y-123130048D01*
X114082181Y-123130049D01*
X114082184Y-123130051D01*
X114271588Y-123226557D01*
X114473757Y-123292246D01*
X114683713Y-123325500D01*
X114683714Y-123325500D01*
X114896286Y-123325500D01*
X114896287Y-123325500D01*
X115106243Y-123292246D01*
X115308412Y-123226557D01*
X115497816Y-123130051D01*
X115584138Y-123067335D01*
X115669786Y-123005109D01*
X115669788Y-123005106D01*
X115669792Y-123005104D01*
X115820104Y-122854792D01*
X115820106Y-122854788D01*
X115820109Y-122854786D01*
X115915196Y-122723908D01*
X115945051Y-122682816D01*
X116003703Y-122567705D01*
X116051678Y-122516909D01*
X116114188Y-122500000D01*
X138250000Y-122500000D01*
X138250000Y-122057670D01*
X138269685Y-121990631D01*
X138322489Y-121944876D01*
X138391647Y-121934932D01*
X138455203Y-121963957D01*
X138468289Y-121977137D01*
X138470279Y-121979467D01*
X138620535Y-122129723D01*
X138620540Y-122129727D01*
X138792442Y-122254620D01*
X138981782Y-122351095D01*
X139183871Y-122416757D01*
X139250000Y-122427231D01*
X139250000Y-121379145D01*
X139316657Y-121417630D01*
X139437465Y-121450000D01*
X139562535Y-121450000D01*
X139683343Y-121417630D01*
X139750000Y-121379145D01*
X139750000Y-122427230D01*
X139816126Y-122416757D01*
X139816129Y-122416757D01*
X140018217Y-122351095D01*
X140207557Y-122254620D01*
X140379459Y-122129727D01*
X140379464Y-122129723D01*
X140529723Y-121979464D01*
X140529727Y-121979459D01*
X140654620Y-121807557D01*
X140751095Y-121618217D01*
X140816757Y-121416130D01*
X140816757Y-121416127D01*
X140847030Y-121225000D01*
X139904146Y-121225000D01*
X139942630Y-121158343D01*
X139975000Y-121037535D01*
X139975000Y-120912465D01*
X139942630Y-120791657D01*
X139904146Y-120725000D01*
X140847030Y-120725000D01*
X140816757Y-120533872D01*
X140816757Y-120533869D01*
X140751095Y-120331782D01*
X140654620Y-120142442D01*
X140529727Y-119970540D01*
X140529723Y-119970535D01*
X140379464Y-119820276D01*
X140379459Y-119820272D01*
X140207557Y-119695379D01*
X140018215Y-119598903D01*
X139816124Y-119533241D01*
X139750000Y-119522768D01*
X139750000Y-120570854D01*
X139683343Y-120532370D01*
X139562535Y-120500000D01*
X139437465Y-120500000D01*
X139316657Y-120532370D01*
X139250000Y-120570854D01*
X139250000Y-119522768D01*
X139249999Y-119522768D01*
X139183875Y-119533241D01*
X138981784Y-119598903D01*
X138792442Y-119695379D01*
X138620540Y-119820272D01*
X138620535Y-119820276D01*
X138470274Y-119970537D01*
X138468282Y-119972870D01*
X138467303Y-119973508D01*
X138466833Y-119973979D01*
X138466734Y-119973880D01*
X138409772Y-120011057D01*
X138339904Y-120011549D01*
X138280861Y-119974189D01*
X138251389Y-119910840D01*
X138250000Y-119892329D01*
X138250000Y-119750000D01*
X138249999Y-119749998D01*
X138038426Y-119537580D01*
X138000000Y-119499000D01*
X137532401Y-119031518D01*
X134853831Y-116353617D01*
X134820338Y-116292298D01*
X134825314Y-116222606D01*
X134867178Y-116166667D01*
X134932639Y-116142242D01*
X134979822Y-116147995D01*
X135010580Y-116157989D01*
X135212683Y-116190000D01*
X135417317Y-116190000D01*
X135619417Y-116157990D01*
X135814031Y-116094755D01*
X135996349Y-116001859D01*
X136040921Y-115969474D01*
X135361447Y-115290000D01*
X135367661Y-115290000D01*
X135469394Y-115262741D01*
X135560606Y-115210080D01*
X135635080Y-115135606D01*
X135687741Y-115044394D01*
X135715000Y-114942661D01*
X135715000Y-114936447D01*
X136394474Y-115615921D01*
X136426859Y-115571349D01*
X136519755Y-115389031D01*
X136582990Y-115194417D01*
X136615000Y-114992317D01*
X136615000Y-114787682D01*
X136582990Y-114585582D01*
X136519755Y-114390968D01*
X136426859Y-114208650D01*
X136394474Y-114164077D01*
X136394474Y-114164076D01*
X135715000Y-114843551D01*
X135715000Y-114837339D01*
X135687741Y-114735606D01*
X135635080Y-114644394D01*
X135560606Y-114569920D01*
X135469394Y-114517259D01*
X135367661Y-114490000D01*
X135361446Y-114490000D01*
X136040922Y-113810524D01*
X136040921Y-113810523D01*
X135996359Y-113778147D01*
X135996350Y-113778141D01*
X135910670Y-113734485D01*
X135859874Y-113686510D01*
X135843079Y-113618689D01*
X135865616Y-113552555D01*
X135920331Y-113509103D01*
X135966965Y-113500000D01*
X137370500Y-113500000D01*
X137437539Y-113519685D01*
X137483294Y-113572489D01*
X137494500Y-113624000D01*
X137494500Y-115436729D01*
X137512991Y-115572205D01*
X137530798Y-115636220D01*
X137530803Y-115636234D01*
X137574331Y-115737219D01*
X137585750Y-115763709D01*
X137594210Y-115833064D01*
X137584672Y-115864304D01*
X137534664Y-115973803D01*
X137514976Y-116040851D01*
X137509087Y-116081811D01*
X137498065Y-116158477D01*
X137494500Y-116183270D01*
X137494500Y-116448640D01*
X137497397Y-116502688D01*
X137497397Y-116502689D01*
X137500229Y-116529022D01*
X137500232Y-116529049D01*
X137508885Y-116582445D01*
X137508885Y-116582447D01*
X137519349Y-116610500D01*
X137559168Y-116717257D01*
X137592653Y-116778580D01*
X137678877Y-116893761D01*
X137678881Y-116893765D01*
X137678886Y-116893771D01*
X137892894Y-117107778D01*
X138106239Y-117321123D01*
X138106255Y-117321137D01*
X138106262Y-117321144D01*
X138146480Y-117357271D01*
X138146492Y-117357281D01*
X138146500Y-117357288D01*
X138167142Y-117373922D01*
X138211026Y-117405567D01*
X138341903Y-117465338D01*
X138408942Y-117485023D01*
X138408946Y-117485024D01*
X138551362Y-117505500D01*
X138551365Y-117505500D01*
X138648628Y-117505500D01*
X138648633Y-117505500D01*
X138775394Y-117489348D01*
X138835597Y-117473753D01*
X138954260Y-117426329D01*
X139068823Y-117339284D01*
X139117874Y-117289527D01*
X139117881Y-117289521D01*
X139194260Y-117185950D01*
X139194711Y-117185356D01*
X139195120Y-117185053D01*
X139205832Y-117172601D01*
X139240996Y-117137437D01*
X139302317Y-117103954D01*
X139348068Y-117102647D01*
X139397648Y-117110500D01*
X139397651Y-117110500D01*
X139602351Y-117110500D01*
X139602352Y-117110500D01*
X139651923Y-117102648D01*
X139657348Y-117103349D01*
X139662475Y-117101437D01*
X139691626Y-117107778D01*
X139721215Y-117111602D01*
X139726819Y-117115434D01*
X139730748Y-117116289D01*
X139759002Y-117137440D01*
X139804732Y-117183170D01*
X139821365Y-117203810D01*
X139856541Y-117258543D01*
X139856544Y-117258546D01*
X139856550Y-117258555D01*
X139902289Y-117311340D01*
X139902292Y-117311343D01*
X139902296Y-117311347D01*
X140011030Y-117405567D01*
X140011033Y-117405568D01*
X140011034Y-117405569D01*
X140086263Y-117439926D01*
X140141907Y-117465338D01*
X140208946Y-117485023D01*
X140208950Y-117485024D01*
X140351366Y-117505500D01*
X140351369Y-117505500D01*
X142376000Y-117505500D01*
X142443039Y-117525185D01*
X142488794Y-117577989D01*
X142500000Y-117629500D01*
X142500000Y-124375500D01*
X142480315Y-124442539D01*
X142427511Y-124488294D01*
X142376000Y-124499500D01*
X67583622Y-124499500D01*
X67516583Y-124479815D01*
X67470828Y-124427011D01*
X67460884Y-124357853D01*
X67489909Y-124294297D01*
X67548687Y-124256523D01*
X67559431Y-124253883D01*
X67802902Y-124205454D01*
X67802913Y-124205451D01*
X67802913Y-124205450D01*
X67802923Y-124205449D01*
X68113246Y-124111314D01*
X68412847Y-123987215D01*
X68698842Y-123834347D01*
X68968476Y-123654183D01*
X69219153Y-123448458D01*
X69448458Y-123219153D01*
X69654183Y-122968476D01*
X69834347Y-122698842D01*
X69987215Y-122412847D01*
X70111314Y-122113246D01*
X70205449Y-121802923D01*
X70205451Y-121802913D01*
X70205454Y-121802902D01*
X70248201Y-121587993D01*
X70268714Y-121484868D01*
X70300500Y-121162143D01*
X70300500Y-120837857D01*
X70268714Y-120515132D01*
X70236570Y-120353532D01*
X70205454Y-120197097D01*
X70205451Y-120197086D01*
X70205450Y-120197083D01*
X70205449Y-120197077D01*
X70111314Y-119886754D01*
X69987215Y-119587153D01*
X69975473Y-119565186D01*
X69834353Y-119301169D01*
X69834352Y-119301167D01*
X69834347Y-119301158D01*
X69654183Y-119031524D01*
X69448458Y-118780847D01*
X69448457Y-118780846D01*
X69448453Y-118780841D01*
X69219158Y-118551546D01*
X68968481Y-118345821D01*
X68968480Y-118345820D01*
X68968476Y-118345817D01*
X68698842Y-118165653D01*
X68698837Y-118165650D01*
X68698830Y-118165646D01*
X68412854Y-118012788D01*
X68412849Y-118012786D01*
X68113247Y-117888686D01*
X67802913Y-117794548D01*
X67802902Y-117794545D01*
X67484874Y-117731287D01*
X67484857Y-117731284D01*
X67240812Y-117707248D01*
X67162143Y-117699500D01*
X66837857Y-117699500D01*
X66765099Y-117706666D01*
X66515142Y-117731284D01*
X66515125Y-117731287D01*
X66197097Y-117794545D01*
X66197086Y-117794548D01*
X65886752Y-117888686D01*
X65587150Y-118012786D01*
X65587145Y-118012788D01*
X65301169Y-118165646D01*
X65301151Y-118165657D01*
X65031532Y-118345811D01*
X65031518Y-118345821D01*
X64780841Y-118551546D01*
X64551546Y-118780841D01*
X64345821Y-119031518D01*
X64345811Y-119031532D01*
X64165657Y-119301151D01*
X64165646Y-119301169D01*
X64012788Y-119587145D01*
X64012786Y-119587150D01*
X63888686Y-119886752D01*
X63794548Y-120197086D01*
X63794545Y-120197097D01*
X63746117Y-120440569D01*
X63713732Y-120502480D01*
X63653017Y-120537054D01*
X63583247Y-120533315D01*
X63526575Y-120492449D01*
X63500994Y-120427431D01*
X63500500Y-120416378D01*
X63500500Y-100124691D01*
X63520185Y-100057652D01*
X63572989Y-100011897D01*
X63642147Y-100001953D01*
X63697385Y-100024373D01*
X63768091Y-100075743D01*
X63818390Y-100112287D01*
X63934607Y-100171503D01*
X64000776Y-100205218D01*
X64000778Y-100205218D01*
X64000781Y-100205220D01*
X64105137Y-100239127D01*
X64195465Y-100268477D01*
X64259467Y-100278614D01*
X64397648Y-100300500D01*
X64397649Y-100300500D01*
X64602351Y-100300500D01*
X64602352Y-100300500D01*
X64804534Y-100268477D01*
X64999219Y-100205220D01*
X65181610Y-100112287D01*
X65282637Y-100038887D01*
X65347213Y-99991971D01*
X65347215Y-99991968D01*
X65347219Y-99991966D01*
X65491966Y-99847219D01*
X65491968Y-99847215D01*
X65491971Y-99847213D01*
X65570129Y-99739636D01*
X65612287Y-99681610D01*
X65705220Y-99499219D01*
X65768477Y-99304534D01*
X65800500Y-99102352D01*
X65800500Y-98897682D01*
X68200000Y-98897682D01*
X68200000Y-99102317D01*
X68232009Y-99304417D01*
X68295244Y-99499031D01*
X68388141Y-99681350D01*
X68388147Y-99681359D01*
X68420523Y-99725921D01*
X68420524Y-99725922D01*
X69100000Y-99046446D01*
X69100000Y-99052661D01*
X69127259Y-99154394D01*
X69179920Y-99245606D01*
X69254394Y-99320080D01*
X69345606Y-99372741D01*
X69447339Y-99400000D01*
X69453553Y-99400000D01*
X68774076Y-100079474D01*
X68818650Y-100111859D01*
X69000968Y-100204755D01*
X69195582Y-100267990D01*
X69397683Y-100300000D01*
X69602317Y-100300000D01*
X69804417Y-100267990D01*
X69999031Y-100204755D01*
X70181349Y-100111859D01*
X70225921Y-100079474D01*
X69546447Y-99400000D01*
X69552661Y-99400000D01*
X69654394Y-99372741D01*
X69745606Y-99320080D01*
X69820080Y-99245606D01*
X69872741Y-99154394D01*
X69900000Y-99052661D01*
X69900000Y-99046447D01*
X70579474Y-99725921D01*
X70611859Y-99681349D01*
X70704755Y-99499031D01*
X70767990Y-99304417D01*
X70800000Y-99102317D01*
X70800000Y-98897682D01*
X71200000Y-98897682D01*
X71200000Y-99102317D01*
X71232009Y-99304417D01*
X71295244Y-99499031D01*
X71388141Y-99681350D01*
X71388147Y-99681359D01*
X71420523Y-99725921D01*
X71420524Y-99725922D01*
X72100000Y-99046446D01*
X72100000Y-99052661D01*
X72127259Y-99154394D01*
X72179920Y-99245606D01*
X72254394Y-99320080D01*
X72345606Y-99372741D01*
X72447339Y-99400000D01*
X72453553Y-99400000D01*
X71774076Y-100079474D01*
X71818650Y-100111859D01*
X72000968Y-100204755D01*
X72195582Y-100267990D01*
X72397683Y-100300000D01*
X72602317Y-100300000D01*
X72804417Y-100267990D01*
X72999031Y-100204755D01*
X73181349Y-100111859D01*
X73225921Y-100079474D01*
X72546447Y-99400000D01*
X72552661Y-99400000D01*
X72654394Y-99372741D01*
X72745606Y-99320080D01*
X72820080Y-99245606D01*
X72872741Y-99154394D01*
X72900000Y-99052661D01*
X72900000Y-99046447D01*
X73579474Y-99725921D01*
X73611859Y-99681349D01*
X73704755Y-99499031D01*
X73767990Y-99304417D01*
X73800000Y-99102317D01*
X73800000Y-98897682D01*
X73767990Y-98695582D01*
X73704755Y-98500968D01*
X73611859Y-98318650D01*
X73579474Y-98274077D01*
X73579474Y-98274076D01*
X72900000Y-98953551D01*
X72900000Y-98947339D01*
X72872741Y-98845606D01*
X72820080Y-98754394D01*
X72745606Y-98679920D01*
X72654394Y-98627259D01*
X72552661Y-98600000D01*
X72546446Y-98600000D01*
X73225922Y-97920524D01*
X73225921Y-97920523D01*
X73181359Y-97888147D01*
X73181350Y-97888141D01*
X72999031Y-97795244D01*
X72804417Y-97732009D01*
X72602317Y-97700000D01*
X72397683Y-97700000D01*
X72195582Y-97732009D01*
X72000968Y-97795244D01*
X71818644Y-97888143D01*
X71774077Y-97920523D01*
X71774077Y-97920524D01*
X72453554Y-98600000D01*
X72447339Y-98600000D01*
X72345606Y-98627259D01*
X72254394Y-98679920D01*
X72179920Y-98754394D01*
X72127259Y-98845606D01*
X72100000Y-98947339D01*
X72100000Y-98953553D01*
X71420524Y-98274077D01*
X71420523Y-98274077D01*
X71388143Y-98318644D01*
X71295244Y-98500968D01*
X71232009Y-98695582D01*
X71200000Y-98897682D01*
X70800000Y-98897682D01*
X70767990Y-98695582D01*
X70704755Y-98500968D01*
X70611859Y-98318650D01*
X70579474Y-98274077D01*
X70579474Y-98274076D01*
X69900000Y-98953551D01*
X69900000Y-98947339D01*
X69872741Y-98845606D01*
X69820080Y-98754394D01*
X69745606Y-98679920D01*
X69654394Y-98627259D01*
X69552661Y-98600000D01*
X69546446Y-98600000D01*
X70225922Y-97920524D01*
X70225921Y-97920523D01*
X70181359Y-97888147D01*
X70181350Y-97888141D01*
X69999031Y-97795244D01*
X69804417Y-97732009D01*
X69602317Y-97700000D01*
X69397683Y-97700000D01*
X69195582Y-97732009D01*
X69000968Y-97795244D01*
X68818644Y-97888143D01*
X68774077Y-97920523D01*
X68774077Y-97920524D01*
X69453554Y-98600000D01*
X69447339Y-98600000D01*
X69345606Y-98627259D01*
X69254394Y-98679920D01*
X69179920Y-98754394D01*
X69127259Y-98845606D01*
X69100000Y-98947339D01*
X69100000Y-98953553D01*
X68420524Y-98274077D01*
X68420523Y-98274077D01*
X68388143Y-98318644D01*
X68295244Y-98500968D01*
X68232009Y-98695582D01*
X68200000Y-98897682D01*
X65800500Y-98897682D01*
X65800500Y-98897648D01*
X65785474Y-98802781D01*
X65768477Y-98695465D01*
X65717220Y-98537713D01*
X65705220Y-98500781D01*
X65705218Y-98500778D01*
X65705218Y-98500776D01*
X65653869Y-98399999D01*
X65612287Y-98318390D01*
X65580092Y-98274077D01*
X65491971Y-98152786D01*
X65347213Y-98008028D01*
X65181613Y-97887715D01*
X65181612Y-97887714D01*
X65181610Y-97887713D01*
X65124653Y-97858691D01*
X64999223Y-97794781D01*
X64804534Y-97731522D01*
X64629995Y-97703878D01*
X64602352Y-97699500D01*
X64397648Y-97699500D01*
X64373329Y-97703351D01*
X64195465Y-97731522D01*
X64000776Y-97794781D01*
X63818390Y-97887712D01*
X63697385Y-97975627D01*
X63631578Y-97999106D01*
X63563524Y-97983280D01*
X63514830Y-97933174D01*
X63500500Y-97875308D01*
X63500500Y-96124691D01*
X63520185Y-96057652D01*
X63572989Y-96011897D01*
X63642147Y-96001953D01*
X63697385Y-96024373D01*
X63773226Y-96079474D01*
X63818390Y-96112287D01*
X63934607Y-96171503D01*
X64000776Y-96205218D01*
X64000778Y-96205218D01*
X64000781Y-96205220D01*
X64105137Y-96239127D01*
X64195465Y-96268477D01*
X64296557Y-96284488D01*
X64397648Y-96300500D01*
X64397649Y-96300500D01*
X64602351Y-96300500D01*
X64602352Y-96300500D01*
X64804534Y-96268477D01*
X64999219Y-96205220D01*
X65181610Y-96112287D01*
X65274590Y-96044732D01*
X65347213Y-95991971D01*
X65347215Y-95991968D01*
X65347219Y-95991966D01*
X65491966Y-95847219D01*
X65491968Y-95847215D01*
X65491971Y-95847213D01*
X65544732Y-95774590D01*
X65612287Y-95681610D01*
X65705220Y-95499219D01*
X65768477Y-95304534D01*
X65800500Y-95102352D01*
X65800500Y-94897682D01*
X68200000Y-94897682D01*
X68200000Y-95102317D01*
X68232009Y-95304417D01*
X68295244Y-95499031D01*
X68388141Y-95681350D01*
X68388147Y-95681359D01*
X68420523Y-95725921D01*
X68420524Y-95725922D01*
X69100000Y-95046446D01*
X69100000Y-95052661D01*
X69127259Y-95154394D01*
X69179920Y-95245606D01*
X69254394Y-95320080D01*
X69345606Y-95372741D01*
X69447339Y-95400000D01*
X69453553Y-95400000D01*
X68774076Y-96079474D01*
X68818650Y-96111859D01*
X69000968Y-96204755D01*
X69195582Y-96267990D01*
X69397683Y-96300000D01*
X69602317Y-96300000D01*
X69804417Y-96267990D01*
X69999031Y-96204755D01*
X70181349Y-96111859D01*
X70225921Y-96079474D01*
X69546447Y-95400000D01*
X69552661Y-95400000D01*
X69654394Y-95372741D01*
X69745606Y-95320080D01*
X69820080Y-95245606D01*
X69872741Y-95154394D01*
X69900000Y-95052661D01*
X69900000Y-95046447D01*
X70579474Y-95725921D01*
X70611859Y-95681349D01*
X70704755Y-95499031D01*
X70767990Y-95304417D01*
X70800000Y-95102317D01*
X70800000Y-94897682D01*
X71200000Y-94897682D01*
X71200000Y-95102317D01*
X71232009Y-95304417D01*
X71295244Y-95499031D01*
X71388141Y-95681350D01*
X71388147Y-95681359D01*
X71420523Y-95725921D01*
X71420524Y-95725922D01*
X72100000Y-95046446D01*
X72100000Y-95052661D01*
X72127259Y-95154394D01*
X72179920Y-95245606D01*
X72254394Y-95320080D01*
X72345606Y-95372741D01*
X72447339Y-95400000D01*
X72453553Y-95400000D01*
X71774076Y-96079474D01*
X71818650Y-96111859D01*
X72000968Y-96204755D01*
X72195582Y-96267990D01*
X72397683Y-96300000D01*
X72602317Y-96300000D01*
X72804417Y-96267990D01*
X72999031Y-96204755D01*
X73181349Y-96111859D01*
X73225921Y-96079474D01*
X72546447Y-95400000D01*
X72552661Y-95400000D01*
X72654394Y-95372741D01*
X72745606Y-95320080D01*
X72820080Y-95245606D01*
X72872741Y-95154394D01*
X72900000Y-95052661D01*
X72900000Y-95046447D01*
X73579474Y-95725921D01*
X73611859Y-95681349D01*
X73704755Y-95499031D01*
X73767990Y-95304417D01*
X73800000Y-95102317D01*
X73800000Y-94897682D01*
X73767990Y-94695582D01*
X73704755Y-94500968D01*
X73611859Y-94318650D01*
X73579474Y-94274077D01*
X73579474Y-94274076D01*
X72900000Y-94953551D01*
X72900000Y-94947339D01*
X72872741Y-94845606D01*
X72820080Y-94754394D01*
X72745606Y-94679920D01*
X72654394Y-94627259D01*
X72552661Y-94600000D01*
X72546446Y-94600000D01*
X73225922Y-93920524D01*
X73225921Y-93920523D01*
X73181359Y-93888147D01*
X73181350Y-93888141D01*
X72999031Y-93795244D01*
X72804417Y-93732009D01*
X72602317Y-93700000D01*
X72397683Y-93700000D01*
X72195582Y-93732009D01*
X72000968Y-93795244D01*
X71818644Y-93888143D01*
X71774077Y-93920523D01*
X71774077Y-93920524D01*
X72453554Y-94600000D01*
X72447339Y-94600000D01*
X72345606Y-94627259D01*
X72254394Y-94679920D01*
X72179920Y-94754394D01*
X72127259Y-94845606D01*
X72100000Y-94947339D01*
X72100000Y-94953553D01*
X71420524Y-94274077D01*
X71420523Y-94274077D01*
X71388143Y-94318644D01*
X71295244Y-94500968D01*
X71232009Y-94695582D01*
X71200000Y-94897682D01*
X70800000Y-94897682D01*
X70767990Y-94695582D01*
X70704755Y-94500968D01*
X70611859Y-94318650D01*
X70579474Y-94274077D01*
X70579474Y-94274076D01*
X69900000Y-94953551D01*
X69900000Y-94947339D01*
X69872741Y-94845606D01*
X69820080Y-94754394D01*
X69745606Y-94679920D01*
X69654394Y-94627259D01*
X69552661Y-94600000D01*
X69546446Y-94600000D01*
X70225922Y-93920524D01*
X70225921Y-93920523D01*
X70181359Y-93888147D01*
X70181350Y-93888141D01*
X69999031Y-93795244D01*
X69804417Y-93732009D01*
X69602317Y-93700000D01*
X69397683Y-93700000D01*
X69195582Y-93732009D01*
X69000968Y-93795244D01*
X68818644Y-93888143D01*
X68774077Y-93920523D01*
X68774077Y-93920524D01*
X69453554Y-94600000D01*
X69447339Y-94600000D01*
X69345606Y-94627259D01*
X69254394Y-94679920D01*
X69179920Y-94754394D01*
X69127259Y-94845606D01*
X69100000Y-94947339D01*
X69100000Y-94953553D01*
X68420524Y-94274077D01*
X68420523Y-94274077D01*
X68388143Y-94318644D01*
X68295244Y-94500968D01*
X68232009Y-94695582D01*
X68200000Y-94897682D01*
X65800500Y-94897682D01*
X65800500Y-94897648D01*
X65781074Y-94775000D01*
X65768477Y-94695465D01*
X65737458Y-94600000D01*
X65705220Y-94500781D01*
X65705218Y-94500778D01*
X65705218Y-94500776D01*
X65612419Y-94318650D01*
X65612287Y-94318390D01*
X65580092Y-94274077D01*
X65491971Y-94152786D01*
X65347213Y-94008028D01*
X65181613Y-93887715D01*
X65181612Y-93887714D01*
X65181610Y-93887713D01*
X65120092Y-93856368D01*
X64999223Y-93794781D01*
X64804534Y-93731522D01*
X64629995Y-93703878D01*
X64602352Y-93699500D01*
X64397648Y-93699500D01*
X64373329Y-93703351D01*
X64195465Y-93731522D01*
X64000776Y-93794781D01*
X63818390Y-93887712D01*
X63697385Y-93975627D01*
X63631578Y-93999106D01*
X63563524Y-93983280D01*
X63514830Y-93933174D01*
X63500500Y-93875308D01*
X63500500Y-92862844D01*
X68400000Y-92862844D01*
X68406401Y-92922372D01*
X68406403Y-92922379D01*
X68456645Y-93057086D01*
X68456649Y-93057093D01*
X68542809Y-93172187D01*
X68542812Y-93172190D01*
X68657906Y-93258350D01*
X68657913Y-93258354D01*
X68792620Y-93308596D01*
X68792627Y-93308598D01*
X68852155Y-93314999D01*
X68852172Y-93315000D01*
X70750000Y-93315000D01*
X71250000Y-93315000D01*
X73147828Y-93315000D01*
X73147844Y-93314999D01*
X73207372Y-93308598D01*
X73207379Y-93308596D01*
X73342086Y-93258354D01*
X73342093Y-93258350D01*
X73457187Y-93172190D01*
X73457190Y-93172187D01*
X73543350Y-93057093D01*
X73543354Y-93057086D01*
X73593596Y-92922379D01*
X73593598Y-92922372D01*
X73599999Y-92862844D01*
X73600000Y-92862827D01*
X73600000Y-92075000D01*
X71250000Y-92075000D01*
X71250000Y-93315000D01*
X70750000Y-93315000D01*
X70750000Y-92075000D01*
X68400000Y-92075000D01*
X68400000Y-92862844D01*
X63500500Y-92862844D01*
X63500500Y-90124000D01*
X63520185Y-90056961D01*
X63572989Y-90011206D01*
X63624500Y-90000000D01*
X68471065Y-90000000D01*
X68486296Y-90004472D01*
G37*
G04 #@! TD.AperFunction*
G04 #@! TD*
G04 #@! TA.AperFunction,Conductor*
G04 #@! TO.N,/+19V*
G36*
X105473871Y-108519685D02*
G01*
X105504681Y-108548784D01*
X105504868Y-108548625D01*
X105506352Y-108550363D01*
X105507152Y-108551118D01*
X105508034Y-108552332D01*
X105652781Y-108697079D01*
X105709138Y-108738024D01*
X105751804Y-108793354D01*
X105757783Y-108862967D01*
X105725178Y-108924762D01*
X105675258Y-108956048D01*
X105630886Y-108970751D01*
X105630875Y-108970756D01*
X105481654Y-109062797D01*
X105357684Y-109186767D01*
X105265643Y-109335988D01*
X105265641Y-109335993D01*
X105210494Y-109502415D01*
X105210493Y-109502422D01*
X105200000Y-109605126D01*
X105200000Y-109955113D01*
X106184314Y-109955113D01*
X106179920Y-109959507D01*
X106127259Y-110050719D01*
X106100000Y-110152452D01*
X106100000Y-110257774D01*
X106127259Y-110359507D01*
X106179920Y-110450719D01*
X106184314Y-110455113D01*
X105200001Y-110455113D01*
X105200001Y-110805099D01*
X105210494Y-110907810D01*
X105265641Y-111074232D01*
X105265643Y-111074237D01*
X105357684Y-111223458D01*
X105481654Y-111347428D01*
X105630875Y-111439469D01*
X105630880Y-111439471D01*
X105797302Y-111494618D01*
X105797309Y-111494619D01*
X105900019Y-111505112D01*
X106249999Y-111505112D01*
X106250000Y-111505111D01*
X106250000Y-110520799D01*
X106254394Y-110525193D01*
X106345606Y-110577854D01*
X106447339Y-110605113D01*
X106552661Y-110605113D01*
X106654394Y-110577854D01*
X106745606Y-110525193D01*
X106750000Y-110520799D01*
X106750000Y-111505112D01*
X107099972Y-111505112D01*
X107099986Y-111505111D01*
X107202697Y-111494618D01*
X107369119Y-111439471D01*
X107369124Y-111439469D01*
X107518345Y-111347428D01*
X107642315Y-111223458D01*
X107734356Y-111074237D01*
X107734358Y-111074232D01*
X107789505Y-110907810D01*
X107789506Y-110907803D01*
X107799999Y-110805099D01*
X107800000Y-110805086D01*
X107800000Y-110455113D01*
X106815686Y-110455113D01*
X106820080Y-110450719D01*
X106872741Y-110359507D01*
X106900000Y-110257774D01*
X106900000Y-110152452D01*
X106872741Y-110050719D01*
X106820080Y-109959507D01*
X106815686Y-109955113D01*
X107799999Y-109955113D01*
X107799999Y-109605141D01*
X107799998Y-109605126D01*
X107789505Y-109502415D01*
X107734358Y-109335993D01*
X107734356Y-109335988D01*
X107642315Y-109186767D01*
X107518345Y-109062797D01*
X107369124Y-108970756D01*
X107369121Y-108970755D01*
X107324741Y-108956049D01*
X107267297Y-108916276D01*
X107240474Y-108851760D01*
X107252789Y-108782984D01*
X107290861Y-108738025D01*
X107347219Y-108697079D01*
X107491966Y-108552332D01*
X107492846Y-108551119D01*
X107493299Y-108550770D01*
X107495132Y-108548625D01*
X107495582Y-108549009D01*
X107548172Y-108508452D01*
X107593168Y-108500000D01*
X111429341Y-108500000D01*
X111496380Y-108519685D01*
X111517022Y-108536319D01*
X111652781Y-108672078D01*
X111709138Y-108713023D01*
X111751804Y-108768353D01*
X111757783Y-108837966D01*
X111725178Y-108899761D01*
X111675258Y-108931047D01*
X111630886Y-108945750D01*
X111630875Y-108945755D01*
X111481654Y-109037796D01*
X111357684Y-109161766D01*
X111265643Y-109310987D01*
X111265641Y-109310992D01*
X111210494Y-109477414D01*
X111210493Y-109477421D01*
X111200000Y-109580125D01*
X111200000Y-109930112D01*
X112184314Y-109930112D01*
X112179920Y-109934506D01*
X112127259Y-110025718D01*
X112100000Y-110127451D01*
X112100000Y-110232773D01*
X112127259Y-110334506D01*
X112179920Y-110425718D01*
X112184314Y-110430112D01*
X111200001Y-110430112D01*
X111200001Y-110780098D01*
X111210494Y-110882809D01*
X111265641Y-111049231D01*
X111265643Y-111049236D01*
X111357684Y-111198457D01*
X111481654Y-111322427D01*
X111630875Y-111414468D01*
X111630880Y-111414470D01*
X111797302Y-111469617D01*
X111797309Y-111469618D01*
X111900019Y-111480111D01*
X112249999Y-111480111D01*
X112250000Y-111480110D01*
X112250000Y-110495798D01*
X112254394Y-110500192D01*
X112345606Y-110552853D01*
X112447339Y-110580112D01*
X112552661Y-110580112D01*
X112654394Y-110552853D01*
X112745606Y-110500192D01*
X112750000Y-110495798D01*
X112750000Y-111480111D01*
X113099972Y-111480111D01*
X113099986Y-111480110D01*
X113202697Y-111469617D01*
X113369119Y-111414470D01*
X113369124Y-111414468D01*
X113518345Y-111322427D01*
X113642315Y-111198457D01*
X113734356Y-111049236D01*
X113734358Y-111049231D01*
X113789505Y-110882809D01*
X113789506Y-110882802D01*
X113799999Y-110780098D01*
X113800000Y-110780085D01*
X113800000Y-110430112D01*
X112815686Y-110430112D01*
X112820080Y-110425718D01*
X112872741Y-110334506D01*
X112900000Y-110232773D01*
X112900000Y-110127451D01*
X112872741Y-110025718D01*
X112820080Y-109934506D01*
X112815686Y-109930112D01*
X113799999Y-109930112D01*
X113799999Y-109580140D01*
X113799998Y-109580125D01*
X113789505Y-109477414D01*
X113734358Y-109310992D01*
X113734356Y-109310987D01*
X113642315Y-109161766D01*
X113518345Y-109037796D01*
X113369124Y-108945755D01*
X113369121Y-108945754D01*
X113324741Y-108931048D01*
X113267297Y-108891275D01*
X113240474Y-108826759D01*
X113252789Y-108757983D01*
X113290861Y-108713024D01*
X113347219Y-108672078D01*
X113482978Y-108536319D01*
X113544301Y-108502834D01*
X113570659Y-108500000D01*
X117429341Y-108500000D01*
X117496380Y-108519685D01*
X117517022Y-108536319D01*
X117652781Y-108672078D01*
X117709138Y-108713023D01*
X117751804Y-108768353D01*
X117757783Y-108837966D01*
X117725178Y-108899761D01*
X117675258Y-108931047D01*
X117630886Y-108945750D01*
X117630875Y-108945755D01*
X117481654Y-109037796D01*
X117357684Y-109161766D01*
X117265643Y-109310987D01*
X117265641Y-109310992D01*
X117210494Y-109477414D01*
X117210493Y-109477421D01*
X117200000Y-109580125D01*
X117200000Y-109930112D01*
X118184314Y-109930112D01*
X118179920Y-109934506D01*
X118127259Y-110025718D01*
X118100000Y-110127451D01*
X118100000Y-110232773D01*
X118127259Y-110334506D01*
X118179920Y-110425718D01*
X118184314Y-110430112D01*
X117200001Y-110430112D01*
X117200001Y-110780098D01*
X117210494Y-110882809D01*
X117265641Y-111049231D01*
X117265643Y-111049236D01*
X117357684Y-111198457D01*
X117481654Y-111322427D01*
X117630875Y-111414468D01*
X117630880Y-111414470D01*
X117797302Y-111469617D01*
X117797309Y-111469618D01*
X117900019Y-111480111D01*
X118249999Y-111480111D01*
X118250000Y-111480110D01*
X118250000Y-110495798D01*
X118254394Y-110500192D01*
X118345606Y-110552853D01*
X118447339Y-110580112D01*
X118552661Y-110580112D01*
X118654394Y-110552853D01*
X118745606Y-110500192D01*
X118750000Y-110495798D01*
X118750000Y-111480111D01*
X119099972Y-111480111D01*
X119099986Y-111480110D01*
X119202697Y-111469617D01*
X119369119Y-111414470D01*
X119369124Y-111414468D01*
X119518345Y-111322427D01*
X119642315Y-111198457D01*
X119734356Y-111049236D01*
X119734358Y-111049231D01*
X119789505Y-110882809D01*
X119789506Y-110882802D01*
X119799999Y-110780098D01*
X119800000Y-110780085D01*
X119800000Y-110430112D01*
X118815686Y-110430112D01*
X118820080Y-110425718D01*
X118872741Y-110334506D01*
X118900000Y-110232773D01*
X118900000Y-110127451D01*
X118872741Y-110025718D01*
X118820080Y-109934506D01*
X118815686Y-109930112D01*
X119799999Y-109930112D01*
X119799999Y-109580140D01*
X119799998Y-109580125D01*
X119789505Y-109477414D01*
X119734358Y-109310992D01*
X119734356Y-109310987D01*
X119642315Y-109161766D01*
X119518345Y-109037796D01*
X119369124Y-108945755D01*
X119369121Y-108945754D01*
X119324741Y-108931048D01*
X119267297Y-108891275D01*
X119240474Y-108826759D01*
X119252789Y-108757983D01*
X119290861Y-108713024D01*
X119347219Y-108672078D01*
X119482978Y-108536319D01*
X119544301Y-108502834D01*
X119570659Y-108500000D01*
X120156500Y-108500000D01*
X120223539Y-108519685D01*
X120269294Y-108572489D01*
X120280500Y-108624000D01*
X120280500Y-112122346D01*
X120311261Y-112276989D01*
X120311264Y-112277001D01*
X120371602Y-112422672D01*
X120371609Y-112422685D01*
X120459210Y-112553788D01*
X120463076Y-112558499D01*
X120461857Y-112559499D01*
X120491662Y-112614063D01*
X120494500Y-112640440D01*
X120494500Y-119370500D01*
X120474815Y-119437539D01*
X120422011Y-119483294D01*
X120370500Y-119494500D01*
X113624000Y-119494500D01*
X113623991Y-119494500D01*
X113623990Y-119494501D01*
X113516549Y-119506052D01*
X113516537Y-119506054D01*
X113465027Y-119517260D01*
X113362502Y-119551383D01*
X113362496Y-119551386D01*
X113241462Y-119629171D01*
X113241451Y-119629179D01*
X113188659Y-119674923D01*
X113094433Y-119783664D01*
X113094430Y-119783668D01*
X113034664Y-119914534D01*
X113014976Y-119981582D01*
X112994500Y-120124001D01*
X112994500Y-120501000D01*
X112974815Y-120568039D01*
X112922011Y-120613794D01*
X112870500Y-120625000D01*
X112500000Y-120625000D01*
X112500000Y-121541988D01*
X112442993Y-121509075D01*
X112315826Y-121475000D01*
X112184174Y-121475000D01*
X112057007Y-121509075D01*
X112000000Y-121541988D01*
X112000000Y-120625000D01*
X111352155Y-120625000D01*
X111292627Y-120631401D01*
X111292620Y-120631403D01*
X111157913Y-120681645D01*
X111157906Y-120681649D01*
X111042812Y-120767809D01*
X111042809Y-120767812D01*
X110956649Y-120882906D01*
X110956645Y-120882913D01*
X110906403Y-121017620D01*
X110906401Y-121017627D01*
X110900000Y-121077155D01*
X110900000Y-121725000D01*
X111816988Y-121725000D01*
X111784075Y-121782007D01*
X111750000Y-121909174D01*
X111750000Y-122040826D01*
X111784075Y-122167993D01*
X111816988Y-122225000D01*
X111312281Y-122225000D01*
X111245242Y-122205315D01*
X111228017Y-122191437D01*
X111227917Y-122191553D01*
X111224681Y-122188749D01*
X111224614Y-122188695D01*
X111224583Y-122188664D01*
X111224573Y-122188655D01*
X111224571Y-122188653D01*
X111115837Y-122094433D01*
X111115834Y-122094431D01*
X111115832Y-122094430D01*
X110984966Y-122034664D01*
X110984961Y-122034662D01*
X110984960Y-122034662D01*
X110917921Y-122014977D01*
X110917923Y-122014977D01*
X110917918Y-122014976D01*
X110870445Y-122008150D01*
X110775501Y-121994500D01*
X110775499Y-121994500D01*
X102124000Y-121994500D01*
X102056961Y-121974815D01*
X102011206Y-121922011D01*
X102000000Y-121870500D01*
X102000000Y-114500000D01*
X95624000Y-114500000D01*
X95556961Y-114480315D01*
X95511206Y-114427511D01*
X95500000Y-114376000D01*
X95500000Y-113447811D01*
X95519685Y-113380772D01*
X95572489Y-113335017D01*
X95641647Y-113325073D01*
X95705203Y-113354098D01*
X95729539Y-113382715D01*
X95757682Y-113428343D01*
X95881654Y-113552315D01*
X96030875Y-113644356D01*
X96030880Y-113644358D01*
X96197302Y-113699505D01*
X96197309Y-113699506D01*
X96300019Y-113709999D01*
X96749999Y-113709999D01*
X96750000Y-113709998D01*
X96750000Y-112685277D01*
X96826306Y-112729333D01*
X96940756Y-112760000D01*
X97059244Y-112760000D01*
X97173694Y-112729333D01*
X97250000Y-112685277D01*
X97250000Y-113709999D01*
X97699972Y-113709999D01*
X97699986Y-113709998D01*
X97802697Y-113699505D01*
X97969119Y-113644358D01*
X97969124Y-113644356D01*
X98118345Y-113552315D01*
X98242315Y-113428345D01*
X98334354Y-113279126D01*
X98334358Y-113279119D01*
X98389505Y-113112697D01*
X98389506Y-113112690D01*
X98399999Y-113009986D01*
X98400000Y-113009973D01*
X98400000Y-112560000D01*
X97375278Y-112560000D01*
X97419333Y-112483694D01*
X97450000Y-112369244D01*
X97450000Y-112250756D01*
X97438458Y-112207682D01*
X99200000Y-112207682D01*
X99200000Y-112412317D01*
X99232009Y-112614417D01*
X99295244Y-112809031D01*
X99388141Y-112991350D01*
X99388147Y-112991359D01*
X99420523Y-113035921D01*
X99420524Y-113035922D01*
X100100000Y-112356446D01*
X100100000Y-112362661D01*
X100127259Y-112464394D01*
X100179920Y-112555606D01*
X100254394Y-112630080D01*
X100345606Y-112682741D01*
X100447339Y-112710000D01*
X100453553Y-112710000D01*
X99774076Y-113389474D01*
X99818650Y-113421859D01*
X100000968Y-113514755D01*
X100195582Y-113577990D01*
X100397683Y-113610000D01*
X100602317Y-113610000D01*
X100648022Y-113602761D01*
X105199500Y-113602761D01*
X105199500Y-113807464D01*
X105231522Y-114009647D01*
X105294781Y-114204336D01*
X105343711Y-114300364D01*
X105387712Y-114386722D01*
X105387715Y-114386726D01*
X105508028Y-114552326D01*
X105508033Y-114552331D01*
X105508034Y-114552332D01*
X105652781Y-114697079D01*
X105709138Y-114738024D01*
X105751804Y-114793354D01*
X105757783Y-114862967D01*
X105725178Y-114924762D01*
X105675258Y-114956048D01*
X105630886Y-114970751D01*
X105630875Y-114970756D01*
X105481654Y-115062797D01*
X105357684Y-115186767D01*
X105265643Y-115335988D01*
X105265641Y-115335993D01*
X105210494Y-115502415D01*
X105210493Y-115502422D01*
X105200000Y-115605126D01*
X105200000Y-115955113D01*
X106184314Y-115955113D01*
X106179920Y-115959507D01*
X106127259Y-116050719D01*
X106100000Y-116152452D01*
X106100000Y-116257774D01*
X106127259Y-116359507D01*
X106179920Y-116450719D01*
X106184314Y-116455113D01*
X105200001Y-116455113D01*
X105200001Y-116805099D01*
X105210494Y-116907810D01*
X105265641Y-117074232D01*
X105265643Y-117074237D01*
X105357684Y-117223458D01*
X105481654Y-117347428D01*
X105630875Y-117439469D01*
X105630880Y-117439471D01*
X105797302Y-117494618D01*
X105797309Y-117494619D01*
X105900019Y-117505112D01*
X106249999Y-117505112D01*
X106250000Y-117505111D01*
X106250000Y-116520799D01*
X106254394Y-116525193D01*
X106345606Y-116577854D01*
X106447339Y-116605113D01*
X106552661Y-116605113D01*
X106654394Y-116577854D01*
X106745606Y-116525193D01*
X106750000Y-116520799D01*
X106750000Y-117505112D01*
X107099972Y-117505112D01*
X107099986Y-117505111D01*
X107202697Y-117494618D01*
X107369119Y-117439471D01*
X107369124Y-117439469D01*
X107518345Y-117347428D01*
X107642315Y-117223458D01*
X107734356Y-117074237D01*
X107734358Y-117074232D01*
X107789505Y-116907810D01*
X107789506Y-116907803D01*
X107799999Y-116805099D01*
X107800000Y-116805086D01*
X107800000Y-116455113D01*
X106815686Y-116455113D01*
X106820080Y-116450719D01*
X106872741Y-116359507D01*
X106900000Y-116257774D01*
X106900000Y-116152452D01*
X106872741Y-116050719D01*
X106820080Y-115959507D01*
X106815686Y-115955113D01*
X107799999Y-115955113D01*
X107799999Y-115605141D01*
X107799998Y-115605126D01*
X107789505Y-115502415D01*
X107734358Y-115335993D01*
X107734356Y-115335988D01*
X107642315Y-115186767D01*
X107518345Y-115062797D01*
X107369124Y-114970756D01*
X107369121Y-114970755D01*
X107324741Y-114956049D01*
X107267297Y-114916276D01*
X107240474Y-114851760D01*
X107252789Y-114782984D01*
X107290861Y-114738025D01*
X107347219Y-114697079D01*
X107491966Y-114552332D01*
X107491968Y-114552328D01*
X107491971Y-114552326D01*
X107555821Y-114464442D01*
X107612287Y-114386723D01*
X107705220Y-114204332D01*
X107768477Y-114009647D01*
X107800500Y-113807465D01*
X107800500Y-113602761D01*
X107800500Y-113602760D01*
X110904612Y-113602760D01*
X110904612Y-113807463D01*
X110936634Y-114009646D01*
X110999893Y-114204335D01*
X111038451Y-114280008D01*
X111087820Y-114376900D01*
X111092827Y-114386725D01*
X111213140Y-114552325D01*
X111213146Y-114552331D01*
X111357893Y-114697078D01*
X111414250Y-114738023D01*
X111456916Y-114793353D01*
X111462895Y-114862966D01*
X111430290Y-114924761D01*
X111380370Y-114956047D01*
X111335998Y-114970750D01*
X111335987Y-114970755D01*
X111186766Y-115062796D01*
X111062796Y-115186766D01*
X110970755Y-115335987D01*
X110970753Y-115335992D01*
X110915606Y-115502414D01*
X110915605Y-115502421D01*
X110905112Y-115605125D01*
X110905112Y-115955112D01*
X111889426Y-115955112D01*
X111885032Y-115959506D01*
X111832371Y-116050718D01*
X111805112Y-116152451D01*
X111805112Y-116257773D01*
X111832371Y-116359506D01*
X111885032Y-116450718D01*
X111889426Y-116455112D01*
X110905113Y-116455112D01*
X110905113Y-116805098D01*
X110915606Y-116907809D01*
X110970753Y-117074231D01*
X110970755Y-117074236D01*
X111062796Y-117223457D01*
X111186766Y-117347427D01*
X111335987Y-117439468D01*
X111335992Y-117439470D01*
X111502414Y-117494617D01*
X111502421Y-117494618D01*
X111605131Y-117505111D01*
X111955111Y-117505111D01*
X111955112Y-117505110D01*
X111955112Y-116520798D01*
X111959506Y-116525192D01*
X112050718Y-116577853D01*
X112152451Y-116605112D01*
X112257773Y-116605112D01*
X112359506Y-116577853D01*
X112450718Y-116525192D01*
X112455112Y-116520798D01*
X112455112Y-117505111D01*
X112805084Y-117505111D01*
X112805098Y-117505110D01*
X112907809Y-117494617D01*
X113074231Y-117439470D01*
X113074236Y-117439468D01*
X113223457Y-117347427D01*
X113347427Y-117223457D01*
X113439468Y-117074236D01*
X113439470Y-117074231D01*
X113494617Y-116907809D01*
X113494618Y-116907802D01*
X113505111Y-116805098D01*
X113505112Y-116805085D01*
X113505112Y-116455112D01*
X112520798Y-116455112D01*
X112525192Y-116450718D01*
X112577853Y-116359506D01*
X112605112Y-116257773D01*
X112605112Y-116152451D01*
X112577853Y-116050718D01*
X112525192Y-115959506D01*
X112520798Y-115955112D01*
X113505111Y-115955112D01*
X113505111Y-115605140D01*
X113505110Y-115605125D01*
X113494617Y-115502414D01*
X113439470Y-115335992D01*
X113439468Y-115335987D01*
X113347427Y-115186766D01*
X113223457Y-115062796D01*
X113074236Y-114970755D01*
X113074233Y-114970754D01*
X113029853Y-114956048D01*
X112972409Y-114916275D01*
X112945586Y-114851759D01*
X112957901Y-114782983D01*
X112995973Y-114738024D01*
X113048320Y-114699992D01*
X113052327Y-114697081D01*
X113052327Y-114697080D01*
X113052331Y-114697078D01*
X113197078Y-114552331D01*
X113197082Y-114552326D01*
X113197083Y-114552325D01*
X113253708Y-114474386D01*
X113317399Y-114386722D01*
X113410332Y-114204331D01*
X113473589Y-114009646D01*
X113505612Y-113807464D01*
X113505612Y-113602760D01*
X117199500Y-113602760D01*
X117199500Y-113807463D01*
X117231522Y-114009646D01*
X117294781Y-114204335D01*
X117333339Y-114280008D01*
X117382708Y-114376900D01*
X117387715Y-114386725D01*
X117508028Y-114552325D01*
X117508034Y-114552331D01*
X117652781Y-114697078D01*
X117709138Y-114738023D01*
X117751804Y-114793353D01*
X117757783Y-114862966D01*
X117725178Y-114924761D01*
X117675258Y-114956047D01*
X117630886Y-114970750D01*
X117630875Y-114970755D01*
X117481654Y-115062796D01*
X117357684Y-115186766D01*
X117265643Y-115335987D01*
X117265641Y-115335992D01*
X117210494Y-115502414D01*
X117210493Y-115502421D01*
X117200000Y-115605125D01*
X117200000Y-115955112D01*
X118184314Y-115955112D01*
X118179920Y-115959506D01*
X118127259Y-116050718D01*
X118100000Y-116152451D01*
X118100000Y-116257773D01*
X118127259Y-116359506D01*
X118179920Y-116450718D01*
X118184314Y-116455112D01*
X117200001Y-116455112D01*
X117200001Y-116805098D01*
X117210494Y-116907809D01*
X117265641Y-117074231D01*
X117265643Y-117074236D01*
X117357684Y-117223457D01*
X117481654Y-117347427D01*
X117630875Y-117439468D01*
X117630880Y-117439470D01*
X117797302Y-117494617D01*
X117797309Y-117494618D01*
X117900019Y-117505111D01*
X118249999Y-117505111D01*
X118250000Y-117505110D01*
X118250000Y-116520798D01*
X118254394Y-116525192D01*
X118345606Y-116577853D01*
X118447339Y-116605112D01*
X118552661Y-116605112D01*
X118654394Y-116577853D01*
X118745606Y-116525192D01*
X118750000Y-116520798D01*
X118750000Y-117505111D01*
X119099972Y-117505111D01*
X119099986Y-117505110D01*
X119202697Y-117494617D01*
X119369119Y-117439470D01*
X119369124Y-117439468D01*
X119518345Y-117347427D01*
X119642315Y-117223457D01*
X119734356Y-117074236D01*
X119734358Y-117074231D01*
X119789505Y-116907809D01*
X119789506Y-116907802D01*
X119799999Y-116805098D01*
X119800000Y-116805085D01*
X119800000Y-116455112D01*
X118815686Y-116455112D01*
X118820080Y-116450718D01*
X118872741Y-116359506D01*
X118900000Y-116257773D01*
X118900000Y-116152451D01*
X118872741Y-116050718D01*
X118820080Y-115959506D01*
X118815686Y-115955112D01*
X119799999Y-115955112D01*
X119799999Y-115605140D01*
X119799998Y-115605125D01*
X119789505Y-115502414D01*
X119734358Y-115335992D01*
X119734356Y-115335987D01*
X119642315Y-115186766D01*
X119518345Y-115062796D01*
X119369124Y-114970755D01*
X119369121Y-114970754D01*
X119324741Y-114956048D01*
X119267297Y-114916275D01*
X119240474Y-114851759D01*
X119252789Y-114782983D01*
X119290861Y-114738024D01*
X119343208Y-114699992D01*
X119347215Y-114697081D01*
X119347215Y-114697080D01*
X119347219Y-114697078D01*
X119491966Y-114552331D01*
X119491970Y-114552326D01*
X119491971Y-114552325D01*
X119548596Y-114474386D01*
X119612287Y-114386722D01*
X119705220Y-114204331D01*
X119768477Y-114009646D01*
X119800500Y-113807464D01*
X119800500Y-113602760D01*
X119768477Y-113400578D01*
X119705220Y-113205893D01*
X119705218Y-113205889D01*
X119705218Y-113205888D01*
X119657734Y-113112697D01*
X119612287Y-113023502D01*
X119588934Y-112991359D01*
X119491971Y-112857898D01*
X119347213Y-112713140D01*
X119181613Y-112592827D01*
X119181612Y-112592826D01*
X119181610Y-112592825D01*
X119124653Y-112563803D01*
X118999223Y-112499893D01*
X118804534Y-112436634D01*
X118629995Y-112408990D01*
X118602352Y-112404612D01*
X118397648Y-112404612D01*
X118373329Y-112408463D01*
X118195465Y-112436634D01*
X118000776Y-112499893D01*
X117818386Y-112592827D01*
X117652786Y-112713140D01*
X117508028Y-112857898D01*
X117387715Y-113023498D01*
X117294781Y-113205888D01*
X117231522Y-113400577D01*
X117199500Y-113602760D01*
X113505612Y-113602760D01*
X113473589Y-113400578D01*
X113410332Y-113205893D01*
X113410330Y-113205889D01*
X113410330Y-113205888D01*
X113362846Y-113112697D01*
X113317399Y-113023502D01*
X113294046Y-112991359D01*
X113197083Y-112857898D01*
X113052325Y-112713140D01*
X112886725Y-112592827D01*
X112886724Y-112592826D01*
X112886722Y-112592825D01*
X112829765Y-112563803D01*
X112704335Y-112499893D01*
X112509646Y-112436634D01*
X112335107Y-112408990D01*
X112307464Y-112404612D01*
X112102760Y-112404612D01*
X112078441Y-112408463D01*
X111900577Y-112436634D01*
X111705888Y-112499893D01*
X111523498Y-112592827D01*
X111357898Y-112713140D01*
X111213140Y-112857898D01*
X111092827Y-113023498D01*
X110999893Y-113205888D01*
X110936634Y-113400577D01*
X110904612Y-113602760D01*
X107800500Y-113602760D01*
X107772875Y-113428345D01*
X107768477Y-113400578D01*
X107739127Y-113310250D01*
X107705220Y-113205894D01*
X107705218Y-113205891D01*
X107705218Y-113205889D01*
X107658014Y-113113247D01*
X107612287Y-113023503D01*
X107583221Y-112983497D01*
X107491971Y-112857899D01*
X107347213Y-112713141D01*
X107181613Y-112592828D01*
X107181612Y-112592827D01*
X107181610Y-112592826D01*
X107124653Y-112563804D01*
X106999223Y-112499894D01*
X106804534Y-112436635D01*
X106629995Y-112408991D01*
X106602352Y-112404613D01*
X106397648Y-112404613D01*
X106373329Y-112408464D01*
X106195465Y-112436635D01*
X106000776Y-112499894D01*
X105818386Y-112592828D01*
X105652786Y-112713141D01*
X105508028Y-112857899D01*
X105387715Y-113023499D01*
X105294781Y-113205889D01*
X105231522Y-113400578D01*
X105199500Y-113602761D01*
X100648022Y-113602761D01*
X100804417Y-113577990D01*
X100999033Y-113514754D01*
X101052709Y-113487405D01*
X101052711Y-113487404D01*
X101181349Y-113421859D01*
X101225921Y-113389474D01*
X100546447Y-112710000D01*
X100552661Y-112710000D01*
X100654394Y-112682741D01*
X100745606Y-112630080D01*
X100820080Y-112555606D01*
X100872741Y-112464394D01*
X100900000Y-112362661D01*
X100900000Y-112356448D01*
X101579474Y-113035922D01*
X101579474Y-113035921D01*
X101611859Y-112991349D01*
X101704755Y-112809031D01*
X101767990Y-112614417D01*
X101800000Y-112412317D01*
X101800000Y-112207682D01*
X101767990Y-112005582D01*
X101704755Y-111810968D01*
X101611859Y-111628650D01*
X101579474Y-111584077D01*
X101579474Y-111584076D01*
X100900000Y-112263551D01*
X100900000Y-112257339D01*
X100872741Y-112155606D01*
X100820080Y-112064394D01*
X100745606Y-111989920D01*
X100654394Y-111937259D01*
X100552661Y-111910000D01*
X100546446Y-111910000D01*
X101225922Y-111230524D01*
X101225921Y-111230523D01*
X101181359Y-111198147D01*
X101181350Y-111198141D01*
X100999031Y-111105244D01*
X100804417Y-111042009D01*
X100602317Y-111010000D01*
X100397683Y-111010000D01*
X100195582Y-111042009D01*
X100000968Y-111105244D01*
X99818644Y-111198143D01*
X99774077Y-111230523D01*
X99774077Y-111230524D01*
X100453554Y-111910000D01*
X100447339Y-111910000D01*
X100345606Y-111937259D01*
X100254394Y-111989920D01*
X100179920Y-112064394D01*
X100127259Y-112155606D01*
X100100000Y-112257339D01*
X100100000Y-112263553D01*
X99420524Y-111584077D01*
X99420523Y-111584077D01*
X99388143Y-111628644D01*
X99295244Y-111810968D01*
X99232009Y-112005582D01*
X99200000Y-112207682D01*
X97438458Y-112207682D01*
X97419333Y-112136306D01*
X97375278Y-112060000D01*
X98399999Y-112060000D01*
X98399999Y-111610028D01*
X98399998Y-111610013D01*
X98389505Y-111507302D01*
X98334358Y-111340880D01*
X98334357Y-111340878D01*
X98242315Y-111191654D01*
X98118345Y-111067684D01*
X97969124Y-110975643D01*
X97969119Y-110975641D01*
X97802697Y-110920494D01*
X97802690Y-110920493D01*
X97699986Y-110910000D01*
X97250000Y-110910000D01*
X97250000Y-111934722D01*
X97173694Y-111890667D01*
X97059244Y-111860000D01*
X96940756Y-111860000D01*
X96826306Y-111890667D01*
X96750000Y-111934722D01*
X96750000Y-110922764D01*
X96699772Y-110887191D01*
X96679766Y-110861885D01*
X96658646Y-110837511D01*
X96658234Y-110834648D01*
X96656441Y-110832380D01*
X96653292Y-110800279D01*
X96648702Y-110768353D01*
X96649903Y-110765722D01*
X96649621Y-110762844D01*
X96664329Y-110734132D01*
X96677727Y-110704797D01*
X96681354Y-110700901D01*
X96681478Y-110700660D01*
X96681698Y-110700532D01*
X96683759Y-110698319D01*
X96795259Y-110586819D01*
X96856582Y-110553334D01*
X96882940Y-110550500D01*
X99078844Y-110550500D01*
X99078845Y-110550499D01*
X99233497Y-110519737D01*
X99379179Y-110459394D01*
X99510289Y-110371789D01*
X99527011Y-110355067D01*
X99566009Y-110316070D01*
X100345759Y-109536319D01*
X100407082Y-109502834D01*
X100433440Y-109500000D01*
X102000000Y-109500000D01*
X102000000Y-108624000D01*
X102019685Y-108556961D01*
X102072489Y-108511206D01*
X102124000Y-108500000D01*
X105406832Y-108500000D01*
X105473871Y-108519685D01*
G37*
G04 #@! TD.AperFunction*
G04 #@! TD*
M02*
