G04 #@! TF.GenerationSoftware,KiCad,Pcbnew,9.0.7*
G04 #@! TF.CreationDate,2026-03-10T23:19:28-04:00*
G04 #@! TF.ProjectId,Capacitor-Clock-PCB,43617061-6369-4746-9f72-2d436c6f636b,rev?*
G04 #@! TF.SameCoordinates,Original*
G04 #@! TF.FileFunction,Soldermask,Top*
G04 #@! TF.FilePolarity,Negative*
%FSLAX46Y46*%
G04 Gerber Fmt 4.6, Leading zero omitted, Abs format (unit mm)*
G04 Created by KiCad (PCBNEW 9.0.7) date 2026-03-10 23:19:28*
%MOMM*%
%LPD*%
G01*
G04 APERTURE LIST*
G04 Aperture macros list*
%AMRoundRect*
0 Rectangle with rounded corners*
0 $1 Rounding radius*
0 $2 $3 $4 $5 $6 $7 $8 $9 X,Y pos of 4 corners*
0 Add a 4 corners polygon primitive as box body*
4,1,4,$2,$3,$4,$5,$6,$7,$8,$9,$2,$3,0*
0 Add four circle primitives for the rounded corners*
1,1,$1+$1,$2,$3*
1,1,$1+$1,$4,$5*
1,1,$1+$1,$6,$7*
1,1,$1+$1,$8,$9*
0 Add four rect primitives between the rounded corners*
20,1,$1+$1,$2,$3,$4,$5,0*
20,1,$1+$1,$4,$5,$6,$7,0*
20,1,$1+$1,$6,$7,$8,$9,0*
20,1,$1+$1,$8,$9,$2,$3,0*%
G04 Aperture macros list end*
%ADD10C,1.600000*%
%ADD11R,1.500000X1.050000*%
%ADD12O,1.500000X1.050000*%
%ADD13RoundRect,0.250000X-0.725000X0.600000X-0.725000X-0.600000X0.725000X-0.600000X0.725000X0.600000X0*%
%ADD14O,1.950000X1.700000*%
%ADD15RoundRect,0.250000X-0.750000X0.600000X-0.750000X-0.600000X0.750000X-0.600000X0.750000X0.600000X0*%
%ADD16O,2.000000X1.700000*%
%ADD17RoundRect,0.250000X0.750000X-0.600000X0.750000X0.600000X-0.750000X0.600000X-0.750000X-0.600000X0*%
%ADD18RoundRect,0.250000X-0.600000X-0.725000X0.600000X-0.725000X0.600000X0.725000X-0.600000X0.725000X0*%
%ADD19O,1.700000X1.950000*%
%ADD20O,2.000000X3.500000*%
%ADD21O,3.300000X2.000000*%
%ADD22R,4.000000X2.000000*%
%ADD23R,2.000000X2.000000*%
%ADD24C,2.000000*%
%ADD25C,3.000000*%
%ADD26R,2.410000X3.300000*%
%ADD27RoundRect,0.150000X-0.825000X-0.150000X0.825000X-0.150000X0.825000X0.150000X-0.825000X0.150000X0*%
%ADD28C,5.600000*%
%ADD29RoundRect,0.150000X-0.150000X0.512500X-0.150000X-0.512500X0.150000X-0.512500X0.150000X0.512500X0*%
%ADD30RoundRect,0.250000X0.550000X-0.550000X0.550000X0.550000X-0.550000X0.550000X-0.550000X-0.550000X0*%
%ADD31RoundRect,0.250000X-0.550000X0.550000X-0.550000X-0.550000X0.550000X-0.550000X0.550000X0.550000X0*%
%ADD32R,1.700000X1.700000*%
%ADD33C,1.700000*%
%ADD34RoundRect,0.250000X0.650000X-0.650000X0.650000X0.650000X-0.650000X0.650000X-0.650000X-0.650000X0*%
%ADD35C,1.800000*%
%ADD36C,2.600000*%
%ADD37RoundRect,0.102000X-2.100000X0.990000X-2.100000X-0.990000X2.100000X-0.990000X2.100000X0.990000X0*%
%ADD38RoundRect,0.250000X-0.550000X-0.550000X0.550000X-0.550000X0.550000X0.550000X-0.550000X0.550000X0*%
%ADD39RoundRect,0.250000X-1.425000X0.362500X-1.425000X-0.362500X1.425000X-0.362500X1.425000X0.362500X0*%
G04 APERTURE END LIST*
D10*
G04 #@! TO.C,R10*
X94310000Y-84500000D03*
X86690000Y-84500000D03*
G04 #@! TD*
D11*
G04 #@! TO.C,Q1*
X81890000Y-84730000D03*
D12*
X81890000Y-86000000D03*
X81890000Y-87270000D03*
G04 #@! TD*
D13*
G04 #@! TO.C,J10*
X82775000Y-92250000D03*
D14*
X82775000Y-94750000D03*
X82775000Y-97250000D03*
G04 #@! TD*
D15*
G04 #@! TO.C,J9*
X90750000Y-89250000D03*
D16*
X90750000Y-91750000D03*
G04 #@! TD*
D17*
G04 #@! TO.C,J4*
X144475000Y-113250000D03*
D16*
X144475000Y-110750000D03*
G04 #@! TD*
D17*
G04 #@! TO.C,J3*
X144475000Y-101750000D03*
D16*
X144475000Y-99250000D03*
G04 #@! TD*
D18*
G04 #@! TO.C,J1*
X91000000Y-121000000D03*
D19*
X93500000Y-121000000D03*
X96000000Y-121000000D03*
X98500000Y-121000000D03*
G04 #@! TD*
D10*
G04 #@! TO.C,C23*
X85500000Y-114500000D03*
X85500000Y-109500000D03*
G04 #@! TD*
D20*
G04 #@! TO.C,J2*
X83200000Y-56000000D03*
X92200000Y-56000000D03*
D21*
X87700000Y-57000000D03*
D22*
X87700000Y-63000000D03*
D10*
X87700000Y-54000000D03*
G04 #@! TD*
G04 #@! TO.C,R5*
X100500000Y-104690000D03*
X100500000Y-112310000D03*
G04 #@! TD*
G04 #@! TO.C,R6*
X81500000Y-115310000D03*
X81500000Y-107690000D03*
G04 #@! TD*
G04 #@! TO.C,R7*
X78000000Y-113810000D03*
X78000000Y-106190000D03*
G04 #@! TD*
G04 #@! TO.C,R8*
X89500000Y-113310000D03*
X89500000Y-105690000D03*
G04 #@! TD*
G04 #@! TO.C,R9*
X74500000Y-113810000D03*
X74500000Y-106190000D03*
G04 #@! TD*
D23*
G04 #@! TO.C,U2*
X99300000Y-60485000D03*
D24*
X99300000Y-63025000D03*
X99300000Y-65565000D03*
X99300000Y-68105000D03*
X99300000Y-70645000D03*
X99300000Y-73185000D03*
X99300000Y-75725000D03*
X99300000Y-78265000D03*
X99300000Y-80805000D03*
X99300000Y-83345000D03*
X99300000Y-85885000D03*
X99300000Y-88425000D03*
X99300000Y-90965000D03*
X99300000Y-93505000D03*
X99300000Y-96045000D03*
X124700000Y-60485000D03*
X124700000Y-63025000D03*
X124700000Y-65565000D03*
X124700000Y-68105000D03*
X124700000Y-70645000D03*
X124700000Y-73185000D03*
X124700000Y-75725000D03*
X124700000Y-78265000D03*
X124700000Y-80805000D03*
X124700000Y-83345000D03*
X124700000Y-85885000D03*
X124700000Y-88425000D03*
X124700000Y-90965000D03*
X124700000Y-93505000D03*
X124700000Y-96045000D03*
D25*
X124230000Y-99475000D03*
X124230000Y-52525000D03*
X99720000Y-99475000D03*
X99720000Y-52525000D03*
G04 #@! TD*
D26*
G04 #@! TO.C,U5*
X84100000Y-103675000D03*
D27*
X86575000Y-101770000D03*
X86575000Y-103040000D03*
X86575000Y-104310000D03*
X86575000Y-105580000D03*
X81625000Y-105580000D03*
X81625000Y-104310000D03*
X81625000Y-103040000D03*
X81625000Y-101770000D03*
G04 #@! TD*
D10*
G04 #@! TO.C,C14*
X64500000Y-74000000D03*
X69500000Y-74000000D03*
G04 #@! TD*
D28*
G04 #@! TO.C,H4*
X146000000Y-54000000D03*
G04 #@! TD*
D10*
G04 #@! TO.C,R1*
X139500000Y-104310000D03*
X139500000Y-96690000D03*
G04 #@! TD*
D29*
G04 #@! TO.C,U1*
X72950000Y-83362500D03*
X72000000Y-83362500D03*
X71050000Y-83362500D03*
X71050000Y-85637500D03*
X72000000Y-85637500D03*
X72950000Y-85637500D03*
G04 #@! TD*
D10*
G04 #@! TO.C,C10*
X64500000Y-99000000D03*
X69500000Y-99000000D03*
G04 #@! TD*
D30*
G04 #@! TO.C,C19*
X118500000Y-110180112D03*
D10*
X118500000Y-107680112D03*
G04 #@! TD*
D31*
G04 #@! TO.C,C4*
X92500000Y-77322349D03*
D10*
X92500000Y-79822349D03*
G04 #@! TD*
G04 #@! TO.C,C12*
X68000000Y-65000000D03*
X68000000Y-60000000D03*
G04 #@! TD*
D28*
G04 #@! TO.C,H3*
X67000000Y-54000000D03*
G04 #@! TD*
D18*
G04 #@! TO.C,J5*
X74000000Y-121000000D03*
D19*
X76500000Y-121000000D03*
X79000000Y-121000000D03*
X81500000Y-121000000D03*
X84000000Y-121000000D03*
G04 #@! TD*
D32*
G04 #@! TO.C,J7*
X134223116Y-58433963D03*
D33*
X136763116Y-58433963D03*
X139303116Y-58433963D03*
X141843116Y-58433963D03*
G04 #@! TD*
D10*
G04 #@! TO.C,C6*
X68000000Y-86000000D03*
X68000000Y-81000000D03*
G04 #@! TD*
D31*
G04 #@! TO.C,C3*
X83000000Y-77322349D03*
D10*
X83000000Y-79822349D03*
G04 #@! TD*
G04 #@! TO.C,C11*
X76000000Y-62500000D03*
X76000000Y-67500000D03*
G04 #@! TD*
D31*
G04 #@! TO.C,C1*
X83000000Y-68322349D03*
D10*
X83000000Y-70822349D03*
G04 #@! TD*
D30*
G04 #@! TO.C,C21*
X118500000Y-116205112D03*
D10*
X118500000Y-113705112D03*
G04 #@! TD*
D30*
G04 #@! TO.C,C17*
X106500000Y-110205113D03*
D10*
X106500000Y-107705113D03*
G04 #@! TD*
D31*
G04 #@! TO.C,C2*
X92500000Y-68322349D03*
D10*
X92500000Y-70822349D03*
G04 #@! TD*
D34*
G04 #@! TO.C,D1*
X97000000Y-112310000D03*
D35*
X97000000Y-104690000D03*
G04 #@! TD*
D36*
G04 #@! TO.C,L3*
X92500000Y-97000000D03*
X92500000Y-102000000D03*
G04 #@! TD*
D30*
G04 #@! TO.C,C18*
X112500000Y-110180112D03*
D10*
X112500000Y-107680112D03*
G04 #@! TD*
D30*
G04 #@! TO.C,C20*
X112205112Y-116205112D03*
D10*
X112205112Y-113705112D03*
G04 #@! TD*
D32*
G04 #@! TO.C,J8*
X112250000Y-121975000D03*
D33*
X114790000Y-121975000D03*
G04 #@! TD*
D37*
G04 #@! TO.C,L2*
X71000000Y-67675000D03*
X71000000Y-70825000D03*
G04 #@! TD*
D10*
G04 #@! TO.C,C16*
X64500000Y-78000000D03*
X69500000Y-78000000D03*
G04 #@! TD*
D38*
G04 #@! TO.C,U3*
X127695000Y-97110000D03*
D10*
X127695000Y-99650000D03*
X127695000Y-102190000D03*
X127695000Y-104730000D03*
X127695000Y-107270000D03*
X127695000Y-109810000D03*
X127695000Y-112350000D03*
X127695000Y-114890000D03*
X135315000Y-114890000D03*
X135315000Y-112350000D03*
X135315000Y-109810000D03*
X135315000Y-107270000D03*
X135315000Y-104730000D03*
X135315000Y-102190000D03*
X135315000Y-99650000D03*
X135315000Y-97110000D03*
G04 #@! TD*
G04 #@! TO.C,C5*
X76000000Y-83500000D03*
X76000000Y-88500000D03*
G04 #@! TD*
G04 #@! TO.C,C8*
X64500000Y-95000000D03*
X69500000Y-95000000D03*
G04 #@! TD*
G04 #@! TO.C,C13*
X77500000Y-74000000D03*
X72500000Y-74000000D03*
G04 #@! TD*
D37*
G04 #@! TO.C,L1*
X71000000Y-88675000D03*
X71000000Y-91825000D03*
G04 #@! TD*
D29*
G04 #@! TO.C,U4*
X72950000Y-62362500D03*
X72000000Y-62362500D03*
X71050000Y-62362500D03*
X71050000Y-64637500D03*
X72000000Y-64637500D03*
X72950000Y-64637500D03*
G04 #@! TD*
D28*
G04 #@! TO.C,H1*
X67000000Y-121000000D03*
G04 #@! TD*
D10*
G04 #@! TO.C,R2*
X139500000Y-115810000D03*
X139500000Y-108190000D03*
G04 #@! TD*
G04 #@! TO.C,C9*
X77500000Y-99000000D03*
X72500000Y-99000000D03*
G04 #@! TD*
D28*
G04 #@! TO.C,H2*
X146000000Y-121000000D03*
G04 #@! TD*
D18*
G04 #@! TO.C,J6*
X129500000Y-120975000D03*
D19*
X132000000Y-120975000D03*
X134500000Y-120975000D03*
X137000000Y-120975000D03*
X139500000Y-120975000D03*
G04 #@! TD*
D10*
G04 #@! TO.C,C7*
X77500000Y-95000000D03*
X72500000Y-95000000D03*
G04 #@! TD*
G04 #@! TO.C,C15*
X77500000Y-78000000D03*
X72500000Y-78000000D03*
G04 #@! TD*
G04 #@! TO.C,R4*
X70690000Y-103000000D03*
X78310000Y-103000000D03*
G04 #@! TD*
D39*
G04 #@! TO.C,R3*
X124000000Y-109037500D03*
X124000000Y-114962500D03*
G04 #@! TD*
D30*
G04 #@! TO.C,C24*
X106500000Y-116205113D03*
D10*
X106500000Y-113705113D03*
G04 #@! TD*
G04 #@! TO.C,C22*
X93000000Y-111000000D03*
X93000000Y-106000000D03*
G04 #@! TD*
M02*
